<svg width="70" height="70" viewBox="0 0 70 70" fill="none" xmlns="http://www.w3.org/2000/svg">
<g clip-path="url(#clip0_1472_16801)">
<path d="M42.4538 55.1025C35.0925 55.1025 28.1725 52.2353 22.9677 47.0319C12.2217 36.289 12.2217 18.8102 22.9677 8.06729C28.171 2.86246 35.0925 -0.00323486 42.4538 -0.00323486C49.8167 -0.00323486 56.7367 2.86399 61.9415 8.06729C72.686 18.8087 72.686 36.289 61.9415 47.0319C56.7367 52.2353 49.8152 55.1025 42.4538 55.1025ZM42.4538 3.01009C35.8976 3.01009 29.734 5.5638 25.0983 10.1979C15.5287 19.766 15.5287 35.3333 25.0983 44.9013C29.734 49.537 35.8976 52.0892 42.4538 52.0892C49.0116 52.0892 55.1737 49.5354 59.8093 44.9013C69.3789 35.3333 69.3789 19.766 59.8093 10.1979C55.1737 5.5638 49.0101 3.01009 42.4538 3.01009Z" fill="#656565"/>
<path d="M42.4529 49.6861C36.5388 49.6861 30.9794 47.3835 26.7973 43.2029C19.0144 35.4215 18.153 22.9513 24.7915 14.1959C25.2952 13.5323 26.2403 13.403 26.9023 13.9052C27.5658 14.4074 27.6952 15.3525 27.193 16.016C21.4585 23.5783 22.2043 34.3501 28.9279 41.0707C32.5409 44.6822 37.3439 46.6713 42.4529 46.6713C47.5633 46.6713 52.3664 44.6822 55.9778 41.0707C62.7015 34.3486 63.4472 23.5783 57.7127 16.016C57.209 15.3525 57.3399 14.4074 58.0034 13.9052C58.667 13.3999 59.6136 13.5323 60.1158 14.1959C66.7557 22.9513 65.8928 35.4215 58.11 43.2029C53.9263 47.382 48.3684 49.6861 42.4529 49.6861Z" fill="#656565"/>
<path d="M20.3213 42.9294L22.452 45.0601L18.9955 48.5166L16.8648 46.3859L20.3213 42.9294Z" fill="#656565"/>
<path d="M24.9209 47.5314L27.0516 49.6621L23.5951 53.1187L21.4644 50.9879L24.9209 47.5314Z" fill="#656565"/>
<path d="M6.60247 70.0032C4.83557 70.0032 3.1752 69.3153 1.92573 68.0674C-0.652328 65.4893 -0.652328 61.295 1.92573 58.7169L16.6225 44.0217L25.9745 53.3736L11.2777 68.0674C10.0297 69.3153 8.36937 70.0032 6.60247 70.0032ZM16.624 48.2829L4.05789 60.846C2.65471 62.2477 2.65471 64.532 4.05789 65.9352C5.41845 67.2942 7.78801 67.2942 9.14705 65.9352L21.7132 53.3736L16.624 48.2829Z" fill="#656565"/>
<path d="M42.7456 35.557C42.6345 35.557 42.5234 35.557 42.4123 35.554C33.6691 35.3911 27.5009 28.8516 27.2422 28.5731L26.291 27.5489L27.2422 26.5246C27.5009 26.2461 33.6691 19.7082 42.4123 19.5438C47.7906 19.4403 52.9163 21.7779 57.6235 26.4836L58.6888 27.5489L57.6235 28.6142C53.0152 33.2224 48.0113 35.557 42.7456 35.557ZM30.5538 27.5458C32.5307 29.2397 36.9913 32.4478 42.4945 32.5406C46.6583 32.6061 50.6015 30.9305 54.3712 27.5489C50.5924 24.1581 46.6659 22.4886 42.4701 22.5571C36.9533 22.6606 32.5201 25.855 30.5538 27.5458Z" fill="#656565"/>
<path d="M42.4529 34.0838C38.8491 34.0838 35.918 31.1527 35.918 27.5489C35.918 23.9466 38.8506 21.0139 42.4529 21.0139C46.0582 21.0139 48.9894 23.9451 48.9894 27.5489C48.9894 31.1527 46.0567 34.0838 42.4529 34.0838ZM42.4529 24.0288C40.511 24.0288 38.9328 25.6085 38.9328 27.5489C38.9328 29.4908 40.5125 31.0705 42.4529 31.0705C44.3964 31.0705 45.9745 29.4908 45.9745 27.5489C45.9745 25.6085 44.3948 24.0288 42.4529 24.0288Z" fill="#656565"/>
</g>
<defs>
<clipPath id="clip0_1472_16801">
<rect width="70" height="70" fill="white"/>
</clipPath>
</defs>
</svg>
