<svg width="206" height="200" viewBox="0 0 206 200" fill="none" xmlns="http://www.w3.org/2000/svg">
<path d="M37.0372 144.177C35.8626 144.177 34.674 143.949 33.5411 143.471C30.124 142.046 27.9187 138.717 27.9187 134.993V118.924H14.5611C7.02579 118.924 0.892578 112.749 0.892578 105.158V13.94C0.892578 6.34892 7.02579 0.178558 14.5611 0.178558H139.533C147.068 0.178558 153.202 6.35356 153.202 13.9446V105.163C153.202 112.754 147.073 118.929 139.547 118.929H65.8694L43.4722 141.484C41.7219 143.244 39.4004 144.177 37.0372 144.177ZM14.5611 9.35284C12.0494 9.35284 10.0065 11.4096 10.0065 13.94V105.158C10.0065 107.689 12.0494 109.745 14.5611 109.745H32.4733C34.9897 109.745 37.0279 111.797 37.0279 114.332V134.989L60.7622 111.087C61.6165 110.228 62.7772 109.741 63.9844 109.741H139.547C142.054 109.741 144.088 107.684 144.088 105.154V13.94C144.088 11.4096 142.045 9.35284 139.533 9.35284H14.5611Z" fill="#656565"/>
<path d="M182.967 199.821C180.599 199.821 178.282 198.888 176.532 197.129L154.13 174.569H80.4476C72.9169 174.569 66.793 168.394 66.793 160.803V131.934C66.793 129.399 68.8312 127.346 71.3476 127.346C73.864 127.346 75.9023 129.399 75.9023 131.934V160.803C75.9023 163.333 77.9405 165.39 80.443 165.39H156.01C157.222 165.39 158.378 165.873 159.232 166.736L182.967 190.643V169.982C182.967 167.447 185.005 165.395 187.521 165.395H205.429C207.94 165.395 209.983 163.338 209.983 160.808V69.58C209.983 67.0496 207.94 64.9928 205.429 64.9928H148.651C146.135 64.9928 144.097 62.9407 144.097 60.4057C144.097 57.8707 146.135 55.8186 148.651 55.8186H205.443C212.978 55.8186 219.111 61.9936 219.111 69.5846V160.803C219.111 168.394 212.978 174.569 205.443 174.569H192.085V190.643C192.085 194.366 189.88 197.695 186.463 199.12C185.33 199.589 184.141 199.821 182.967 199.821Z" fill="#656565"/>
<path d="M77.0443 76.7532C74.5278 76.7532 72.4896 74.701 72.4896 72.166V58.6878C72.4896 56.1528 74.5278 54.1007 77.0443 54.1007H91.5671V34.8885H62.5214V44.6385C62.5214 47.1735 60.4832 49.2257 57.9667 49.2257C55.4503 49.2257 53.4121 47.1735 53.4121 44.6385V30.3014C53.4121 27.7664 55.4503 25.7143 57.9667 25.7143H96.1218C98.6382 25.7143 100.676 27.7664 100.676 30.3014V58.6925C100.676 61.2275 98.6382 63.2796 96.1218 63.2796H81.5989V72.1707C81.6035 74.6964 79.5607 76.7532 77.0443 76.7532Z" fill="#656565"/>
<path d="M77.0493 93.3932C80.1956 93.3932 82.7461 90.826 82.7461 87.6593C82.7461 84.4925 80.1956 81.9253 77.0493 81.9253C73.9031 81.9253 71.3525 84.4925 71.3525 87.6593C71.3525 90.826 73.9031 93.3932 77.0493 93.3932Z" fill="#656565"/>
<path d="M189.179 93.6811H166.87C164.354 93.6811 162.315 91.6289 162.315 89.0939C162.315 86.5589 164.354 84.5068 166.87 84.5068H189.179C191.695 84.5068 193.734 86.5589 193.734 89.0939C193.734 91.6289 191.695 93.6811 189.179 93.6811Z" fill="#656565"/>
<path d="M189.179 118.544H166.87C164.354 118.544 162.315 116.491 162.315 113.956C162.315 111.421 164.354 109.369 166.87 109.369H189.179C191.695 109.369 193.734 111.421 193.734 113.956C193.734 116.491 191.695 118.544 189.179 118.544Z" fill="#656565"/>
<path d="M189.179 143.202H98.5322C96.0158 143.202 93.9775 141.15 93.9775 138.615C93.9775 136.08 96.0158 134.027 98.5322 134.027H189.179C191.696 134.027 193.734 136.08 193.734 138.615C193.734 141.15 191.696 143.202 189.179 143.202Z" fill="#656565"/>
</svg>
