<svg width="70" height="70" viewBox="0 0 70 70" fill="none" xmlns="http://www.w3.org/2000/svg">
<path d="M63.528 51.6584C62.7193 51.6584 62.0654 51.0061 62.0654 50.2018V22.4461C62.0654 21.6419 62.7193 20.9895 63.528 20.9895C64.3367 20.9895 64.9905 21.6419 64.9905 22.4461V50.2018C64.9905 51.0061 64.3367 51.6584 63.528 51.6584Z" fill="#656565"/>
<path d="M5.21353 51.6584C4.4063 51.6584 3.75098 51.0061 3.75098 50.2018V16.5125C3.75098 14.1027 5.71991 12.1412 8.13863 12.1412H46.9067C47.7154 12.1412 48.3692 12.7936 48.3692 13.5978C48.3692 14.4021 47.7154 15.0544 46.9067 15.0544H8.14012C7.33438 15.0544 6.67757 15.7083 6.67757 16.511V50.1989C6.67608 51.0061 6.02225 51.6584 5.21353 51.6584Z" fill="#656565"/>
<path d="M60.5157 66.2765H8.22722C3.69063 66.2765 0 62.5993 0 58.0805V57.2122C0 55.7571 1.18851 54.5716 2.65106 54.5716H66.0918C67.5529 54.5716 68.7429 55.7571 68.7429 57.2122V58.0805C68.7429 62.5993 65.0522 66.2765 60.5157 66.2765ZM2.9251 57.4863V58.0805C2.9251 60.9937 5.30361 63.3618 8.22722 63.3618H60.5157C63.4393 63.3618 65.8178 60.9922 65.8178 58.0805V57.4863H2.9251Z" fill="#656565"/>
<path d="M40.2216 61.8814H28.5211C27.7139 61.8814 27.0586 61.229 27.0586 60.4248C27.0586 59.6205 27.7139 58.9682 28.5211 58.9682H40.2216C41.0303 58.9682 41.6841 59.6205 41.6841 60.4248C41.6841 61.229 41.0303 61.8814 40.2216 61.8814Z" fill="#656565"/>
<path d="M30.5702 47.0906C28.2944 47.0906 26.05 46.2103 24.2538 44.9935C23.6819 44.6048 23.4168 43.9227 23.5776 43.254C23.74 42.5823 24.291 42.0923 24.9791 42.0074C26.7991 41.7869 27.4813 40.1635 27.727 39.2163C27.9519 38.345 28.284 37.5512 28.7144 36.8557C30.2485 34.3714 32.487 33.5419 35.0189 34.5323C36.3787 35.061 37.4614 36.0172 38.0691 37.2235C40.0738 41.2001 36.5827 44.4782 36.4323 44.6152C34.6481 46.392 32.5957 47.0906 30.5702 47.0906ZM28.1902 43.7574C29.9983 44.4008 32.3515 44.5616 34.4053 42.5138C34.5244 42.402 36.4651 40.5374 35.4523 38.5282C35.1708 37.9682 34.6376 37.5125 33.9525 37.2444C33.0961 36.9123 32.1712 36.8184 31.2032 38.3823C30.9261 38.8291 30.7102 39.3533 30.5583 39.9401C30.3244 40.8472 29.7004 42.5867 28.1902 43.7574Z" fill="#656565"/>
<path d="M41.0137 37.5304C40.8574 37.5304 40.7025 37.505 40.552 37.4544C40.1365 37.3174 39.8044 37.0016 39.648 36.595C39.1803 35.3842 38.2152 34.4235 37.0014 33.9589C36.5933 33.8025 36.2761 33.4718 36.1376 33.0593C35.9991 32.6453 36.0542 32.1925 36.2865 31.8231C43.9671 19.6521 60.0016 8.37614 66.5369 4.09423H66.5384C67.4335 3.50892 68.5833 3.62806 69.3399 4.38019C70.0965 5.13232 70.2156 6.28061 69.6288 7.17125C65.329 13.6842 54.0129 29.6531 41.7927 37.3069C41.5559 37.4544 41.2863 37.5304 41.0137 37.5304ZM39.6242 32.0674C40.3748 32.5842 41.0272 33.2336 41.5469 33.9827C51.2471 27.3848 60.2965 15.5623 65.1861 8.51912C58.1146 13.3908 46.2444 22.4059 39.6242 32.0674Z" fill="#656565"/>
<path d="M31.3869 31.914H14.5377C13.7305 31.914 13.0752 31.2616 13.0752 30.4574V22.0797C13.0752 21.2755 13.7305 20.6231 14.5377 20.6231H38.6996C39.5083 20.6231 40.1622 21.2755 40.1622 22.0797C40.1622 22.884 39.5083 23.5363 38.6996 23.5363H16.0003V29.0008H31.3869C32.1941 29.0008 32.8494 29.6531 32.8494 30.4574C32.8494 31.2616 32.1941 31.914 31.3869 31.914Z" fill="#656565"/>
<path d="M22.6579 40.2931H14.5856C13.7784 40.2931 13.123 39.6408 13.123 38.8365C13.123 38.0308 13.7784 37.3799 14.5856 37.3799H22.6579C23.4652 37.3799 24.1205 38.0323 24.1205 38.8365C24.1205 39.6408 23.4652 40.2931 22.6579 40.2931Z" fill="#656565"/>
<path d="M19.7309 48.6708H14.5836C13.7764 48.6708 13.1211 48.0184 13.1211 47.2142C13.1211 46.4084 13.7764 45.7576 14.5836 45.7576H19.7309C20.5381 45.7576 21.1934 46.4099 21.1934 47.2142C21.1949 48.0184 20.5396 48.6708 19.7309 48.6708Z" fill="#656565"/>
</svg>
