<svg width="70" height="58" viewBox="0 0 70 58" fill="none" xmlns="http://www.w3.org/2000/svg">
<path d="M1.39998 57.7294H15.147C15.9208 57.7294 16.547 57.1026 16.547 56.3294V42.5831C16.547 41.81 15.9208 41.1832 15.147 41.1832H9.67428V34.5563H33.5999V41.1832H28.127C27.3532 41.1832 26.727 41.81 26.727 42.5831V56.3294C26.727 57.1026 27.3532 57.7294 28.127 57.7294H41.8741C42.6479 57.7294 43.2741 57.1026 43.2741 56.3294V42.5831C43.2741 41.81 42.6479 41.1832 41.8741 41.1832H36.3999V34.5563H60.327V41.1832H54.8528C54.079 41.1832 53.4528 41.81 53.4528 42.5831V56.3294C53.4528 57.1026 54.079 57.7294 54.8528 57.7294H68.5999C69.3737 57.7294 69.9998 57.1026 69.9998 56.3294V42.5831C69.9998 41.81 69.3737 41.1832 68.5999 41.1832H63.1269V33.1563C63.1269 32.3832 62.5008 31.7563 61.727 31.7563H36.4001V23.2319H45.0817C45.8555 23.2319 46.4817 22.6051 46.4817 21.8319V1.67075C46.4817 0.897576 45.8555 0.270767 45.0817 0.270767H24.9197C24.1459 0.270767 23.5197 0.897734 23.5197 1.67075V21.8319C23.5197 22.6051 24.1459 23.2319 24.9197 23.2319H33.6001V31.7563H8.27429C7.50049 31.7563 6.87431 32.3833 6.87431 33.1563V41.1832H1.39998C0.62618 41.1832 0 41.81 0 42.5831V56.3294C0 57.1026 0.62618 57.7294 1.39998 57.7294ZM40.4742 54.9294H29.5272V43.9831H40.4742V54.9294ZM67.2 54.9294H56.2529V43.9831H67.2V54.9294ZM26.3197 3.07074H43.6817V20.432H26.3197V3.07074ZM2.79997 43.9831H13.747V54.9294H2.79997V43.9831Z" fill="#656565"/>
</svg>
