<svg width="312" height="157" viewBox="0 0 312 157" fill="none" xmlns="http://www.w3.org/2000/svg">
<path d="M33.159 155.952H33.7822L34.0264 155.379L48.8743 120.518H124.186L139.251 155.383L139.497 155.952H140.116H169.863H171.323L170.723 154.622L101.605 1.51273L101.354 0.957847H100.746H72.7486H72.139L71.8888 1.51375L2.98986 154.623L2.39151 155.952H3.84961H33.159ZM59.3043 96.3227L86.5316 32.723L113.967 96.3227H59.3043Z" stroke="#042956" stroke-width="1.88558"/>
<path d="M266.495 39.959C280.639 39.959 291.503 43.6044 299.085 50.8953C306.668 58.0404 310.459 68.6122 310.459 82.6107V155.009H299.96V134.668C296.315 141.375 290.992 146.625 283.993 150.416C276.994 154.061 268.609 155.884 258.839 155.884C246.153 155.884 236.092 152.895 228.655 146.916C221.364 140.938 217.719 133.064 217.719 123.294C217.719 113.816 221.073 106.16 227.78 100.328C234.634 94.3491 245.497 91.3598 260.37 91.3598H299.523V82.1733C299.523 71.5286 296.606 63.4357 290.774 57.8946C285.087 52.3535 276.702 49.583 265.62 49.583C258.037 49.583 250.747 50.8953 243.747 53.5201C236.894 56.1448 231.061 59.6444 226.249 64.0189L220.781 56.1448C226.468 51.0411 233.321 47.1041 241.341 44.3335C249.361 41.4172 257.746 39.959 266.495 39.959ZM260.37 146.916C269.849 146.916 277.869 144.729 284.43 140.355C291.138 135.98 296.169 129.637 299.523 121.325V99.8901H260.589C249.361 99.8901 241.195 101.932 236.092 106.014C231.134 110.097 228.655 115.711 228.655 122.856C228.655 130.293 231.426 136.199 236.967 140.573C242.508 144.802 250.309 146.916 260.37 146.916Z" fill="#82CDE5"/>
</svg>
