<svg width="373" height="407" viewBox="0 0 373 407" fill="none" xmlns="http://www.w3.org/2000/svg">
<g clip-path="url(#clip0_1484_16962)">
<path opacity="0.7" d="M20.4265 126.773C20.4265 126.773 -5.20255 192.925 30.8142 259.536C66.8309 326.148 141.015 361.337 200.391 391.427C259.766 421.517 321.421 406.862 350.718 357.579C380.014 308.296 339.833 273.116 339.778 202.838C339.723 132.561 350.304 113.956 312.2 54.5846C274.097 -4.78684 180.691 -17.9345 110.055 26.1025C39.4185 70.1395 20.4265 126.773 20.4265 126.773Z" fill="white"/>
<path d="M183.476 35.0238C4.78045 45.0201 -33.5804 281.964 26.2636 354.363C72.714 410.592 155.521 401.313 199.241 346.278C235.23 300.955 293.512 334.435 341.534 285.427C404.099 221.581 383.995 23.7871 183.476 35.0238Z" fill="#FD6C03"/>
<path opacity="0.7" d="M183.476 35.0238C4.78045 45.0201 -33.5804 281.964 26.2636 354.363C72.714 410.592 155.521 401.313 199.241 346.278C235.23 300.955 293.512 334.435 341.534 285.427C404.099 221.581 383.995 23.7871 183.476 35.0238Z" fill="white"/>
<path d="M333.039 75.4684V301.8C333.039 302.098 332.981 302.393 332.866 302.668C332.752 302.944 332.585 303.194 332.374 303.405C332.163 303.615 331.913 303.783 331.638 303.897C331.362 304.011 331.067 304.069 330.769 304.069H194.874C194.576 304.069 194.281 304.011 194.005 303.897C193.73 303.783 193.479 303.615 193.269 303.405C193.058 303.194 192.89 302.944 192.776 302.668C192.662 302.393 192.604 302.098 192.604 301.8V75.4684C192.606 74.8672 192.846 74.2914 193.271 73.8663C193.697 73.4413 194.273 73.2014 194.874 73.199H232.334L233.566 77.3702H292.104L293.336 73.199H330.796C331.393 73.2086 331.962 73.4516 332.381 73.8759C332.801 74.3002 333.037 74.8719 333.039 75.4684Z" fill="#FD6C03"/>
<path opacity="0.5" d="M333.039 95.0842V301.809C333.039 302.411 332.8 302.988 332.374 303.414C331.948 303.839 331.371 304.079 330.769 304.079H194.874C194.272 304.079 193.694 303.839 193.269 303.414C192.843 302.988 192.604 302.411 192.604 301.809V95.0842H333.039Z" fill="white"/>
<g opacity="0.2">
<path opacity="0.2" d="M309.231 116.097H192.393V166.887H309.231C309.962 166.887 310.664 166.596 311.181 166.079C311.698 165.562 311.989 164.861 311.989 164.13V118.816C311.979 118.092 311.684 117.4 311.168 116.891C310.652 116.382 309.956 116.097 309.231 116.097Z" fill="black"/>
<path opacity="0.2" d="M297.189 170.249H192.393V223.621H297.189C297.949 223.621 298.679 223.319 299.217 222.782C299.754 222.244 300.057 221.515 300.057 220.755V173.116C300.057 172.356 299.754 171.627 299.217 171.089C298.679 170.551 297.949 170.249 297.189 170.249Z" fill="black"/>
<path opacity="0.2" d="M309.231 222.574H192.393V273.364H309.231C309.962 273.364 310.664 273.073 311.181 272.556C311.698 272.04 311.989 271.338 311.989 270.607V225.303C311.981 224.576 311.688 223.882 311.171 223.371C310.655 222.86 309.958 222.574 309.231 222.574Z" fill="black"/>
<path opacity="0.2" d="M311.962 278.546V304.069H194.875C194.273 304.069 193.695 303.83 193.27 303.405C192.844 302.979 192.604 302.402 192.604 301.8V275.817H309.231C309.953 275.824 310.643 276.114 311.154 276.624C311.664 277.134 311.954 277.824 311.962 278.546Z" fill="black"/>
<path opacity="0.2" d="M322.928 119.184V132.203C322.927 132.743 322.784 133.274 322.513 133.742C322.242 134.21 321.852 134.598 321.383 134.867V304.069H318.331V134.895C317.863 134.625 317.473 134.237 317.202 133.77C316.931 133.302 316.788 132.771 316.787 132.23V119.184C316.787 118.365 317.113 117.58 317.692 117.001C318.271 116.422 319.057 116.097 319.876 116.097C320.695 116.097 321.481 116.422 322.06 117.001C322.639 117.58 322.965 118.365 322.965 119.184H322.928Z" fill="black"/>
</g>
<path d="M333.039 75.4684V301.8C333.039 302.098 332.981 302.393 332.866 302.668C332.752 302.944 332.585 303.194 332.374 303.405C332.163 303.615 331.913 303.783 331.638 303.897C331.362 304.011 331.067 304.069 330.769 304.069H194.874C194.576 304.069 194.281 304.011 194.005 303.897C193.73 303.783 193.479 303.615 193.269 303.405C193.058 303.194 192.89 302.944 192.776 302.668C192.662 302.393 192.604 302.098 192.604 301.8V75.4684C192.606 74.8672 192.846 74.2914 193.271 73.8663C193.697 73.4413 194.273 73.2014 194.874 73.199H232.334L233.566 77.3702H292.105L293.336 73.199H330.796C331.393 73.2086 331.962 73.4516 332.381 73.8759C332.801 74.3002 333.037 74.8719 333.039 75.4684V75.4684Z" stroke="#263238" stroke-linecap="round" stroke-linejoin="round"/>
<path d="M192.604 95.2681H333.067" stroke="#263238" stroke-linecap="round" stroke-linejoin="round"/>
<path d="M294.523 109.656H179.257C177.749 109.656 176.526 110.878 176.526 112.385V155.255C176.526 156.762 177.749 157.984 179.257 157.984H294.523C296.031 157.984 297.253 156.762 297.253 155.255V112.385C297.253 110.878 296.031 109.656 294.523 109.656Z" fill="white"/>
<path d="M221.653 115.288H182.392V152.352H221.653V115.288Z" fill="white" stroke="#263238" stroke-linecap="round" stroke-linejoin="round"/>
<path d="M265.309 118.55H230.175C229.743 118.55 229.33 118.379 229.024 118.074C228.719 117.769 228.548 117.355 228.548 116.924C228.548 116.491 228.719 116.077 229.024 115.77C229.329 115.464 229.743 115.291 230.175 115.288H265.309C265.742 115.291 266.155 115.464 266.46 115.77C266.765 116.077 266.936 116.491 266.936 116.924C266.936 117.137 266.894 117.349 266.812 117.546C266.731 117.743 266.611 117.923 266.46 118.074C266.309 118.225 266.129 118.344 265.932 118.426C265.734 118.508 265.523 118.55 265.309 118.55Z" fill="#263238"/>
<path d="M244.635 125.771H230.175C229.743 125.771 229.33 125.6 229.024 125.295C228.719 124.99 228.548 124.576 228.548 124.145C228.548 123.713 228.719 123.298 229.024 122.992C229.329 122.686 229.743 122.512 230.175 122.51H244.635C245.067 122.512 245.481 122.686 245.786 122.992C246.091 123.298 246.262 123.713 246.262 124.145C246.262 124.359 246.22 124.57 246.138 124.768C246.056 124.965 245.937 125.144 245.785 125.295C245.634 125.446 245.455 125.566 245.258 125.648C245.06 125.729 244.849 125.771 244.635 125.771Z" fill="#263238"/>
<path d="M274.842 143.844C274.233 143.64 273.573 143.649 272.97 143.869C272.367 144.09 271.857 144.508 271.523 145.057C271.199 144.504 270.697 144.078 270.099 143.848C269.502 143.618 268.843 143.597 268.232 143.789C266.32 144.368 265.64 146.784 267.23 149.017C268.294 150.359 269.64 151.451 271.174 152.214L271.477 152.361L271.781 152.214C273.322 151.476 274.682 150.406 275.761 149.081C277.388 146.903 276.735 144.441 274.842 143.844Z" fill="#FD6C03" stroke="#263238" stroke-linecap="round" stroke-linejoin="round"/>
<path d="M288.484 149.421H282.637L282.049 143.66H289.072L288.484 149.421Z" fill="white" stroke="#263238" stroke-linecap="round" stroke-linejoin="round"/>
<path d="M282.251 145.626H288.87" stroke="#263238" stroke-linecap="round" stroke-linejoin="round"/>
<path d="M282.462 147.455H288.658" stroke="#263238" stroke-linecap="round" stroke-linejoin="round"/>
<path d="M284.255 143.66L284.402 149.421" stroke="#263238" stroke-linecap="round" stroke-linejoin="round"/>
<path d="M286.865 143.66L286.69 149.421" stroke="#263238" stroke-linecap="round" stroke-linejoin="round"/>
<path d="M289.044 143.642L290.671 143.044" stroke="#263238" stroke-linecap="round" stroke-linejoin="round"/>
<path d="M290.027 152.214C290.027 152.361 289.984 152.505 289.902 152.627C289.82 152.75 289.704 152.845 289.568 152.901C289.432 152.958 289.282 152.973 289.137 152.944C288.993 152.915 288.86 152.844 288.756 152.74C288.652 152.636 288.581 152.503 288.552 152.359C288.524 152.215 288.538 152.065 288.595 151.929C288.651 151.793 288.747 151.677 288.869 151.595C288.991 151.513 289.135 151.47 289.283 151.47C289.48 151.47 289.67 151.548 289.809 151.688C289.949 151.827 290.027 152.017 290.027 152.214Z" fill="white" stroke="#263238" stroke-linecap="round" stroke-linejoin="round"/>
<path d="M282.416 152.214C282.416 152.361 282.372 152.505 282.29 152.627C282.209 152.75 282.092 152.845 281.956 152.901C281.82 152.958 281.671 152.973 281.526 152.944C281.382 152.915 281.249 152.844 281.145 152.74C281.041 152.636 280.97 152.503 280.941 152.359C280.912 152.215 280.927 152.065 280.983 151.929C281.04 151.793 281.135 151.677 281.258 151.595C281.38 151.513 281.524 151.47 281.671 151.47C281.869 151.47 282.058 151.548 282.198 151.688C282.338 151.827 282.416 152.017 282.416 152.214Z" fill="white" stroke="#263238" stroke-linecap="round" stroke-linejoin="round"/>
<path d="M281.864 150.441H289.283" stroke="#263238" stroke-linecap="round" stroke-linejoin="round"/>
<path d="M191.409 131.174L193.827 144.891H209.859L212.975 131.174C212.975 131.174 210.217 128.418 210.318 121.839L208.36 121.15C208.36 121.15 208.94 126.8 202.017 126.8C195.095 126.8 194.866 121.729 194.866 121.729L192.908 122.482C192.908 122.482 194.176 128.068 191.409 131.174Z" fill="#FD6C03" stroke="#263238" stroke-linecap="round" stroke-linejoin="round"/>
<path d="M206.798 132.01C205.574 131.903 204.344 131.903 203.121 132.01L202.201 129.943L201.484 132.084C199.646 132.175 197.991 132.276 197.991 132.276L200.813 134.068C200.326 135.474 199.894 136.824 199.637 137.284C199.637 137.284 201.043 136.319 202.606 135.207L205.364 136.944L204.104 134.188C205.069 133.548 205.971 132.819 206.798 132.01Z" fill="#FD6C03" stroke="#263238" stroke-linecap="round" stroke-linejoin="round"/>
<path opacity="0.2" d="M291.232 149.43H176.526V155.264C176.526 155.995 176.817 156.696 177.334 157.213C177.851 157.73 178.553 158.021 179.284 158.021H293.861V152.085C293.865 151.738 293.799 151.393 293.669 151.071C293.538 150.749 293.345 150.456 293.101 150.209C292.856 149.962 292.565 149.766 292.244 149.633C291.924 149.499 291.58 149.43 291.232 149.43Z" fill="black"/>
<path d="M294.523 109.656H179.257C177.749 109.656 176.526 110.878 176.526 112.385V155.255C176.526 156.762 177.749 157.984 179.257 157.984H294.523C296.031 157.984 297.253 156.762 297.253 155.255V112.385C297.253 110.878 296.031 109.656 294.523 109.656Z" stroke="#263238" stroke-linecap="round" stroke-linejoin="round"/>
<path d="M297.252 213.698V256.578C297.252 257.309 296.962 258.01 296.445 258.527C295.927 259.044 295.226 259.334 294.495 259.334H179.256C178.524 259.334 177.823 259.044 177.306 258.527C176.789 258.01 176.498 257.309 176.498 256.578V213.698C176.498 212.967 176.789 212.266 177.306 211.749C177.823 211.233 178.524 210.942 179.256 210.942H294.522C295.249 210.949 295.943 211.243 296.454 211.759C296.966 212.275 297.252 212.972 297.252 213.698Z" fill="white"/>
<path d="M221.652 216.593H182.391V253.656H221.652V216.593Z" fill="white" stroke="#263238" stroke-linecap="round" stroke-linejoin="round"/>
<path d="M265.308 219.863H230.174C229.742 219.861 229.328 219.688 229.023 219.381C228.718 219.075 228.547 218.66 228.547 218.228C228.547 217.797 228.718 217.383 229.023 217.078C229.329 216.773 229.742 216.602 230.174 216.602H265.308C265.74 216.602 266.154 216.773 266.459 217.078C266.764 217.383 266.935 217.797 266.935 218.228C266.935 218.66 266.764 219.075 266.459 219.381C266.154 219.688 265.741 219.861 265.308 219.863Z" fill="#263238"/>
<path d="M244.643 223.786H230.174C229.275 223.786 228.547 224.515 228.547 225.413V225.422C228.547 226.32 229.275 227.048 230.174 227.048H244.643C245.542 227.048 246.27 226.32 246.27 225.422V225.413C246.27 224.515 245.542 223.786 244.643 223.786Z" fill="#263238"/>
<path d="M274.841 245.148C274.232 244.948 273.573 244.958 272.971 245.178C272.368 245.398 271.858 245.815 271.522 246.361C271.198 245.809 270.695 245.384 270.097 245.155C269.499 244.926 268.841 244.908 268.231 245.102C266.319 245.672 265.639 248.097 267.229 250.321C268.291 251.655 269.639 252.735 271.173 253.481C271.27 253.538 271.372 253.587 271.476 253.628L271.78 253.491C273.323 252.752 274.683 251.678 275.76 250.348C277.387 248.18 276.734 245.754 274.841 245.148Z" fill="#FD6C03" stroke="#263238" stroke-linecap="round" stroke-linejoin="round"/>
<path d="M288.483 250.725H282.636L282.048 244.974H289.071L288.483 250.725Z" fill="white" stroke="#263238" stroke-linecap="round" stroke-linejoin="round"/>
<path d="M282.25 246.931H288.869" stroke="#263238" stroke-linecap="round" stroke-linejoin="round"/>
<path d="M282.462 248.759H288.658" stroke="#263238" stroke-linecap="round" stroke-linejoin="round"/>
<path d="M284.254 244.964L284.401 250.725" stroke="#263238" stroke-linecap="round" stroke-linejoin="round"/>
<path d="M286.865 244.964L286.69 250.725" stroke="#263238" stroke-linecap="round" stroke-linejoin="round"/>
<path d="M289.043 244.946L290.67 244.358" stroke="#263238" stroke-linecap="round" stroke-linejoin="round"/>
<path d="M290.027 253.527C290.027 253.725 289.949 253.914 289.809 254.054C289.67 254.193 289.48 254.272 289.283 254.272C289.085 254.272 288.896 254.193 288.756 254.054C288.617 253.914 288.538 253.725 288.538 253.527C288.538 253.33 288.617 253.141 288.756 253.001C288.896 252.862 289.085 252.783 289.283 252.783C289.48 252.783 289.67 252.862 289.809 253.001C289.949 253.141 290.027 253.33 290.027 253.527Z" fill="white" stroke="#263238" stroke-linecap="round" stroke-linejoin="round"/>
<path d="M282.416 253.527C282.416 253.725 282.338 253.914 282.198 254.054C282.058 254.193 281.869 254.272 281.671 254.272C281.474 254.272 281.284 254.193 281.145 254.054C281.005 253.914 280.927 253.725 280.927 253.527C280.927 253.33 281.005 253.141 281.145 253.001C281.284 252.862 281.474 252.783 281.671 252.783C281.869 252.783 282.058 252.862 282.198 253.001C282.338 253.141 282.416 253.33 282.416 253.527Z" fill="white" stroke="#263238" stroke-linecap="round" stroke-linejoin="round"/>
<path d="M281.864 251.745H289.283" stroke="#263238" stroke-linecap="round" stroke-linejoin="round"/>
<path d="M192.447 246.306V247.849H201.64C201.64 247.849 204.398 244.551 205.988 244.955C207.578 245.359 207.376 247.849 207.376 247.849H209.711L210.483 246.306L209.876 237.835L192.447 246.306Z" fill="white" stroke="#263238" stroke-linecap="round" stroke-linejoin="round"/>
<path d="M192.447 246.306H201.143C201.143 246.306 203.901 243.797 205.942 243.108C207.983 242.419 208.534 246.306 208.534 246.306H210.52C210.52 246.306 212.165 241.987 212.165 241.464C212.165 240.94 210.612 233.516 210.612 228.674C210.612 228.674 205.335 228.583 204.637 229.446C204.637 229.446 203.515 227.802 202.798 227.976C203.189 229.941 203.334 231.947 203.23 233.948C202.973 236.539 199.424 240.692 196.051 241.896C193.863 242.695 192.962 243.54 192.447 246.306Z" fill="#FD6C03" stroke="#263238" stroke-linecap="round" stroke-linejoin="round"/>
<path d="M204.637 229.446C204.637 229.446 204.811 234.545 204.637 235.584C204.462 236.622 199.884 241.721 199.452 241.896" stroke="#263238" stroke-linecap="round" stroke-linejoin="round"/>
<path d="M203.267 231.412H205.5" stroke="#263238" stroke-linecap="round" stroke-linejoin="round"/>
<path d="M203.258 233.939L205.501 233.59" stroke="#263238" stroke-linecap="round" stroke-linejoin="round"/>
<path d="M202.623 235.666L205.5 236.015" stroke="#263238" stroke-linecap="round" stroke-linejoin="round"/>
<path d="M201.667 237.136L204.388 237.835" stroke="#263238" stroke-linecap="round" stroke-linejoin="round"/>
<path d="M200.454 238.652L202.624 239.902" stroke="#263238" stroke-linecap="round" stroke-linejoin="round"/>
<path d="M196.07 241.896C196.871 242.323 197.543 242.958 198.015 243.734C198.487 244.51 198.742 245.398 198.754 246.306H192.438C192.594 245.314 193.014 244.381 193.652 243.606C194.291 242.83 195.125 242.24 196.07 241.896Z" fill="white" stroke="#263238" stroke-linecap="round" stroke-linejoin="round"/>
<path d="M209.251 239.746C209.251 239.962 209.187 240.173 209.067 240.353C208.947 240.533 208.776 240.673 208.576 240.756C208.376 240.839 208.156 240.86 207.944 240.818C207.732 240.776 207.537 240.672 207.384 240.519C207.231 240.366 207.127 240.171 207.084 239.959C207.042 239.747 207.064 239.527 207.147 239.327C207.23 239.128 207.37 238.957 207.55 238.837C207.73 238.716 207.941 238.652 208.157 238.652C208.448 238.652 208.726 238.768 208.931 238.973C209.136 239.178 209.251 239.456 209.251 239.746Z" fill="white" stroke="#263238" stroke-linecap="round" stroke-linejoin="round"/>
<path opacity="0.2" d="M293.86 210.979H179.256C178.524 210.979 177.823 211.269 177.306 211.786C176.789 212.303 176.498 213.004 176.498 213.735V230.034H291.231C291.929 230.032 292.598 229.753 293.091 229.259C293.584 228.764 293.86 228.095 293.86 227.397V210.979Z" fill="black"/>
<path d="M297.252 213.698V256.578C297.252 257.309 296.962 258.01 296.445 258.527C295.927 259.044 295.226 259.334 294.495 259.334H179.256C178.524 259.334 177.823 259.044 177.306 258.527C176.789 258.01 176.498 257.309 176.498 256.578V213.698C176.498 212.967 176.789 212.266 177.306 211.749C177.823 211.233 178.524 210.942 179.256 210.942H294.522C295.249 210.949 295.943 211.243 296.454 211.759C296.966 212.275 297.252 212.972 297.252 213.698V213.698Z" stroke="#263238" stroke-linecap="round" stroke-linejoin="round"/>
<path d="M294.523 261.622H179.257C177.749 261.622 176.526 262.844 176.526 264.351V307.221C176.526 308.728 177.749 309.95 179.257 309.95H294.523C296.031 309.95 297.253 308.728 297.253 307.221V264.351C297.253 262.844 296.031 261.622 294.523 261.622Z" fill="white" stroke="#263238" stroke-linecap="round" stroke-linejoin="round"/>
<path d="M221.652 267.254H182.391V304.317H221.652V267.254Z" fill="white" stroke="#263238" stroke-linecap="round" stroke-linejoin="round"/>
<path d="M265.308 270.516H230.174C229.742 270.516 229.329 270.344 229.023 270.039C228.718 269.734 228.547 269.321 228.547 268.889C228.549 268.459 228.721 268.047 229.026 267.742C229.331 267.438 229.743 267.266 230.174 267.263H265.308C265.741 267.266 266.154 267.439 266.459 267.745C266.764 268.052 266.935 268.466 266.935 268.899C266.933 269.328 266.76 269.74 266.455 270.043C266.151 270.346 265.738 270.516 265.308 270.516Z" fill="#263238"/>
<path d="M244.634 277.71H230.174C229.742 277.71 229.329 277.538 229.023 277.233C228.718 276.928 228.547 276.515 228.547 276.083C228.547 275.651 228.718 275.237 229.023 274.93C229.328 274.624 229.742 274.45 230.174 274.448H244.634C245.066 274.45 245.48 274.624 245.785 274.93C246.09 275.237 246.261 275.651 246.261 276.083C246.261 276.515 246.09 276.928 245.785 277.233C245.479 277.538 245.066 277.71 244.634 277.71Z" fill="#263238"/>
<path d="M274.841 295.81C274.233 295.607 273.574 295.615 272.972 295.834C272.369 296.052 271.858 296.468 271.522 297.013C271.198 296.461 270.696 296.035 270.098 295.805C269.501 295.574 268.842 295.553 268.231 295.745C266.319 296.324 265.639 298.74 267.229 300.973C268.29 302.316 269.637 303.405 271.173 304.161L271.476 304.317L271.78 304.17C273.321 303.432 274.681 302.362 275.76 301.037C277.387 298.842 276.734 296.407 274.841 295.81Z" fill="#FD6C03" stroke="#263238" stroke-linecap="round" stroke-linejoin="round"/>
<path d="M288.483 301.386H282.636L282.048 295.626H289.071L288.483 301.386Z" fill="white" stroke="#263238" stroke-linecap="round" stroke-linejoin="round"/>
<path d="M282.25 297.592H288.869" stroke="#263238" stroke-linecap="round" stroke-linejoin="round"/>
<path d="M282.462 299.42H288.658" stroke="#263238" stroke-linecap="round" stroke-linejoin="round"/>
<path d="M284.254 295.626L284.401 301.386" stroke="#263238" stroke-linecap="round" stroke-linejoin="round"/>
<path d="M286.865 295.626L286.69 301.386" stroke="#263238" stroke-linecap="round" stroke-linejoin="round"/>
<path d="M289.044 295.607L290.671 295.01" stroke="#263238" stroke-linecap="round" stroke-linejoin="round"/>
<path d="M290.027 304.18C290.027 304.327 289.984 304.471 289.902 304.593C289.82 304.715 289.704 304.811 289.568 304.867C289.432 304.924 289.282 304.938 289.137 304.91C288.993 304.881 288.86 304.81 288.756 304.706C288.652 304.602 288.581 304.469 288.552 304.325C288.524 304.18 288.538 304.031 288.595 303.895C288.651 303.759 288.747 303.643 288.869 303.561C288.991 303.479 289.135 303.435 289.283 303.435C289.48 303.435 289.67 303.514 289.809 303.653C289.949 303.793 290.027 303.982 290.027 304.18Z" fill="white" stroke="#263238" stroke-linecap="round" stroke-linejoin="round"/>
<path d="M282.416 304.18C282.416 304.327 282.372 304.471 282.29 304.593C282.209 304.715 282.092 304.811 281.956 304.867C281.82 304.924 281.671 304.938 281.526 304.91C281.382 304.881 281.249 304.81 281.145 304.706C281.041 304.602 280.97 304.469 280.941 304.325C280.912 304.18 280.927 304.031 280.983 303.895C281.04 303.759 281.135 303.643 281.258 303.561C281.38 303.479 281.524 303.435 281.671 303.435C281.869 303.435 282.058 303.514 282.198 303.653C282.338 303.793 282.416 303.982 282.416 304.18Z" fill="white" stroke="#263238" stroke-linecap="round" stroke-linejoin="round"/>
<path d="M281.864 302.406H289.283" stroke="#263238" stroke-linecap="round" stroke-linejoin="round"/>
<path d="M205.511 279.079C205.511 279.079 206.908 271.728 210.273 274.485C215.972 279.079 211.357 292.722 211.357 292.722" stroke="#263238" stroke-linecap="round" stroke-linejoin="round"/>
<path d="M197.981 279.079C197.981 279.079 196.676 274.062 193.523 274.319C190.37 274.577 187.603 284.839 191.409 294.064" stroke="#263238" stroke-linecap="round" stroke-linejoin="round"/>
<path d="M198.763 276.699C198.921 276.078 199.275 275.525 199.771 275.12C200.267 274.715 200.88 274.479 201.52 274.448C202.141 274.462 202.736 274.696 203.199 275.108C203.662 275.521 203.963 276.085 204.048 276.699" stroke="#263238" stroke-linecap="round" stroke-linejoin="round"/>
<path d="M194.755 276.772L208.158 276.543V279.602C208.158 279.602 214.069 293.173 212.46 296.14C210.852 299.108 191.52 299.935 190.711 295.617C189.902 291.298 195.095 280.236 195.095 280.236L194.755 276.772Z" fill="#FD6C03" stroke="#263238" stroke-linecap="round" stroke-linejoin="round"/>
<path d="M195.095 280.227C195.095 280.227 194.755 285.74 196.713 286.796C198.671 287.853 206.108 287.954 207.064 286.337C208.02 284.72 208.158 279.602 208.158 279.602" stroke="#263238" stroke-linecap="round" stroke-linejoin="round"/>
<path d="M195.077 289.103C195.077 289.103 199.333 290.26 201.512 289.911C201.512 289.911 201.006 296.251 199.967 296.251C198.929 296.251 193.974 296.453 193.624 295.332C193.275 294.211 194.204 290.159 194.204 290.159" stroke="#263238" stroke-linecap="round" stroke-linejoin="round"/>
<path d="M209.252 289.103C207.3 289.64 205.291 289.948 203.268 290.021C203.268 290.021 203.268 294.661 204.067 295.626C204.867 296.591 209.399 296.085 210.089 295.019C210.778 293.954 209.252 290.37 209.252 290.37" stroke="#263238" stroke-linecap="round" stroke-linejoin="round"/>
<path d="M202.9 285.216C202.902 285.422 202.842 285.624 202.729 285.796C202.615 285.968 202.453 286.103 202.263 286.183C202.073 286.262 201.863 286.284 201.661 286.244C201.458 286.204 201.272 286.105 201.127 285.959C200.981 285.814 200.882 285.628 200.842 285.426C200.802 285.223 200.823 285.014 200.903 284.824C200.983 284.634 201.117 284.472 201.29 284.358C201.462 284.245 201.664 284.185 201.87 284.187C202.142 284.189 202.403 284.299 202.596 284.491C202.788 284.684 202.897 284.944 202.9 285.216V285.216Z" stroke="#263238" stroke-linecap="round" stroke-linejoin="round"/>
<path d="M287.168 151.607H138.891C137.383 151.607 136.161 152.829 136.161 154.336V210.418C136.161 211.925 137.383 213.147 138.891 213.147H287.168C288.676 213.147 289.899 211.925 289.899 210.418V154.336C289.899 152.829 288.676 151.607 287.168 151.607Z" fill="white" stroke="#263238" stroke-linecap="round" stroke-linejoin="round"/>
<path d="M193.615 158.774H143.626V205.972H193.615V158.774Z" fill="white" stroke="#263238" stroke-linecap="round" stroke-linejoin="round"/>
<path d="M249.589 158.774H204.113C203.169 158.774 202.403 159.539 202.403 160.483V161.218C202.403 162.162 203.169 162.927 204.113 162.927H249.589C250.533 162.927 251.299 162.162 251.299 161.218V160.483C251.299 159.539 250.533 158.774 249.589 158.774Z" fill="#263238"/>
<path d="M204.076 167.934H223.215C223.669 167.934 224.104 168.114 224.425 168.435C224.745 168.755 224.925 169.19 224.925 169.643V170.369C224.925 170.594 224.881 170.818 224.794 171.026C224.708 171.235 224.581 171.424 224.422 171.584C224.262 171.743 224.073 171.87 223.864 171.956C223.656 172.043 223.432 172.087 223.206 172.087H204.076C203.851 172.087 203.627 172.043 203.419 171.956C203.21 171.87 203.021 171.743 202.861 171.584C202.701 171.424 202.575 171.235 202.488 171.026C202.402 170.818 202.357 170.594 202.357 170.369V169.643C202.36 169.189 202.542 168.754 202.864 168.434C203.186 168.114 203.622 167.934 204.076 167.934Z" fill="#263238"/>
<path d="M261.337 195.13C260.562 194.875 259.724 194.889 258.959 195.169C258.193 195.449 257.544 195.979 257.117 196.674C256.701 195.974 256.061 195.435 255.3 195.145C254.539 194.855 253.702 194.83 252.926 195.075C250.49 195.801 249.625 198.888 251.648 201.718C252.998 203.43 254.713 204.82 256.667 205.788L257.053 205.981L257.439 205.797C259.407 204.859 261.141 203.493 262.514 201.8C264.6 198.998 263.773 195.902 261.337 195.13Z" fill="#FD6C03" stroke="#263238" stroke-linecap="round" stroke-linejoin="round"/>
<path d="M278.729 202.241H271.283L270.529 194.9H279.483L278.729 202.241Z" fill="white" stroke="#263238" stroke-linecap="round" stroke-linejoin="round"/>
<path d="M270.796 197.408H279.216" stroke="#263238" stroke-linecap="round" stroke-linejoin="round"/>
<path d="M271.062 199.733H278.95" stroke="#263238" stroke-linecap="round" stroke-linejoin="round"/>
<path d="M273.352 194.9L273.535 202.241" stroke="#263238" stroke-linecap="round" stroke-linejoin="round"/>
<path d="M276.67 194.9L276.44 202.241" stroke="#263238" stroke-linecap="round" stroke-linejoin="round"/>
<path d="M279.438 194.873L281.524 194.119" stroke="#263238" stroke-linecap="round" stroke-linejoin="round"/>
<path d="M279.75 206.734C280.272 206.734 280.696 206.31 280.696 205.788C280.696 205.265 280.272 204.841 279.75 204.841C279.227 204.841 278.803 205.265 278.803 205.788C278.803 206.31 279.227 206.734 279.75 206.734Z" fill="white" stroke="#263238" stroke-linecap="round" stroke-linejoin="round"/>
<path d="M270.051 206.734C270.574 206.734 270.998 206.31 270.998 205.788C270.998 205.265 270.574 204.841 270.051 204.841C269.528 204.841 269.104 205.265 269.104 205.788C269.104 206.31 269.528 206.734 270.051 206.734Z" fill="white" stroke="#263238" stroke-linecap="round" stroke-linejoin="round"/>
<path d="M270.3 203.537H279.75" stroke="#263238" stroke-linecap="round" stroke-linejoin="round"/>
<path d="M160.752 165.821H176.25L176.618 169.055L188.366 191.51C188.366 191.51 187.337 197.216 184.542 195.24C181.748 193.265 180.286 200.257 176.471 198.52C172.656 196.784 170.717 200.817 166.359 199.687C162.002 198.557 160.715 198.879 158.509 199.889C156.302 200.9 154.4 195.69 152.635 196.021C150.87 196.352 149.123 193.265 149.123 193.265L159.98 170.369L160.752 165.821Z" fill="#FD6C03" stroke="#263238" stroke-linecap="round" stroke-linejoin="round"/>
<path d="M161.928 169.046H174.705" stroke="#263238" stroke-linecap="round" stroke-linejoin="round"/>
<path d="M168.841 167.364C168.839 167.503 168.783 167.634 168.685 167.732C168.587 167.83 168.455 167.886 168.317 167.888C168.178 167.888 168.045 167.833 167.947 167.735C167.848 167.637 167.793 167.503 167.793 167.364C167.792 167.295 167.805 167.227 167.83 167.163C167.856 167.099 167.895 167.04 167.944 166.991C167.993 166.943 168.051 166.904 168.115 166.878C168.179 166.852 168.248 166.84 168.317 166.841C168.456 166.841 168.589 166.896 168.688 166.994C168.786 167.092 168.841 167.226 168.841 167.364Z" fill="#263238"/>
<path d="M154.703 193.026C154.703 193.026 158.555 183.122 159.162 180.861" stroke="#263238" stroke-linecap="round" stroke-linejoin="round"/>
<path d="M166.847 190.481C166.902 186.622 166.938 182.46 166.938 182.46L166.782 190.472L166.847 190.481Z" fill="white" stroke="#263238" stroke-linecap="round" stroke-linejoin="round"/>
<path d="M166.736 192.934L166.662 196.885C166.717 196.517 166.763 194.937 166.8 192.943L166.736 192.934Z" fill="white" stroke="#263238" stroke-linecap="round" stroke-linejoin="round"/>
<path d="M177.565 195.01C177.565 194.79 173.989 182.35 173.888 180.861L177.565 195.01Z" fill="white"/>
<path d="M177.565 195.01C177.565 194.79 173.989 182.35 173.888 180.861" stroke="#263238" stroke-linecap="round" stroke-linejoin="round"/>
<path d="M180.074 180.898L178.778 177.765L180.074 180.898Z" fill="white"/>
<path d="M180.074 180.898L178.778 177.765" stroke="#263238" stroke-linecap="round" stroke-linejoin="round"/>
<path d="M184.616 191.822C183.476 189.06 182.33 186.304 181.178 183.553L184.616 191.822Z" fill="white"/>
<path d="M184.616 191.822C183.476 189.06 182.33 186.304 181.178 183.553" stroke="#263238" stroke-linecap="round" stroke-linejoin="round"/>
<path d="M159.998 178.711L160.715 177.058" stroke="#263238" stroke-linecap="round" stroke-linejoin="round"/>
<path d="M305.13 310.813C304.721 310.813 304.328 310.651 304.038 310.361C303.749 310.072 303.586 309.679 303.586 309.27V115.141C303.586 114.732 303.749 114.339 304.038 114.05C304.328 113.76 304.721 113.598 305.13 113.598C305.54 113.598 305.933 113.76 306.222 114.05C306.512 114.339 306.675 114.732 306.675 115.141V309.27C306.675 309.679 306.512 310.072 306.222 310.361C305.933 310.651 305.54 310.813 305.13 310.813Z" fill="#263238"/>
<path d="M305.131 128.886C304.312 128.886 303.526 128.561 302.947 127.982C302.367 127.403 302.042 126.618 302.042 125.799V112.752C302.041 112.347 302.12 111.945 302.275 111.57C302.429 111.194 302.657 110.854 302.944 110.567C303.231 110.28 303.572 110.053 303.947 109.898C304.323 109.743 304.725 109.664 305.131 109.665C305.537 109.664 305.939 109.743 306.314 109.898C306.689 110.053 307.03 110.28 307.317 110.567C307.605 110.854 307.832 111.194 307.987 111.57C308.142 111.945 308.221 112.347 308.219 112.752V125.771C308.223 126.179 308.146 126.584 307.992 126.961C307.839 127.339 307.612 127.683 307.325 127.972C307.037 128.262 306.696 128.492 306.319 128.649C305.943 128.805 305.539 128.886 305.131 128.886Z" fill="white" stroke="#263238" stroke-linecap="round" stroke-linejoin="round"/>
<path opacity="0.6" d="M249.041 91.2812L246.655 82.554H247.729L249.553 89.6619H249.638L251.496 82.554H252.689L254.547 89.6619H254.632L256.456 82.554H257.53L255.144 91.2812H254.053L252.127 84.3267H252.059L250.132 91.2812H249.041ZM259.904 82.554V91.2812H258.847V82.554H259.904ZM266.795 84.7358C266.744 84.304 266.537 83.9688 266.173 83.7301C265.81 83.4915 265.364 83.3722 264.835 83.3722C264.449 83.3722 264.111 83.4347 263.821 83.5597C263.534 83.6847 263.31 83.8565 263.148 84.0753C262.989 84.294 262.909 84.5426 262.909 84.821C262.909 85.054 262.964 85.2543 263.075 85.4219C263.189 85.5866 263.334 85.7244 263.51 85.8352C263.686 85.9432 263.871 86.0327 264.064 86.1037C264.257 86.1719 264.435 86.2273 264.597 86.2699L265.483 86.5085C265.71 86.5682 265.963 86.6506 266.241 86.7557C266.523 86.8608 266.791 87.0043 267.047 87.1861C267.305 87.3651 267.518 87.5952 267.686 87.8764C267.854 88.1577 267.937 88.5028 267.937 88.9119C267.937 89.3835 267.814 89.8097 267.567 90.1903C267.322 90.571 266.964 90.8736 266.493 91.098C266.024 91.3224 265.454 91.4347 264.784 91.4347C264.159 91.4347 263.618 91.3338 263.16 91.1321C262.706 90.9304 262.348 90.6491 262.087 90.2884C261.828 89.9276 261.682 89.5085 261.648 89.0312H262.739C262.767 89.3608 262.878 89.6335 263.071 89.8494C263.267 90.0625 263.514 90.2216 263.812 90.3267C264.114 90.429 264.437 90.4801 264.784 90.4801C265.187 90.4801 265.55 90.4148 265.871 90.2841C266.192 90.1506 266.446 89.9659 266.633 89.7301C266.821 89.4915 266.915 89.2131 266.915 88.8949C266.915 88.6051 266.834 88.3693 266.672 88.1875C266.51 88.0057 266.297 87.858 266.033 87.7443C265.768 87.6307 265.483 87.5312 265.176 87.446L264.102 87.1392C263.42 86.9432 262.881 86.6634 262.483 86.2997C262.085 85.9361 261.886 85.4602 261.886 84.8722C261.886 84.3835 262.018 83.9574 262.283 83.5938C262.55 83.2273 262.908 82.9432 263.356 82.7415C263.808 82.5369 264.312 82.4347 264.869 82.4347C265.432 82.4347 265.932 82.5355 266.369 82.7372C266.807 82.9361 267.153 83.2088 267.409 83.5554C267.668 83.902 267.804 84.2955 267.818 84.7358H266.795ZM269.675 91.2812V82.554H270.732V86.4403H275.385V82.554H276.442V91.2812H275.385V87.3778H270.732V91.2812H269.675ZM278.558 91.2812V82.554H279.615V90.3438H283.671V91.2812H278.558ZM248.513 97.554V106.281H247.456V97.554H248.513ZM255.405 99.7358C255.354 99.304 255.146 98.9688 254.783 98.7301C254.419 98.4915 253.973 98.3722 253.445 98.3722C253.058 98.3722 252.72 98.4347 252.43 98.5597C252.143 98.6847 251.919 98.8565 251.757 99.0753C251.598 99.294 251.518 99.5426 251.518 99.821C251.518 100.054 251.574 100.254 251.685 100.422C251.798 100.587 251.943 100.724 252.119 100.835C252.295 100.943 252.48 101.033 252.673 101.104C252.866 101.172 253.044 101.227 253.206 101.27L254.092 101.509C254.32 101.568 254.572 101.651 254.851 101.756C255.132 101.861 255.4 102.004 255.656 102.186C255.915 102.365 256.128 102.595 256.295 102.876C256.463 103.158 256.547 103.503 256.547 103.912C256.547 104.384 256.423 104.81 256.176 105.19C255.932 105.571 255.574 105.874 255.102 106.098C254.633 106.322 254.064 106.435 253.393 106.435C252.768 106.435 252.227 106.334 251.77 106.132C251.315 105.93 250.957 105.649 250.696 105.288C250.437 104.928 250.291 104.509 250.257 104.031H251.348C251.376 104.361 251.487 104.634 251.68 104.849C251.876 105.062 252.123 105.222 252.422 105.327C252.723 105.429 253.047 105.48 253.393 105.48C253.797 105.48 254.159 105.415 254.48 105.284C254.801 105.151 255.055 104.966 255.243 104.73C255.43 104.491 255.524 104.213 255.524 103.895C255.524 103.605 255.443 103.369 255.281 103.188C255.119 103.006 254.906 102.858 254.642 102.744C254.378 102.631 254.092 102.531 253.785 102.446L252.712 102.139C252.03 101.943 251.49 101.663 251.092 101.3C250.695 100.936 250.496 100.46 250.496 99.8722C250.496 99.3835 250.628 98.9574 250.892 98.5938C251.159 98.2273 251.517 97.9432 251.966 97.7415C252.418 97.5369 252.922 97.4347 253.479 97.4347C254.041 97.4347 254.541 97.5355 254.979 97.7372C255.416 97.9361 255.763 98.2088 256.018 98.5554C256.277 98.902 256.413 99.2955 256.427 99.7358H255.405ZM257.807 98.4915V97.554H264.353V98.4915H261.608V106.281H260.551V98.4915H257.807Z" fill="black"/>
<path d="M28.6815 101.552C28.1023 84.7848 43.8769 70.6264 63.926 69.9282C83.9751 69.2299 100.696 82.2582 101.285 99.0259C101.827 114.47 88.4703 127.692 70.6918 130.264C69.2853 139.452 73.615 143.697 73.615 143.697C70.6384 142.506 67.9341 140.724 65.6653 138.46C63.3965 136.195 61.6103 133.495 60.4144 130.522C42.9576 128.831 29.2146 116.722 28.6815 101.552Z" fill="white" stroke="#263238" stroke-linecap="round" stroke-linejoin="round"/>
<path d="M55.7816 89.2316C60.7824 87.7984 63.7425 90.913 65.057 92.9067C66.4635 90.9681 69.543 87.9637 74.4886 89.59C79.8479 91.354 81.5945 98.2632 76.9339 104.447C73.5694 108.893 68.2468 111.88 65.5258 113.193C65.2041 113.359 64.9099 113.487 64.6617 113.598L63.816 113.166C61.1501 111.742 55.9471 108.572 52.7848 103.978C48.3356 97.6201 50.358 90.7844 55.7816 89.2316Z" fill="#FD6C03"/>
<path d="M53.2341 250.486C53.2341 250.486 29.6274 273.456 22.2641 289.075C14.9008 304.694 19.0651 304.033 26.2537 308.976C40.677 318.917 71.6377 331.706 71.6377 331.706C71.6377 331.706 72.2536 341.813 77.4659 345.157C82.6781 348.502 97.3955 329.308 95.2444 326.047C93.0933 322.785 78.4035 323.851 78.4035 323.851C78.4035 323.851 71.0494 320.901 60.5974 312.357C53.1491 306.408 45.3688 300.886 37.2941 295.819C37.2941 295.819 50.1638 277.939 56.9571 273.061C63.7505 268.182 74.7265 261.208 74.7265 261.208" fill="white"/>
<path d="M53.2341 250.486C53.2341 250.486 29.6274 273.456 22.2641 289.075C14.9008 304.694 19.0651 304.033 26.2537 308.976C40.677 318.917 71.6377 331.706 71.6377 331.706C71.6377 331.706 72.2536 341.813 77.4658 345.157C82.6781 348.502 97.3955 329.308 95.2444 326.047C93.0933 322.785 78.4035 323.851 78.4035 323.851C78.4035 323.851 71.0494 320.901 60.5974 312.357C53.149 306.408 45.3688 300.886 37.2941 295.819C37.2941 295.819 50.1638 277.939 56.9571 273.061C63.7505 268.182 74.7265 261.208 74.7265 261.208" stroke="#263238" stroke-linecap="round" stroke-linejoin="round"/>
<path d="M153.626 383.139C139.635 387.825 126.232 391.243 114.585 392.143C113.721 392.208 112.866 392.263 112.021 392.3C111.864 389.543 111.616 384.27 111.34 382.662C111.061 381.07 110.27 379.612 109.088 378.509L104.143 381.118L102.782 392.3C81.3724 391.978 67.7949 385.868 67.7949 385.868L69.7254 374.2C68.735 370.69 68.3007 367.048 68.4384 363.404C69.0267 341.611 85.6286 316.546 85.6286 316.546C85.6286 316.546 123.778 289.645 136.409 311.456C149.039 333.268 153.626 383.139 153.626 383.139Z" fill="#BFBFBF"/>
<path opacity="0.2" d="M134.846 381.421C134.607 383.59 120.349 386.511 114.622 381.467C115.165 381.982 120 386.603 118.722 388.202C117.444 389.801 114.576 388.202 114.576 388.202C114.951 389.489 114.951 390.856 114.576 392.143C113.712 392.208 112.857 392.263 112.011 392.3C111.855 389.543 111.607 384.27 111.331 382.662C111.052 381.07 110.261 379.612 109.079 378.509L104.143 381.118L102.782 392.3C81.3724 391.978 67.7949 385.868 67.7949 385.868L69.7254 374.2C68.735 370.69 68.3007 367.048 68.4384 363.404C70.7733 367.438 74.8732 372.684 80.5083 373.557C89.8848 374.99 97.2573 368.31 97.2573 368.31C97.2573 368.31 95.0878 362.265 97.2573 356.32C97.2573 356.32 96.2185 371.462 114.549 373.557C132.41 375.596 136.225 371.664 136.399 371.48C136.115 371.894 131.564 378.5 128.871 379.216C128.907 379.244 135.094 379.244 134.846 381.421Z" fill="black"/>
<path d="M153.627 383.13C153.627 383.13 149.03 333.314 136.446 311.512C123.861 289.709 85.6657 316.592 85.6657 316.592C85.6657 316.592 62.868 350.964 69.7625 374.227L67.832 385.887" stroke="#263238" stroke-linecap="round" stroke-linejoin="round"/>
<path d="M72.2998 373.906C81.4924 377.057 92.1743 375.844 99.2066 371.48" stroke="#263238" stroke-linecap="round" stroke-linejoin="round"/>
<path d="M100.364 333.682C100.364 333.682 93.4515 360.216 100.364 368.209C107.277 376.203 127.455 376.772 132.906 375.67C138.357 374.567 140.178 370.754 140.178 370.754" stroke="#263238" stroke-linecap="round" stroke-linejoin="round"/>
<path d="M110.734 337.559C110.734 337.559 108.822 351.129 110.927 357.671L120.846 361.346L128.908 356.017C128.908 356.017 127.988 343.421 128.154 337.641C128.154 337.559 118.125 335.859 110.734 337.559Z" stroke="#263238" stroke-linecap="round" stroke-linejoin="round"/>
<path d="M109.935 351.855C109.935 351.855 115.901 349.604 119.421 354.758C119.421 354.758 120.01 349.429 128.154 350.403" stroke="#263238" stroke-linecap="round" stroke-linejoin="round"/>
<path d="M112.003 339.847C112.003 339.847 124.137 339.056 128.154 340.637" stroke="#263238" stroke-linecap="round" stroke-linejoin="round"/>
<path d="M77.3092 339.911C77.3092 339.911 72.575 352.03 72.7129 358.286L80.7565 361.842L89.3699 356.1C89.3699 356.1 90.7856 343.981 91.8612 338.836C91.8612 338.873 83.6889 338.055 77.3092 339.911Z" stroke="#263238" stroke-linecap="round" stroke-linejoin="round"/>
<path d="M73.3379 352.71C73.3379 352.71 78.973 350.357 80.9218 355.218C80.9218 355.218 82.5949 350.036 89.6916 350.624" stroke="#263238" stroke-linecap="round" stroke-linejoin="round"/>
<path d="M77.8428 341.785C77.8428 341.785 88.1477 340.416 91.3651 341.565" stroke="#263238" stroke-linecap="round" stroke-linejoin="round"/>
<path d="M78.9092 331.734C78.9092 331.734 89.9955 329.749 99.6294 336.805C111.727 330.21 125.639 327.712 139.277 329.685" stroke="#263238" stroke-linecap="round" stroke-linejoin="round"/>
<path d="M142.108 328.987C147.031 346.842 149.924 365.196 150.731 383.7" stroke="#263238" stroke-linecap="round" stroke-linejoin="round"/>
<path d="M86.9062 380.209C86.9062 380.209 99.2703 375.661 103.085 372.39C103.085 372.39 112.057 380.567 124.568 380.209" stroke="#263238" stroke-linecap="round" stroke-linejoin="round"/>
<path d="M112.021 392.3C112.021 392.3 112.186 382.744 110.734 381.476C109.282 380.209 108.896 376.304 108.896 376.304" stroke="#263238" stroke-linecap="round" stroke-linejoin="round"/>
<path d="M109.089 377.599C107.693 379.073 106.026 380.265 104.18 381.109L102.819 392.3" stroke="#263238" stroke-linecap="round" stroke-linejoin="round"/>
<path d="M136.4 237.669C138.992 244.257 163.931 276.947 165.981 286.365C168.031 295.782 167.82 303.932 156.375 301.065C144.93 298.198 140.095 263.285 127.409 244.671" fill="white"/>
<path d="M136.4 237.669C138.992 244.257 163.931 276.947 165.981 286.365C168.031 295.782 167.82 303.932 156.375 301.065C144.93 298.198 140.095 263.285 127.409 244.671" stroke="#263238" stroke-linecap="round" stroke-linejoin="round"/>
<path d="M135.232 241.537C135.774 240.895 136.149 240.128 136.324 239.306C136.499 238.484 136.468 237.631 136.234 236.824C135.646 233.512 134.512 230.32 132.879 227.379C130.415 223.336 132.199 219.478 130.544 219.56C128.889 219.643 128.549 223.235 128.549 223.235C128.549 223.235 125.286 219.671 123.346 218.568C122.427 218.081 116.746 215.747 116.746 215.747L110.927 216.032C110.927 216.032 110.872 218.788 116.222 218.458L119.77 221.324C119.77 221.324 116.406 222.326 116.231 223.833C116.056 225.339 114.218 225.459 114.392 227.508C114.567 229.557 113.639 229.823 115.312 232.432C117.334 235.565 119.393 234.536 119.393 234.536C119.393 234.536 121.094 243.375 122.96 245.102C123.879 245.975 125.865 246.113 128.007 245.654" fill="white"/>
<path d="M135.232 241.537C135.774 240.895 136.149 240.128 136.324 239.306C136.499 238.484 136.468 237.631 136.234 236.824C135.646 233.512 134.512 230.32 132.879 227.379C130.415 223.336 132.199 219.478 130.544 219.56C128.889 219.643 128.549 223.235 128.549 223.235C128.549 223.235 125.286 219.671 123.346 218.568C122.427 218.081 116.746 215.747 116.746 215.747L110.927 216.032C110.927 216.032 110.872 218.788 116.222 218.458L119.77 221.324C119.77 221.324 116.406 222.326 116.231 223.833C116.056 225.339 114.218 225.459 114.392 227.508C114.567 229.557 113.639 229.823 115.312 232.432C117.334 235.565 119.393 234.536 119.393 234.536C119.393 234.536 121.094 243.375 122.96 245.102C123.879 245.975 125.865 246.113 128.007 245.654" stroke="#263238" stroke-linecap="round" stroke-linejoin="round"/>
<path d="M116.25 223.833C116.25 223.833 118.309 228.537 119.532 229.768C120.754 230.999 122.933 229.704 123.77 229.602C124.845 229.465 125.608 229.602 125.424 229.152C125.156 228.476 124.651 227.922 124.002 227.592C123.354 227.262 122.608 227.18 121.903 227.361C121.903 227.361 121.131 224.761 119.587 223.686" stroke="#263238" stroke-linecap="round" stroke-linejoin="round"/>
<path d="M128.549 223.272C128.498 224.484 128.619 225.696 128.908 226.874C128.908 226.874 127.143 230.971 127.446 232.901" stroke="#263238" stroke-linecap="round" stroke-linejoin="round"/>
<path d="M114.43 227.829C115.202 229.566 116.958 231.927 118.41 232.285C119.863 232.644 124.955 231.229 124.551 229.529" stroke="#263238" stroke-linecap="round" stroke-linejoin="round"/>
<path d="M120.589 224.715C120.589 224.715 121.646 224.715 121.646 223.006" stroke="#263238" stroke-linecap="round" stroke-linejoin="round"/>
<path d="M119.771 221.324C119.771 221.324 121.857 222.059 122.804 220.406" stroke="#263238" stroke-linecap="round" stroke-linejoin="round"/>
<path d="M67.4459 173.796C72.3732 156.89 102.608 157.258 109.557 170.837C116.507 184.417 113.648 181.357 114.053 186.144C114.457 190.931 118.143 194.413 117.325 202.682C116.507 210.951 116.921 214.075 114.871 216.188C112.821 218.302 97.8184 215.931 94.6929 214.048C94.6929 214.057 58.86 203.252 67.4459 173.796Z" fill="white" stroke="#263238" stroke-linecap="round" stroke-linejoin="round"/>
<path d="M77.8611 204.979C80.1225 209.72 80.8579 229.538 76.1973 234.242C76.1973 234.242 88.497 239.553 106.082 233.222C106.082 233.222 100.769 226.479 100.769 220.654C100.769 214.829 107.517 214.011 107.517 214.011" fill="white"/>
<path d="M77.8611 204.979C80.1225 209.72 80.8579 229.538 76.1973 234.242C76.1973 234.242 88.497 239.553 106.082 233.222C106.082 233.222 100.769 226.479 100.769 220.654C100.769 214.829 107.517 214.011 107.517 214.011" stroke="#263238" stroke-linecap="round" stroke-linejoin="round"/>
<path d="M113.795 181.909C114.522 182.359 112.738 185.814 110.431 187.219H112.113C112.113 187.219 111.194 190.417 110.431 190.72C109.668 191.023 107.517 182.947 102.305 187.219C102.305 187.219 104.143 175.854 113.795 181.909Z" fill="#FD6C03" stroke="#263238" stroke-linecap="round" stroke-linejoin="round"/>
<path d="M98.3147 157.929C98.3147 157.929 111.809 160.106 115.183 168.688C118.557 177.269 112.425 186.144 107.516 187.247C99.8498 188.974 100.457 197.51 103.224 205.007C105.991 212.504 110.477 217.87 109.254 225.532C109.254 225.532 104.492 219.891 101.118 223.456C97.7447 227.021 93.9482 227.361 86.6584 225.707C79.3687 224.053 79.5709 226.626 76.1972 228.757C72.8235 230.889 65.6533 224.163 65.0466 229.364C64.4398 234.564 62.4358 235.023 62.4358 235.023C62.4358 235.023 52.9307 229.143 55.6885 220.681C58.4463 212.219 61.204 210.134 59.9814 203.041C58.7588 195.948 56.9203 183.462 59.6781 170.883C62.4358 158.305 85.1416 152.131 98.3147 157.929Z" fill="#FD6C03" stroke="#263238" stroke-linecap="round" stroke-linejoin="round"/>
<path d="M108.638 190.922C108.638 190.922 107.517 184.895 106.285 184.895C105.053 184.895 104.547 188.947 104.547 188.947C104.547 188.947 103.104 190.536 103.012 194.193C102.92 197.85 105.366 199.099 105.366 199.099C105.366 199.099 106.487 202.572 108.638 201.855C110.789 201.139 106.597 198.382 106.699 189.801" fill="white"/>
<path d="M108.638 190.922C108.638 190.922 107.517 184.895 106.285 184.895C105.053 184.895 104.547 188.947 104.547 188.947C104.547 188.947 103.104 190.536 103.012 194.193C102.92 197.85 105.366 199.099 105.366 199.099C105.366 199.099 106.487 202.572 108.638 201.855C110.789 201.139 106.597 198.382 106.699 189.801" stroke="#263238" stroke-linecap="round" stroke-linejoin="round"/>
<path d="M108.739 205.815C108.739 205.815 109.199 211.484 112.729 215.159L108.739 205.815Z" fill="white"/>
<path d="M108.739 205.815C108.739 205.815 109.199 211.484 112.729 215.159" stroke="#263238" stroke-linecap="round" stroke-linejoin="round"/>
<path d="M112.315 173.199C110.808 176.286 108.298 178.261 105.651 180.338C98.0851 186.264 86.8241 192.015 86.6494 203.114C86.6457 205.391 87.1055 207.645 88.0008 209.739" stroke="#263238" stroke-linecap="round" stroke-linejoin="round"/>
<path d="M99.6475 212.725C99.8865 214.158 100.144 215.582 100.364 217.024" stroke="#263238" stroke-linecap="round" stroke-linejoin="round"/>
<path d="M103.012 189.939C97.1928 194.257 98.2224 203.27 99.1416 209.509" stroke="#263238" stroke-linecap="round" stroke-linejoin="round"/>
<path d="M76.5654 182.543C78.119 194.717 79.9575 207.579 74.3408 219.432" stroke="#263238" stroke-linecap="round" stroke-linejoin="round"/>
<path d="M96.6603 158.609C92.8488 158.326 89.028 159.016 85.5556 160.611C78.6428 163.983 77.1352 171.977 76.7031 178.987" stroke="#263238" stroke-linecap="round" stroke-linejoin="round"/>
<path d="M63.5753 219.312C63.1853 220.795 63.0455 222.332 63.1617 223.86" stroke="#263238" stroke-linecap="round" stroke-linejoin="round"/>
<path d="M63.5027 174.163C62.8684 181.422 63.5027 188.717 64.4863 195.911C64.9551 199.522 65.5067 203.114 66.0123 206.716C66.5179 210.317 65.5067 213.322 64.3668 216.629" stroke="#263238" stroke-linecap="round" stroke-linejoin="round"/>
<path d="M66.1129 164.057C64.6789 166.133 64.2193 168.899 63.8516 171.334" stroke="#263238" stroke-linecap="round" stroke-linejoin="round"/>
<path d="M100.631 219.9C101.516 219.444 102.521 219.271 103.508 219.406C104.495 219.541 105.416 219.976 106.146 220.654" stroke="#263238" stroke-linecap="round" stroke-linejoin="round"/>
<path d="M81.207 220.571C84.2682 220.093 86.8789 222.041 89.6551 222.941C92.7622 223.952 95.235 223.254 97.9284 221.508" stroke="#263238" stroke-linecap="round" stroke-linejoin="round"/>
<path d="M60.1748 229.998C61.8846 230.54 62.2891 228.16 62.7947 227.021C63.7691 224.926 64.4586 224.512 66.7475 225.036C72.0701 226.258 75.4438 227.462 78.8083 222.399" stroke="#263238" stroke-linecap="round" stroke-linejoin="round"/>
<path d="M57.8398 241.096C57.8398 241.096 68.8709 232.368 88.8097 230.696C108.749 229.024 121.903 230.264 126.83 235.161C131.758 240.058 140.141 257.212 140.224 265.481C140.27 270.699 134.028 285.409 134.028 285.409L143.368 328.123C143.368 328.123 116.277 326.065 91.8893 328.206C79.4884 329.299 76.2618 331.715 76.2618 331.715C76.2618 331.715 81.5108 313.184 82.4301 308.636C83.3493 304.088 53.2343 257.157 57.8398 241.096Z" fill="#263238"/>
<path d="M166.442 297.739C164.548 307.588 161.073 305.549 154.491 302.48C147.909 299.411 136.933 288.395 124.569 272.445L138.744 254.713C138.744 254.713 149.831 270.405 154.528 275.532C159.226 280.659 161.882 288.395 161.882 288.395" fill="white"/>
<path d="M166.442 297.739C164.548 307.588 161.073 305.549 154.491 302.48C147.909 299.411 136.933 288.395 124.569 272.445L138.744 254.713C138.744 254.713 149.831 270.405 154.528 275.532C159.226 280.659 161.882 288.395 161.882 288.395" stroke="#263238" stroke-linecap="round" stroke-linejoin="round"/>
<path d="M107.517 230.301C107.517 230.301 119.467 229.07 125.451 234.031C131.436 238.992 138.275 251.543 142.108 257.294C142.108 257.294 134.138 272.041 124.808 274.494C124.808 274.494 120.837 267.952 117.454 265.913C114.071 263.873 110.936 258.967 110.936 258.967" fill="#263238"/>
<path d="M66.2969 236.328C56.3413 239.452 46.496 255.08 40.7139 260.29C40.7139 260.29 44.8046 271.71 57.0032 275.909C57.0032 275.909 63.1439 270.718 66.3429 271.949C69.5419 273.18 66.2969 236.328 66.2969 236.328Z" fill="#263238"/>
<path d="M112.729 166.115C112.793 167.502 112.876 168.871 112.839 170.268" stroke="#263238" stroke-linecap="round" stroke-linejoin="round"/>
<path d="M37.2942 295.846C37.2942 295.846 33.9941 300.44 28.9014 300.238" stroke="#263238" stroke-linecap="round" stroke-linejoin="round"/>
<path d="M124.569 272.445C124.569 272.445 119.807 263.744 117.444 263.891C115.082 264.038 110.66 248.465 119.788 237.669" stroke="white" stroke-linecap="round" stroke-linejoin="round"/>
<path d="M74.3584 234.996C74.3584 234.996 79.9659 239.59 100.723 232.901" stroke="white" stroke-linecap="round" stroke-linejoin="round"/>
<path d="M74.3584 244.294C74.3584 244.294 89.7928 243.935 97.34 237.697" stroke="white" stroke-linecap="round" stroke-linejoin="round"/>
<path d="M56.9298 247.418C56.9298 247.418 55.3671 264.985 66.1224 269.652" stroke="white" stroke-linecap="round" stroke-linejoin="round"/>
<path d="M54.1904 263.891C54.1904 263.891 56.6081 270.075 64.6976 269.652" stroke="white" stroke-linecap="round" stroke-linejoin="round"/>
<path d="M109.089 257.35C109.089 257.35 110.155 264.7 120.12 265.738" stroke="white" stroke-linecap="round" stroke-linejoin="round"/>
<path d="M85.666 305.007C85.666 305.007 110.026 300.486 113.952 292.732" stroke="white" stroke-linecap="round" stroke-linejoin="round"/>
<path d="M91.3652 311.365C91.3652 311.365 100.006 322.996 114.273 320.332" stroke="white" stroke-linecap="round" stroke-linejoin="round"/>
</g>
<defs>
<clipPath id="clip0_1484_16962">
<rect width="373" height="407" fill="white"/>
</clipPath>
</defs>
</svg>
