<svg width="503" height="380" viewBox="0 0 503 380" fill="none" xmlns="http://www.w3.org/2000/svg">
<g clip-path="url(#clip0_232_2163)">
<path d="M483.812 266.079C483.812 266.079 507.711 143.602 442.644 74.0271C385.253 12.6579 294.37 -11.1739 220.232 39.5451C193.804 57.6154 174.616 92.7085 143.74 103.533C109.201 115.667 64.7183 120.032 32.6212 172.148C0.611297 224.351 12.1244 291.307 54.9496 326.924C97.7748 362.541 172.697 327.797 240.206 325.178C307.714 322.559 448.488 417.275 483.812 266.079Z" fill="#FD6C03"/>
<path opacity="0.7" d="M483.812 266.079C483.812 266.079 507.711 143.602 442.644 74.0271C385.253 12.6579 294.37 -11.1739 220.232 39.5451C193.804 57.6154 174.616 92.7085 143.74 103.533C109.201 115.667 64.7183 120.032 32.6212 172.148C0.611297 224.351 12.1244 291.307 54.9496 326.924C97.7748 362.541 172.697 327.797 240.206 325.178C307.714 322.559 448.488 417.275 483.812 266.079Z" fill="white"/>
<path d="M89.2265 46.7907C89.2265 46.7907 89.2265 39.3706 78.8473 28.895C68.3808 18.5068 61.7521 12.5706 61.7521 12.5706C61.7521 12.5706 56.5189 29.6807 66.2003 40.1562C75.8818 50.5445 89.2265 60.2343 89.2265 60.2343V46.7907Z" fill="#FD6C03"/>
<path d="M74.1379 93.3196C74.1379 93.3196 74.1379 85.8994 63.7587 75.4239C53.2923 65.0356 46.5763 59.0995 46.5763 59.0995C46.5763 59.0995 41.3431 76.2095 51.0245 86.6851C60.706 97.0733 74.0507 106.763 74.0507 106.763V93.3196H74.1379Z" fill="#FD6C03"/>
<path d="M88.6156 59.536C88.6156 59.536 89.4005 52.1158 100.826 42.8624C112.252 33.609 119.579 28.3712 119.579 28.3712C119.579 28.3712 122.98 45.9178 112.252 55.2584C101.524 64.5991 87.1328 72.805 87.1328 72.805L88.6156 59.536Z" fill="#FD6C03"/>
<path d="M70.3008 114.445C70.3008 114.445 71.8708 107.2 84.2561 99.1684C96.6414 91.1371 104.404 86.7723 104.404 86.7723C104.404 86.7723 105.887 104.581 94.2864 112.787C82.6861 120.992 67.5098 127.627 67.5098 127.627L70.3008 114.445Z" fill="#FD6C03"/>
<path d="M73.7891 174.33C73.7891 174.33 73.7891 166.91 84.1683 156.435C94.5475 146.046 101.263 140.023 101.263 140.023C101.263 140.023 106.497 157.133 96.8152 167.609C87.1338 177.997 73.7891 187.687 73.7891 187.687V174.33Z" fill="#FD6C03"/>
<path d="M73.6149 188.909C73.6149 188.909 74.6615 181.576 65.8522 169.704C57.043 157.919 51.1992 151.022 51.1992 151.022C51.1992 151.022 43.611 167.259 51.7225 178.957C59.834 190.655 71.696 202.178 71.696 202.178L73.6149 188.909Z" fill="#FD6C03"/>
<path d="M63.3223 232.208C63.3223 232.208 63.3223 224.788 73.7015 214.312C84.0807 203.924 90.7967 197.9 90.7967 197.9C90.7967 197.9 96.0299 215.01 86.3484 225.486C76.667 235.874 63.3223 245.564 63.3223 245.564V232.208Z" fill="#FD6C03"/>
<path d="M70.2999 271.491C70.2999 271.491 68.381 264.245 75.882 251.587C83.2957 238.842 88.2673 231.422 88.2673 231.422C88.2673 231.422 97.5999 246.699 90.8839 259.182C84.1679 271.753 73.7015 284.498 73.7015 284.498L70.2999 271.491Z" fill="#FD6C03"/>
<path d="M90.1861 44.8702C89.5755 52.8142 88.7033 61.1073 87.3078 68.0037C83.2084 89.3039 72.9164 103.009 68.8171 122.302C64.7177 141.507 76.4925 166.299 73.3525 191.004C70.2126 215.709 60.6184 229.414 63.3222 245.913C66.026 262.412 80.5046 307.02 80.5046 307.02" stroke="#263238" stroke-width="1.2008" stroke-miterlimit="10" stroke-linecap="round" stroke-linejoin="round"/>
<path d="M88.4414 64.4245L99.6928 55.8695" stroke="#263238" stroke-width="1.2008" stroke-miterlimit="10" stroke-linecap="round" stroke-linejoin="round"/>
<path d="M88.9645 54.5601L84.3418 46.1797" stroke="#263238" stroke-width="1.2008" stroke-miterlimit="10" stroke-linecap="round" stroke-linejoin="round"/>
<path d="M69.4277 121.429C69.4277 121.429 78.8475 114.358 88.4418 107.287" stroke="#263238" stroke-width="1.2008" stroke-miterlimit="10" stroke-linecap="round" stroke-linejoin="round"/>
<path d="M74.1389 106.763C74.1389 106.763 66.2891 91.399 57.3926 81.1854" stroke="#263238" stroke-width="1.2008" stroke-miterlimit="10" stroke-linecap="round" stroke-linejoin="round"/>
<path d="M74.1387 184.893C74.1387 184.893 81.4652 170.489 94.1994 158.006" stroke="#263238" stroke-width="1.2008" stroke-miterlimit="10" stroke-linecap="round" stroke-linejoin="round"/>
<path d="M72.3069 195.369C72.3069 195.369 67.597 184.108 62.1021 176.076C56.6072 167.958 55.8223 166.91 55.8223 166.91" stroke="#263238" stroke-width="1.2008" stroke-miterlimit="10" stroke-linecap="round" stroke-linejoin="round"/>
<path d="M63.3223 245.913C63.3223 245.913 67.0727 236.398 71.7826 228.803C76.4926 221.208 82.7724 214.399 82.7724 214.399" stroke="#263238" stroke-width="1.2008" stroke-miterlimit="10" stroke-linecap="round" stroke-linejoin="round"/>
<path d="M73.7009 284.498C73.7009 284.498 72.567 275.594 76.4919 267.999C80.4168 260.404 84.8651 250.453 86.6967 246.612" stroke="#263238" stroke-width="1.2008" stroke-miterlimit="10" stroke-linecap="round" stroke-linejoin="round"/>
<path d="M21.0202 146.308C21.0202 146.308 20.2352 141.682 25.6429 134C31.0506 126.317 34.6266 121.865 34.6266 121.865C34.6266 121.865 39.7726 132.079 34.801 139.586C29.8295 147.181 22.503 154.689 22.503 154.689L21.0202 146.308Z" fill="#FD6C03"/>
<path d="M35.5866 173.807C35.5866 173.807 34.8016 169.18 40.2093 161.498C45.617 153.816 49.193 149.364 49.193 149.364C49.193 149.364 54.339 159.577 49.3674 167.085C44.3959 174.68 37.0694 182.187 37.0694 182.187L35.5866 173.807Z" fill="#FD6C03"/>
<path d="M22.8521 154.165C22.8521 154.165 21.5438 149.626 13.345 144.999C5.14633 140.459 0.000329755 138.015 0.000329755 138.015C0.000329755 138.015 -0.174111 149.451 7.50128 154.078C15.2639 158.792 25.1198 162.371 25.1198 162.371L22.8521 154.165Z" fill="#FD6C03"/>
<path d="M40.2095 186.639C40.2095 186.639 38.4651 182.274 29.8303 178.521C21.1954 174.854 15.875 172.934 15.875 172.934C15.875 172.934 16.8344 184.282 25.0331 188.123C33.2319 191.964 43.4366 194.496 43.4366 194.496L40.2095 186.639Z" fill="#FD6C03"/>
<path d="M44.5702 224.613C44.5702 224.613 43.7852 219.986 36.1098 214.574C28.4344 209.162 23.6373 206.193 23.6373 206.193C23.6373 206.193 22.2418 217.542 29.3938 222.954C36.6331 228.454 46.0529 233.081 46.0529 233.081L44.5702 224.613Z" fill="#FD6C03"/>
<path d="M46.2273 233.692C46.2273 233.692 44.7446 229.152 49.0184 220.859C53.2922 212.479 56.1705 207.59 56.1705 207.59C56.1705 207.59 62.712 216.931 58.8743 225.137C55.0366 233.343 48.8439 241.81 48.8439 241.81L46.2273 233.692Z" fill="#FD6C03"/>
<path d="M59.311 271.404C59.311 271.404 59.8343 266.69 67.1608 260.841C74.4873 254.992 79.1972 251.762 79.1972 251.762C79.1972 251.762 81.2905 262.936 74.4001 268.872C67.5097 274.721 58.3516 279.871 58.3516 279.871L59.311 271.404Z" fill="#FD6C03"/>
<path d="M57.3905 259.793C57.3905 259.793 56.6055 255.167 48.9301 249.754C41.2547 244.342 36.4576 241.374 36.4576 241.374C36.4576 241.374 35.0621 252.722 42.2142 258.135C49.4535 263.634 58.8733 268.261 58.8733 268.261L57.3905 259.793Z" fill="#FD6C03"/>
<path d="M57.3046 285.196C57.3046 285.196 57.7408 280.482 51.6353 273.324C45.6171 266.166 41.6922 261.976 41.6922 261.976C41.6922 261.976 37.5056 272.538 43.0005 279.697C48.5826 286.855 56.5197 293.664 56.5197 293.664L57.3046 285.196Z" fill="#FD6C03"/>
<path d="M20.2363 145.173C21.4574 150.062 22.9402 155.125 24.5101 159.403C29.3945 172.323 37.3315 179.83 42.0414 191.44C46.7513 203.051 41.9542 219.899 46.6641 235.001C51.2868 250.191 58.875 257.698 58.875 268.348C58.9622 278.998 54.7756 308.504 54.7756 308.504" stroke="#263238" stroke-width="1.2008" stroke-miterlimit="10" stroke-linecap="round" stroke-linejoin="round"/>
<path d="M23.3746 157.308L15.4375 153.117" stroke="#263238" stroke-width="1.2008" stroke-miterlimit="10" stroke-linecap="round" stroke-linejoin="round"/>
<path d="M21.9805 151.11L24.0738 145.348" stroke="#263238" stroke-width="1.2008" stroke-miterlimit="10" stroke-linecap="round" stroke-linejoin="round"/>
<path d="M41.5172 190.917C41.5172 190.917 34.8885 187.512 27.998 184.108" stroke="#263238" stroke-width="1.2008" stroke-miterlimit="10" stroke-linecap="round" stroke-linejoin="round"/>
<path d="M36.9824 182.274C36.9824 182.274 40.2096 171.799 44.6578 164.466" stroke="#263238" stroke-width="1.2008" stroke-miterlimit="10" stroke-linecap="round" stroke-linejoin="round"/>
<path d="M45.4412 231.247C45.4412 231.247 39.3358 223.042 29.916 216.582" stroke="#263238" stroke-width="1.2008" stroke-miterlimit="10" stroke-linecap="round" stroke-linejoin="round"/>
<path d="M47.7969 237.62C47.7969 237.62 49.5413 230.025 52.0707 224.351C54.6001 218.677 55.0362 217.978 55.0362 217.978" stroke="#263238" stroke-width="1.2008" stroke-miterlimit="10" stroke-linecap="round" stroke-linejoin="round"/>
<path d="M58.5254 276.38C58.5254 276.38 63.8458 269.92 67.073 267.475C70.3874 265.031 72.6551 262.587 72.6551 262.587" stroke="#263238" stroke-width="1.2008" stroke-miterlimit="10" stroke-linecap="round" stroke-linejoin="round"/>
<path d="M58.8742 268.348C58.8742 268.348 55.4726 262.761 51.7221 258.484C47.9716 254.206 43.2617 250.627 43.2617 250.627" stroke="#263238" stroke-width="1.2008" stroke-miterlimit="10" stroke-linecap="round" stroke-linejoin="round"/>
<path d="M56.6067 293.664C56.6067 293.664 56.345 287.99 53.0306 283.625C49.7163 279.26 45.8786 273.586 44.3086 271.316" stroke="#263238" stroke-width="1.2008" stroke-miterlimit="10" stroke-linecap="round" stroke-linejoin="round"/>
<path d="M87.221 379.476H43.7853C41.8664 379.476 40.3837 377.905 40.3837 376.072L29.5684 303.965H101.438L90.6226 376.072C90.6226 377.905 89.1399 379.476 87.221 379.476Z" fill="#263238" stroke="#263238" stroke-width="1.2008" stroke-miterlimit="10" stroke-linecap="round" stroke-linejoin="round"/>
<path d="M326.531 29.8599L316.17 40.23L326.531 50.6002L336.892 40.23L326.531 29.8599Z" stroke="#263238" stroke-width="1.2008" stroke-miterlimit="10" stroke-linecap="round" stroke-linejoin="round"/>
<path d="M220.33 0.524668L214.656 6.20357L220.33 11.8825L226.004 6.20356L220.33 0.524668Z" stroke="#263238" stroke-width="1.2008" stroke-miterlimit="10" stroke-linecap="round" stroke-linejoin="round"/>
<path d="M456.709 52.4401L451.035 58.119L456.709 63.7979L462.383 58.119L456.709 52.4401Z" stroke="#263238" stroke-width="1.2008" stroke-miterlimit="10" stroke-linecap="round" stroke-linejoin="round"/>
<path d="M158.914 70.6226C158.914 68.2656 156.995 66.4323 154.728 66.4323C152.373 66.4323 150.541 68.3529 150.541 70.6226C150.541 72.9796 152.46 74.8128 154.728 74.8128C157.083 74.8128 158.914 72.9796 158.914 70.6226Z" stroke="#263238" stroke-width="1.2008" stroke-miterlimit="10" stroke-linecap="round" stroke-linejoin="round"/>
<path d="M484.684 298.116C484.684 295.759 482.765 293.926 480.497 293.926C478.142 293.926 476.311 295.847 476.311 298.116C476.311 300.473 478.229 302.306 480.497 302.306C482.765 302.306 484.684 300.473 484.684 298.116Z" stroke="#263238" stroke-width="1.2008" stroke-miterlimit="10" stroke-linecap="round" stroke-linejoin="round"/>
<path d="M383.07 86.4232C383.07 84.0662 381.152 82.233 378.884 82.233C376.529 82.233 374.697 84.1535 374.697 86.4232C374.697 88.7802 376.616 90.6134 378.884 90.6134C381.239 90.6134 383.07 88.6929 383.07 86.4232Z" stroke="#263238" stroke-width="1.2008" stroke-miterlimit="10" stroke-linecap="round" stroke-linejoin="round"/>
<path d="M55.297 117.85C55.297 115.493 53.3781 113.66 51.1104 113.66C48.7555 113.66 46.9238 115.58 46.9238 117.85C46.9238 120.119 48.8427 122.04 51.1104 122.04C53.3781 122.04 55.297 120.119 55.297 117.85Z" stroke="#263238" stroke-width="1.2008" stroke-miterlimit="10" stroke-linecap="round" stroke-linejoin="round"/>
<path d="M471.252 360.533H76.3184V115.144C76.3184 109.033 81.2899 104.057 87.3953 104.057H460.088C466.193 104.057 471.165 109.033 471.165 115.144V360.533H471.252Z" fill="white" stroke="#263238" stroke-width="1.2008" stroke-miterlimit="10" stroke-linecap="round" stroke-linejoin="round"/>
<path d="M410.372 348.224H139.029V361.581H410.372V348.224Z" fill="#263238" stroke="#263238" stroke-width="1.2008" stroke-miterlimit="10" stroke-linecap="round" stroke-linejoin="round"/>
<path d="M410.372 354.684H139.029V361.581H410.372V354.684Z" fill="white" stroke="#263238" stroke-width="1.2008" stroke-miterlimit="10" stroke-linecap="round" stroke-linejoin="round"/>
<path d="M44.3965 369.524C44.3965 369.524 48.8447 374.937 62.1894 379.476H487.127C487.127 379.476 497.07 377.032 501.518 370.048L44.3965 369.524Z" fill="#263238" stroke="#263238" stroke-width="1.2008" stroke-miterlimit="10" stroke-linecap="round" stroke-linejoin="round"/>
<path d="M499.076 370.223H46.925C45.0934 370.223 43.5234 368.739 43.5234 366.818V363.152C43.5234 361.319 45.0062 359.747 46.925 359.747H499.163C500.994 359.747 502.564 361.231 502.564 363.152V366.818C502.477 368.652 500.994 370.223 499.076 370.223Z" fill="white" stroke="#263238" stroke-width="1.2008" stroke-miterlimit="10" stroke-linecap="round" stroke-linejoin="round"/>
<path d="M277.187 111.826C277.187 109.906 275.617 108.334 273.698 108.334C271.779 108.334 270.209 109.906 270.209 111.826C270.209 113.747 271.779 115.318 273.698 115.318C275.617 115.231 277.187 113.747 277.187 111.826Z" fill="#263238"/>
<path d="M80.0688 176.251C79.5455 176.251 79.1094 175.814 79.1094 175.291V146.57C79.1094 146.046 79.5455 145.61 80.0688 145.61C80.5921 145.61 81.0282 146.046 81.0282 146.57V175.291C81.0282 175.814 80.5921 176.251 80.0688 176.251Z" fill="#263238" stroke="white" stroke-width="0.8306" stroke-miterlimit="10" stroke-linejoin="round"/>
<path d="M455.204 124.048H92.3672V329.281H455.204V124.048Z" fill="#D1D1D1" stroke="#263238" stroke-width="1.2008" stroke-miterlimit="10" stroke-linejoin="round"/>
<path d="M455.204 124.048H152.637V136.182H455.204V124.048Z" fill="#263238"/>
<path d="M109.995 179.525C114.401 177.698 116.493 172.643 114.668 168.233C112.843 163.823 107.792 161.729 103.386 163.555C98.9799 165.382 96.8877 170.438 98.7127 174.848C100.538 179.257 105.589 181.351 109.995 179.525Z" stroke="#263238" stroke-width="1.2008" stroke-miterlimit="10" stroke-linejoin="round"/>
<path d="M106.67 205.059C111.439 205.059 115.305 201.189 115.305 196.416C115.305 191.643 111.439 187.774 106.67 187.774C101.901 187.774 98.0352 191.643 98.0352 196.416C98.0352 201.189 101.901 205.059 106.67 205.059Z" stroke="#263238" stroke-width="1.2008" stroke-miterlimit="10" stroke-linejoin="round"/>
<path d="M109.966 229.291C114.372 227.464 116.464 222.408 114.639 217.999C112.814 213.589 107.763 211.495 103.357 213.321C98.9506 215.148 96.8584 220.204 98.6834 224.613C100.508 229.023 105.56 231.117 109.966 229.291Z" stroke="#263238" stroke-width="1.2008" stroke-miterlimit="10" stroke-linejoin="round"/>
<path d="M106.67 254.905C111.439 254.905 115.305 251.035 115.305 246.262C115.305 241.489 111.439 237.62 106.67 237.62C101.901 237.62 98.0352 241.489 98.0352 246.262C98.0352 251.035 101.901 254.905 106.67 254.905Z" stroke="#263238" stroke-width="1.2008" stroke-miterlimit="10" stroke-linejoin="round"/>
<path d="M106.67 279.784C111.439 279.784 115.305 275.915 115.305 271.142C115.305 266.369 111.439 262.499 106.67 262.499C101.901 262.499 98.0352 266.369 98.0352 271.142C98.0352 275.915 101.901 279.784 106.67 279.784Z" stroke="#263238" stroke-width="1.2008" stroke-miterlimit="10" stroke-linejoin="round"/>
<path d="M115.227 297.493C115.991 292.781 112.794 288.342 108.087 287.578C103.38 286.813 98.9441 290.012 98.1802 294.724C97.4162 299.435 100.613 303.875 105.32 304.639C110.028 305.404 114.463 302.204 115.227 297.493Z" stroke="#263238" stroke-width="1.2008" stroke-miterlimit="10" stroke-linejoin="round"/>
<path d="M433.136 143.253H134.93V324.13H433.136V143.253Z" stroke="#263238" stroke-width="1.2008" stroke-miterlimit="10" stroke-linejoin="round"/>
<path d="M135.367 251.326H433.487" stroke="#263238" stroke-width="1.2008" stroke-miterlimit="10" stroke-linejoin="round"/>
<path d="M307.277 262.238H408.976" stroke="#263238" stroke-width="1.2008" stroke-miterlimit="10" stroke-linejoin="round"/>
<path d="M307.277 271.229H408.976" stroke="#263238" stroke-width="1.2008" stroke-miterlimit="10" stroke-linejoin="round"/>
<path d="M307.277 280.308H408.976" stroke="#263238" stroke-width="1.2008" stroke-miterlimit="10" stroke-linejoin="round"/>
<path d="M307.277 289.299H408.976" stroke="#263238" stroke-width="1.2008" stroke-miterlimit="10" stroke-linejoin="round"/>
<path d="M307.277 298.291H408.976" stroke="#263238" stroke-width="1.2008" stroke-miterlimit="10" stroke-linejoin="round"/>
<path d="M307.277 307.37H408.976" stroke="#263238" stroke-width="1.2008" stroke-miterlimit="10" stroke-linejoin="round"/>
<path d="M279.279 147.705V148.753" stroke="#263238" stroke-width="1.2008" stroke-linejoin="round"/>
<path d="M279.279 150.848V245.215" stroke="#263238" stroke-width="1.2008" stroke-linejoin="round" stroke-dasharray="2.38 2.38"/>
<path d="M279.279 246.262V247.31" stroke="#263238" stroke-width="1.2008" stroke-linejoin="round"/>
<path d="M283.814 250.191C283.814 247.746 281.808 245.739 279.366 245.739C276.924 245.739 274.918 247.746 274.918 250.191C274.918 252.635 276.924 254.643 279.366 254.643C281.808 254.643 283.814 252.635 283.814 250.191Z" fill="white" stroke="#263238" stroke-width="1.2008" stroke-miterlimit="10" stroke-linejoin="round"/>
<path d="M279.279 247.31V253.246" stroke="#263238" stroke-width="0.6004" stroke-miterlimit="10" stroke-linejoin="round"/>
<path d="M282.245 250.278H276.227" stroke="#263238" stroke-width="0.6004" stroke-miterlimit="10" stroke-linejoin="round"/>
<path d="M240.38 201.479H169.906C166.941 201.479 164.586 199.122 164.586 196.154C164.586 193.186 166.941 190.829 169.906 190.829H240.38C243.346 190.829 245.701 193.186 245.701 196.154C245.701 199.035 243.346 201.479 240.38 201.479Z" stroke="#263238" stroke-width="1.2008" stroke-miterlimit="10" stroke-linejoin="round"/>
<path d="M211.684 260.928H141.123V311.385H211.684V260.928Z" fill="#FD6C03" stroke="#263238" stroke-width="1.2008" stroke-miterlimit="10" stroke-linejoin="round"/>
<path d="M141.123 311.385L211.684 260.928" stroke="#263238" stroke-width="1.2008" stroke-miterlimit="10" stroke-linejoin="round"/>
<path d="M141.123 260.928L211.684 311.385" stroke="#263238" stroke-width="1.2008" stroke-miterlimit="10" stroke-linejoin="round"/>
<path d="M292.188 260.928H221.627V311.385H292.188V260.928Z" fill="#FD6C03" stroke="#263238" stroke-width="1.2008" stroke-miterlimit="10" stroke-linejoin="round"/>
<path d="M221.627 311.385L292.101 260.928" stroke="#263238" stroke-width="1.2008" stroke-miterlimit="10" stroke-linejoin="round"/>
<path d="M221.627 260.928L292.101 311.385" stroke="#263238" stroke-width="1.2008" stroke-miterlimit="10" stroke-linejoin="round"/>
<path d="M115.393 221.296H134.407" stroke="#263238" stroke-width="1.2008" stroke-miterlimit="10" stroke-linejoin="round"/>
<path d="M415.257 149.364H285.996V241.723H415.257V149.364Z" fill="#FD6C03" stroke="#263238" stroke-width="1.2008" stroke-miterlimit="10" stroke-linejoin="round"/>
<path d="M285.996 241.81L415.257 149.364" stroke="#263238" stroke-width="1.2008" stroke-miterlimit="10" stroke-linejoin="round"/>
<path d="M285.996 149.364L415.257 241.81" stroke="#263238" stroke-width="1.2008" stroke-miterlimit="10" stroke-linejoin="round"/>
<path d="M401.475 197.027C401.475 197.027 403.219 199.472 404.527 201.916C405.836 204.36 406.272 206.193 406.272 206.193C406.272 206.193 406.795 205.67 409.761 203.051C412.639 200.432 412.988 197.9 412.988 197.9L410.197 193.797C410.197 193.885 403.219 193.361 401.475 197.027Z" fill="white" stroke="#263238" stroke-width="1.2008" stroke-miterlimit="10" stroke-linecap="round" stroke-linejoin="round"/>
<path d="M398.684 181.663C398.684 181.663 397.724 184.457 396.852 184.544C395.98 184.631 393.451 183.496 393.712 185.592C393.974 187.774 395.718 189.083 395.718 189.083C395.718 189.083 395.108 196.154 395.457 197.202C395.806 198.249 396.329 199.035 398.945 198.686C401.562 198.337 403.655 198.075 403.655 198.075C403.655 198.075 404.353 198.162 405.4 198.249C406.534 198.337 406.446 198.424 408.365 196.242C410.284 194.059 411.418 195.98 410.982 192.313C410.459 188.647 409.935 186.29 407.929 184.195C405.923 182.012 398.684 181.663 398.684 181.663Z" fill="white" stroke="#263238" stroke-width="1.2008" stroke-miterlimit="10" stroke-linecap="round" stroke-linejoin="round"/>
<path d="M397.638 186.028C397.376 186.814 397.376 187.512 397.638 187.599C397.812 187.687 398.248 187.076 398.423 186.29C398.684 185.504 398.684 184.806 398.423 184.719C398.248 184.631 397.899 185.242 397.638 186.028Z" fill="#263238"/>
<path d="M421.099 169.616L406.272 158.442C406.272 158.442 403.917 157.395 403.917 155.3C403.917 153.205 403.655 152.419 403.917 150.324C404.179 148.229 403.917 147.181 404.964 147.181C406.01 147.181 406.272 149.538 406.272 149.538L407.057 146.919C407.057 146.919 408.889 146.396 409.15 147.705C409.412 149.014 411.505 149.8 410.982 151.633C410.459 153.467 408.627 156.085 408.627 156.085C408.627 156.085 422.408 162.109 425.024 162.895C427.641 163.68 432.438 165.863 431.915 168.482C431.392 171.1 428.862 178.87 428.862 178.87L421.099 169.616Z" fill="white" stroke="#263238" stroke-width="1.2008" stroke-miterlimit="10" stroke-linecap="round" stroke-linejoin="round"/>
<path d="M407.057 205.059C407.057 205.059 403.393 207.59 399.207 210.646C393.974 214.487 393.886 223.478 393.537 224.438C392.927 225.922 410.022 244.604 412.464 247.746C414.906 250.889 415.343 255.952 415.343 255.952L438.543 250.889C438.543 250.889 426.943 210.296 426.332 207.328C425.722 204.36 424.762 200.519 424.762 200.519C424.762 200.519 426.332 191.353 428.426 183.933C430.519 176.513 431.304 171.799 431.217 170.577C431.042 169.354 424.675 168.656 421.971 168.656C419.355 168.569 419.529 169.005 419.529 169.005C419.529 169.005 413.773 182.449 413.424 183.06C413.162 183.671 407.057 205.059 407.057 205.059Z" fill="white" stroke="#263238" stroke-width="1.2008" stroke-miterlimit="10" stroke-linecap="round" stroke-linejoin="round"/>
<path d="M415.344 256.039L414.21 267.65L399.906 305.187L396.766 348.923L402.609 349.359L413.774 306.759L428.863 278.824L435.84 304.402L457.297 346.827L462.791 343.51L449.36 300.124L441.684 255.603L438.544 250.976L415.344 256.039Z" fill="#263238" stroke="#263238" stroke-width="1.2008" stroke-miterlimit="10" stroke-linecap="round" stroke-linejoin="round"/>
<path d="M411.33 197.377C411.33 197.377 409.76 199.646 408.539 201.043C407.318 202.44 405.486 202.876 405.05 203.924C404.614 204.971 402.172 208.463 402.172 208.463C402.172 208.463 407.928 207.416 410.894 204.971C413.859 202.527 414.819 197.726 414.819 197.726C414.819 197.726 412.638 196.591 411.33 197.377Z" fill="white" stroke="#263238" stroke-width="1.2008" stroke-miterlimit="10" stroke-linecap="round" stroke-linejoin="round"/>
<path d="M381.327 244.691C381.327 244.691 358.563 237.533 356.382 236.485C354.202 235.438 352.108 235.7 350.015 236.572C348.009 237.445 345.916 236.747 345.916 237.707C345.828 238.58 347.224 239.104 347.922 238.842C348.707 238.493 350.8 238.493 350.8 238.493L342.078 242.247C342.078 242.247 341.904 243.905 343.037 243.993C344.171 244.167 345.916 244.953 347.573 244.866C349.317 244.778 356.731 240.064 356.731 240.064C356.731 240.064 362.662 242.858 368.244 246.699C373.826 250.54 382.635 254.555 385.514 254.119C388.392 253.595 391.794 248.969 391.358 246.961C389.613 238.493 381.327 244.691 381.327 244.691Z" fill="white" stroke="#263238" stroke-width="1.2008" stroke-miterlimit="10" stroke-linecap="round" stroke-linejoin="round"/>
<path d="M409.848 226.359C409.848 226.359 403.045 235.088 399.382 239.715C395.718 244.255 391.968 252.286 388.915 252.111C385.862 251.937 382.025 245.739 382.199 244.08C382.374 242.421 386.56 238.842 389.002 232.382C390.834 227.581 393.974 219.462 395.457 215.621C395.98 214.225 396.154 213.177 397.288 212.217L399.12 210.733" fill="white"/>
<path d="M409.848 226.359C409.848 226.359 403.045 235.088 399.382 239.715C395.718 244.255 391.968 252.286 388.915 252.111C385.862 251.937 382.025 245.739 382.199 244.08C382.374 242.421 386.56 238.842 389.002 232.382C390.834 227.581 393.974 219.462 395.457 215.621C395.98 214.225 396.154 213.177 397.288 212.217L399.12 210.733" stroke="#263238" stroke-width="1.2008" stroke-miterlimit="10" stroke-linecap="round" stroke-linejoin="round"/>
<path d="M382.199 244.08C382.286 243.12 383.769 241.548 385.426 239.104C386.037 240.239 387.432 243.032 389.351 244.342C391.096 245.564 393.712 246.612 394.846 247.048C391.968 250.627 390.66 252.198 388.915 252.111C385.775 251.849 382.025 245.739 382.199 244.08Z" fill="white" stroke="#263238" stroke-width="1.2008" stroke-miterlimit="10" stroke-linecap="round" stroke-linejoin="round"/>
<path d="M417.611 173.457C418.658 171.013 419.53 169.005 419.53 169.005C419.53 169.005 419.269 168.656 421.972 168.656C424.589 168.743 432.003 169.529 432.177 170.751C432.264 171.45 432.352 174.854 430.52 177.56C428.514 175.902 422.147 172.934 417.611 173.457Z" fill="white" stroke="#263238" stroke-width="1.2008" stroke-miterlimit="10" stroke-linecap="round" stroke-linejoin="round"/>
<path d="M404.877 233.081C404.877 233.081 408.715 230.2 414.471 228.454" stroke="#263238" stroke-width="1.2008" stroke-miterlimit="10" stroke-linecap="round" stroke-linejoin="round"/>
<path d="M403.831 187.774C403.831 187.774 394.411 180.878 397.289 174.854C400.167 168.743 404.528 166.648 408.453 168.569C412.378 170.489 411.157 172.584 411.157 172.584C411.157 172.584 415.518 172.41 417.001 175.727C418.571 179.044 416.478 181.489 416.478 181.489C416.478 181.489 418.833 184.457 418.745 188.647C418.658 192.837 411.332 198.861 409.849 199.21C408.366 199.646 407.232 197.377 407.232 197.377C407.232 197.377 409.325 193.623 408.453 193.099C407.494 192.575 405.139 194.67 405.139 194.67C405.139 194.67 404.005 195.718 403.656 193.099C403.307 190.48 403.831 187.774 403.831 187.774Z" fill="#263238" stroke="#263238" stroke-width="1.2008" stroke-miterlimit="10" stroke-linecap="round" stroke-linejoin="round"/>
<path d="M396.764 348.923C396.764 348.923 392.403 353.2 388.13 354.335C383.856 355.47 381.85 356.692 381.85 356.692L380.89 358.351C380.541 358.962 380.978 359.747 381.675 359.747H402.957C402.957 359.747 403.306 358.176 403.306 354.684C403.306 351.192 402.521 349.272 402.521 349.272L396.764 348.923Z" fill="white" stroke="#263238" stroke-width="1.2008" stroke-miterlimit="10" stroke-linecap="round" stroke-linejoin="round"/>
<path d="M457.296 346.827L457.034 350.057C457.034 350.057 455.726 353.375 453.72 354.771C451.714 356.168 449.271 356.081 449.271 357.478C449.271 358.787 449.271 359.922 449.271 359.922H457.557C457.557 359.922 459.302 360.184 461.831 357.914C464.273 355.644 464.71 353.637 466.541 352.589C468.286 351.454 468.286 349.883 467.413 347.439C466.541 344.994 462.965 343.598 462.965 343.598L457.296 346.827Z" fill="white" stroke="#263238" stroke-width="1.2008" stroke-miterlimit="10" stroke-linecap="round" stroke-linejoin="round"/>
</g>
<defs>
<clipPath id="clip0_232_2163">
<rect width="503" height="380" fill="white"/>
</clipPath>
</defs>
</svg>
