<svg width="70" height="70" viewBox="0 0 70 70" fill="none" xmlns="http://www.w3.org/2000/svg">
<path d="M38.1453 31.9979H16.7876C15.982 31.9979 15.3281 31.347 15.3281 30.5443C15.3281 29.7416 15.982 29.0907 16.7876 29.0907H38.1453C38.9524 29.0907 39.6048 29.7416 39.6048 30.5443C39.6048 31.347 38.9524 31.9979 38.1453 31.9979Z" fill="#656565"/>
<path d="M52.3725 21.5613H43.6216C42.8145 21.5613 42.1621 20.9104 42.1621 20.1077C42.1621 19.305 42.8145 18.6541 43.6216 18.6541H52.3725C53.1796 18.6541 53.8319 19.305 53.8319 20.1077C53.8319 20.9104 53.1796 21.5613 52.3725 21.5613Z" fill="#656565"/>
<path d="M38.1453 36.8754H16.7876C15.982 36.8754 15.3281 36.2245 15.3281 35.4218C15.3281 34.6191 15.982 33.9682 16.7876 33.9682H38.1453C38.9524 33.9682 39.6048 34.6191 39.6048 35.4218C39.6048 36.2245 38.9524 36.8754 38.1453 36.8754Z" fill="#656565"/>
<path d="M52.5538 36.8754H43.4409C42.6338 36.8754 41.9814 36.2245 41.9814 35.4218V30.2918C41.9814 29.4891 42.6338 28.8382 43.4409 28.8382H52.5538C53.3608 28.8382 54.0132 29.4891 54.0132 30.2918V35.4218C54.0132 36.2245 53.3608 36.8754 52.5538 36.8754ZM44.9004 33.9682H51.0943V31.7454H44.9004V33.9682Z" fill="#656565"/>
<path d="M52.5538 46.5545H16.7095C15.9038 46.5545 15.25 45.9051 15.25 45.1009V39.9709C15.25 39.1682 15.9038 38.5173 16.7095 38.5173H52.5538C53.3609 38.5173 54.0132 39.1668 54.0132 39.9709V45.1009C54.0132 45.9051 53.3609 46.5545 52.5538 46.5545ZM18.1689 43.6473H51.0943V41.4245H18.1689V43.6473Z" fill="#656565"/>
<path d="M58.0782 47.4185C57.2712 47.4185 56.6188 46.7691 56.6188 45.9649V16.3583H13.3838V45.9649C13.3838 46.7676 12.7299 47.4185 11.9243 47.4185C11.1187 47.4185 10.4648 46.7691 10.4648 45.9649V14.9047C10.4648 14.102 11.1187 13.4511 11.9243 13.4511H58.0768C58.8839 13.4511 59.5362 14.102 59.5362 14.9047V45.9649C59.5377 46.7691 58.8839 47.4185 58.0782 47.4185Z" fill="#656565"/>
<path d="M11.9238 23.7607H58.0763V26.6679H11.9238V23.7607Z" fill="#656565"/>
<path d="M17.9982 21.9247C19.0057 21.9247 19.8225 21.1112 19.8225 20.1077C19.8225 19.1042 19.0057 18.2906 17.9982 18.2906C16.9906 18.2906 16.1738 19.1042 16.1738 20.1077C16.1738 21.1112 16.9906 21.9247 17.9982 21.9247Z" fill="#656565"/>
<path d="M23.4884 21.9247C24.4959 21.9247 25.3127 21.1112 25.3127 20.1077C25.3127 19.1042 24.4959 18.2906 23.4884 18.2906C22.4808 18.2906 21.6641 19.1042 21.6641 20.1077C21.6641 21.1112 22.4808 21.9247 23.4884 21.9247Z" fill="#656565"/>
<path d="M28.9796 21.9247C29.9871 21.9247 30.8039 21.1112 30.8039 20.1077C30.8039 19.1042 29.9871 18.2906 28.9796 18.2906C27.9721 18.2906 27.1553 19.1042 27.1553 20.1077C27.1553 21.1112 27.9721 21.9247 28.9796 21.9247Z" fill="#656565"/>
<path d="M64.0944 47.4185C63.2873 47.4185 62.6349 46.7691 62.6349 45.9649V12.3609C62.6349 11.5596 61.9811 10.9072 61.1755 10.9072H8.82467C8.0205 10.9072 7.36521 11.5596 7.36521 12.3609V45.9664C7.36521 46.7691 6.71137 47.42 5.90575 47.42C5.10013 47.42 4.44629 46.7705 4.44629 45.9664V12.3609C4.44629 9.95713 6.41072 8 8.82467 8H61.174C63.588 8 65.5524 9.95568 65.5524 12.3609V45.9664C65.5539 46.7691 64.9 47.4185 64.0944 47.4185Z" fill="#656565"/>
<path d="M61.0883 62H8.91258C4.38534 62 0.703125 58.3324 0.703125 53.8241V52.9601C0.703125 51.5079 1.88967 50.3258 3.34912 50.3258H66.6532C68.1112 50.3258 69.2992 51.5079 69.2992 52.9601V53.8241C69.2977 58.3324 65.6155 62 61.0883 62ZM3.62204 53.233V53.8256C3.62204 56.7314 5.99512 59.0942 8.91258 59.0942H61.0883C64.0057 59.0942 66.3788 56.7314 66.3788 53.8256V53.233H3.62204Z" fill="#656565"/>
<path d="M40.8383 57.6158H29.1626C28.357 57.6158 27.7031 56.9663 27.7031 56.1622C27.7031 55.3595 28.357 54.7085 29.1626 54.7085H40.8383C41.6453 54.7085 42.2977 55.358 42.2977 56.1622C42.2977 56.9663 41.6453 57.6158 40.8383 57.6158Z" fill="#656565"/>
</svg>
