<svg width="70" height="70" viewBox="0 0 70 70" fill="none" xmlns="http://www.w3.org/2000/svg">
<g clip-path="url(#clip0_1472_17033)">
<path d="M65.1718 47.8785C64.3348 47.8785 63.6582 47.205 63.6582 46.371V11.5224C63.6582 10.6915 62.9802 10.0149 62.1447 10.0149H7.85499C7.02105 10.0149 6.34148 10.6915 6.34148 11.5224V46.3725C6.34148 47.205 5.66343 47.88 4.82797 47.88C3.99251 47.88 3.31445 47.2065 3.31445 46.3725V11.5224C3.31445 9.02962 5.35164 7 7.85499 7H62.1432C64.6466 7 66.6838 9.02811 66.6838 11.5224V46.3725C66.6853 47.205 66.0072 47.8785 65.1718 47.8785Z" fill="#656565"/>
<path d="M62.0542 63H7.94613C3.25121 63 -0.567383 59.1965 -0.567383 54.5213V53.6253C-0.567383 52.1193 0.663104 50.8934 2.17662 50.8934H67.8253C69.3373 50.8934 70.5693 52.1193 70.5693 53.6253V54.5213C70.5678 59.1965 66.7492 63 62.0542 63ZM2.45964 53.9083V54.5228C2.45964 57.5362 4.92062 59.9866 7.94613 59.9866H62.0542C65.0798 59.9866 67.5407 57.5362 67.5407 54.5228V53.9083H2.45964Z" fill="#656565"/>
<path d="M41.0542 58.4534H28.9461C28.1107 58.4534 27.4326 57.7799 27.4326 56.946C27.4326 56.1135 28.1107 55.4385 28.9461 55.4385H41.0542C41.8912 55.4385 42.5678 56.112 42.5678 56.946C42.5678 57.7799 41.8912 58.4534 41.0542 58.4534Z" fill="#656565"/>
<path d="M28.6822 39.6026C28.2948 39.6026 27.9073 39.4558 27.6122 39.1606L23.8345 35.3965C23.2427 34.8078 23.2427 33.8543 23.8345 33.2655L27.6137 29.5029C28.2055 28.9142 29.162 28.9142 29.7538 29.5029C30.3456 30.0917 30.3456 31.0452 29.7538 31.6339L27.0446 34.331L29.7523 37.0296C30.3441 37.6184 30.3441 38.5719 29.7523 39.1606C29.4557 39.4558 29.0697 39.6026 28.6822 39.6026Z" fill="#656565"/>
<path d="M41.3205 39.6026C40.9331 39.6026 40.5456 39.4558 40.2505 39.1606C39.6587 38.5719 39.6587 37.6184 40.2505 37.0296L42.9597 34.331L40.2505 31.6339C39.6587 31.0452 39.6587 30.0917 40.2505 29.5029C40.8423 28.9142 41.7988 28.9142 42.3906 29.5029L46.1698 33.2655C46.4544 33.5485 46.6133 33.9314 46.6133 34.331C46.6133 34.7306 46.4544 35.1135 46.1698 35.3965L42.3906 39.1606C42.0955 39.4558 41.708 39.6026 41.3205 39.6026Z" fill="#656565"/>
<path d="M32.2385 41.3023C32.0251 41.3023 31.8087 41.2584 31.6044 41.163C30.8461 40.8149 30.5146 39.9174 30.8658 39.1621L36.3174 27.4324C36.6686 26.6772 37.5706 26.3487 38.3274 26.6968C39.0857 27.0465 39.4171 27.9425 39.0645 28.6977L33.6128 40.4274C33.357 40.9784 32.8091 41.3023 32.2385 41.3023Z" fill="#656565"/>
<path d="M50.1988 46.6631H19.8044C17.6234 46.6631 15.8496 44.8969 15.8496 42.725V18.1833C15.8496 16.013 17.6234 14.2467 19.8044 14.2467H50.1988C52.3798 14.2467 54.1536 16.013 54.1536 18.1833V42.725C54.1536 44.8969 52.3798 46.6631 50.1988 46.6631ZM19.8044 17.2601C19.2929 17.2601 18.8766 17.6748 18.8766 18.1833V42.725C18.8766 43.2335 19.2929 43.6497 19.8044 43.6497H50.1988C50.7104 43.6497 51.1266 43.235 51.1266 42.725V18.1833C51.1266 17.6748 50.7104 17.2601 50.1988 17.2601H19.8044Z" fill="#656565"/>
<path d="M17.3623 21.4571H52.6393V24.472H17.3623V21.4571Z" fill="#656565"/>
</g>
<defs>
<clipPath id="clip0_1472_17033">
<rect width="70" height="70" fill="white"/>
</clipPath>
</defs>
</svg>
