<svg width="212" height="248" viewBox="0 0 212 248" fill="none" xmlns="http://www.w3.org/2000/svg">
<path d="M222.555 205.446C219.988 205.446 217.912 203.371 217.912 200.804V77.2293C217.912 74.6711 215.832 72.5864 213.269 72.5864H176.284C173.717 72.5864 171.642 70.5064 171.642 67.9436C171.642 65.3807 173.717 63.3007 176.284 63.3007H213.269C220.949 63.3007 227.198 69.55 227.198 77.2293V200.804C227.198 203.371 225.118 205.446 222.555 205.446Z" fill="#656565"/>
<path d="M37.4446 205.953C34.8818 205.953 32.8018 203.877 32.8018 201.31V77.2293C32.8018 69.55 39.051 63.3007 46.7303 63.3007H83.7153C86.2782 63.3007 88.3582 65.3807 88.3582 67.9436C88.3582 70.5064 86.2782 72.5864 83.7153 72.5864H46.7303C44.1721 72.5864 42.0875 74.6711 42.0875 77.2293V201.31C42.0875 203.877 40.0121 205.953 37.4446 205.953V205.953Z" fill="#656565"/>
<path d="M212.991 235.801H47.0086C32.6065 235.801 20.8926 224.088 20.8926 209.685V206.923C20.8926 202.285 24.6672 198.505 29.3101 198.505H230.694C235.332 198.505 239.112 202.28 239.112 206.923V209.685C239.107 224.088 227.393 235.801 212.991 235.801V235.801ZM30.1783 207.796V209.685C30.1783 218.966 37.7276 226.516 47.0086 226.516H212.991C222.272 226.516 229.821 218.966 229.821 209.685V207.796H30.1783Z" fill="#656565"/>
<path d="M143.929 221.799H116.072C113.509 221.799 111.429 219.723 111.429 217.156C111.429 214.588 113.509 212.513 116.072 212.513H143.929C146.496 212.513 148.572 214.588 148.572 217.156C148.572 219.723 146.496 221.799 143.929 221.799Z" fill="#656565"/>
<path d="M157.834 153.99H143.929C141.361 153.99 139.286 151.914 139.286 149.347C139.286 146.779 141.361 144.704 143.929 144.704H154.073C157.565 127.047 167.575 61.3879 130.005 34.4407C92.3884 61.4111 102.44 127.061 105.946 144.704H116.072C118.634 144.704 120.714 146.779 120.714 149.347C120.714 151.914 118.634 153.99 116.072 153.99H102.18C100.012 153.99 98.1363 152.49 97.6534 150.378C94.1155 134.856 78.9334 55.8489 127.512 24.9228C129.034 23.9571 130.975 23.9571 132.498 24.9228C181.021 55.8211 165.885 134.847 162.366 150.378C161.883 152.49 160.002 153.99 157.834 153.99Z" fill="#656565"/>
<path d="M177.25 144.695C176.201 144.695 175.166 144.342 174.321 143.65L158.813 131.035L164.673 123.83L173.021 130.622L173.499 119.869L159.217 100.16L166.734 94.7097L181.967 115.728C182.585 116.578 182.891 117.608 182.845 118.658L181.888 140.247C181.81 142.002 180.751 143.562 179.149 144.277C178.541 144.56 177.891 144.695 177.25 144.695Z" fill="#656565"/>
<path d="M82.7496 144.695C82.1042 144.695 81.4589 144.565 80.8506 144.286C79.2489 143.571 78.1903 142.011 78.1114 140.256L77.1549 118.667C77.1085 117.618 77.4196 116.587 78.0324 115.737L93.2656 94.7189L100.782 100.17L86.501 119.879L86.9792 130.631L95.3224 123.844L101.186 131.049L85.6839 143.664C84.8389 144.342 83.7989 144.695 82.7496 144.695V144.695Z" fill="#656565"/>
<path d="M130 115.087C119.549 115.087 111.043 106.581 111.043 96.1303C111.043 85.6746 119.549 77.1689 130 77.1689C140.455 77.1689 148.961 85.6746 148.961 96.1303C148.961 106.581 140.455 115.087 130 115.087V115.087ZM130 86.4546C124.665 86.4546 120.329 90.7957 120.329 96.1303C120.329 101.465 124.67 105.801 130 105.801C135.334 105.801 139.675 101.46 139.675 96.1303C139.675 90.8003 135.334 86.4546 130 86.4546V86.4546Z" fill="#656565"/>
<path d="M129.999 180.273C127.436 180.273 125.356 178.197 125.356 175.63V130.209C125.356 127.646 127.436 125.566 129.999 125.566C132.562 125.566 134.642 127.646 134.642 130.209V175.63C134.642 178.197 132.562 180.273 129.999 180.273Z" fill="#656565"/>
<path d="M90.0247 175.486C87.4618 175.486 85.3818 173.411 85.3818 170.843V158.066C85.3818 155.499 87.4618 153.423 90.0247 153.423C92.5876 153.423 94.6676 155.499 94.6676 158.066V170.843C94.6676 173.411 92.5876 175.486 90.0247 175.486Z" fill="#656565"/>
<path d="M111.428 167.946C108.865 167.946 106.785 165.871 106.785 163.303V151.548C106.785 148.98 108.865 146.905 111.428 146.905C113.991 146.905 116.071 148.98 116.071 151.548V163.303C116.071 165.871 113.991 167.946 111.428 167.946Z" fill="#656565"/>
<path d="M148.572 167.946C146.004 167.946 143.929 165.871 143.929 163.303V151.548C143.929 148.98 146.004 146.905 148.572 146.905C151.139 146.905 153.214 148.98 153.214 151.548V163.303C153.214 165.871 151.139 167.946 148.572 167.946Z" fill="#656565"/>
<path d="M169.975 175.05C167.407 175.05 165.332 172.974 165.332 170.407V158.066C165.332 155.499 167.407 153.423 169.975 153.423C172.542 153.423 174.618 155.499 174.618 158.066V170.407C174.618 172.974 172.542 175.05 169.975 175.05Z" fill="#656565"/>
<path d="M160.563 203.153H151.278C151.278 191.42 141.732 181.875 129.999 181.875C118.267 181.875 108.721 191.42 108.721 203.153H99.4355C99.4355 186.299 113.146 172.589 129.999 172.589C146.853 172.589 160.563 186.299 160.563 203.153Z" fill="#656565"/>
<path d="M64.0569 203.153C61.4941 203.153 59.4141 201.078 59.4141 198.51C59.4141 181.656 73.1244 167.946 89.978 167.946C94.1008 167.946 98.103 168.754 101.873 170.351C104.236 171.349 105.341 174.075 104.343 176.438C103.345 178.796 100.615 179.897 98.2562 178.903C95.6423 177.794 92.8566 177.232 89.9826 177.232C78.2501 177.232 68.7044 186.778 68.7044 198.51C68.6998 201.078 66.6244 203.153 64.0569 203.153V203.153Z" fill="#656565"/>
<path d="M195.942 203.153C193.375 203.153 191.3 201.078 191.3 198.51C191.3 186.778 181.749 177.232 170.017 177.232C167.143 177.232 164.357 177.794 161.739 178.899C159.361 179.892 156.65 178.792 155.652 176.433C154.654 174.07 155.759 171.345 158.117 170.346C161.892 168.749 165.894 167.941 170.017 167.941C186.875 167.941 200.585 181.652 200.585 198.505C200.585 201.078 198.51 203.153 195.942 203.153Z" fill="#656565"/>
</svg>
