<svg width="327" height="164" viewBox="0 0 327 164" fill="none" xmlns="http://www.w3.org/2000/svg">
<path d="M129.136 125.325H47.9358L31.9278 162.909H0.839844L73.9198 0.509277H103.616L176.928 162.909H145.376L129.136 125.325ZM119.16 101.661L88.5359 30.6693L58.1438 101.661H119.16Z" fill="#333399"/>
<path d="M279.423 40.8772C294.426 40.8772 305.949 44.7439 313.992 52.4772C322.034 60.0559 326.055 71.2692 326.055 86.1172V162.909H314.919V141.333C311.053 148.448 305.408 154.016 297.984 158.037C290.56 161.904 281.666 163.837 271.303 163.837C257.847 163.837 247.176 160.667 239.288 154.325C231.554 147.984 227.688 139.632 227.688 129.269C227.688 119.216 231.245 111.096 238.359 104.909C245.629 98.5679 257.151 95.3972 272.927 95.3972H314.456V85.6532C314.456 74.3625 311.362 65.7785 305.175 59.9012C299.143 54.0239 290.25 51.0852 278.496 51.0852C270.453 51.0852 262.719 52.4772 255.295 55.2612C248.026 58.0452 241.84 61.7572 236.736 66.3972L230.936 58.0452C236.968 52.6319 244.237 48.4559 252.743 45.5172C261.25 42.4239 270.143 40.8772 279.423 40.8772ZM272.927 154.325C282.981 154.325 291.487 152.005 298.447 147.365C305.562 142.725 310.898 135.997 314.456 127.181V104.445H273.16C261.25 104.445 252.589 106.611 247.175 110.941C241.917 115.272 239.288 121.227 239.288 128.805C239.288 136.693 242.226 142.957 248.103 147.597C253.981 152.083 262.255 154.325 272.927 154.325Z" fill="#666699"/>
</svg>
