<svg width="180" height="22" viewBox="0 0 180 22" fill="none" xmlns="http://www.w3.org/2000/svg">
<path d="M60.8483 5.35997L56.5385 17.2884H53.2233L50.5491 9.88303L47.7864 17.2884H44.4712L40.1836 5.35997H43.4325L46.2393 13.4305L49.1567 5.35997H52.0741L54.903 13.4305L57.7983 5.35997H60.8483Z" fill="#060606"/>
<path d="M73.7747 11.3685C73.7747 11.4129 73.7526 11.7233 73.7084 12.2998H64.7132C64.8753 13.0388 65.2584 13.6227 65.8625 14.0513C66.4666 14.48 67.218 14.6943 68.1168 14.6943C68.7357 14.6943 69.2808 14.6056 69.7523 14.4283C70.2385 14.2361 70.6879 13.9405 71.1005 13.5414L72.9349 15.5369C71.8151 16.8228 70.1796 17.4658 68.0284 17.4658C66.6876 17.4658 65.5015 17.2071 64.4701 16.6898C63.4387 16.1577 62.6431 15.426 62.0832 14.4948C61.5233 13.5636 61.2433 12.5067 61.2433 11.3242C61.2433 10.1565 61.5159 9.10702 62.0611 8.1758C62.621 7.2298 63.3798 6.49813 64.3375 5.98078C65.31 5.44866 66.3929 5.1826 67.5864 5.1826C68.7504 5.1826 69.8039 5.43388 70.7469 5.93644C71.6899 6.439 72.4266 7.16328 72.957 8.10928C73.5022 9.0405 73.7747 10.1269 73.7747 11.3685ZM67.6085 7.79888C66.8276 7.79888 66.1719 8.0206 65.6415 8.46403C65.111 8.90747 64.7869 9.5135 64.669 10.2821H70.5259C70.408 9.52828 70.0838 8.92964 69.5534 8.48621C69.023 8.02799 68.3747 7.79888 67.6085 7.79888Z" fill="#060606"/>
<path d="M83.0984 5.1826C84.2034 5.1826 85.2054 5.44127 86.1041 5.95861C87.0177 6.46117 87.7323 7.17807 88.248 8.10928C88.7637 9.02572 89.0215 10.0974 89.0215 11.3242C89.0215 12.551 88.7637 13.6301 88.248 14.5613C87.7323 15.4777 87.0177 16.1946 86.1041 16.712C85.2054 17.2145 84.2034 17.4658 83.0984 17.4658C81.4629 17.4658 80.2178 16.9485 79.3633 15.9138V17.2884H76.0702V0.836914H79.518V6.62377C80.3873 5.66299 81.5807 5.1826 83.0984 5.1826ZM82.5016 14.6278C83.3857 14.6278 84.1077 14.3322 84.6676 13.7409C85.2422 13.1349 85.5295 12.3293 85.5295 11.3242C85.5295 10.3191 85.2422 9.52089 84.6676 8.92964C84.1077 8.32361 83.3857 8.0206 82.5016 8.0206C81.6176 8.0206 80.8882 8.32361 80.3136 8.92964C79.7537 9.52089 79.4738 10.3191 79.4738 11.3242C79.4738 12.3293 79.7537 13.1349 80.3136 13.7409C80.8882 14.3322 81.6176 14.6278 82.5016 14.6278Z" fill="#060606"/>
<path d="M109.236 11.3685C109.236 11.4129 109.214 11.7233 109.17 12.2998H100.175C100.337 13.0388 100.72 13.6227 101.324 14.0513C101.928 14.48 102.679 14.6943 103.578 14.6943C104.197 14.6943 104.742 14.6056 105.214 14.4283C105.7 14.2361 106.149 13.9405 106.562 13.5414L108.396 15.5369C107.276 16.8228 105.641 17.4658 103.49 17.4658C102.149 17.4658 100.963 17.2071 99.9314 16.6898C98.9 16.1577 98.1044 15.426 97.5445 14.4948C96.9846 13.5636 96.7046 12.5067 96.7046 11.3242C96.7046 10.1565 96.9772 9.10702 97.5224 8.1758C98.0823 7.2298 98.8411 6.49813 99.7988 5.98078C100.771 5.44866 101.854 5.1826 103.048 5.1826C104.212 5.1826 105.265 5.43388 106.208 5.93644C107.151 6.439 107.888 7.16328 108.418 8.10928C108.963 9.0405 109.236 10.1269 109.236 11.3685ZM103.07 7.79888C102.289 7.79888 101.633 8.0206 101.103 8.46403C100.572 8.90747 100.248 9.5135 100.13 10.2821H105.987C105.869 9.52828 105.545 8.92964 105.015 8.48621C104.484 8.02799 103.836 7.79888 103.07 7.79888Z" fill="#060606"/>
<path d="M118.759 5.1826C120.232 5.1826 121.418 5.62604 122.317 6.51291C123.23 7.39978 123.687 8.71531 123.687 10.4595V17.2884H120.239V10.9916C120.239 10.0456 120.033 9.34352 119.621 8.8853C119.208 8.4123 118.611 8.1758 117.83 8.1758C116.961 8.1758 116.268 8.44925 115.753 8.99616C115.237 9.52828 114.979 10.3265 114.979 11.3907V17.2884H111.531V5.35997H114.825V6.7568C115.281 6.25424 115.849 5.86993 116.526 5.60386C117.204 5.32302 117.948 5.1826 118.759 5.1826Z" fill="#060606"/>
<path d="M138.589 11.3685C138.589 11.4129 138.567 11.7233 138.523 12.2998H129.528C129.69 13.0388 130.073 13.6227 130.677 14.0513C131.281 14.48 132.033 14.6943 132.931 14.6943C133.55 14.6943 134.095 14.6056 134.567 14.4283C135.053 14.2361 135.502 13.9405 135.915 13.5414L137.749 15.5369C136.63 16.8228 134.994 17.4658 132.843 17.4658C131.502 17.4658 130.316 17.2071 129.285 16.6898C128.253 16.1577 127.458 15.426 126.898 14.4948C126.338 13.5636 126.058 12.5067 126.058 11.3242C126.058 10.1565 126.33 9.10702 126.876 8.1758C127.436 7.2298 128.194 6.49813 129.152 5.98078C130.124 5.44866 131.207 5.1826 132.401 5.1826C133.565 5.1826 134.618 5.43388 135.561 5.93644C136.504 6.439 137.241 7.16328 137.772 8.10928C138.317 9.0405 138.589 10.1269 138.589 11.3685ZM132.423 7.79888C131.642 7.79888 130.986 8.0206 130.456 8.46403C129.926 8.90747 129.601 9.5135 129.484 10.2821H135.34C135.223 9.52828 134.898 8.92964 134.368 8.48621C133.837 8.02799 133.189 7.79888 132.423 7.79888Z" fill="#060606"/>
<path d="M144.178 6.93418C144.59 6.35771 145.143 5.92166 145.835 5.62604C146.543 5.33041 147.353 5.1826 148.267 5.1826V8.37535C147.883 8.34578 147.626 8.331 147.493 8.331C146.506 8.331 145.732 8.61185 145.172 9.17353C144.612 9.72044 144.332 10.5482 144.332 11.6568V17.2884H140.885V5.35997H144.178V6.93418Z" fill="#060606"/>
<path d="M162.475 5.35997V15.293C162.475 17.4806 161.908 19.1065 160.773 20.1708C159.639 21.235 157.981 21.7671 155.8 21.7671C154.651 21.7671 153.561 21.6267 152.529 21.3459C151.498 21.065 150.643 20.6586 149.966 20.1264L151.336 17.6432C151.837 18.0571 152.47 18.3822 153.237 18.6187C154.003 18.87 154.769 18.9957 155.535 18.9957C156.729 18.9957 157.605 18.7222 158.165 18.1753C158.74 17.6432 159.027 16.8302 159.027 15.7364V15.2265C158.128 16.2168 156.876 16.712 155.27 16.712C154.18 16.712 153.178 16.4755 152.264 16.0025C151.365 15.5147 150.651 14.8347 150.12 13.9627C149.59 13.0906 149.325 12.0854 149.325 10.9473C149.325 9.80913 149.59 8.804 150.12 7.93191C150.651 7.05982 151.365 6.38727 152.264 5.91427C153.178 5.42649 154.18 5.1826 155.27 5.1826C156.994 5.1826 158.305 5.75168 159.204 6.88983V5.35997H162.475ZM155.955 13.874C156.868 13.874 157.613 13.6079 158.187 13.0758C158.777 12.5289 159.071 11.8194 159.071 10.9473C159.071 10.0752 158.777 9.37308 158.187 8.84095C157.613 8.29405 156.868 8.0206 155.955 8.0206C155.041 8.0206 154.29 8.29405 153.701 8.84095C153.111 9.37308 152.817 10.0752 152.817 10.9473C152.817 11.8194 153.111 12.5289 153.701 13.0758C154.29 13.6079 155.041 13.874 155.955 13.874Z" fill="#060606"/>
<path d="M177.486 5.35997L172.115 18.0201C171.57 19.3948 170.892 20.3629 170.082 20.9246C169.286 21.4863 168.321 21.7671 167.187 21.7671C166.568 21.7671 165.956 21.6711 165.352 21.4789C164.748 21.2868 164.255 21.0207 163.872 20.6807L165.131 18.2197C165.397 18.4562 165.699 18.6409 166.037 18.7739C166.391 18.907 166.737 18.9735 167.076 18.9735C167.548 18.9735 167.931 18.8552 168.225 18.6187C168.52 18.397 168.785 18.0201 169.021 17.488L169.065 17.3771L163.916 5.35997H167.474L170.811 13.4527L174.171 5.35997H177.486Z" fill="#060606"/>
<path d="M7.06845 1.95819C6.83339 1.2866 6.19957 0.836914 5.48804 0.836914H2.36051C1.20709 0.836914 0.399058 1.97581 0.780091 3.06448L6.28356 18.7887C6.51861 19.4603 7.15244 19.9099 7.86397 19.9099H10.9915C12.1449 19.9099 12.9529 18.771 12.5719 17.6824L7.06845 1.95819Z" fill="url(#paint0_linear_446_6940)"/>
<path d="M12.9548 1.96125L11.3001 6.7185C11.1766 7.07367 11.1762 7.46008 11.299 7.8155L13.2874 13.5692C13.6529 14.6267 15.1471 14.6308 15.5183 13.5752C15.8882 12.5232 17.3756 12.5224 17.7467 13.5739L19.5911 18.7998C19.8274 19.4692 20.4602 19.9169 21.1701 19.9169H24.3312C25.4856 19.9169 26.2937 18.7761 25.9108 17.6871L20.3789 1.95587C20.1432 1.28548 19.5099 0.836914 18.7993 0.836914H14.5363C13.8235 0.836914 13.1889 1.28808 12.9548 1.96125Z" fill="url(#paint1_linear_446_6940)"/>
<path d="M30.9076 0.836914H27.8089C27.1004 0.836914 26.4686 1.28283 26.2312 1.95039L24.5893 6.56815C24.4608 6.92973 24.4603 7.3245 24.588 7.68637L26.1588 12.1368C26.6853 13.6287 28.7963 13.6255 29.3184 12.1321L32.4882 3.06385C32.8687 1.9753 32.0607 0.836914 30.9076 0.836914Z" fill="url(#paint2_linear_446_6940)"/>
<path d="M17.6269 0.836914H14.4699C13.7571 0.836914 13.1225 1.28808 12.8884 1.96125L11.2357 6.71269C11.1109 7.07141 11.1118 7.4619 11.2382 7.82005L12.8141 12.285C13.3403 13.776 15.4496 13.7741 15.973 12.2821L19.2069 3.06571C19.5889 1.97682 18.7809 0.836914 17.6269 0.836914Z" fill="#FF7E07"/>
<defs>
<linearGradient id="paint0_linear_446_6940" x1="13.4194" y1="19.847" x2="6.7099" y2="0.836913" gradientUnits="userSpaceOnUse">
<stop stop-color="#FF7E07"/>
<stop offset="1" stop-color="#F8871F"/>
</linearGradient>
<linearGradient id="paint1_linear_446_6940" x1="18.9021" y1="0.836914" x2="25.4369" y2="20.6857" gradientUnits="userSpaceOnUse">
<stop stop-color="#E56E00"/>
<stop offset="1" stop-color="#FF7E07"/>
</linearGradient>
<linearGradient id="paint2_linear_446_6940" x1="28.8287" y1="0.836914" x2="25.2992" y2="11.1807" gradientUnits="userSpaceOnUse">
<stop stop-color="#E56E00"/>
<stop offset="1" stop-color="#FF7E07"/>
</linearGradient>
</defs>
</svg>
