<svg width="180" height="22" viewBox="0 0 180 22" fill="none" xmlns="http://www.w3.org/2000/svg">
<path d="M60.8507 5.36022L56.541 17.2887H53.2258L50.5515 9.88328L47.7889 17.2887H44.4737L40.186 5.36022H43.4349L46.2418 13.4308L49.1591 5.36022H52.0765L54.9055 13.4308L57.8007 5.36022H60.8507Z" fill="white"/>
<path d="M73.7772 11.3688C73.7772 11.4131 73.7551 11.7235 73.7109 12.3H64.7157C64.8777 13.0391 65.2608 13.6229 65.8649 14.0516C66.469 14.4802 67.2205 14.6946 68.1193 14.6946C68.7381 14.6946 69.2833 14.6059 69.7548 14.4285C70.241 14.2364 70.6904 13.9407 71.1029 13.5416L72.9373 15.5371C71.8175 16.8231 70.182 17.4661 68.0309 17.4661C66.69 17.4661 65.5039 17.2074 64.4726 16.69C63.4412 16.1579 62.6455 15.4262 62.0856 14.495C61.5257 13.5638 61.2458 12.5069 61.2458 11.3244C61.2458 10.1567 61.5184 9.10726 62.0635 8.17604C62.6234 7.23004 63.3822 6.49837 64.3399 5.98103C65.3124 5.4489 66.3954 5.18284 67.5888 5.18284C68.7528 5.18284 69.8063 5.43412 70.7493 5.93669C71.6923 6.43925 72.429 7.16353 72.9594 8.10953C73.5046 9.04075 73.7772 10.1272 73.7772 11.3688ZM67.6109 7.79912C66.83 7.79912 66.1744 8.02084 65.6439 8.46428C65.1135 8.90771 64.7893 9.51374 64.6715 10.2824H70.5283C70.4104 9.52853 70.0863 8.92989 69.5558 8.48645C69.0254 8.02823 68.3771 7.79912 67.6109 7.79912Z" fill="white"/>
<path d="M83.1008 5.18284C84.2059 5.18284 85.2078 5.44151 86.1066 5.95886C87.0201 6.46142 87.7347 7.17831 88.2504 8.10953C88.7661 9.02596 89.0239 10.0976 89.0239 11.3244C89.0239 12.5513 88.7661 13.6303 88.2504 14.5615C87.7347 15.478 87.0201 16.1949 86.1066 16.7122C85.2078 17.2148 84.2059 17.4661 83.1008 17.4661C81.4653 17.4661 80.2203 16.9487 79.3657 15.914V17.2887H76.0726V0.837158H79.5204V6.62401C80.3897 5.66323 81.5832 5.18284 83.1008 5.18284ZM82.5041 14.6281C83.3881 14.6281 84.1101 14.3324 84.67 13.7412C85.2446 13.1351 85.5319 12.3296 85.5319 11.3244C85.5319 10.3193 85.2446 9.52114 84.67 8.92989C84.1101 8.32386 83.3881 8.02084 82.5041 8.02084C81.62 8.02084 80.8907 8.32386 80.316 8.92989C79.7561 9.52114 79.4762 10.3193 79.4762 11.3244C79.4762 12.3296 79.7561 13.1351 80.316 13.7412C80.8907 14.3324 81.62 14.6281 82.5041 14.6281Z" fill="white"/>
<path d="M109.238 11.3688C109.238 11.4131 109.216 11.7235 109.172 12.3H100.177C100.339 13.0391 100.722 13.6229 101.326 14.0516C101.93 14.4802 102.682 14.6946 103.581 14.6946C104.199 14.6946 104.745 14.6059 105.216 14.4285C105.702 14.2364 106.152 13.9407 106.564 13.5416L108.399 15.5371C107.279 16.8231 105.643 17.4661 103.492 17.4661C102.151 17.4661 100.965 17.2074 99.9338 16.69C98.9025 16.1579 98.1068 15.4262 97.5469 14.495C96.987 13.5638 96.7071 12.5069 96.7071 11.3244C96.7071 10.1567 96.9796 9.10726 97.5248 8.17604C98.0847 7.23004 98.8435 6.49837 99.8012 5.98103C100.774 5.4489 101.857 5.18284 103.05 5.18284C104.214 5.18284 105.268 5.43412 106.211 5.93669C107.154 6.43925 107.89 7.16353 108.421 8.10953C108.966 9.04075 109.238 10.1272 109.238 11.3688ZM103.072 7.79912C102.291 7.79912 101.636 8.02084 101.105 8.46428C100.575 8.90771 100.251 9.51374 100.133 10.2824H105.99C105.872 9.52853 105.548 8.92989 105.017 8.48645C104.487 8.02823 103.838 7.79912 103.072 7.79912Z" fill="white"/>
<path d="M118.761 5.18284C120.234 5.18284 121.421 5.62628 122.319 6.51315C123.233 7.40003 123.69 8.71556 123.69 10.4597V17.2887H120.242V10.9919C120.242 10.0459 120.036 9.34376 119.623 8.88554C119.21 8.41254 118.614 8.17604 117.833 8.17604C116.963 8.17604 116.271 8.4495 115.755 8.9964C115.24 9.52853 114.982 10.3267 114.982 11.391V17.2887H111.534V5.36022H114.827V6.75704C115.284 6.25448 115.851 5.87017 116.529 5.60411C117.207 5.32326 117.951 5.18284 118.761 5.18284Z" fill="white"/>
<path d="M138.592 11.3688C138.592 11.4131 138.57 11.7235 138.525 12.3H129.53C129.692 13.0391 130.075 13.6229 130.679 14.0516C131.284 14.4802 132.035 14.6946 132.934 14.6946C133.553 14.6946 134.098 14.6059 134.569 14.4285C135.056 14.2364 135.505 13.9407 135.917 13.5416L137.752 15.5371C136.632 16.8231 134.997 17.4661 132.845 17.4661C131.505 17.4661 130.318 17.2074 129.287 16.69C128.256 16.1579 127.46 15.4262 126.9 14.495C126.34 13.5638 126.06 12.5069 126.06 11.3244C126.06 10.1567 126.333 9.10726 126.878 8.17604C127.438 7.23004 128.197 6.49837 129.154 5.98103C130.127 5.4489 131.21 5.18284 132.403 5.18284C133.567 5.18284 134.621 5.43412 135.564 5.93669C136.507 6.43925 137.244 7.16353 137.774 8.10953C138.319 9.04075 138.592 10.1272 138.592 11.3688ZM132.425 7.79912C131.645 7.79912 130.989 8.02084 130.458 8.46428C129.928 8.90771 129.604 9.51374 129.486 10.2824H135.343C135.225 9.52853 134.901 8.92989 134.37 8.48645C133.84 8.02823 133.192 7.79912 132.425 7.79912Z" fill="white"/>
<path d="M144.18 6.93442C144.593 6.35795 145.145 5.9219 145.838 5.62628C146.545 5.33066 147.355 5.18284 148.269 5.18284V8.37559C147.886 8.34603 147.628 8.33125 147.495 8.33125C146.508 8.33125 145.735 8.61209 145.175 9.17378C144.615 9.72068 144.335 10.5484 144.335 11.657V17.2887H140.887V5.36022H144.18V6.93442Z" fill="white"/>
<path d="M162.477 5.36022V15.2932C162.477 17.4808 161.91 19.1068 160.775 20.171C159.641 21.2353 157.983 21.7674 155.803 21.7674C154.653 21.7674 153.563 21.627 152.532 21.3461C151.5 21.0653 150.646 20.6588 149.968 20.1267L151.338 17.6434C151.839 18.0573 152.473 18.3825 153.239 18.619C154.005 18.8703 154.771 18.9959 155.537 18.9959C156.731 18.9959 157.608 18.7225 158.168 18.1756C158.742 17.6434 159.029 16.8305 159.029 15.7366V15.2267C158.131 16.217 156.878 16.7122 155.272 16.7122C154.182 16.7122 153.18 16.4757 152.267 16.0027C151.368 15.5149 150.653 14.835 150.123 13.9629C149.592 13.0908 149.327 12.0857 149.327 10.9475C149.327 9.80937 149.592 8.80425 150.123 7.93215C150.653 7.06006 151.368 6.38751 152.267 5.91451C153.18 5.42673 154.182 5.18284 155.272 5.18284C156.996 5.18284 158.308 5.75192 159.206 6.89008V5.36022H162.477ZM155.957 13.8742C156.871 13.8742 157.615 13.6081 158.19 13.076C158.779 12.5291 159.074 11.8196 159.074 10.9475C159.074 10.0754 158.779 9.37332 158.19 8.8412C157.615 8.29429 156.871 8.02084 155.957 8.02084C155.044 8.02084 154.292 8.29429 153.703 8.8412C153.114 9.37332 152.819 10.0754 152.819 10.9475C152.819 11.8196 153.114 12.5291 153.703 13.076C154.292 13.6081 155.044 13.8742 155.957 13.8742Z" fill="white"/>
<path d="M177.488 5.36022L172.118 18.0203C171.573 19.395 170.895 20.3632 170.084 20.9249C169.289 21.4865 168.324 21.7674 167.189 21.7674C166.57 21.7674 165.959 21.6713 165.355 21.4792C164.751 21.287 164.257 21.0209 163.874 20.681L165.134 18.2199C165.399 18.4564 165.701 18.6412 166.04 18.7742C166.394 18.9072 166.74 18.9737 167.079 18.9737C167.55 18.9737 167.933 18.8555 168.228 18.619C168.523 18.3973 168.788 18.0203 169.024 17.4882L169.068 17.3774L163.918 5.36022H167.476L170.814 13.4529L174.173 5.36022H177.488Z" fill="white"/>
<path d="M7.0682 1.95843C6.83315 1.28684 6.19933 0.837158 5.48779 0.837158H2.36026C1.20684 0.837158 0.398814 1.97606 0.779847 3.06472L6.28331 18.7889C6.51837 19.4605 7.15219 19.9102 7.86373 19.9102H10.9913C12.1447 19.9102 12.9527 18.7713 12.5717 17.6826L7.0682 1.95843Z" fill="url(#paint0_linear_54_775)"/>
<path d="M12.958 1.96149L11.3033 6.71874C11.1797 7.07391 11.1793 7.46033 11.3022 7.81574L13.2906 13.5694C13.6561 14.627 15.1503 14.631 15.5215 13.5754C15.8914 12.5235 17.3788 12.5226 17.7499 13.5741L19.5943 18.8C19.8306 19.4695 20.4634 19.9172 21.1733 19.9172H24.3343C25.4888 19.9172 26.2969 18.7764 25.9139 17.6873L20.3821 1.95611C20.1463 1.28572 19.5131 0.837158 18.8025 0.837158H14.5394C13.8267 0.837158 13.1921 1.28833 12.958 1.96149Z" fill="url(#paint1_linear_54_775)"/>
<path d="M30.9086 0.837158H27.8098C27.1014 0.837158 26.4695 1.28307 26.2322 1.95063L24.5903 6.56839C24.4618 6.92997 24.4613 7.32474 24.589 7.68662L26.1598 12.1371C26.6863 13.629 28.7973 13.6258 29.3194 12.1323L32.4892 3.0641C32.8697 1.97555 32.0617 0.837158 30.9086 0.837158Z" fill="url(#paint2_linear_54_775)"/>
<path d="M17.6267 0.837158H14.4696C13.7569 0.837158 13.1223 1.28833 12.8881 1.96149L11.2355 6.71293C11.1107 7.07166 11.1116 7.46214 11.238 7.82029L12.8139 12.2853C13.3401 13.7762 15.4493 13.7743 15.9728 12.2824L19.2066 3.06596C19.5887 1.97707 18.7806 0.837158 17.6267 0.837158Z" fill="#FF7E07"/>
<defs>
<linearGradient id="paint0_linear_54_775" x1="13.4191" y1="19.8473" x2="6.70966" y2="0.837157" gradientUnits="userSpaceOnUse">
<stop stop-color="#FF7E07"/>
<stop offset="1" stop-color="#F8871F"/>
</linearGradient>
<linearGradient id="paint1_linear_54_775" x1="18.9053" y1="0.837158" x2="25.44" y2="20.686" gradientUnits="userSpaceOnUse">
<stop stop-color="#E56E00"/>
<stop offset="1" stop-color="#FF7E07"/>
</linearGradient>
<linearGradient id="paint2_linear_54_775" x1="28.8296" y1="0.837158" x2="25.3002" y2="11.1809" gradientUnits="userSpaceOnUse">
<stop stop-color="#E56E00"/>
<stop offset="1" stop-color="#FF7E07"/>
</linearGradient>
</defs>
</svg>
