<svg width="163" height="32" viewBox="0 0 163 32" fill="none" xmlns="http://www.w3.org/2000/svg">
<path fill-rule="evenodd" clip-rule="evenodd" d="M63.1585 14.7628C61.878 14.7628 60.8385 15.8014 60.8385 17.081C60.8385 18.3633 61.878 19.4009 63.1585 19.4009C64.44 19.4009 65.478 18.3633 65.478 17.081C65.478 15.8014 64.44 14.7628 63.1585 14.7628ZM157.553 13.0606C159.074 13.0606 160.186 13.912 160.915 14.7628V10.6522C159.721 9.84204 158.281 9.5177 157.029 9.5177C153.184 9.5177 149.842 12.2711 149.842 17.0079C149.842 21.5436 152.879 24.5001 157.089 24.5001C158.303 24.5001 159.639 24.3161 160.915 23.447V19.4155C160.186 20.1662 159.034 20.9567 157.553 20.9567C155.287 20.9567 153.93 19.2769 153.93 17.1296C153.93 14.8012 155.368 13.0606 157.553 13.0606ZM150.277 9.92348H145.621L141.348 15.8744V9.92348H137.381L137.383 24.0948H141.348V17.9997L145.457 24.0948H150.42L144.892 16.7856L150.277 9.92348ZM125.665 18.4265V9.92348H121.839V24.0948H125.726L131.212 15.5912V24.0948H135.038V9.92348H131.151L125.665 18.4265ZM114.167 16.2994H113.036V13.0414H114.167C115.868 13.0414 116.11 13.9513 116.11 14.6603C116.11 15.2674 115.929 16.2994 114.167 16.2994ZM115.037 9.92348H109.066V24.0948H113.036V19.4155H115.037C119.047 19.4155 120.201 16.6251 120.201 14.6603C120.201 12.7162 119.067 9.92348 115.037 9.92348ZM97.2446 13.3232H100.36V24.0948H104.33V13.3232H107.446V9.92348H97.2446V13.3232ZM86.2503 18.4265V9.92348H82.4251V24.0948H86.313L91.7968 15.5912V24.0948H95.6239V9.92348H91.7379L86.2503 18.4265ZM74.4285 21.2585H72.7286V18.2838H74.4285C75.6842 18.2838 76.4134 18.6488 76.4134 19.7632C76.4134 20.8958 75.6646 21.2585 74.4285 21.2585ZM74.8142 15.4494H72.7286V13.3232H79.2267V9.92348H68.7612L68.7607 24.0948L74.8142 24.0948C75.8452 24.0948 80.3808 24.1341 80.3808 19.7019C80.3808 15.4293 75.8869 15.4494 74.8142 15.4494ZM46.5535 17.0079C46.5535 21.5436 49.59 24.5001 53.8004 24.5001C55.0163 24.5001 56.352 24.3161 57.6279 23.447V19.4155C56.8968 20.1662 55.7431 20.9567 54.2661 20.9567C51.998 20.9567 50.6426 19.2769 50.6426 17.1296C50.6426 14.8012 52.0795 13.0606 54.2661 13.0606C55.7839 13.0606 56.8968 13.912 57.6279 14.7628V10.6522C56.4307 9.84204 54.9948 9.5177 53.7395 9.5177C49.8929 9.5177 46.5535 12.2711 46.5535 17.0079ZM38.2461 13.1823H40.4135V24.0948H44.0781V9.92348H38.2461V13.1823Z" fill="#060606"/>
<path fill-rule="evenodd" clip-rule="evenodd" d="M15.58 0.00012207C14.4193 0.00012207 13.2905 0.130701 12.2028 0.372201V15.5918C12.2028 17.4569 13.7234 18.978 15.5889 18.978C17.4535 18.978 18.9737 17.4569 18.9737 15.5928C18.9737 13.8012 17.5738 12.3307 15.814 12.2137V9.50333C19.0659 9.62128 21.6826 12.3115 21.6826 15.5928C21.6826 18.9485 18.9451 21.6874 15.5889 21.6874C12.2313 21.6874 9.49432 18.9485 9.49432 15.5918V1.23336C9.1096 1.3967 8.73378 1.57783 8.36545 1.77253V15.5918C8.36592 19.5696 11.6112 22.8134 15.5889 22.8134C19.5671 22.8134 22.811 19.5696 22.811 15.5928C22.811 11.6899 19.6893 8.49381 15.814 8.37353V5.66414C21.1804 5.78536 25.5185 10.1988 25.5185 15.5928C25.5185 21.063 21.0578 25.5228 15.5889 25.5228C10.1187 25.5228 5.65653 21.063 5.65653 15.5918V3.56974C2.20252 6.42608 0 10.7455 0 15.5801C0 24.1848 6.97542 31.162 15.5805 31.162C24.187 31.162 31.1605 24.1848 31.1605 15.5801C31.1605 6.97554 24.187 0.00012207 15.58 0.00012207Z" fill="#D91935"/>
</svg>
