<svg width="159" height="30" viewBox="0 0 159 30" fill="none" xmlns="http://www.w3.org/2000/svg">
<path fill-rule="evenodd" clip-rule="evenodd" d="M14.5352 25.9806C8.19538 25.9806 3.01528 20.8005 3.01528 14.4607C3.01528 8.12088 8.19538 2.94077 14.5352 2.94077C20.875 2.94077 26.0551 8.12088 26.0551 14.4607C26.0551 20.8005 20.875 25.9806 14.5352 25.9806ZM14.5352 0.00280762C6.49445 0.00280762 0 6.49726 0 14.538C0 22.5788 6.49445 29.0732 14.5352 29.0732C22.576 29.0732 29.0704 22.5788 29.0704 14.538C29.0704 6.49726 22.576 0.00280762 14.5352 0.00280762Z" fill="#DA2C27"/>
<path fill-rule="evenodd" clip-rule="evenodd" d="M54.5825 19.7187C54.5825 20.2599 54.2732 20.5692 53.732 20.5692H53.0362C52.495 20.5692 52.1857 20.2599 52.1857 19.7187V15.0025H40.4339V19.7187C40.4339 20.2599 40.1246 20.5692 39.5834 20.5692H38.8876C38.3464 20.5692 38.0371 20.2599 38.0371 19.7187V8.12146C38.0371 7.58026 38.3464 7.271 38.8876 7.271H39.5834C40.1246 7.271 40.4339 7.58026 40.4339 8.12146V12.9923H52.1857V8.12146C52.1857 7.58026 52.495 7.271 53.0362 7.271H53.732C54.2732 7.271 54.5825 7.58026 54.5825 8.12146V19.7187Z" fill="#DA2C27"/>
<path fill-rule="evenodd" clip-rule="evenodd" d="M69.4272 17.3218V13.3014C69.4272 12.4509 68.4994 12.0643 66.5665 12.0643H62.8554C62.1596 12.0643 61.5411 12.1417 60.9998 12.2963C60.1494 12.5282 59.7628 12.9148 59.7628 13.456V17.3218C59.7628 17.863 60.1494 18.1722 60.9998 18.4042C61.5411 18.5588 62.1596 18.6361 62.8554 18.6361H66.5665C67.185 18.6361 67.7262 18.5588 68.2674 18.4042C69.0406 18.1722 69.4272 17.7856 69.4272 17.3218ZM71.8239 17.3218C71.8239 18.5588 71.2054 19.4093 69.9684 20.0278C69.1179 20.4144 68.0355 20.6463 66.7212 20.6463H62.8554C60.3813 20.6463 58.7577 20.0278 57.9072 18.7907C57.598 18.3269 57.4434 17.863 57.4434 17.3991V13.5333C57.4434 12.6829 57.8299 11.9097 58.6031 11.2912C59.6082 10.518 60.9998 10.1315 62.7781 10.1315H66.6438C70.0457 10.1315 71.7466 11.2139 71.7466 13.456V17.3218H71.8239Z" fill="#DA2C27"/>
<path fill-rule="evenodd" clip-rule="evenodd" d="M87.8294 17.5537C87.8294 19.5639 86.2831 20.569 83.2678 20.569H75.459C74.9178 20.569 74.6086 20.2598 74.6086 19.7186V19.4866C74.6086 18.9454 74.9178 18.6362 75.459 18.6362H83.3452C84.8141 18.6362 85.51 18.2496 85.51 17.5537V17.1672C85.51 16.5487 84.8141 16.2394 83.4998 16.2394H79.7113C78.2424 16.2394 77.16 16.0848 76.3868 15.7755C75.1498 15.3116 74.5312 14.5385 74.5312 13.3014V12.7602C74.5312 10.982 76.1549 10.0542 79.4794 10.0542H85.4327C85.9739 10.0542 86.2831 10.3635 86.2831 10.9047V11.1366C86.2831 11.6778 85.9739 11.9871 85.4327 11.9871H79.4794C78.6289 11.9871 78.0877 11.9871 77.9331 11.9871C77.16 12.0644 76.7734 12.2963 76.7734 12.6829V13.2241C76.7734 13.6107 77.0053 13.8426 77.5465 13.9973C77.9331 14.0746 78.6289 14.1519 79.634 14.1519H83.4225C86.2831 14.1519 87.6748 15.0797 87.6748 17.0125V17.4764L87.8294 17.5537Z" fill="#DA2C27"/>
<path fill-rule="evenodd" clip-rule="evenodd" d="M90.3036 12.0644C89.7624 12.0644 89.4531 11.7552 89.4531 11.214V10.982C89.4531 10.4408 89.7624 10.1316 90.3036 10.1316H91.1541V8.04407C91.1541 7.50286 91.4633 7.1936 92.0045 7.1936H92.623C93.1642 7.1936 93.4735 7.50286 93.4735 8.04407V10.1316H97.1073C97.6485 10.1316 97.9578 10.4408 97.9578 10.982V11.214C97.9578 11.7552 97.6485 12.0644 97.1073 12.0644H93.4735V19.6413C93.4735 20.1825 93.1642 20.4918 92.623 20.4918H92.0045C91.4633 20.4918 91.1541 20.1825 91.1541 19.6413V12.0644H90.3036Z" fill="#DA2C27"/>
<path fill-rule="evenodd" clip-rule="evenodd" d="M115.431 8.35337C115.431 8.89458 115.122 9.20384 114.581 9.20384H105.921C103.834 9.20384 102.751 9.59041 102.751 10.4409V17.09C102.751 17.7085 103.215 18.1724 104.143 18.4043C104.53 18.4816 105.225 18.5589 106.231 18.5589H114.503C115.044 18.5589 115.354 18.8682 115.354 19.4094V19.6413C115.354 20.1826 115.044 20.4918 114.503 20.4918H106.231C105.225 20.4918 104.53 20.4918 104.143 20.4145C103.447 20.3372 102.751 20.1052 102.133 19.796C100.896 19.1775 100.277 18.2497 100.277 17.09V10.4409C100.277 9.59041 100.664 8.89458 101.437 8.27606C102.133 7.73485 102.906 7.42559 103.757 7.27096C104.22 7.19365 104.916 7.11633 105.844 7.11633H114.581C115.122 7.11633 115.431 7.42559 115.431 7.9668V8.19874V8.35337Z" fill="#DA2C27"/>
<path fill-rule="evenodd" clip-rule="evenodd" d="M140.558 19.7186C140.558 20.2598 140.249 20.5691 139.708 20.5691H139.012C138.471 20.5691 138.161 20.2598 138.161 19.7186V11.0593L130.971 19.8733C130.584 20.3371 130.043 20.5691 129.425 20.5691C128.806 20.5691 128.265 20.3371 127.878 19.8733L120.533 10.982V19.6413C120.533 20.1825 120.224 20.4918 119.683 20.4918H118.987C118.446 20.4918 118.137 20.1825 118.137 19.6413V8.43064C118.137 8.04407 118.291 7.73481 118.601 7.50286C118.91 7.27092 119.219 7.1936 119.606 7.1936C120.147 7.1936 120.533 7.42555 120.92 7.88944L129.502 18.0177L137.852 7.88944C138.161 7.42555 138.702 7.27092 139.321 7.27092C140.249 7.27092 140.635 7.73481 140.635 8.58527V19.7186H140.558Z" fill="#DA2C27"/>
<path fill-rule="evenodd" clip-rule="evenodd" d="M158.417 17.2446C158.417 18.7136 157.722 19.7187 156.407 20.1052C155.479 20.4145 154.242 20.5691 152.619 20.5691H144.191C143.65 20.5691 143.341 20.2599 143.341 19.7187V19.4867C143.341 18.9455 143.65 18.6362 144.191 18.6362H152.619C154.861 18.6362 156.021 18.2497 156.021 17.3992V16.2395C156.021 15.3117 154.861 14.9251 152.619 14.9251H149.372C145.274 14.9251 143.264 13.8427 143.264 11.7552V10.7501C143.264 9.35845 143.96 8.35336 145.274 7.81216C146.124 7.5029 147.439 7.34827 149.14 7.34827H155.479C156.021 7.34827 156.33 7.65753 156.33 8.19873V8.43068C156.33 8.97188 156.021 9.28114 155.479 9.28114H149.062C146.743 9.28114 145.66 9.74503 145.66 10.6728V11.6006C145.66 12.2191 146.202 12.5284 147.207 12.7603C147.593 12.8376 148.289 12.8376 149.372 12.8376H152.619C154.088 12.8376 155.325 13.0696 156.33 13.4561C157.722 13.9973 158.417 14.9251 158.417 16.1622V17.3219V17.2446Z" fill="#DA2C27"/>
<path d="M10.0508 16.858L14.767 10.9048L19.4059 16.858" stroke="#DA2C27" stroke-width="2.55834" stroke-linecap="round"/>
</svg>
