<svg width="70" height="70" viewBox="0 0 70 70" fill="none" xmlns="http://www.w3.org/2000/svg">
<g clip-path="url(#clip0_208_1465)">
<path d="M14.8184 0H17.9734V3.11719H20.8596V0H24.0147V9.43961H20.8597V6.27867H17.9736V9.43961H14.8185L14.8184 0Z" fill="#060606"/>
<path d="M28.1643 3.13031H25.3867V0H34.0984V3.13031H31.3196V9.43961H28.1644L28.1643 3.13031Z" fill="#060606"/>
<path d="M35.4805 0H38.7703L40.794 3.3168L42.8157 0H46.1068V9.43961H42.9647V4.76082L40.794 8.11713H40.7398L38.5676 4.76082V9.43961H35.4805V0Z" fill="#060606"/>
<path d="M47.6777 0H50.8337V6.31941H55.2707V9.43961H47.6777V0Z" fill="#060606"/>
<path d="M14.6463 64.3574L10.1191 13.5759H59.8425L55.3097 64.3612L34.9687 70.0002L14.6463 64.3574Z" fill="#E34E26"/>
<path d="M34.9805 17.7266V65.6864L51.4287 61.1271L55.3041 17.7266H34.9805Z" fill="#EF662A"/>
<path d="M19.3828 23.9553L21.0617 42.7898H42.6489L41.9245 50.8683L34.9739 52.7475L28.0366 50.8709L27.5727 45.6839H21.3209L22.2149 55.683L34.9723 59.2263L47.7462 55.683L49.4586 36.5624H26.7581L26.1883 30.1842H50.0038H50.0231L50.5809 23.9553H19.3828Z" fill="#060606"/>
<path d="M34.9819 23.9553H19.3828L21.0617 42.7898H34.9819V36.5624H26.7581L26.1883 30.1842H34.9819V23.9553Z" fill="#EBEBEB"/>
<path d="M34.9832 52.7448L34.9753 52.7475L28.0379 50.8709L27.574 45.684H21.3223L22.2163 55.683L34.9736 59.2264L34.9832 59.2236V52.7448Z" fill="#EBEBEB"/>
</g>
<defs>
<clipPath id="clip0_208_1465">
<rect width="70" height="70" fill="white"/>
</clipPath>
</defs>
</svg>
