<svg width="70" height="70" viewBox="0 0 70 70" fill="none" xmlns="http://www.w3.org/2000/svg">
<g clip-path="url(#clip0_208_1494)">
<path d="M59.7266 13.7175H34.8664H10L14.6609 64.2714L34.8664 70.0003L55.0595 64.2714L59.7266 13.7175Z" fill="#E8A600"/>
<path d="M34.8672 17.8347V65.7155L51.2267 61.0793L55.2085 17.8347H34.8672Z" fill="#F3C100"/>
<path d="M47.8808 24.0391H22.7181L20.9648 42.9667L21.0019 42.8494H42.3803L41.6827 50.8562L34.8673 52.8194L27.9408 50.8254L27.5272 45.9793H21.2426L22.1378 55.6653L34.8673 59.2767L47.5906 55.6653L49.3377 36.6636H26.6567L26.9469 30.3236H42.689L42.9236 33.9535H49.2636L47.8808 24.0391Z" fill="#060606"/>
<path d="M34.8673 24.0391H22.7181L20.9648 42.9667L21.0019 42.8494H34.8611V36.6636H27.5333L27.8235 30.3297H34.8673V24.0391ZM27.5272 45.9793H21.2426L22.1378 55.6591L34.8611 59.2644V52.8194L27.9408 50.8254L27.5272 45.9793Z" fill="#F1F1F1"/>
<path d="M30.0259 6.25981H25.5996V9.4391H30.0259H32.3903H33.1929V0H30.0259V6.25981Z" fill="#060606"/>
<path d="M44.1249 0.0493164H36.4082C36.4082 0.0493164 36.4082 1.70996 36.4082 3.35208C37.4392 4.38303 37.9762 4.8769 39.4702 6.37086C38.5998 6.37086 36.4082 6.37086 36.4082 6.37086V9.38347H44.1188V6.37086L41.0382 3.35208H44.1188V0.0493164H44.1249Z" fill="#060606"/>
</g>
<defs>
<clipPath id="clip0_208_1494">
<rect width="49.7266" height="70" fill="white" transform="translate(10)"/>
</clipPath>
</defs>
</svg>
