<svg width="126" height="43" viewBox="0 0 126 43" fill="none" xmlns="http://www.w3.org/2000/svg">
<path fill-rule="evenodd" clip-rule="evenodd" d="M23.0881 17.9728C28.7922 13.5832 31.3017 9.8309 43.7217 9.8309C44.7812 9.8309 45.2274 10.6355 45.2274 10.8028C45.2274 10.9781 44.9246 15.8218 43.0764 17.6541C41.2281 19.5024 39.348 23.5335 39.7384 25.4853C40.1367 27.4531 37.3165 29.7156 36.5278 29.7156C35.7391 29.7156 39.4675 31.1336 37.1173 37.013C34.7672 42.8924 32.1143 42.749 31.708 42.749C31.3177 42.749 27.3025 42.4303 25.1834 40.3112C23.0722 38.2 21.2718 32.3127 21.2718 32.3127L21.0726 34.2486C21.0726 34.2486 19.3916 34.9496 19.3916 37.6902C19.3916 40.4307 18.6189 33.1014 18.6189 33.1014C18.6189 33.1014 15.9501 35.9295 14.8905 36.3119C13.8309 36.7103 12.3412 40.1518 10.5726 39.7535C8.81993 39.3632 2.36697 35.4834 2.09611 31.6674C1.80931 27.8673 1.84914 26.9034 2.09611 26.6644C2.34307 26.4174 3.18753 25.7163 3.18753 25.5172C3.18753 25.318 3.18753 24.4576 3.18753 24.1549C3.18753 23.8521 5.64125 22.689 5.33852 22.3943C5.05172 22.1075 3.2433 20.6018 2.97243 18.2516C2.68563 15.9015 2.29527 11.1693 1.50658 9.71937C0.717881 8.25352 0.470916 7.39312 0.470916 6.45306C0.470916 5.4891 -0.588644 4.71634 0.470916 1.57749L0.86128 0.0160348C0.86128 0.0160348 5.33852 -0.326529 9.76796 4.10291C14.1815 8.51641 18.3002 12.2368 19.2004 15.6864C19.3837 16.4352 19.8856 17.2478 19.8856 17.2478C19.8856 17.2478 20.26 15.8696 21.7338 16.1564C23.2315 16.4273 23.0881 17.9728 23.0881 17.9728Z" fill="url(#paint0_linear_208_1528)"/>
<path fill-rule="evenodd" clip-rule="evenodd" d="M22.8572 18.6339C28.5533 14.4036 31.1186 10.4283 42.9649 10.4283C44.0006 10.4283 44.4308 11.0178 44.4308 11.1851C44.4308 11.3444 44.1281 16.0208 42.3515 17.7974C40.559 19.5739 38.7506 23.4617 39.141 25.3418C39.5154 27.2378 36.4323 29.5322 35.6675 29.5322C34.9187 29.5322 38.8621 30.7909 36.5996 36.4552C34.3371 42.1354 31.7639 41.992 31.3815 41.992C31.007 41.992 27.191 41.5618 25.1595 39.5223C23.1201 37.4829 21.2559 31.0937 21.2559 31.0937L20.8974 33.7864C20.8974 33.7864 19.32 33.9855 19.3917 36.6225C18.9775 33.9298 18.9456 31.8346 18.7624 32.3763C18.7624 32.3763 16.0776 35.2124 15.0499 35.6028C14.0142 35.9772 12.3572 39.5303 10.6603 39.1559C8.95545 38.7815 3.09999 34.9654 2.82912 31.3008C2.55826 27.6282 2.59809 26.6961 2.82912 26.4651C3.06015 26.234 3.88868 25.5489 3.88868 25.3577C3.88868 25.1745 3.88868 24.3858 3.88868 24.1069C3.88868 23.8042 6.23883 22.6331 5.96797 22.3463C5.68117 22.0595 3.92851 20.6255 3.67358 18.3471C3.40272 16.0846 3.01235 11.5197 2.27146 10.1176C1.51463 8.71544 1.26767 7.96658 1.26767 7.05042C1.26767 6.13426 0.247938 5.36947 1.26767 2.35808L1.6421 0.924093C1.6421 0.924093 5.80067 0.605429 10.0628 4.86757C14.3249 9.12971 18.1649 12.5793 19.0253 15.9093C19.2244 16.6422 19.9175 18.2754 19.9573 17.885C20.0609 17.885 20.4433 16.2678 21.6383 16.5387C23.2555 16.8255 22.8253 18.6339 22.8572 18.6339Z" fill="url(#paint1_linear_208_1528)"/>
<path fill-rule="evenodd" clip-rule="evenodd" d="M22.8573 18.634C28.5535 14.4037 31.1187 10.4284 42.9651 10.4284C44.0007 10.4284 44.4309 11.0179 44.4309 11.1852C32.5687 28.3851 11.011 20.2671 5.25909 35.6108C3.9685 34.3043 2.93284 32.7986 2.82131 31.3089C2.55044 27.6362 2.59028 26.7042 2.82131 26.4731C3.05234 26.2421 3.88087 25.557 3.88087 25.3658C3.88087 25.1825 3.88087 24.3938 3.88087 24.115C3.88087 23.8123 6.23102 22.6412 5.96016 22.3544C5.67336 22.0676 3.9207 20.6336 3.66577 18.3551C3.39491 16.0926 3.00454 11.5277 2.26365 10.1256C1.50682 8.7235 1.25985 7.97464 1.25985 7.05848C1.25985 6.14232 0.240126 5.37752 1.25985 2.36614C1.38732 1.88018 1.51478 1.40218 1.63428 0.93215C1.63428 0.93215 5.79286 0.613485 10.055 4.87562C14.3171 9.13776 18.157 12.5873 19.0174 15.9174C19.2166 16.6503 19.9097 18.2834 19.9495 17.8931C20.0531 17.8931 20.4355 16.2759 21.6305 16.5467C23.2557 16.8255 22.8255 18.634 22.8573 18.634Z" fill="url(#paint2_linear_208_1528)"/>
<path fill-rule="evenodd" clip-rule="evenodd" d="M10.398 39.2436C8.43028 38.5983 3.05281 34.9416 2.79788 31.4124C2.52702 27.7239 2.56685 26.7918 2.79788 26.5687C3.02891 26.3377 3.85744 25.6366 3.85744 25.4534C3.85744 25.6366 3.39538 26.6165 3.17231 26.8555C2.88551 27.0786 3.10061 27.3813 3.61048 31.0698C4.17611 35.8418 9.25084 37.9371 10.398 39.2436Z" fill="white"/>
<path fill-rule="evenodd" clip-rule="evenodd" d="M18.8015 32.5038C18.8015 32.5038 16.1088 35.3558 15.0731 35.7462C14.0694 36.1206 12.4521 39.5064 10.7871 39.3471C11.4882 38.3752 14.0295 36.2322 14.8899 35.3638C15.9176 34.9814 18.8015 32.5038 18.8015 32.5038Z" fill="#A2DAF4"/>
<path fill-rule="evenodd" clip-rule="evenodd" d="M3.98447 24.0274V24.0114C4.47044 23.5812 6.17529 22.6651 5.9363 22.4181C5.6495 22.1472 3.89684 20.6814 3.64191 18.4029C3.37105 16.1404 2.98068 11.5516 2.22385 10.1415C1.46702 8.72349 1.22006 7.97462 1.22006 7.04253C1.22006 6.12637 0.184399 5.36157 1.22006 2.32629C0.184399 5.36954 2.06452 6.12637 2.06452 7.04253C2.06452 7.97462 2.31149 8.72349 3.06831 10.1415C3.82514 11.5437 4.03227 16.0368 4.30314 18.3153C4.574 20.5937 6.03986 22.1472 6.32666 22.4181C6.56566 22.681 4.54214 23.5812 3.98447 24.0274Z" fill="#A2DAF4"/>
<path fill-rule="evenodd" clip-rule="evenodd" d="M1.60156 0.892442C1.60156 0.892442 5.76014 0.573778 10.0462 4.85185C14.3322 9.13789 18.1881 12.6273 19.0644 15.9493C19.2397 16.6504 19.8849 18.172 19.9805 17.9888C19.869 18.188 19.152 16.8416 18.9608 16.1565C18.1004 12.8185 13.3842 10.1895 9.38495 5.51308C5.10687 1.24297 1.60156 0.892442 1.60156 0.892442Z" fill="white"/>
<path fill-rule="evenodd" clip-rule="evenodd" d="M25.8125 16.4431C31.4449 12.5554 31.1183 10.8346 43.124 10.4363C31.5485 12.1252 31.8512 13.7265 25.8125 16.4431Z" fill="white"/>
<path fill-rule="evenodd" clip-rule="evenodd" d="M44.5818 11.1931C44.5818 11.3684 44.295 16.0528 42.5026 17.8452C40.7101 19.6377 38.8857 23.5414 39.2761 25.4135C39.2203 27.1024 38.7184 27.2936 38.2006 27.7079C38.0731 27.2379 39.0928 27.4211 38.6148 25.1427C38.3599 22.7447 40.1763 18.849 41.8413 17.5584C43.6338 15.766 44.5818 11.3604 44.5818 11.1931Z" fill="#A2DAF4"/>
<path fill-rule="evenodd" clip-rule="evenodd" d="M25.7579 39.1081C23.7105 37.0607 21.3125 31.1893 21.3125 31.1893C21.3125 31.1893 23.1926 37.6264 25.2241 39.6658C27.2317 41.6734 30.9282 42.1355 31.462 42.1434C31.3743 41.8805 27.7017 41.6097 25.7579 39.1081Z" fill="white"/>
<path fill-rule="evenodd" clip-rule="evenodd" d="M35.8188 29.6359C35.8188 29.6359 35.8028 29.6359 35.7869 29.6359C35.0301 29.6359 38.2247 31.1575 35.9144 36.8377C34.9504 39.2356 32.4011 42.1275 31.5566 42.1594C32.1143 42.1594 34.5521 42.016 36.719 36.6067C38.9975 30.9026 35.0301 29.6359 35.7869 29.6359C35.8028 29.6359 35.8188 29.6359 35.8188 29.6359Z" fill="#A2DAF4"/>
<path d="M52.2695 17.5028V29.2217C52.2695 32.1614 53.8151 33.8423 57.3443 33.8423C60.8974 33.8423 62.419 32.1215 62.419 29.2217V17.5028H59.3678V28.7756C59.3678 30.584 58.8659 31.3886 57.3443 31.3886C55.9103 31.3886 55.3048 30.5442 55.3048 28.7756V17.5028H52.2695Z" fill="#008BD0"/>
<path d="M64.3555 17.5028V33.5316H67.2075V19.0324H67.2234L70.2667 33.5316H72.4416L75.5008 19.0244H75.5167V33.5316H78.3687V17.5028H73.4932L71.3581 27.9152L69.231 17.5028H64.3555Z" fill="#008BD0"/>
<path d="M83.3636 17.5028H80.3203V33.5316H83.3636V17.5028Z" fill="#008BD0"/>
<path d="M87.4757 30.6956H84.6953V33.5317H87.4757V30.6956Z" fill="#008BD0"/>
<path d="M98.4277 22.7208V21.9321C98.4277 18.9605 96.7388 17.2158 93.6238 17.2158C90.3097 17.2158 88.6367 18.9685 88.6367 22.7208V28.5603C88.6367 31.3964 89.5847 33.9218 93.584 33.9218C97.3841 33.9218 98.4277 31.4283 98.4277 28.5125V27.8274H95.3844V28.6877C95.3844 30.7511 94.779 31.4681 93.5601 31.4681C92.2695 31.4681 91.7357 30.783 91.7357 28.6877V22.3782C91.7357 20.3547 92.2775 19.6536 93.568 19.6536C94.8586 19.6536 95.3765 20.3547 95.3765 22.3782V22.7208H98.4277Z" fill="#008BD0"/>
<path d="M100.277 17.5028V33.5316H103.121V19.0324H103.145L106.189 33.5316H108.363L111.407 19.0244H111.439V33.5316H114.275V17.5028H109.415L107.28 27.9152L105.137 17.5028H100.277Z" fill="#008BD0"/>
<path d="M125.587 22.5774V22.0755C125.587 18.8649 123.882 17.2158 120.823 17.2158C118.059 17.2158 116.091 18.7215 116.091 21.3744C116.091 23.1111 116.896 24.4415 118.497 25.4931L121.206 27.2697C122.337 28.0026 122.871 28.632 122.871 29.6676C122.871 30.6714 122.225 31.4761 121.062 31.4761C119.915 31.4761 118.839 30.9025 118.839 28.6479V28.0345H115.932V28.6479C115.932 31.9461 117.668 33.9218 121.062 33.9218C124.257 33.9218 125.993 32.2329 125.993 29.4047C125.993 26.9988 124.958 26.0189 123.269 24.8877L120.154 22.8403C119.509 22.426 119.118 21.9799 119.118 21.0159C119.118 20.1236 119.875 19.6536 120.751 19.6536C121.938 19.6536 122.655 20.4423 122.655 22.3941V22.5774H125.587Z" fill="#008BD0"/>
<defs>
<linearGradient id="paint0_linear_208_1528" x1="-4.15856" y1="4.52625" x2="48.532" y2="38.7439" gradientUnits="userSpaceOnUse">
<stop stop-color="#008BD0"/>
<stop offset="0.2837" stop-color="#00A0D7"/>
<stop offset="0.7743" stop-color="#86C9E5"/>
<stop offset="1" stop-color="#A9DAEB"/>
</linearGradient>
<linearGradient id="paint1_linear_208_1528" x1="9.37808" y1="-3.0095" x2="37.0892" y2="44.9874" gradientUnits="userSpaceOnUse">
<stop stop-color="white"/>
<stop offset="0.22" stop-color="white"/>
<stop offset="0.37" stop-color="#6EC9EE"/>
<stop offset="0.48" stop-color="#009EE0"/>
<stop offset="0.59" stop-color="#008BD0"/>
<stop offset="0.75" stop-color="#52B7E4"/>
<stop offset="0.95" stop-color="white"/>
<stop offset="1" stop-color="white"/>
</linearGradient>
<linearGradient id="paint2_linear_208_1528" x1="37.0798" y1="39.7009" x2="5.69025" y2="-1.95447" gradientUnits="userSpaceOnUse">
<stop stop-color="#008BD0"/>
<stop offset="0.0647" stop-color="#0092D3"/>
<stop offset="0.5333" stop-color="#9ACBEA"/>
<stop offset="0.8539" stop-color="#E5F1F9"/>
<stop offset="1" stop-color="white"/>
</linearGradient>
</defs>
</svg>
