<svg width="263" height="149" viewBox="0 0 263 149" fill="none" xmlns="http://www.w3.org/2000/svg">
<path d="M108.103 146.502L97.7672 112.389H45.7958L35.46 146.502H2.89258L53.2063 2.60083H90.1616L140.67 146.502H108.103ZM90.5516 86.9026L80.2159 53.574C79.5658 51.3521 78.6882 48.5094 77.5832 45.0458C76.5431 41.5169 75.4705 37.9553 74.3654 34.361C73.3253 30.7014 72.4803 27.5319 71.8302 24.8526C71.1802 27.5319 70.2701 30.8648 69.1 34.8512C67.9949 38.7722 66.9224 42.4972 65.8823 46.0261C64.8422 49.555 64.0946 52.071 63.6396 53.574L53.4014 86.9026H90.5516Z" stroke="#FFAD24" stroke-width="4.0823"/>
<path d="M224.387 37.3003C237.16 37.3003 246.642 40.1778 252.833 45.9329C259.024 51.688 262.119 60.8764 262.119 73.4983V146.581H250.291L247.163 130.689H246.381C243.383 134.613 240.255 137.916 236.997 140.597C233.738 143.213 229.959 145.208 225.658 146.581C221.422 147.889 216.208 148.543 210.017 148.543C203.5 148.543 197.701 147.399 192.617 145.11C187.6 142.821 183.624 139.355 180.692 134.711C177.824 130.068 176.391 124.182 176.391 117.054C176.391 106.328 180.627 98.0882 189.098 92.3331C197.57 86.578 210.473 83.4389 227.808 82.9157L246.283 82.1309V75.5584C246.283 66.2718 244.296 59.7647 240.32 56.0369C236.345 52.3092 230.741 50.4454 223.507 50.4454C217.903 50.4454 212.559 51.2629 207.476 52.8978C202.393 54.5328 197.57 56.462 193.008 58.6856L188.023 46.3253C192.846 43.8401 198.385 41.7147 204.641 39.9489C210.897 38.1832 217.479 37.3003 224.387 37.3003ZM246.088 93.6084L229.763 94.2951C216.404 94.8182 206.987 97.0091 201.513 100.868C196.039 104.726 193.302 110.187 193.302 117.25C193.302 123.397 195.159 127.943 198.874 130.886C202.588 133.828 207.508 135.3 213.634 135.3C223.149 135.3 230.936 132.651 236.997 127.354C243.057 122.057 246.088 114.111 246.088 103.516V93.6084Z" fill="#BFD649"/>
</svg>
