<svg width="431" height="290" viewBox="0 0 431 290" fill="none" xmlns="http://www.w3.org/2000/svg">
<g clip-path="url(#clip0_333_3752)">
<path d="M409.204 248.687C409.204 248.687 426.163 217.656 425.535 166.995C424.907 116.333 394.758 68.837 357.7 55.5382C320.643 42.2395 287.982 59.3379 244.015 61.2377C200.048 63.1375 174.296 7.40936 111.487 34.0069C48.6768 60.6044 48.6768 114.433 59.3545 140.397C70.0321 166.361 90.1312 179.027 68.1479 197.392C46.1645 215.757 24.8092 227.156 18.5282 234.122C12.2472 241.088 11.6191 248.687 11.6191 248.687H409.204Z" fill="#FD6C03"/>
<path opacity="0.7" d="M409.204 248.687C409.204 248.687 426.163 217.656 425.535 166.995C424.907 116.333 394.758 68.837 357.7 55.5382C320.643 42.2395 287.982 59.3379 244.015 61.2377C200.048 63.1375 174.296 7.40936 111.487 34.0069C48.6768 60.6044 48.6768 114.433 59.3545 140.397C70.0321 166.361 90.1312 179.027 68.1479 197.392C46.1645 215.757 24.8092 227.156 18.5282 234.122C12.2472 241.088 11.6191 248.687 11.6191 248.687H409.204Z" fill="white"/>
<g opacity="0.2">
<path opacity="0.2" d="M132.843 25.2043C124.364 25.2043 117.455 32.1704 117.455 40.7196C117.455 49.2688 124.364 56.2348 132.843 56.2348C141.323 56.2348 148.232 49.2688 148.232 40.7196C148.232 32.1704 141.323 25.2043 132.843 25.2043ZM134.414 50.2187V51.7385H131.776V50.2187C129.515 49.7754 128.321 47.9389 128.321 45.2158V43.8226H131.336V45.4058C131.336 46.8623 131.964 47.369 132.969 47.369C133.974 47.369 134.602 46.8623 134.602 45.4058C134.602 41.2262 128.384 40.9729 128.384 35.1468C128.384 32.4237 129.515 30.6505 131.776 30.1439V28.624H134.414V30.1439C136.675 30.5872 137.805 32.3603 137.805 35.1468V35.78H134.791V34.9568C134.791 33.5002 134.225 32.9303 133.22 32.9303C132.215 32.9303 131.65 33.5002 131.65 34.9568C131.65 39.1364 137.868 39.3897 137.868 45.2158C137.868 47.9389 136.675 49.7121 134.414 50.2187Z" stroke="black" stroke-width="0.623725" stroke-miterlimit="10" stroke-linecap="round" stroke-linejoin="round"/>
<path opacity="0.2" d="M132.843 18.9982C120.972 18.9982 111.299 28.7506 111.299 40.7195C111.299 52.6884 120.972 62.4408 132.843 62.4408C144.714 62.4408 154.386 52.6884 154.386 40.7195C154.386 28.7506 144.776 18.9982 132.843 18.9982ZM132.843 58.5778C123.107 58.5778 115.13 50.5986 115.13 40.7195C115.13 30.9037 123.044 22.8611 132.843 22.8611C142.578 22.8611 150.555 30.8404 150.555 40.7195C150.555 50.5352 142.641 58.5778 132.843 58.5778Z" stroke="black" stroke-width="0.623725" stroke-miterlimit="10" stroke-linecap="round" stroke-linejoin="round"/>
</g>
<g opacity="0.2">
<path opacity="0.2" d="M260.913 28.0541C254.695 28.0541 249.67 33.1203 249.67 39.3897C249.67 45.6591 254.695 50.7253 260.913 50.7253C267.131 50.7253 272.156 45.6591 272.156 39.3897C272.156 33.1203 267.131 28.0541 260.913 28.0541ZM262.043 46.2924V47.3689H260.159V46.2924C258.463 45.9757 257.647 44.6459 257.647 42.6194V41.6061H259.845V42.8094C259.845 43.8859 260.285 44.2659 261.038 44.2659C261.792 44.2659 262.232 43.8859 262.232 42.8094C262.232 39.7063 257.647 39.5797 257.647 35.3367C257.647 33.3103 258.463 32.0437 260.096 31.6637V30.5238H261.981V31.6637C263.614 31.9804 264.493 33.3103 264.493 35.3367V35.78H262.295V35.1468C262.295 34.0702 261.855 33.6902 261.101 33.6902C260.348 33.6902 259.908 34.0702 259.908 35.1468C259.908 38.2498 264.493 38.3765 264.493 42.6194C264.556 44.6459 263.739 45.9757 262.043 46.2924Z" stroke="black" stroke-width="0.623725" stroke-miterlimit="10" stroke-linecap="round" stroke-linejoin="round"/>
<path opacity="0.2" d="M260.914 23.4945C252.183 23.4945 245.148 30.5872 245.148 39.3897C245.148 48.1922 252.183 55.2849 260.914 55.2849C269.644 55.2849 276.679 48.1922 276.679 39.3897C276.679 30.5872 269.644 23.4945 260.914 23.4945ZM260.914 52.4352C253.753 52.4352 247.975 46.609 247.975 39.3897C247.975 32.1704 253.753 26.3442 260.914 26.3442C268.074 26.3442 273.852 32.1704 273.852 39.3897C273.852 46.609 268.074 52.4352 260.914 52.4352Z" stroke="black" stroke-width="0.623725" stroke-miterlimit="10" stroke-linecap="round" stroke-linejoin="round"/>
</g>
<g opacity="0.2">
<path opacity="0.2" d="M26.0027 128.555C19.7845 128.555 14.7598 133.621 14.7598 139.89C14.7598 146.16 19.7845 151.226 26.0027 151.226C32.2209 151.226 37.2456 146.16 37.2456 139.89C37.2456 133.684 32.2209 128.555 26.0027 128.555ZM27.1333 146.856V147.933H25.249V146.856C23.5531 146.54 22.7366 145.21 22.7366 143.183V142.17H24.9349V143.373C24.9349 144.45 25.3746 144.83 26.1283 144.83C26.882 144.83 27.3217 144.45 27.3217 143.373C27.3217 140.27 22.7366 140.144 22.7366 135.901C22.7366 133.874 23.5531 132.608 25.1862 132.228V131.088H27.0705V132.228C28.7035 132.544 29.5828 133.874 29.5828 135.901V136.344H27.3845V135.711C27.3845 134.634 26.9448 134.254 26.1911 134.254C25.4374 134.254 24.9977 134.634 24.9977 135.711C24.9977 138.814 29.5828 138.94 29.5828 143.183C29.6457 145.21 28.7663 146.54 27.1333 146.856Z" stroke="black" stroke-width="0.623725" stroke-miterlimit="10" stroke-linecap="round" stroke-linejoin="round"/>
<path opacity="0.2" d="M26.0035 123.995C17.273 123.995 10.2383 131.088 10.2383 139.89C10.2383 148.693 17.273 155.785 26.0035 155.785C34.7341 155.785 41.7687 148.693 41.7687 139.89C41.7687 131.151 34.6712 123.995 26.0035 123.995ZM26.0035 152.999C18.8432 152.999 13.0647 147.173 13.0647 139.954C13.0647 132.734 18.8432 126.908 26.0035 126.908C33.1638 126.908 38.9423 132.734 38.9423 139.954C38.9423 147.11 33.101 152.999 26.0035 152.999Z" stroke="black" stroke-width="0.623725" stroke-miterlimit="10" stroke-linecap="round" stroke-linejoin="round"/>
</g>
<g opacity="0.2">
<path opacity="0.2" d="M408.827 115.953C402.609 115.953 397.584 121.019 397.584 127.288C397.584 133.558 402.609 138.624 408.827 138.624C415.045 138.624 420.07 133.558 420.07 127.288C420.07 121.082 415.045 115.953 408.827 115.953ZM409.957 134.254V135.331H408.073V134.254C406.377 133.938 405.561 132.608 405.561 130.581V129.568H407.759V130.771C407.759 131.848 408.199 132.228 408.953 132.228C409.706 132.228 410.146 131.848 410.146 130.771C410.146 127.668 405.561 127.542 405.561 123.299C405.561 121.272 406.377 120.006 408.01 119.626V118.422H409.895V119.562C411.528 119.879 412.407 121.209 412.407 123.235V123.679H410.209V123.045C410.209 121.969 409.769 121.589 409.015 121.589C408.262 121.589 407.822 121.969 407.822 123.045C407.822 126.148 412.407 126.275 412.407 130.581C412.533 132.608 411.653 133.874 409.957 134.254Z" stroke="black" stroke-width="0.623725" stroke-miterlimit="10" stroke-linecap="round" stroke-linejoin="round"/>
<path opacity="0.2" d="M408.828 111.393C400.097 111.393 393.062 118.486 393.062 127.288C393.062 136.091 400.097 143.183 408.828 143.183C417.558 143.183 424.593 136.091 424.593 127.288C424.593 118.549 417.558 111.393 408.828 111.393ZM408.828 140.397C401.667 140.397 395.889 134.571 395.889 127.351C395.889 120.132 401.667 114.306 408.828 114.306C415.988 114.306 421.767 120.132 421.767 127.351C421.767 134.507 415.988 140.397 408.828 140.397Z" stroke="black" stroke-width="0.623725" stroke-miterlimit="10" stroke-linecap="round" stroke-linejoin="round"/>
</g>
<path d="M0.314453 249.003H418.627" stroke="#263238" stroke-width="0.623725" stroke-miterlimit="10" stroke-linecap="round" stroke-linejoin="round"/>
<path d="M25.2484 193.339C27.1327 194.162 31.655 194.035 31.655 194.035C31.7178 194.035 30.65 191.059 30.5872 190.869C29.5823 188.779 26.4418 185.296 23.8666 185.676C22.0451 185.929 20.9773 187.766 21.417 189.539C21.8567 191.312 23.6782 192.642 25.2484 193.339Z" fill="#FD6C03"/>
<path d="M26.8178 206.574C28.7649 206.827 32.7848 205.688 33.0988 205.561C33.7269 207.841 34.6062 210.12 35.5484 212.4C36.1137 213.73 36.679 214.997 37.3071 216.263C36.9302 215.693 36.6161 215.25 36.5533 215.187C35.0459 213.414 31.0889 210.944 28.7021 211.957C27.0063 212.717 26.5038 214.743 27.3203 216.327C28.1997 217.91 30.3352 218.733 32.031 218.986C33.7897 219.24 37.2442 218.29 38.1864 218.036C38.4376 218.543 38.6889 219.05 38.9401 219.493C40.1335 221.836 41.3269 224.179 42.3946 226.522C42.7715 227.346 43.1484 228.169 43.4624 228.992C43.1484 228.485 42.8343 228.105 42.8343 228.042C41.3269 226.269 37.3699 223.799 34.9831 224.812C33.2872 225.572 32.7848 227.599 33.6013 229.182C34.4806 230.765 36.6161 231.588 38.312 231.842C39.9451 232.095 43.2112 231.272 44.2789 230.955C44.593 231.842 44.9698 232.665 45.2211 233.488C45.4095 234.058 45.5979 234.628 45.7864 235.198C45.9748 235.768 46.1004 236.338 46.2888 236.908C46.5401 238.048 46.8541 239.188 47.0426 240.264C47.231 241.024 47.3566 241.721 47.4822 242.481C47.1054 241.658 46.3516 240.074 46.2888 239.948C45.0326 237.985 41.5153 234.882 39.0029 235.515C37.1814 235.958 36.3649 237.921 36.993 239.631C37.6211 241.341 39.5682 242.481 41.2641 242.987C43.0855 243.557 47.1054 243.051 47.6078 242.987C47.8591 244.191 48.0475 245.394 48.2359 246.47C48.3616 247.294 48.4872 248.117 48.6128 248.877H50.2458C50.1202 248.054 49.9318 247.167 49.7434 246.217C49.4921 245.014 49.2409 243.684 48.9268 242.354C49.2409 242.228 50.9368 241.531 52.4442 240.708C53.7632 242.164 57.1549 243.874 57.5946 244.064C57.1549 245.204 56.6524 246.344 56.2128 247.357C55.9615 247.927 55.7731 248.434 55.5219 248.94H57.2177C57.3433 248.624 57.469 248.307 57.5946 247.927C58.0971 246.787 58.5367 245.521 59.0392 244.254C59.5417 244.381 63.4987 245.141 65.383 244.761C67.0788 244.381 69.0887 243.431 69.8425 241.721C70.5962 240.074 69.9053 238.048 68.1466 237.478C65.697 236.655 61.9284 239.441 60.5466 241.341C60.4838 241.468 59.7301 242.734 59.2904 243.557C59.4789 243.051 59.6673 242.544 59.8557 241.974C60.2326 240.898 60.6094 239.821 60.9863 238.618C61.1747 238.048 61.3004 237.478 61.4888 236.908C61.6772 236.338 61.8028 235.705 61.9284 235.072C62.2425 233.678 62.5565 232.222 62.745 230.765C63.6871 231.082 67.016 232.285 68.7747 232.158C70.4706 232.032 72.6689 231.399 73.6739 229.879C74.6788 228.359 74.3019 226.269 72.6689 225.382C70.3449 224.179 66.2623 226.396 64.6293 228.042C64.5036 228.169 63.4987 229.435 62.9334 230.195C63.059 229.309 63.1846 228.422 63.3103 227.536C63.6243 224.939 63.8755 222.343 64.1268 219.683C64.1896 218.86 64.3152 218.1 64.378 217.276C64.6921 217.403 68.6491 218.86 70.5962 218.733C72.292 218.606 74.4904 217.973 75.4953 216.453C76.5003 214.933 76.1234 212.844 74.4904 211.957C72.1664 210.754 68.0838 212.97 66.4507 214.617C66.3251 214.743 64.8177 216.643 64.4408 217.15C64.6293 215.377 64.8177 213.604 65.0689 211.894C65.4458 209.487 65.9483 207.207 66.5764 204.991C66.702 205.054 70.8474 206.637 72.7945 206.447C74.4904 206.321 76.6887 205.688 77.6937 204.168C78.6986 202.648 78.3218 200.558 76.6887 199.671C74.3648 198.468 70.2821 200.685 68.6491 202.331C68.5235 202.458 66.8904 204.484 66.6392 204.864C66.702 204.738 66.702 204.611 66.7648 204.484C67.4557 202.141 68.4607 199.988 69.4656 197.962C70.0309 196.822 70.659 195.745 71.2871 194.669C72.0408 195.049 75.3697 196.695 77.1912 196.758C78.8871 196.822 81.1482 196.442 82.2788 194.985C83.4094 193.592 83.2837 191.439 81.7135 190.426C79.578 188.969 75.2441 190.742 73.4226 192.199C73.297 192.262 72.4177 193.212 71.7896 193.845C72.1036 193.402 72.3549 192.895 72.6689 192.452C73.7367 190.806 74.8672 189.349 75.8094 188.083C76.3747 187.386 76.8771 186.753 77.3796 186.119C78.259 186.119 81.9647 185.993 83.535 185.233C85.1052 184.473 86.8639 183.143 87.2407 181.306C87.6176 179.533 86.5498 177.697 84.6656 177.507C82.0904 177.254 79.0127 180.8 78.0705 182.89C78.0077 183.08 77.0656 186.119 77.0656 186.119H77.1284C76.6259 186.689 76.1234 187.259 75.5581 187.956C74.5532 189.222 73.4226 190.616 72.292 192.262C71.1615 193.909 69.9681 195.682 68.9003 197.708C67.8326 199.735 66.7648 201.888 66.0111 204.231V204.294C66.0111 203.534 66.0111 201.381 65.9483 201.255C65.6342 198.975 63.7499 194.669 61.1747 194.162C59.3533 193.845 57.783 195.239 57.6574 197.075C57.5318 198.912 58.8508 200.748 60.107 201.888C61.5516 203.218 65.5714 204.484 65.8855 204.548C65.1945 206.827 64.6293 209.171 64.1896 211.64C63.9384 213.034 63.7499 214.427 63.5615 215.883C63.5615 215.25 63.5615 214.617 63.4987 214.553C63.1846 212.274 61.3004 207.967 58.7252 207.461C56.9037 207.144 55.3334 208.537 55.2078 210.374C55.0822 212.21 56.4012 214.047 57.6574 215.187C58.9764 216.39 62.3681 217.53 63.3103 217.783C63.2475 218.353 63.1846 218.86 63.1218 219.43C62.8078 222.026 62.4937 224.686 62.1169 227.219C61.9913 228.105 61.8028 228.992 61.6772 229.879C61.6772 229.309 61.6772 228.802 61.6772 228.739C61.3632 226.459 59.4789 222.153 56.9037 221.646C55.0822 221.329 53.512 222.723 53.3863 224.559C53.2607 226.396 54.5797 228.232 55.8359 229.372C57.0921 230.512 60.2326 231.588 61.3004 231.905C61.1119 232.792 60.9235 233.678 60.6723 234.565C60.4838 235.135 60.3582 235.705 60.1698 236.275C59.9813 236.845 59.7929 237.415 59.6045 237.985C59.2276 239.061 58.8508 240.201 58.4111 241.214C58.1599 241.911 57.8458 242.607 57.5946 243.304C57.7202 242.417 57.9714 240.644 57.9714 240.518C58.0342 238.998 57.469 236.465 56.4012 234.692C56.4012 234.438 56.4012 234.248 56.3384 233.995C56.0243 232.222 54.3913 230.892 52.5698 231.399C50.0574 232.095 48.4872 236.528 48.3616 238.808C48.3616 238.934 48.4244 240.454 48.4872 241.404C48.3616 240.834 48.2359 240.328 48.1103 239.758C47.8591 238.618 47.545 237.541 47.231 236.338C47.0426 235.768 46.9169 235.198 46.7285 234.628C46.5401 234.058 46.3517 233.488 46.1004 232.855C45.5979 231.462 45.0326 230.132 44.4674 228.802C45.4095 228.549 48.864 227.662 50.2458 226.649C51.6277 225.572 53.0723 223.863 53.0723 222.026C53.0723 220.253 51.6277 218.67 49.7434 218.86C47.1682 219.113 44.907 223.293 44.4674 225.572C44.4674 225.699 44.2789 227.409 44.2161 228.295C43.8393 227.472 43.4624 226.649 43.0855 225.889C41.955 223.546 40.6988 221.203 39.5054 218.923C39.1285 218.226 38.7517 217.466 38.3748 216.77C38.7517 216.707 42.8343 215.757 44.3417 214.553C45.7236 213.477 47.1682 211.767 47.1682 209.931C47.1682 208.157 45.7236 206.574 43.8393 206.764C41.2641 207.017 39.0029 211.197 38.5632 213.477C38.5004 213.667 38.312 216.073 38.312 216.707C37.4955 215.123 36.679 213.54 35.9881 211.957C34.9831 209.741 34.1666 207.587 33.4757 205.371C33.6641 205.308 37.9352 204.358 39.5054 203.154C40.8872 202.078 42.3318 200.368 42.3318 198.532C42.3318 196.758 40.8872 195.175 39.0029 195.365C36.4277 195.618 34.1666 199.798 33.7269 202.078C33.6641 202.268 33.4757 204.864 33.4757 205.308C33.4129 205.181 33.35 205.054 33.35 204.928C32.6591 202.585 32.2823 200.241 32.031 197.962C31.9054 196.695 31.8426 195.429 31.7798 194.225C32.5963 194.099 36.3021 193.655 37.8723 192.705C39.3798 191.819 41.0128 190.236 41.1384 188.399C41.3269 186.626 40.0707 184.916 38.1864 184.916C35.6112 184.916 32.9104 188.779 32.2195 190.996C32.1567 191.122 31.9054 192.389 31.717 193.339C31.717 192.769 31.717 192.199 31.717 191.692C31.717 189.729 31.8426 187.893 31.9682 186.309C32.031 185.423 32.1567 184.6 32.2195 183.84C32.9732 183.333 35.9881 181.18 36.8674 179.66C37.7467 178.203 38.5004 176.05 37.8095 174.34C37.1814 172.694 35.2343 171.744 33.6013 172.567C31.2773 173.771 30.712 178.457 31.0889 180.737C31.1517 180.927 31.9682 183.966 32.031 183.966H32.0939C31.9682 184.726 31.9054 185.486 31.7798 186.373C31.5914 187.956 31.4658 189.792 31.4029 191.756C31.3401 193.719 31.3401 195.872 31.5286 198.152C31.717 200.431 32.031 202.775 32.7219 205.244V205.308C32.3451 204.674 31.0889 202.901 31.0261 202.775C29.5187 201.001 25.5616 198.532 23.1749 199.545C21.479 200.305 20.9765 202.331 21.7931 203.914C22.9865 205.561 25.122 206.321 26.8178 206.574Z" fill="#FD6C03"/>
<path d="M71.1628 194.352C71.2256 194.352 71.9793 191.312 72.0421 191.122C72.3561 188.842 71.6024 184.156 69.2785 183.016C67.5826 182.193 65.6983 183.206 65.133 184.853C64.5049 186.563 65.3214 188.716 66.2636 190.172C67.3314 191.882 71.1628 194.352 71.1628 194.352Z" fill="#FD6C03"/>
<path d="M339.487 174.277C342 175.354 348.092 175.227 348.092 175.227C348.155 175.227 346.773 171.174 346.648 170.984C345.329 168.134 341.058 163.511 337.666 163.955C335.216 164.271 333.834 166.804 334.337 169.148C334.902 171.554 337.352 173.327 339.487 174.277Z" fill="#FD6C03"/>
<path d="M341.56 192.072C344.136 192.452 349.6 190.869 350.04 190.742C350.919 193.782 352.05 196.885 353.369 199.925C354.122 201.698 354.939 203.408 355.756 205.118C355.253 204.358 354.813 203.724 354.751 203.661C352.741 201.318 347.402 197.962 344.199 199.291C341.875 200.305 341.246 203.028 342.377 205.181C343.57 207.334 346.397 208.411 348.658 208.727C350.982 209.044 355.63 207.777 356.886 207.461C357.2 208.094 357.514 208.791 357.828 209.424C359.398 212.59 360.969 215.757 362.476 218.86C362.979 219.936 363.481 221.076 363.921 222.153C363.481 221.519 363.104 220.949 363.041 220.886C361.032 218.543 355.693 215.187 352.489 216.516C350.165 217.53 349.537 220.253 350.668 222.406C351.861 224.559 354.688 225.636 356.949 225.952C359.147 226.269 363.481 225.129 364.926 224.749C365.365 225.889 365.805 227.029 366.182 228.169C366.433 228.929 366.747 229.689 366.936 230.449C367.124 231.208 367.375 232.032 367.564 232.792C367.941 234.312 368.317 235.831 368.631 237.288C368.883 238.301 369.071 239.314 369.26 240.264C368.757 239.188 367.752 237.035 367.627 236.845C365.993 234.185 361.22 230.069 357.891 230.955C355.441 231.588 354.374 234.248 355.19 236.465C356.007 238.808 358.645 240.264 360.906 240.961C363.355 241.721 368.757 241.024 369.448 240.961C369.762 242.607 370.076 244.191 370.327 245.647C370.516 246.787 370.704 247.8 370.83 248.877H372.965C372.777 247.737 372.526 246.534 372.274 245.267C371.96 243.621 371.584 241.847 371.144 240.074C371.521 239.884 373.845 238.998 375.917 237.795C377.676 239.758 382.261 242.037 382.826 242.291C382.198 243.811 381.57 245.33 381.005 246.724C380.691 247.484 380.377 248.18 380.063 248.877H382.324C382.512 248.434 382.701 247.99 382.889 247.547C383.517 245.964 384.145 244.317 384.836 242.607C385.464 242.734 390.803 243.811 393.316 243.304C395.577 242.797 398.34 241.531 399.345 239.251C400.35 237.035 399.471 234.312 397.084 233.552C393.818 232.412 388.793 236.211 386.909 238.744C386.783 238.871 385.779 240.644 385.213 241.721C385.464 241.024 385.716 240.328 385.967 239.568C386.469 238.111 386.972 236.655 387.474 235.071C387.726 234.312 387.914 233.552 388.165 232.728C388.417 231.968 388.605 231.145 388.793 230.322C389.233 228.422 389.61 226.459 389.924 224.496C391.18 224.939 395.64 226.522 397.964 226.332C400.288 226.142 403.177 225.319 404.496 223.229C405.815 221.203 405.312 218.353 403.114 217.213C400.036 215.63 394.509 218.543 392.311 220.759C392.185 220.886 390.803 222.659 390.05 223.609C390.238 222.406 390.426 221.266 390.552 220.063C390.992 216.58 391.306 213.033 391.62 209.55C391.745 208.474 391.808 207.397 391.934 206.321C392.374 206.511 397.65 208.474 400.288 208.284C402.612 208.094 405.501 207.271 406.82 205.181C408.139 203.154 407.636 200.305 405.438 199.165C402.36 197.582 396.833 200.495 394.635 202.711C394.446 202.901 392.436 205.434 391.997 206.067C392.248 203.724 392.499 201.318 392.876 199.038C393.378 195.872 394.007 192.769 394.886 189.792C395.074 189.856 400.602 191.945 403.24 191.755C405.564 191.565 408.453 190.742 409.772 188.652C411.091 186.626 410.588 183.776 408.39 182.636C405.312 181.053 399.785 183.966 397.587 186.183C397.398 186.373 395.263 189.096 394.886 189.602C394.949 189.412 394.949 189.222 395.012 189.096C395.954 185.929 397.273 183.016 398.655 180.357C399.471 178.773 400.288 177.38 401.104 175.987C402.109 176.494 406.631 178.71 409.018 178.773C411.342 178.837 414.294 178.33 415.864 176.43C417.372 174.53 417.246 171.681 415.173 170.287C412.284 168.324 406.443 170.667 404.056 172.631C403.931 172.757 402.674 173.96 401.795 174.847C402.172 174.214 402.612 173.581 402.988 173.011C404.433 170.794 405.878 168.894 407.197 167.184C407.95 166.235 408.641 165.348 409.332 164.588C410.526 164.588 415.488 164.398 417.623 163.385C419.696 162.372 422.145 160.535 422.648 158.129C423.15 155.785 421.706 153.316 419.193 152.999C415.739 152.619 411.656 157.369 410.4 160.282C410.274 160.535 409.018 164.588 409.081 164.588H409.144C408.516 165.348 407.825 166.171 407.071 167.058C405.689 168.704 404.182 170.604 402.674 172.821C401.167 174.974 399.597 177.38 398.152 180.103C396.707 182.826 395.326 185.676 394.258 188.906C394.258 188.969 394.258 188.969 394.258 189.032C394.258 188.019 394.258 185.106 394.195 184.916C393.818 181.813 391.243 176.05 387.788 175.417C385.339 174.974 383.266 176.874 383.078 179.343C382.889 181.813 384.648 184.283 386.407 185.803C388.354 187.576 393.755 189.286 394.195 189.412C393.253 192.452 392.499 195.618 391.934 198.911C391.62 200.811 391.306 202.711 391.055 204.611C391.055 203.724 391.055 202.901 390.992 202.838C390.615 199.735 388.04 193.972 384.585 193.339C382.136 192.895 380.063 194.795 379.874 197.265C379.686 199.735 381.445 202.205 383.203 203.724C384.962 205.308 389.547 206.827 390.74 207.207C390.678 207.967 390.552 208.664 390.489 209.424C390.05 212.907 389.673 216.453 389.17 219.873C388.982 221.076 388.793 222.279 388.542 223.419C388.542 222.659 388.542 221.963 388.479 221.836C388.102 218.733 385.527 212.97 382.073 212.337C379.623 211.894 377.55 213.793 377.362 216.263C377.174 218.733 378.932 221.203 380.691 222.723C382.387 224.242 386.595 225.699 388.04 226.142C387.788 227.345 387.537 228.549 387.223 229.689C386.972 230.449 386.846 231.272 386.595 232.032C386.344 232.792 386.093 233.552 385.841 234.312C385.339 235.768 384.774 237.225 384.271 238.618C383.894 239.568 383.517 240.518 383.141 241.468C383.329 240.264 383.643 237.921 383.643 237.731C383.706 235.641 382.952 232.285 381.507 229.879C381.507 229.562 381.507 229.245 381.445 228.992C381.068 226.586 378.807 224.812 376.42 225.446C373.091 226.332 370.955 232.285 370.767 235.388C370.767 235.578 370.893 237.605 370.955 238.871C370.767 238.111 370.641 237.415 370.453 236.655C370.076 235.135 369.699 233.678 369.26 232.095C369.008 231.335 368.82 230.575 368.569 229.752C368.38 228.992 368.003 228.169 367.752 227.409C367.061 225.572 366.308 223.736 365.491 221.963C366.81 221.646 371.395 220.443 373.217 219.05C375.038 217.656 376.985 215.313 376.985 212.844C376.985 210.437 375.038 208.347 372.526 208.601C369.071 208.981 366.056 214.553 365.428 217.593C365.365 217.783 365.177 220.063 365.114 221.266C364.612 220.189 364.109 219.113 363.607 217.973C362.036 214.87 360.403 211.704 358.77 208.601C358.268 207.651 357.765 206.701 357.263 205.751C357.703 205.624 363.23 204.358 365.303 202.774C367.124 201.381 369.071 199.038 369.071 196.568C369.071 194.162 367.124 192.072 364.612 192.325C361.157 192.705 358.142 198.278 357.514 201.318C357.451 201.571 357.2 204.801 357.137 205.624C356.07 203.534 355.002 201.381 353.997 199.291C352.678 196.378 351.484 193.402 350.605 190.489C350.794 190.426 356.572 189.096 358.708 187.513C360.529 186.119 362.476 183.776 362.476 181.306C362.476 178.9 360.529 176.81 358.017 177.064C354.562 177.443 351.547 183.016 350.919 186.056C350.856 186.309 350.542 189.792 350.542 190.426C350.479 190.236 350.417 190.046 350.354 189.919C349.412 186.753 348.909 183.586 348.595 180.61C348.407 178.9 348.344 177.19 348.281 175.544C349.349 175.417 354.374 174.72 356.446 173.454C358.456 172.251 360.592 170.161 360.843 167.691C361.094 165.285 359.398 163.005 356.886 163.005C353.432 163.005 349.851 168.198 348.846 171.174C348.784 171.364 348.47 173.011 348.218 174.277C348.218 173.517 348.156 172.757 348.156 172.061C348.156 169.401 348.344 166.994 348.47 164.841C348.595 163.638 348.721 162.498 348.784 161.485C349.789 160.788 353.808 157.939 355.065 155.912C356.258 153.949 357.263 151.036 356.384 148.756C355.504 146.476 352.929 145.273 350.731 146.413C347.653 147.996 346.837 154.266 347.339 157.369C347.402 157.622 348.532 161.738 348.595 161.675L348.658 161.612C348.532 162.625 348.407 163.638 348.281 164.841C348.093 166.994 347.841 169.401 347.779 172.061C347.716 174.72 347.716 177.633 347.967 180.673C348.218 183.713 348.658 186.943 349.537 190.172C349.537 190.236 349.537 190.236 349.6 190.299C349.035 189.412 347.465 187.069 347.276 186.879C345.266 184.536 339.927 181.18 336.724 182.51C334.4 183.523 333.772 186.246 334.903 188.399C336.473 190.679 339.299 191.755 341.56 192.072Z" fill="#FD6C03"/>
<path d="M401.166 175.607C401.229 175.67 402.296 171.491 402.296 171.237C402.736 168.134 401.731 161.928 398.591 160.408C396.33 159.332 393.817 160.662 393.001 162.878C392.184 165.221 393.252 168.071 394.508 170.034C395.953 172.377 401.103 175.607 401.166 175.607Z" fill="#FD6C03"/>
<g opacity="0.3">
<path opacity="0.3" d="M61.7424 129.125C65.825 130.455 75.3721 129.251 75.3721 129.188C75.4977 129.188 72.6713 123.109 72.42 122.729C69.8448 118.549 62.4961 111.9 57.1573 113.229C53.3259 114.179 51.5672 118.296 52.8234 121.905C54.1424 125.642 58.225 128.048 61.7424 129.125Z" stroke="black" stroke-width="0.623725" stroke-miterlimit="10" stroke-linecap="round" stroke-linejoin="round"/>
<path opacity="0.3" d="M123.045 193.402C125.369 190.869 127.441 187.386 127.065 183.966C126.625 180.167 123.296 177.19 119.402 178.013C114.063 179.153 110.232 188.336 109.729 193.275C109.729 193.592 109.729 197.138 109.792 199.102C108.85 197.455 107.908 195.872 106.903 194.225C103.951 189.539 100.873 184.916 97.7952 180.293C96.853 178.9 95.9109 177.444 94.9688 176.05C95.4084 175.924 98.5489 174.784 101.689 173.327" stroke="black" stroke-width="0.623725" stroke-miterlimit="10" stroke-linecap="round" stroke-linejoin="round"/>
<path opacity="0.3" d="M116.387 211.64C115.947 210.564 115.382 209.487 114.879 208.411C113.56 205.624 112.053 202.901 110.482 200.178C111.99 199.672 116.198 198.088 119.401 196.252" stroke="black" stroke-width="0.623725" stroke-miterlimit="10" stroke-linecap="round" stroke-linejoin="round"/>
<path opacity="0.3" d="M156.71 161.675C155.203 162.815 153.947 164.018 153.067 165.095C152.816 165.411 150.115 169.718 149.424 170.794C149.424 167.058 149.487 163.322 149.676 159.649C149.927 154.582 150.429 149.579 151.309 144.83C151.623 144.893 160.604 147.3 164.75 146.603C168.33 145.97 172.727 144.133 174.548 140.65C176.307 137.231 175.114 132.924 171.408 131.468C166.32 129.441 158.092 135.014 155.014 138.814C154.763 139.13 151.811 143.753 151.371 144.64C151.434 144.387 151.434 144.07 151.497 143.753C152.502 138.687 154.072 133.874 155.768 129.441C156.773 126.845 157.841 124.438 158.971 122.159C160.604 122.792 168.079 125.515 171.847 125.262C175.49 125.008 180.075 123.679 182.211 120.449C184.284 117.282 183.593 112.786 180.075 110.95C175.239 108.417 166.446 112.976 162.991 116.459C162.803 116.649 161.107 118.802 159.851 120.322C160.353 119.309 160.856 118.232 161.421 117.219C163.368 113.546 165.315 110.253 167.137 107.403C168.142 105.757 169.147 104.3 170.026 102.97C171.91 102.717 179.636 101.704 182.839 99.7408C185.98 97.8409 189.434 94.5479 189.811 90.6849C190.188 86.8853 187.55 83.2756 183.593 83.2756C178.128 83.2756 172.476 91.3815 170.905 96.0678C170.78 96.4477 169.461 103.034 169.523 103.034C169.523 103.034 169.586 103.034 169.649 103.034C168.77 104.3 167.765 105.694 166.76 107.213C164.938 110.063 162.866 113.293 160.856 116.966C158.846 120.639 156.773 124.692 154.952 129.125C153.13 133.558 151.434 138.371 150.304 143.5C150.304 143.563 150.304 143.627 150.304 143.69C150.178 142.107 149.613 137.611 149.55 137.231C148.419 132.418 143.457 123.805 137.993 123.362C134.036 123.045 131.084 126.465 131.21 130.265C131.272 134.191 134.476 137.737 137.428 139.89C140.757 142.297 149.55 144.07 150.241 144.26C149.236 149.2 148.545 154.329 148.168 159.522C147.98 162.498 147.854 165.538 147.729 168.578C147.54 167.185 147.414 165.918 147.352 165.791C146.221 160.978 141.259 152.366 135.795 151.923C131.838 151.606 128.886 155.026 129.011 158.825C129.074 162.752 132.277 166.298 135.229 168.451C138.244 170.668 145.656 172.314 147.666 172.694C147.666 173.834 147.603 175.037 147.603 176.177C147.54 181.75 147.477 187.323 147.226 192.769C147.163 194.669 146.975 196.568 146.849 198.468C146.724 197.265 146.598 196.188 146.535 196.062C145.405 191.249 140.443 182.636 134.978 182.193C131.021 181.876 128.069 185.296 128.195 189.096C128.258 193.022 131.461 196.568 134.413 198.722C137.302 200.811 144.148 202.395 146.472 202.901C146.284 204.864 146.095 206.764 145.781 208.664C145.53 209.931 145.405 211.197 145.153 212.464C144.902 213.73 144.651 214.933 144.4 216.2C143.834 218.543 143.206 221.013 142.578 223.293C142.138 224.876 141.699 226.396 141.259 227.916C141.385 226.016 141.51 222.279 141.448 221.963C141.196 218.67 139.5 213.54 136.8 210.057C136.737 209.551 136.674 209.107 136.548 208.601C135.543 204.928 131.775 202.521 128.069 203.914C122.981 205.878 120.595 215.567 120.846 220.443C120.846 220.76 121.348 223.863 121.725 225.826C121.348 224.686 120.972 223.609 120.595 222.469C119.778 220.19 118.962 217.91 118.02 215.503" stroke="black" stroke-width="0.623725" stroke-miterlimit="10" stroke-linecap="round" stroke-linejoin="round"/>
<path opacity="0.3" d="M91.8281 206.384C93.7124 207.081 95.7851 207.461 97.6066 207.524C101.124 207.651 107.719 205.181 109.98 204.294C110.859 206.004 111.739 207.777 112.555 209.487C113.058 210.69 113.623 211.767 114.063 212.97C114.502 214.173 115.005 215.377 115.445 216.517C116.261 218.796 117.078 221.14 117.831 223.419C118.334 225.002 118.836 226.459 119.276 227.979C118.334 226.332 116.387 223.103 116.135 222.913C113.121 219.05 105.018 213.35 99.8678 215.25C96.162 216.643 94.9058 220.95 96.5389 224.369C98.2347 227.852 102.631 229.752 106.212 230.512C110.169 231.272 118.522 229.309 119.527 229.055C120.281 231.525 121.035 233.995 121.663 236.275C122.165 237.985 122.605 239.631 123.045 241.214L126.436 240.834C125.934 239.061 125.368 237.225 124.803 235.325C124.049 232.792 123.17 230.069 122.228 227.346C122.856 227.029 126.311 225.192 129.326 223.039C132.403 225.762 139.94 228.612 140.882 228.992C140.129 231.525 139.438 233.932 138.684 236.211C138.307 237.415 137.93 238.555 137.554 239.694L141.134 239.314C141.322 238.618 141.573 237.921 141.762 237.161C142.516 234.628 143.269 231.905 144.023 229.055C145.091 229.182 153.633 230.005 157.464 228.675C160.919 227.472 165.001 225.002 166.258 221.329C167.451 217.72 165.63 213.604 161.798 212.717C156.459 211.514 149.173 218.226 146.724 222.469C146.598 222.723 145.279 225.636 144.525 227.472C144.84 226.332 145.091 225.192 145.405 223.989C145.97 221.646 146.535 219.303 147.101 216.707C147.352 215.44 147.54 214.237 147.792 212.97C148.043 211.704 148.168 210.374 148.357 209.044C148.734 206.004 148.985 202.901 149.173 199.735C151.246 200.241 158.469 201.951 162.112 201.318C165.692 200.685 170.089 198.848 171.91 195.365C173.669 191.946 172.476 187.639 168.77 186.183C163.682 184.156 155.454 189.729 152.377 193.529C152.188 193.782 150.241 196.758 149.236 198.405C149.362 196.505 149.425 194.669 149.487 192.705C149.613 187.196 149.55 181.623 149.487 176.05C149.487 174.341 149.487 172.631 149.487 170.921C150.241 171.111 158.846 173.327 162.866 172.631C166.446 171.997 170.843 170.161 172.664 166.678C174.423 163.258 173.229 158.952 169.524 157.495C167.137 156.546 164.059 157.305 161.107 158.699" stroke="black" stroke-width="0.623725" stroke-miterlimit="10" stroke-linecap="round" stroke-linejoin="round"/>
<path opacity="0.3" d="M85.9863 200.431C86.1748 201.318 86.5516 202.205 87.0541 202.964C87.5566 203.661 88.1219 204.294 88.8128 204.801" stroke="black" stroke-width="0.623725" stroke-miterlimit="10" stroke-linecap="round" stroke-linejoin="round"/>
<path opacity="0.3" d="M69.4043 156.672C73.7382 156.229 80.396 153.506 80.9613 153.252C82.7828 157.939 85.0439 162.562 87.6191 167.121C89.0637 169.718 90.634 172.314 92.2042 174.91C91.3249 173.834 90.5083 172.884 90.3827 172.757C86.8026 169.401 77.9464 164.968 73.1729 167.628C69.7183 169.528 69.0902 174.024 71.2886 177.19C73.4869 180.42 78.072 181.623 81.715 181.75C85.4208 181.876 92.5183 179.153 94.4026 178.393C95.0306 179.407 95.5959 180.357 96.224 181.37C99.1761 186.056 102.191 190.742 105.017 195.429C106.022 197.075 106.902 198.722 107.844 200.368C107.027 199.418 106.336 198.658 106.274 198.532C102.693 195.175 93.8373 190.742 89.0637 193.402C87.9332 194.035 87.0538 194.985 86.5513 196.062" stroke="black" stroke-width="0.623725" stroke-miterlimit="10" stroke-linecap="round" stroke-linejoin="round"/>
<path opacity="0.3" d="M94.4039 117.346C94.5295 116.776 94.5923 116.143 94.5923 115.573C94.5923 111.773 91.5775 108.417 87.6205 108.86C82.156 109.43 77.3825 118.106 76.3775 122.982C76.3147 123.235 76.0635 125.958 75.8751 127.985C75.7494 126.845 75.561 125.642 75.4982 124.565C75.0585 120.386 74.9329 116.586 74.8701 113.166C74.8073 111.266 74.8701 109.493 74.8701 107.847C76.3147 106.58 82.156 101.451 83.7891 98.0309C85.3593 94.6746 86.4271 90.0517 84.6684 86.5687C82.9097 83.2123 78.7015 81.6291 75.4354 83.8456C70.8503 86.8853 70.599 96.8277 71.918 101.577C72.0437 101.957 74.4932 108.227 74.6189 108.163L74.6817 108.1C74.6189 109.683 74.6189 111.33 74.556 113.23C74.556 116.649 74.6189 120.449 74.9329 124.628C75.247 128.808 75.7494 133.304 76.6288 138.054C77.5709 142.803 78.7643 147.743 80.6486 152.683C80.6486 152.746 80.7114 152.809 80.7114 152.872C79.7064 151.606 76.8172 148.123 76.566 147.933C72.9858 144.577 64.1296 140.144 59.3561 142.803C55.9016 144.703 55.2735 149.2 57.4718 152.366C59.1049 154.772 62.1197 156.039 65.0718 156.609" stroke="black" stroke-width="0.623725" stroke-miterlimit="10" stroke-linecap="round" stroke-linejoin="round"/>
<path opacity="0.3" d="M104.077 172.124C105.271 171.427 106.401 170.731 107.155 170.034C109.793 167.501 112.494 163.512 112.054 159.649C111.614 155.849 108.286 152.873 104.391 153.696C99.0525 154.836 95.2211 164.018 94.7186 168.958C94.6558 169.338 94.7186 174.467 94.8442 175.734C92.7715 172.631 90.7616 169.464 88.9401 166.298C86.3649 161.928 84.1038 157.495 82.2195 152.999C82.5335 152.873 91.3269 149.896 94.4046 146.983C97.0426 144.45 99.7434 140.46 99.3037 136.597C98.8641 132.798 95.5351 129.821 91.6409 130.645C86.3021 131.784 82.4707 140.967 81.9683 145.906C81.9054 146.286 82.0311 151.796 82.0939 152.809C81.9683 152.556 81.8426 152.303 81.717 151.986C79.7699 147.173 78.4509 142.297 77.446 137.674C76.8807 134.951 76.441 132.354 76.127 129.821C77.8228 129.441 85.5484 127.542 88.5633 125.262C89.9451 124.249 91.3269 122.855 92.4575 121.335" stroke="black" stroke-width="0.623725" stroke-miterlimit="10" stroke-linecap="round" stroke-linejoin="round"/>
<path opacity="0.3" d="M158.657 121.145C158.72 121.209 159.725 114.559 159.725 114.116C159.913 109.177 157.338 99.5508 152.187 97.7143C148.482 96.3844 144.713 98.8542 143.834 102.527C142.892 106.327 145.027 110.633 147.288 113.483C149.989 116.839 158.657 121.145 158.657 121.145Z" stroke="black" stroke-width="0.623725" stroke-miterlimit="10" stroke-linecap="round" stroke-linejoin="round"/>
</g>
<g opacity="0.3">
<path opacity="0.3" d="M302.679 39.9596C306.071 41.3528 309.526 42.3027 309.526 42.3027C309.651 42.3027 309.4 35.6533 309.337 35.21C308.584 30.3338 304.375 21.3413 298.911 20.4547C295.017 19.8215 291.813 22.9245 291.562 26.7875C291.311 30.6504 294.2 34.5134 296.964 36.9199" stroke="black" stroke-width="0.623725" stroke-miterlimit="10" stroke-linecap="round" stroke-linejoin="round"/>
<path opacity="0.3" d="M383.202 92.5847C383.956 92.9013 384.647 93.1546 385.212 93.2813C388.792 94.1046 393.566 94.1679 396.518 91.6348C399.407 89.165 399.972 84.7321 397.146 81.9457C393.252 78.0827 383.516 79.9825 379.182 82.3256C378.868 82.5156 374.346 85.6187 373.529 86.2519C373.718 85.9986 373.843 85.7453 373.969 85.492C376.858 81.1858 380.187 77.3861 383.453 73.9664C385.338 72.0033 387.285 70.1668 389.169 68.5203C390.425 69.7235 396.266 75.1696 399.847 76.4362C403.301 77.6394 408.012 78.2094 411.215 76.0562C413.665 74.4097 414.858 71.37 414.104 68.7102" stroke="black" stroke-width="0.623725" stroke-miterlimit="10" stroke-linecap="round" stroke-linejoin="round"/>
<path opacity="0.3" d="M332.075 13.7421C333.645 11.5889 334.776 9.05584 334.524 6.52274C334.21 2.7231 330.944 -0.379949 327.05 0.379981C321.649 1.39322 317.566 10.449 316.938 15.3253C316.875 15.7686 316.749 22.4813 316.875 22.4179C316.875 22.4179 316.938 22.4179 317.001 22.3546C316.373 23.8111 315.682 25.331 314.928 27.0408C313.609 30.2072 312.164 33.7535 310.908 37.7432C309.589 41.7328 308.27 46.1024 307.328 50.7886C306.323 55.5382 305.569 60.5411 305.381 65.7972C305.381 65.8606 305.381 65.9239 305.381 65.9872C304.941 64.404 303.622 60.0978 303.434 59.7811C301.424 55.2849 295.017 47.7489 289.553 48.3189C285.659 48.7622 283.335 52.6251 284.151 56.3614C284.968 60.1611 288.736 63.0742 292.002 64.6573C295.708 66.4305 304.69 66.5572 305.381 66.5572C305.255 71.56 305.569 76.7529 306.135 81.9457C306.449 84.9221 306.888 87.8985 307.391 90.9382C306.951 89.6084 306.574 88.4051 306.511 88.2785C304.501 83.7822 298.095 76.2463 292.63 76.8162C288.736 77.2595 286.412 81.1225 287.229 84.8588C288.045 88.6584 291.814 91.5715 295.08 93.1547C298.409 94.7379 306.072 94.9912 308.082 95.0545C308.27 96.1944 308.458 97.3343 308.647 98.4742C309.589 103.984 310.531 109.43 311.285 114.876C311.536 116.776 311.787 118.676 311.976 120.575C311.599 119.372 311.285 118.422 311.222 118.232C309.212 113.736 302.806 106.2 297.341 106.77C293.447 107.213 291.123 111.076 291.94 114.813C292.756 118.612 296.525 121.525 299.791 123.109C302.994 124.628 310.029 124.945 312.415 125.008C312.541 126.972 312.73 128.871 312.792 130.771C312.792 132.038 312.918 133.304 312.855 134.571C312.855 135.837 312.792 137.104 312.792 138.37C312.667 140.777 312.541 143.31 312.29 145.653C312.164 147.3 312.039 148.883 311.85 150.403C311.599 148.503 311.034 144.767 310.971 144.513C309.715 139.764 304.439 131.341 298.974 131.088C295.017 130.898 292.191 134.381 292.379 138.181C292.568 142.043 295.897 145.527 298.911 147.616C302.24 149.896 310.72 151.353 311.787 151.543C311.536 154.139 311.285 156.672 310.971 159.079C310.782 160.852 310.531 162.562 310.343 164.145L313.609 165.158C313.797 163.322 314.049 161.422 314.237 159.459C314.488 156.799 314.739 154.012 314.928 151.099C315.619 151.036 319.513 150.719 323.093 149.896C324.915 153.632 330.756 159.205 331.51 159.902C329.877 161.928 328.244 163.891 326.736 165.728C325.92 166.678 325.103 167.628 324.349 168.514L327.804 169.591C328.306 169.021 328.746 168.451 329.248 167.818C330.944 165.791 332.64 163.511 334.399 161.232C335.341 161.738 342.878 165.855 346.898 166.171C350.541 166.425 355.252 165.791 357.827 162.815C360.339 159.965 360.214 155.406 357.01 153.126C352.551 149.896 343.255 153.252 339.361 156.229C339.11 156.419 336.848 158.572 335.404 159.965C336.095 159.015 336.848 158.129 337.539 157.115C338.984 155.152 340.366 153.189 341.873 151.099C342.564 150.023 343.255 149.01 343.946 147.933C344.637 146.856 345.328 145.716 345.956 144.577C347.526 141.917 348.908 139.13 350.29 136.344C351.986 137.611 358.015 142.043 361.595 142.867C365.176 143.69 369.886 143.753 372.901 141.22C375.79 138.75 376.356 134.318 373.529 131.531C369.635 127.668 359.9 129.568 355.566 131.911C355.314 132.038 352.362 134.064 350.792 135.204C351.609 133.494 352.425 131.784 353.179 130.075C355.377 125.008 357.513 119.879 359.648 114.686C360.276 113.103 360.967 111.52 361.595 110C362.161 110.443 369.258 115.889 373.278 116.839C376.858 117.662 381.569 117.726 384.584 115.193C387.473 112.723 388.038 108.29 385.212 105.504C381.318 101.641 371.582 103.54 367.248 105.884C366.934 106.073 362.726 108.923 361.721 109.746C363.166 106.263 364.673 102.844 366.243 99.5508C368.442 94.9912 370.828 90.6216 373.466 86.5053C373.655 86.632 376.921 89.2284 380.313 91.1915" stroke="black" stroke-width="0.623725" stroke-miterlimit="10" stroke-linecap="round" stroke-linejoin="round"/>
<path opacity="0.3" d="M326.736 42.6827C329.249 41.5428 331.51 39.7063 332.515 37.2999C333.959 33.7535 332.452 29.5106 328.683 28.3707C323.47 26.7242 315.682 32.9303 312.918 36.9199C312.792 37.1099 311.473 39.5163 310.531 41.2895C310.845 40.1496 311.159 39.0097 311.473 37.9331C312.667 33.9435 314.049 30.3339 315.242 27.2308C315.933 25.4576 316.624 23.8111 317.252 22.3546C319.073 21.7846 326.422 19.3149 329.249 16.7818C329.5 16.5285 329.814 16.2752 330.065 16.0219" stroke="black" stroke-width="0.623725" stroke-miterlimit="10" stroke-linecap="round" stroke-linejoin="round"/>
<path opacity="0.3" d="M412.534 65.9238C408.64 62.3141 399.533 63.1374 395.199 64.9106C394.947 65.0372 392.561 66.3038 390.802 67.2537C391.681 66.4938 392.561 65.7338 393.44 64.9739C396.643 62.3141 399.721 60.0977 402.485 58.1345C404.055 57.058 405.499 56.0447 406.881 55.1581C408.703 55.6648 416.24 57.7546 419.946 57.1846C423.589 56.678 428.048 54.9682 429.87 51.5485C431.691 48.1921 430.623 43.8225 426.98 42.2393C421.956 40.0862 413.602 45.3424 410.399 49.0787C410.147 49.3953 406.379 54.9682 406.442 54.9682C406.442 54.9682 406.504 54.9682 406.567 55.0315C405.248 55.8547 403.804 56.7413 402.296 57.7546C399.47 59.6544 396.329 61.8075 393.063 64.4039C389.797 67.0004 386.342 69.9134 382.888 73.2698C379.496 76.6895 376.042 80.4258 373.027 84.7321C372.964 84.7954 372.964 84.8587 372.901 84.8587C373.404 83.3388 374.66 78.9693 374.723 78.6526C375.539 73.7764 374.283 63.8973 369.384 61.3642C365.867 59.5277 361.847 61.4909 360.465 65.0372C359.02 68.6469 360.591 73.2065 362.475 76.3728C364.61 79.9192 372.022 84.9854 372.587 85.3653C369.761 89.4816 367.186 93.9779 364.799 98.6641C363.417 101.324 362.161 104.047 360.905 106.833C361.281 105.503 361.595 104.3 361.658 104.11C362.475 99.234 361.219 89.355 356.319 86.8219C352.802 84.9854 348.782 86.9485 347.4 90.4948C345.956 94.1045 347.526 98.6641 349.41 101.83C351.358 104.997 357.513 109.493 359.209 110.633C358.769 111.71 358.267 112.723 357.827 113.799C355.629 118.929 353.367 123.995 351.106 128.935C350.29 130.708 349.41 132.354 348.594 134.064C348.908 132.861 349.222 131.848 349.222 131.721C350.039 126.845 348.782 116.966 343.883 114.433C340.366 112.596 336.346 114.559 334.964 118.106C333.52 121.715 335.09 126.275 336.974 129.441C338.796 132.481 344.511 136.661 346.458 138.054C345.516 139.764 344.574 141.473 343.632 143.057C342.941 144.133 342.376 145.21 341.559 146.286C340.805 147.363 340.115 148.376 339.424 149.389C337.979 151.353 336.472 153.316 335.027 155.216C334.022 156.545 333.017 157.749 332.075 158.952C332.891 157.242 334.462 153.822 334.587 153.506C335.592 150.403 336.032 144.956 334.901 140.714C335.027 140.27 335.153 139.764 335.215 139.32C335.718 135.521 333.206 131.848 329.249 131.721C323.784 131.531 317.88 139.51 316.184 144.133C316.058 144.387 315.368 147.49 314.928 149.453C314.991 148.249 315.116 147.11 315.179 145.906C315.305 143.5 315.43 141.093 315.493 138.434C315.493 137.167 315.493 135.901 315.493 134.634C315.493 133.368 315.368 132.038 315.368 130.708C315.179 127.668 314.865 124.565 314.488 121.399C316.561 121.525 324.035 121.842 327.49 120.575C330.882 119.309 334.901 116.649 336.032 112.913C337.1 109.24 335.153 105.187 331.258 104.427C325.857 103.414 318.822 110.38 316.498 114.686C316.373 114.939 314.991 118.232 314.3 120.069C314.049 118.169 313.797 116.332 313.483 114.433C312.604 108.986 311.536 103.54 310.468 98.0308C310.154 96.3843 309.84 94.6745 309.526 93.0279C310.28 93.0913 319.136 93.6612 322.968 92.2047C326.359 90.9381 330.379 88.2784 331.51 84.5421C332.577 80.8691 330.63 76.8161 326.736 76.1195C321.334 75.1063 314.3 82.0723 311.976 86.3786C311.787 86.6952 309.903 91.4448 309.463 92.7113C308.773 89.0383 308.144 85.3653 307.642 81.6923C306.951 76.6261 306.574 71.6866 306.574 66.8104C306.951 66.8104 316.184 67.507 320.141 66.0505C323.533 64.7839 327.553 62.1242 328.683 58.3878C329.751 54.7148 327.804 50.6619 323.91 49.902C318.508 48.8887 311.473 55.8547 309.149 60.161C308.961 60.4776 306.888 65.6072 306.637 66.5571C306.637 66.2404 306.574 65.9871 306.574 65.6705C306.637 60.4776 307.328 55.4748 308.144 50.7885C308.647 48.0655 309.275 45.5324 309.966 42.9993C311.662 43.3159 319.513 44.5825 323.219 43.6325C323.658 43.5059 324.161 43.3792 324.601 43.1893" stroke="black" stroke-width="0.623725" stroke-miterlimit="10" stroke-linecap="round" stroke-linejoin="round"/>
<path opacity="0.3" d="M389.357 67.507C389.42 67.5704 392.874 61.8709 393.063 61.4909C395.135 56.9947 396.454 47.1789 392.435 43.3793C389.545 40.6562 385.149 41.4795 382.888 44.5825C380.564 47.6856 380.878 52.4984 381.883 56.0448C383.076 60.1611 389.357 67.507 389.357 67.507Z" stroke="black" stroke-width="0.623725" stroke-miterlimit="10" stroke-linecap="round" stroke-linejoin="round"/>
</g>
<path d="M194.899 104.364H394.885L369.008 249.004H169.021L194.899 104.364Z" fill="white" stroke="#263238" stroke-width="0.623725" stroke-miterlimit="10" stroke-linecap="round" stroke-linejoin="round"/>
<path d="M390.863 104.364L378.427 173.961L366.933 238.175L364.986 249.004H165.062L184.345 141.03L190.94 104.364H390.863Z" fill="#263238" stroke="#263238" stroke-width="0.623725" stroke-miterlimit="10" stroke-linecap="round" stroke-linejoin="round"/>
<path d="M196.407 108.923H383.768L359.523 244.507H172.162L196.407 108.923Z" fill="#FD6C03" stroke="#263238" stroke-width="0.623725" stroke-miterlimit="10" stroke-linecap="round" stroke-linejoin="round"/>
<path d="M174.046 233.868L172.162 244.507H359.523L361.408 233.868H174.046Z" fill="#BFBFBF" stroke="#263238" stroke-width="0.623725" stroke-miterlimit="10" stroke-linecap="round" stroke-linejoin="round"/>
<path d="M378.241 108.923L353.996 244.507H359.523L383.768 108.923H378.241Z" fill="#BFBFBF" stroke="#263238" stroke-width="0.623725" stroke-miterlimit="10" stroke-linecap="round" stroke-linejoin="round"/>
<path d="M374.973 158.192L379.683 131.784H374.156L369.445 158.192H374.973Z" fill="#A1A1A1" stroke="#263238" stroke-width="0.623725" stroke-miterlimit="10" stroke-linecap="round" stroke-linejoin="round"/>
<path d="M365.991 239.441H120.531V249.004H365.991V239.441Z" fill="white" stroke="#263238" stroke-width="0.623725" stroke-miterlimit="10" stroke-linecap="round" stroke-linejoin="round"/>
<path d="M155.516 239.441H35.0469V249.004H155.516V239.441Z" fill="#263238" stroke="#263238" stroke-width="0.623725" stroke-miterlimit="10" stroke-linecap="round" stroke-linejoin="round"/>
<path d="M194.646 118.486H382.071L383.766 108.923H196.405L194.646 118.486Z" fill="#BFBFBF" stroke="#263238" stroke-width="0.623725" stroke-miterlimit="10" stroke-linecap="round" stroke-linejoin="round"/>
<path d="M206.455 115.509H295.708L296.524 110.95H207.272L206.455 115.509Z" fill="white" stroke="#263238" stroke-width="0.623725" stroke-miterlimit="10" stroke-linecap="round" stroke-linejoin="round"/>
<path opacity="0.2" d="M202.122 161.802H271.339L262.357 211.83H193.141L202.122 161.802Z" fill="black"/>
<path d="M197.851 157.115H267.067L258.085 207.207H188.869L197.851 157.115Z" fill="white" stroke="#263238" stroke-width="0.623725" stroke-miterlimit="10" stroke-linecap="round" stroke-linejoin="round"/>
<path d="M265.999 163.005L267.067 157.115H197.851L196.783 163.005H265.999Z" fill="#263238" stroke="#263238" stroke-width="0.623725" stroke-miterlimit="10" stroke-linecap="round" stroke-linejoin="round"/>
<path d="M263.235 160.219C263.235 161.168 262.482 161.928 261.54 161.928C260.597 161.928 259.844 161.168 259.844 160.219C259.844 159.269 260.597 158.509 261.54 158.509C262.482 158.445 263.235 159.269 263.235 160.219Z" fill="white" stroke="#263238" stroke-width="0.623725" stroke-miterlimit="10" stroke-linecap="round" stroke-linejoin="round"/>
<path d="M224.669 168.514C228.061 169.021 229.128 171.744 228.312 175.607L228.186 176.367H225.234L225.423 175.354C225.925 172.821 225.234 171.237 222.91 171.237C220.649 171.237 219.33 172.821 218.828 175.354C217.571 181.813 227.118 181.876 225.548 189.919C224.794 193.782 222.596 196.568 219.079 197.012L218.639 199.165H216.064L216.504 197.012C213.049 196.505 211.981 193.782 212.735 189.919L213.112 188.146H216.064L215.687 190.109C215.185 192.705 215.938 194.162 218.262 194.162C220.586 194.162 221.905 192.705 222.408 190.109C223.664 183.713 214.117 183.586 215.75 175.544C216.504 171.617 218.639 169.021 222.156 168.451L222.596 166.171H225.234L224.669 168.514Z" fill="#263238"/>
<path d="M231.138 193.212L230.384 197.202H227.307L228.06 193.212H231.138ZM230.259 181.94L232.897 168.388H236.1L233.462 181.94L231.326 190.806H228.94L230.259 181.94Z" fill="#263238"/>
<path d="M237.609 193.212L236.855 197.202H233.777L234.531 193.212H237.609ZM236.667 181.94L239.305 168.451H242.508L239.87 182.003L237.734 190.869H235.348L236.667 181.94Z" fill="#263238"/>
<path opacity="0.2" d="M378.428 173.96L366.933 238.174H295.268L306.762 173.96H378.428Z" fill="black"/>
<path d="M301.486 169.654H390.236L378.742 233.868H289.992L301.486 169.654Z" fill="white" stroke="#263238" stroke-width="0.623725" stroke-miterlimit="10" stroke-linecap="round" stroke-linejoin="round"/>
<path d="M388.916 177.127L390.235 169.654H301.485L300.166 177.127H388.916Z" fill="#263238" stroke="#263238" stroke-width="0.623725" stroke-miterlimit="10" stroke-linecap="round" stroke-linejoin="round"/>
<path d="M385.338 173.517C385.338 174.72 384.333 175.734 383.14 175.734C381.946 175.734 380.941 174.72 380.941 173.517C380.941 172.314 381.946 171.301 383.14 171.301C384.333 171.301 385.338 172.314 385.338 173.517Z" fill="white" stroke="#263238" stroke-width="0.623725" stroke-miterlimit="10" stroke-linecap="round" stroke-linejoin="round"/>
<path d="M310.657 201.255C312.227 199.228 314.3 198.152 316.749 198.152C321.523 198.152 322.905 201.698 321.9 207.017L320.455 214.3C319.324 220 315.933 223.736 310.28 223.736C304.627 223.736 302.743 220 303.81 214.3L304.313 211.767H308.144L307.579 214.553C306.951 217.91 307.893 219.936 310.845 219.936C313.797 219.936 315.556 217.91 316.247 214.553L317.691 207.334C318.319 203.978 317.377 201.951 314.425 201.951C312.164 201.951 310.343 203.218 309.463 205.941L309.275 206.764H305.443L310.468 186.056H325.04L324.286 189.792H313.42L310.657 201.255Z" fill="#263238"/>
<path d="M327.867 195.048C328.997 189.349 332.515 185.676 338.167 185.676C343.883 185.676 345.956 189.349 344.825 195.048L341.057 214.3C339.926 219.999 336.409 223.736 330.693 223.736C325.04 223.736 322.967 219.999 324.098 214.3L327.867 195.048ZM328.118 214.553C327.49 217.91 328.495 219.936 331.447 219.936C334.462 219.936 336.22 217.91 336.911 214.553L340.743 194.859C341.433 191.439 340.429 189.412 337.414 189.412C334.462 189.412 332.64 191.439 331.949 194.859L328.118 214.553Z" fill="#263238"/>
<path d="M352.991 189.286L352.049 194.289C351.734 195.808 350.855 196.822 349.348 196.822C347.84 196.822 347.338 195.808 347.589 194.289L348.531 189.286C348.845 187.766 349.725 186.753 351.232 186.753C352.739 186.753 353.305 187.766 352.991 189.286ZM358.644 186.816L349.41 202.584H348.343L357.576 186.816H358.644ZM349.662 189.222L348.657 194.352C348.468 195.175 348.72 195.745 349.473 195.745C350.227 195.745 350.729 195.175 350.855 194.352L351.86 189.222C352.049 188.399 351.797 187.766 351.044 187.766C350.227 187.766 349.85 188.336 349.662 189.222ZM359.523 195.175L358.581 200.115C358.267 201.635 357.387 202.648 355.88 202.648C354.372 202.648 353.87 201.635 354.121 200.115L355.063 195.175C355.377 193.655 356.257 192.642 357.764 192.642C359.334 192.642 359.837 193.655 359.523 195.175ZM356.194 195.112L355.189 200.241C355.001 201.065 355.252 201.698 356.006 201.698C356.759 201.698 357.262 201.128 357.387 200.241L358.392 195.112C358.581 194.225 358.329 193.719 357.576 193.719C356.822 193.655 356.382 194.225 356.194 195.112Z" fill="#263238"/>
<path d="M343.757 208.411C344.385 205.371 346.269 203.344 349.284 203.344C352.362 203.344 353.492 205.308 352.864 208.411L350.854 218.796C350.289 221.836 348.342 223.863 345.264 223.863C342.186 223.863 341.119 221.836 341.684 218.796L343.757 208.411ZM343.882 218.923C343.505 220.76 344.071 221.836 345.704 221.836C347.337 221.836 348.279 220.76 348.656 218.923L350.729 208.284C351.105 206.448 350.54 205.371 348.907 205.371C347.337 205.371 346.332 206.448 345.955 208.284L343.882 218.923Z" fill="#263238"/>
<path d="M360.903 212.97L360.526 214.997H355.941L354.245 223.673H352.047L356.004 203.598H363.918L363.541 205.624H357.825L356.381 212.97H360.903Z" fill="#263238"/>
<path d="M370.577 212.97L370.2 214.997H365.615L363.919 223.673H361.721L365.678 203.598H373.592L373.215 205.624H367.436L365.992 212.97H370.577Z" fill="#263238"/>
<path opacity="0.2" d="M240.121 104.364L233.526 141.03H184.346L190.941 104.364H240.121Z" fill="black"/>
<path d="M147.289 67.0005H241.817L229.57 135.394H135.041L147.289 67.0005Z" fill="white" stroke="#263238" stroke-width="0.623725" stroke-miterlimit="10" stroke-linecap="round" stroke-linejoin="round"/>
<path d="M201.494 67.0005L196.03 73.7132L195.59 67.0005H193.643L190.44 72.8266L188.87 67.0005H186.734L184.724 73.0799L181.646 67.0005H180.076L179.071 74.4731L173.104 67.0638L173.732 76.9429L166.321 70.9268L168.833 80.3626L160.291 76.0563L164.688 84.6055L155.266 82.1357L161.296 89.4817L151.498 88.9751L158.909 94.9279L148.985 96.3211L157.59 100.564L147.98 103.92L157.402 106.327L148.483 111.393L158.281 111.9L150.367 118.549L160.291 117.092L153.696 125.072L163.306 121.715L158.281 130.708L167.2 125.578L163.934 135.267L171.785 128.555L170.843 135.394H172.979L176.999 130.518L177.313 135.394H180.327L182.589 131.341L183.656 135.394H186.86L188.304 131.088L190.44 135.394H193.203L193.894 129.695L198.479 135.394H199.798L199.296 127.288L206.708 133.241L204.132 123.869L212.737 128.175L208.341 119.626L217.699 122.095L211.669 114.686L221.531 115.256L214.056 109.303L223.98 107.91L215.375 103.604L225.048 100.311L215.626 97.9043L224.545 92.7748L214.684 92.3315L222.661 85.6188L212.737 87.0753L219.332 79.096L209.722 82.4524L214.747 73.4599L205.828 78.5894L209.094 68.9636L201.18 75.6763L202.374 67.0005H201.494Z" fill="white" stroke="#263238" stroke-width="0.623725" stroke-miterlimit="10" stroke-linecap="round" stroke-linejoin="round"/>
<path d="M240.372 74.9797L241.817 67.0005H147.288L145.844 74.9797H240.372Z" fill="#263238" stroke="#263238" stroke-width="0.623725" stroke-miterlimit="10" stroke-linecap="round" stroke-linejoin="round"/>
<path d="M236.605 71.1802C236.605 72.51 235.537 73.5233 234.281 73.5233C232.962 73.5233 231.957 72.4467 231.957 71.1802C231.957 69.8503 233.025 68.837 234.281 68.837C235.537 68.837 236.605 69.8503 236.605 71.1802Z" fill="white" stroke="#263238" stroke-width="0.623725" stroke-miterlimit="10" stroke-linecap="round" stroke-linejoin="round"/>
<path d="M173.292 91.6982C176.621 91.6982 177.563 93.2814 176.998 96.4478L176.81 97.461C176.37 99.7408 175.428 101.134 173.481 101.704C175.428 102.274 175.868 103.92 175.428 106.264L175.051 108.037C174.423 111.266 172.539 113.04 169.21 113.04H164.311L168.519 91.6349H173.292V91.6982ZM169.649 110.886C171.408 110.886 172.35 110 172.727 107.973L173.104 106.074C173.544 103.667 172.79 102.907 170.78 102.907H168.707L167.137 110.886H169.649ZM170.968 100.754C172.853 100.754 173.92 100.121 174.36 97.9043L174.611 96.6378C174.988 94.7379 174.549 93.8513 172.853 93.8513H170.529L169.21 100.754H170.968Z" fill="#263238"/>
<path d="M179.446 108.037C179.069 109.937 179.572 111.14 181.33 111.14C183.026 111.14 184.031 110 184.408 108.037L187.611 91.6982H189.81L186.607 107.91C185.978 111.14 184.094 113.293 180.765 113.293C177.499 113.293 176.431 111.14 177.122 107.91L180.326 91.6982H182.649L179.446 108.037Z" fill="#263238"/>
<path d="M193.202 105.377L191.381 91.6349H193.83L195.087 102.147L200.488 91.6349H202.749L195.526 105.377L194.019 113.04H191.695L193.202 105.377Z" fill="#263238"/>
<path d="M203.127 110.127L202.562 113.103H200.301L200.866 110.127H203.127ZM202.499 101.767L204.446 91.6982H206.833L204.886 101.767L203.316 108.353H201.557L202.499 101.767Z" fill="#263238"/>
<path opacity="0.2" d="M358.642 104.364L351.984 141.283H282.768L289.363 104.364H358.642Z" fill="black"/>
<path d="M287.794 86.5685H357.01L348.091 136.661H278.875L287.794 86.5685Z" fill="white" stroke="#263238" stroke-width="0.623725" stroke-miterlimit="10" stroke-linecap="round" stroke-linejoin="round"/>
<path d="M356.005 92.4579L357.01 86.5685H287.794L286.789 92.4579H356.005Z" fill="#263238" stroke="#263238" stroke-width="0.623725" stroke-miterlimit="10" stroke-linecap="round" stroke-linejoin="round"/>
<path d="M351.483 91.3814C352.42 91.3814 353.179 90.6158 353.179 89.6715C353.179 88.7272 352.42 87.9617 351.483 87.9617C350.546 87.9617 349.787 88.7272 349.787 89.6715C349.787 90.6158 350.546 91.3814 351.483 91.3814Z" fill="white" stroke="#263238" stroke-width="0.623725" stroke-miterlimit="10" stroke-linecap="round" stroke-linejoin="round"/>
<path d="M307.704 105.187L306.385 111.963H304.689L307.641 96.8276H309.337L308.018 103.604H311.724L313.043 96.8276H314.739L311.787 111.963H310.091L311.41 105.187H307.704Z" fill="#263238"/>
<path d="M315.557 100.564C315.996 98.2841 317.441 96.7643 319.702 96.7643C322.026 96.7643 322.843 98.2841 322.403 100.564L320.896 108.353C320.456 110.633 319.011 112.153 316.687 112.153C314.426 112.153 313.547 110.633 313.987 108.353L315.557 100.564ZM315.682 108.417C315.431 109.81 315.808 110.57 317.001 110.57C318.195 110.57 318.949 109.746 319.2 108.417L320.77 100.437C321.021 99.1074 320.644 98.2841 319.451 98.2841C318.258 98.2841 317.504 99.1074 317.253 100.437L315.682 108.417Z" fill="#263238"/>
<path d="M323.909 112.026L326.547 98.4742H323.783L324.097 96.9543H331.258L330.943 98.4742H328.18L325.542 112.026H323.909Z" fill="#263238"/>
<path d="M303.183 117.282L303.12 117.662H301.55L301.675 117.156C301.926 115.826 301.612 115.003 300.356 115.003C299.1 115.003 298.472 115.826 298.221 117.156C297.53 120.512 302.555 120.892 301.675 125.135C301.236 127.415 299.854 128.935 297.53 128.935C295.269 128.935 294.452 127.415 294.892 125.135L295.08 124.248H296.65L296.462 125.198C296.211 126.528 296.588 127.351 297.781 127.351C298.974 127.351 299.665 126.528 299.979 125.198C300.607 121.842 295.708 121.525 296.525 117.282C296.964 114.939 298.346 113.483 300.607 113.483C302.869 113.546 303.685 115.003 303.183 117.282Z" fill="#263238"/>
<path d="M304.754 125.768L303.56 128.808H301.99L307.832 113.673H310.281L310.218 128.808H308.522V125.768H304.754ZM305.256 124.312H308.585V115.573L305.256 124.312Z" fill="#263238"/>
<path d="M311.473 128.808L314.425 113.673H316.121L313.483 127.225H317.754L317.44 128.745H311.473V128.808Z" fill="#263238"/>
<path d="M325.669 120.385L325.355 121.905H321.712L320.644 127.288H325.167L324.853 128.808H318.697L321.649 113.673H327.805L327.491 115.193H322.968L321.963 120.322H325.669V120.385Z" fill="#263238"/>
<path d="M328.432 126.718L327.992 128.808H326.359L326.799 126.718H328.432ZM327.93 120.765L329.311 113.673H331.007L329.625 120.765L328.495 125.452H327.239L327.93 120.765Z" fill="#263238"/>
<path d="M331.823 126.718L331.383 128.808H329.75L330.19 126.718H331.823ZM331.32 120.765L332.702 113.673H334.398L333.016 120.765L331.886 125.452H330.629L331.32 120.765Z" fill="#263238"/>
<path d="M185.162 273.448C185.162 273.448 186.104 279.084 187.109 281.237C188.114 283.453 189.998 286.113 188.742 286.43C187.486 286.747 185.727 286.113 184.534 284.783C183.277 283.454 182.147 281.997 179.886 280.097C177.624 278.197 177.31 277.691 177.939 276.361C178.567 275.031 180.639 272.308 180.639 272.308L185.162 273.448Z" fill="white" stroke="#263238" stroke-width="0.623725" stroke-miterlimit="10" stroke-linecap="round" stroke-linejoin="round"/>
<path d="M188.679 286.493C185.727 285.227 183.654 282.124 181.833 280.224C180.263 278.514 178.441 277.311 177.75 276.804C177.373 277.881 177.876 278.451 179.886 280.097C182.147 281.997 183.278 283.453 184.534 284.783C185.727 286.177 187.486 286.81 188.679 286.493Z" fill="white" stroke="#263238" stroke-width="0.623725" stroke-miterlimit="10" stroke-linecap="round" stroke-linejoin="round"/>
<path d="M160.478 224.749C160.478 224.749 156.96 229.309 155.83 232.538C154.699 235.768 155.202 239.188 157.275 240.264C159.347 241.277 187.549 240.264 187.549 240.264L180.64 272.308L185.162 273.448C185.162 273.448 198.917 241.911 199.797 239.631C200.739 237.351 202.183 232.538 201.43 231.272C200.676 230.005 188.805 228.675 188.805 228.675L188.868 225.382L161.357 225.446L160.478 224.749Z" fill="#263238" stroke="#263238" stroke-width="0.623725" stroke-miterlimit="10" stroke-linecap="round" stroke-linejoin="round"/>
<path d="M187.863 238.998L189.496 231.525" stroke="#7A7A7A" stroke-width="0.623725" stroke-miterlimit="10" stroke-linecap="round" stroke-linejoin="round"/>
<path d="M180.201 165.095C180.201 165.095 179.196 161.612 176.872 161.232C174.485 160.852 172.287 161.232 172.538 162.245C172.79 163.258 172.915 163.638 172.915 163.638C172.915 163.638 167.702 163.891 165.001 166.488C162.3 169.148 165.127 174.72 166.634 176.874C168.142 179.027 169.837 180.99 169.963 181.623C170.089 182.256 170.842 184.346 169.335 185.486C167.828 186.626 154.952 192.769 155.203 194.099C155.454 195.492 159.976 225.382 159.976 225.382H188.994C188.994 225.382 193.831 192.642 193.203 192.009C192.575 191.376 179.95 185.486 179.95 185.486L180.578 182.003C180.578 182.003 184.661 181.496 184.535 180.483C184.409 179.47 183.404 174.847 183.404 174.847L184.409 173.454L181.897 170.351V168.324L180.201 165.095Z" fill="#FD6C03" stroke="#263238" stroke-width="0.623725" stroke-miterlimit="10" stroke-linecap="round" stroke-linejoin="round"/>
<path d="M179.826 185.549L180.454 182.066C180.454 182.066 184.536 181.56 184.411 180.546C184.285 179.533 183.28 174.91 183.28 174.91L184.285 173.517L181.773 170.414V168.388L180.14 165.158C180.14 165.158 179.135 161.675 176.811 161.295C174.424 160.915 172.226 161.295 172.477 162.308C172.728 163.321 172.854 163.701 172.854 163.701C172.854 163.701 167.64 163.955 164.94 166.551C162.239 169.211 165.065 174.784 166.573 176.937C168.08 179.09 169.776 181.053 169.902 181.686C170.027 182.32 170.781 184.409 169.273 185.549C169.022 185.739 168.457 186.056 167.703 186.499C169.148 187.956 171.912 190.552 174.989 190.996C177.753 191.375 180.454 188.652 182.024 186.626C180.768 185.929 179.826 185.549 179.826 185.549Z" fill="white" stroke="#263238" stroke-width="0.623725" stroke-miterlimit="10" stroke-linecap="round" stroke-linejoin="round"/>
<path d="M169.146 180.42C169.271 180.42 169.334 180.357 169.397 180.293C170.465 179.217 171.846 178.583 171.093 177.95C170.339 177.317 171.093 175.417 171.47 175.417C171.846 175.417 172.914 175.164 172.914 174.847C172.914 174.594 172.035 173.201 171.47 172.504C170.904 171.807 174.045 168.894 174.924 168.388C175.803 167.881 172.726 168.451 172.6 167.248C172.475 166.108 179.446 164.968 180.137 164.841C179.886 164.081 178.881 161.485 176.871 161.168C174.484 160.788 172.286 161.168 172.537 162.182C172.789 163.195 172.914 163.575 172.914 163.575C172.914 163.575 167.701 163.828 165 166.425C162.299 169.084 165.126 174.657 166.633 176.81C167.45 178.203 168.518 179.47 169.146 180.42Z" fill="#263238" stroke="#263238" stroke-width="0.623725" stroke-miterlimit="10" stroke-linecap="round" stroke-linejoin="round"/>
<path d="M172.663 176.367C172.663 176.367 170.528 172.884 169.334 174.467C168.078 176.114 169.711 178.963 171.219 179.217C172.726 179.47 173.605 178.71 173.605 178.71L175.113 179.85" fill="white"/>
<path d="M172.663 176.367C172.663 176.367 170.528 172.884 169.334 174.467C168.078 176.114 169.711 178.963 171.219 179.217C172.726 179.47 173.605 178.71 173.605 178.71L175.113 179.85" stroke="#263238" stroke-width="0.623725" stroke-miterlimit="10" stroke-linecap="round" stroke-linejoin="round"/>
<path d="M180.39 170.857C180.453 171.301 180.264 171.681 180.013 171.744C179.762 171.744 179.511 171.427 179.448 170.984C179.385 170.541 179.573 170.161 179.825 170.098C180.139 170.098 180.39 170.414 180.39 170.857Z" fill="#263238"/>
<path d="M180.012 176.24C180.012 176.24 181.456 176.747 182.713 176.43" stroke="#263238" stroke-width="0.623725" stroke-miterlimit="10" stroke-linecap="round" stroke-linejoin="round"/>
<path d="M178.379 169.211C178.379 169.211 179.384 168.008 180.954 168.578" stroke="#263238" stroke-width="0.623725" stroke-miterlimit="10" stroke-linecap="round" stroke-linejoin="round"/>
<path d="M190.44 207.841L192.261 212.907L188.43 219.873L191.13 222.406L201.368 216.263C201.871 215.946 202.122 215.313 201.871 214.743L193.14 191.819L192.135 191.502" fill="#FD6C03"/>
<path d="M190.44 207.841L192.261 212.907L188.43 219.873L191.13 222.406L201.368 216.263C201.871 215.946 202.122 215.313 201.871 214.743L193.14 191.819L192.135 191.502" stroke="#263238" stroke-width="0.623725" stroke-miterlimit="10" stroke-linecap="round" stroke-linejoin="round"/>
<path d="M192.199 212.907C192.199 212.907 194.9 211.64 197.664 213.54" stroke="#263238" stroke-width="0.623725" stroke-miterlimit="10" stroke-linecap="round" stroke-linejoin="round"/>
<path d="M187.236 216.516C187.236 216.516 185.037 217.086 184.723 217.15C184.409 217.213 183.656 218.48 183.279 219.05C182.902 219.62 181.08 219.81 181.96 220.696C182.839 221.583 183.907 220.569 184.409 220.126C184.912 219.683 185.54 219.113 185.54 219.113L186.671 219.303C186.671 219.303 187.236 220.633 187.99 221.456C188.743 222.279 189.183 222.913 190.816 222.723C192.449 222.533 193.014 220.759 191.884 219.05C190.69 217.34 187.236 216.516 187.236 216.516Z" fill="white" stroke="#263238" stroke-width="0.623725" stroke-miterlimit="10" stroke-linecap="round" stroke-linejoin="round"/>
<path d="M189.057 216.2C189.057 216.2 188.366 214.933 187.613 215.25C186.859 215.567 185.791 219.936 186.294 220.506C186.796 221.076 187.236 219.113 188.052 217.973C188.869 216.833 189.057 216.2 189.057 216.2Z" fill="white" stroke="#263238" stroke-width="0.623725" stroke-miterlimit="10" stroke-linecap="round" stroke-linejoin="round"/>
<path d="M189.057 216.2C189.057 216.2 186.922 219.81 187.424 220.823C187.927 221.836 188.492 220.886 189.183 219.746C189.874 218.606 190.565 217.593 190.439 216.833C190.313 216.073 189.685 215.947 189.057 216.2Z" fill="white" stroke="#263238" stroke-width="0.623725" stroke-miterlimit="10" stroke-linecap="round" stroke-linejoin="round"/>
<path d="M190.502 217.593C190.502 217.593 191.695 217.72 191.695 218.733C191.695 219.746 189.622 221.519 188.931 221.519C188.24 221.519 188.743 220.76 188.743 220.76L190.502 217.593Z" fill="white" stroke="#263238" stroke-width="0.623725" stroke-miterlimit="10" stroke-linecap="round" stroke-linejoin="round"/>
<path d="M191.631 219.43C191.631 219.43 192.196 219.24 192.259 219.936C192.322 220.633 190.752 221.836 189.935 222.026C189.119 222.216 189.935 220.95 189.935 220.95L191.631 219.43Z" fill="white" stroke="#263238" stroke-width="0.623725" stroke-miterlimit="10" stroke-linecap="round" stroke-linejoin="round"/>
<path d="M159.664 204.611L156.398 212.843L160.229 218.923L158.596 221.963L147.29 216.2C146.788 215.883 146.537 215.25 146.788 214.68L155.016 193.845L155.77 193.275" fill="#FD6C03"/>
<path d="M159.664 204.611L156.398 212.843L160.229 218.923L158.596 221.963L147.29 216.2C146.788 215.883 146.537 215.25 146.788 214.68L155.016 193.845L155.77 193.275" stroke="#263238" stroke-width="0.623725" stroke-miterlimit="10" stroke-linecap="round" stroke-linejoin="round"/>
<path d="M152.378 212.78C151.939 212.97 151.436 213.16 150.934 213.54" stroke="#263238" stroke-width="0.623725" stroke-miterlimit="10" stroke-linecap="round" stroke-linejoin="round"/>
<path d="M156.397 212.907C156.397 212.907 155.329 212.4 153.885 212.527" stroke="#263238" stroke-width="0.623725" stroke-miterlimit="10" stroke-linecap="round" stroke-linejoin="round"/>
<path d="M159.161 217.91C159.161 217.91 157.402 220.823 158.281 222.026C159.161 223.229 162.05 221.646 162.05 221.646C162.05 221.646 162.364 221.773 163.432 221.266C164.5 220.759 165.316 219.176 164.876 218.1C164.374 217.023 159.161 217.91 159.161 217.91Z" fill="white" stroke="#263238" stroke-width="0.623725" stroke-miterlimit="10" stroke-linecap="round" stroke-linejoin="round"/>
<path d="M165.064 216.136C165.064 216.136 165.755 216.77 166.446 216.833C167.137 216.896 169.084 216.516 169.461 216.833C169.838 217.15 169.587 218.226 168.77 218.48C167.954 218.733 167.388 218.416 166.509 218.353C165.63 218.29 165.316 218.29 165.316 218.29L165.064 216.136Z" fill="white" stroke="#263238" stroke-width="0.623725" stroke-miterlimit="10" stroke-linecap="round" stroke-linejoin="round"/>
<path d="M163.369 216.326C163.369 216.326 164.311 215.757 164.939 216.073C165.63 216.39 166.007 218.606 166.007 219.43C166.007 220.253 165.693 221.013 165.442 221.013C165.191 221.013 164.751 220.759 164.625 220.316C164.437 219.873 163.683 217.53 163.62 217.086C163.495 216.77 163.369 216.326 163.369 216.326Z" fill="white" stroke="#263238" stroke-width="0.623725" stroke-miterlimit="10" stroke-linecap="round" stroke-linejoin="round"/>
<path d="M161.924 216.77C161.924 216.77 163.117 216.2 163.745 216.326C164.436 216.516 164.75 219.999 164.813 220.696C164.876 221.393 164.625 221.773 163.997 221.393C163.306 220.949 162.929 219.05 162.552 218.543C162.301 218.036 161.547 217.34 161.924 216.77Z" fill="white" stroke="#263238" stroke-width="0.623725" stroke-miterlimit="10" stroke-linecap="round" stroke-linejoin="round"/>
<path d="M160.416 217.53C160.416 217.53 160.981 216.58 161.923 216.77C162.866 216.96 163.682 220.379 163.871 220.886C164.059 221.393 163.18 221.836 162.866 221.583C162.552 221.329 160.793 218.606 160.667 218.353C160.604 218.1 160.416 217.53 160.416 217.53Z" fill="white" stroke="#263238" stroke-width="0.623725" stroke-miterlimit="10" stroke-linecap="round" stroke-linejoin="round"/>
<path d="M160.856 217.656C160.668 217.403 160.354 217.276 160.103 217.403C159.789 217.53 159.412 217.72 159.286 218.1C159.035 218.796 159.914 220 160.542 220.759C161.17 221.519 161.987 221.456 162.05 221.013C162.05 220.633 161.485 218.67 160.856 217.656Z" fill="white" stroke="#263238" stroke-width="0.623725" stroke-miterlimit="10" stroke-linecap="round" stroke-linejoin="round"/>
<path d="M191.13 210.88H161.924V229.499H191.13V210.88Z" fill="white" stroke="#263238" stroke-width="0.623725" stroke-miterlimit="10" stroke-linecap="round" stroke-linejoin="round"/>
<path d="M176.37 219.556C177.549 219.556 178.505 218.592 178.505 217.403C178.505 216.214 177.549 215.25 176.37 215.25C175.19 215.25 174.234 216.214 174.234 217.403C174.234 218.592 175.19 219.556 176.37 219.556Z" fill="white" stroke="#263238" stroke-width="0.623725" stroke-miterlimit="10" stroke-linecap="round" stroke-linejoin="round"/>
<path d="M163.244 273.195C163.244 273.195 162.93 280.921 164.249 283.58C165.568 286.303 167.64 288.077 169.022 285.353C170.341 282.63 168.268 275.664 168.268 274.524C168.268 273.385 168.08 272.118 168.08 272.118L163.244 272.625V273.195Z" fill="white" stroke="#263238" stroke-width="0.623725" stroke-miterlimit="10" stroke-linecap="round" stroke-linejoin="round"/>
<path d="M158.281 233.045C158.281 233.045 158.721 249.7 160.228 259.199C161.799 268.698 163.243 273.131 163.243 273.131C163.243 273.131 165.442 273.448 166.572 273.131C167.703 272.815 168.456 271.991 168.456 271.991C168.456 271.991 170.341 239.378 170.404 236.591C170.529 233.805 170.278 231.082 169.587 230.259C168.833 229.435 162.678 228.929 160.48 230.132" fill="#263238"/>
<path d="M158.281 233.045C158.281 233.045 158.721 249.7 160.228 259.199C161.799 268.698 163.243 273.131 163.243 273.131C163.243 273.131 165.442 273.448 166.572 273.131C167.703 272.815 168.456 271.991 168.456 271.991C168.456 271.991 170.341 239.378 170.404 236.591C170.529 233.805 170.278 231.082 169.587 230.259C168.833 229.435 162.678 228.929 160.48 230.132" stroke="#263238" stroke-width="0.623725" stroke-miterlimit="10" stroke-linecap="round" stroke-linejoin="round"/>
</g>
<defs>
<clipPath id="clip0_333_3752">
<rect width="431" height="290" fill="white"/>
</clipPath>
</defs>
</svg>
