<svg width="70" height="70" viewBox="0 0 70 70" fill="none" xmlns="http://www.w3.org/2000/svg">
<path d="M64.0559 27.7881C63.2413 27.7881 62.5815 27.1239 62.5815 26.3047V16.3513C62.5815 15.5337 61.9202 14.8679 61.107 14.8679H32.5008C31.6862 14.8679 31.0264 14.2037 31.0264 13.3845C31.0264 12.5654 31.6862 11.9011 32.5008 11.9011H61.1055C63.5451 11.9011 65.5304 13.8969 65.5304 16.3513V26.3047C65.5304 27.1239 64.8706 27.7881 64.0559 27.7881Z" fill="#FD6C03"/>
<path d="M5.25816 52.2896C4.44348 52.2896 3.78369 51.6253 3.78369 50.8062V29.0853C3.78369 28.2662 4.44348 27.6019 5.25816 27.6019C6.07284 27.6019 6.73263 28.2662 6.73263 29.0853V50.8062C6.73263 51.6253 6.07135 52.2896 5.25816 52.2896Z" fill="#FD6C03"/>
<path d="M61.0192 67.0211H8.29574C3.72191 67.0211 0 63.2768 0 58.6762V57.7945C0 56.3126 1.19894 55.1062 2.6734 55.1062H66.6415C68.1145 55.1062 69.3149 56.3126 69.3149 57.7945V58.6762C69.3149 63.2768 65.593 67.0211 61.0192 67.0211ZM2.94894 58.0715V58.6762C2.94894 61.6415 5.34681 64.0543 8.29574 64.0543H61.0192C63.9666 64.0543 66.366 61.6415 66.366 58.6762V58.0715H2.94894Z" fill="#FD6C03"/>
<path d="M53.3194 30.755C52.5048 30.755 51.845 30.0907 51.845 29.2716V22.9075C51.845 22.4056 51.4399 21.999 50.9424 21.999H25.6605C24.8458 21.999 24.186 21.3348 24.186 20.5156C24.186 19.6965 24.8458 19.0322 25.6605 19.0322H50.9409C53.0648 19.0322 54.7939 20.7703 54.7939 22.909V29.2731C54.7939 30.0907 54.1341 30.755 53.3194 30.755Z" fill="#FD6C03"/>
<path d="M40.6181 50.9404H18.3745C16.2491 50.9404 14.5215 49.2023 14.5215 47.0636V26.4821C14.5215 25.6629 15.1813 24.9987 15.996 24.9987C16.8106 24.9987 17.4704 25.6629 17.4704 26.4821V47.0636C17.4704 47.5655 17.8755 47.9736 18.3745 47.9736H40.6181C41.4328 47.9736 42.0926 48.6378 42.0926 49.457C42.0926 50.2761 41.4328 50.9404 40.6181 50.9404Z" fill="#FD6C03"/>
<path d="M32.5336 40.147C32.2357 40.147 31.9393 40.068 31.6742 39.9146C31.147 39.6078 30.8193 39.0359 30.8193 38.4208V31.5489C30.8193 30.9338 31.1485 30.3619 31.6772 30.0551C32.2059 29.7482 32.8612 29.7482 33.3915 30.0551L39.3072 33.4895C39.8359 33.7963 40.1651 34.3697 40.1651 34.9848C40.1651 35.6 39.8359 36.1734 39.3057 36.4802L33.3915 39.9146C33.1264 40.071 32.83 40.147 32.5336 40.147ZM33.7683 33.701V36.2717L35.9815 34.9863L33.7683 33.701Z" fill="#FD6C03"/>
<path d="M34.6572 45.1273C29.0974 45.1273 24.5757 40.5788 24.5757 34.9863C24.5757 29.3937 29.0974 24.8452 34.6572 24.8452C37.3514 24.8452 39.8833 25.8997 41.7853 27.8165C42.3616 28.3959 42.3616 29.3356 41.7853 29.915C41.2089 30.4944 40.2765 30.4944 39.7002 29.915C38.3538 28.5597 36.5621 27.8135 34.6572 27.8135C30.7253 27.8135 27.5246 31.032 27.5246 34.9878C27.5246 38.9435 30.7238 42.162 34.6572 42.162C35.2738 42.162 35.8859 42.0816 36.4757 41.9267C37.2636 41.7212 38.0693 42.1903 38.2778 42.9827C38.4848 43.775 38.0142 44.5867 37.2278 44.7952C36.3923 45.0156 35.5285 45.1273 34.6572 45.1273Z" fill="#FD6C03"/>
<path d="M23.6347 28.5493C23.3606 28.5493 23.0866 28.4808 22.8394 28.3423L19.6387 26.5431C17.8932 27.188 16.0389 27.5157 14.1162 27.5157C6.33277 27.5157 0 22.0125 0 15.2478C0 13.1702 0.60617 11.1178 1.75447 9.31421C4.24021 5.40762 8.97638 2.98145 14.1162 2.98145C21.8996 2.98145 28.2323 8.48464 28.2323 15.2493C28.2323 18.0031 27.1704 20.6691 25.2298 22.8197L25.2745 26.8842C25.2804 27.4695 24.9751 28.0191 24.4747 28.32C24.217 28.4719 23.9251 28.5493 23.6347 28.5493ZM19.7474 23.4214C19.9962 23.4214 20.2449 23.484 20.4668 23.6091L22.3002 24.6397L22.2734 22.2478C22.2689 21.8487 22.4253 21.4629 22.7068 21.1814C24.3674 19.5163 25.2819 17.4089 25.2819 15.2478C25.2819 10.1185 20.2732 5.94676 14.1162 5.94676C9.97128 5.94676 6.18681 7.85017 4.23872 10.9123C3.38383 12.2572 2.94894 13.7153 2.94894 15.2463C2.94894 20.3742 7.95766 24.5474 14.1147 24.5474C15.8945 24.5474 17.5968 24.2078 19.1726 23.5376C19.3572 23.4602 19.5538 23.4214 19.7474 23.4214Z" fill="#FD6C03"/>
<path d="M19.8858 17.2047C20.9041 17.2047 21.7297 16.3745 21.7297 15.3505C21.7297 14.3264 20.9041 13.4962 19.8858 13.4962C18.8675 13.4962 18.042 14.3264 18.042 15.3505C18.042 16.3745 18.8675 17.2047 19.8858 17.2047Z" fill="#FD6C03"/>
<path d="M14.1148 17.2047C15.1331 17.2047 15.9587 16.3745 15.9587 15.3505C15.9587 14.3264 15.1331 13.4962 14.1148 13.4962C13.0965 13.4962 12.271 14.3264 12.271 15.3505C12.271 16.3745 13.0965 17.2047 14.1148 17.2047Z" fill="#FD6C03"/>
<path d="M8.34822 17.2047C9.36654 17.2047 10.1921 16.3745 10.1921 15.3505C10.1921 14.3264 9.36654 13.4962 8.34822 13.4962C7.32991 13.4962 6.50439 14.3264 6.50439 15.3505C6.50439 16.3745 7.32991 17.2047 8.34822 17.2047Z" fill="#FD6C03"/>
<path d="M63.9702 51.3425C63.7885 51.3425 63.6053 51.3157 63.4296 51.2576L52.736 47.771L45.5945 47.7576C44.5877 47.7576 43.77 46.934 43.77 45.9227V36.2731C43.77 35.2618 44.5877 34.4382 45.5945 34.4382H52.6973L63.4311 30.9382C63.9643 30.7654 64.5481 30.8593 64.9994 31.1884C65.4521 31.5191 65.7202 32.0508 65.7202 32.6123V49.582C65.7202 50.1435 65.4507 50.6752 64.9994 51.0059C64.697 51.2278 64.3351 51.3425 63.9702 51.3425ZM46.719 44.7893H52.6556C52.9921 44.7893 53.3273 44.8429 53.6475 44.9472L60.7964 47.278L62.7713 47.9229V34.2714L53.3853 37.332C53.2379 37.3797 53.0845 37.405 52.9296 37.405H46.7175V44.7893H46.719Z" fill="#FD6C03"/>
<path d="M45.2434 46.6287H43.0466C41.3368 46.6287 39.9473 45.2301 39.9473 43.5114V38.6829C39.9473 36.9627 41.3368 35.5657 43.0466 35.5657H45.2434V38.5325H43.0466C42.9647 38.5325 42.8962 38.601 42.8962 38.6829V43.5114C42.8962 43.5933 42.9632 43.6618 43.0466 43.6618H45.2434V46.6287Z" fill="#FD6C03"/>
<path d="M64.2461 46.8863V43.9194C65.7935 43.9194 67.0506 42.655 67.0506 41.0986C67.0506 39.5422 65.7935 38.2763 64.2461 38.2763V35.3094C67.4184 35.3094 69.9995 37.9069 69.9995 41.0986C69.9995 44.2888 67.4184 46.8863 64.2461 46.8863Z" fill="#FD6C03"/>
<path d="M49.088 53.0359C47.2844 53.0359 45.8188 51.5614 45.8188 49.7474V46.2727H48.7678V49.7474C48.7678 50.1004 49.4067 50.1004 49.4067 49.7474V46.2727H52.3557V49.7474C52.3571 51.5614 50.8916 53.0359 49.088 53.0359Z" fill="#FD6C03"/>
<path d="M52.9305 41.0972C52.1158 41.0972 51.4561 40.4329 51.4561 39.6137V36.5457C51.4561 35.7265 52.1158 35.0623 52.9305 35.0623C53.7452 35.0623 54.405 35.7265 54.405 36.5457V39.6137C54.405 40.4344 53.7452 41.0972 52.9305 41.0972Z" fill="#FD6C03"/>
<path d="M40.5549 62.6989H28.7577C27.943 62.6989 27.2832 62.0346 27.2832 61.2155C27.2832 60.3948 27.943 59.7321 28.7577 59.7321H40.5549C41.3696 59.7321 42.0294 60.3963 42.0294 61.2155C42.0309 62.0361 41.3711 62.6989 40.5549 62.6989Z" fill="#FD6C03"/>
</svg>
