<svg width="70" height="70" viewBox="0 0 70 70" fill="none" xmlns="http://www.w3.org/2000/svg">
<path d="M49.3999 47.3912C49.0186 47.3912 48.6374 47.2467 48.347 46.9563C47.2791 45.893 46.9693 44.2875 47.5576 42.8652C48.1608 41.4027 49.528 40.4748 51.0515 40.4748H52.8074C53.2334 40.4748 53.5819 40.1308 53.5819 39.7063V35.6033C53.5819 35.1788 53.2349 34.8348 52.8074 34.8348H51.0515C49.5265 34.8348 48.1608 33.907 47.5695 32.4698C46.9708 31.0222 47.2806 29.4152 48.347 28.3533L49.595 27.1112C49.8958 26.8119 49.8958 26.3219 49.595 26.0225L46.6819 23.1228C46.3796 22.8235 45.8911 22.822 45.5887 23.1228L44.3407 24.3649C43.2729 25.4283 41.6584 25.7351 40.2317 25.1498C38.7647 24.5496 37.8339 23.1899 37.8339 21.6723V19.9223C37.8339 19.4979 37.4869 19.1523 37.0594 19.1523H32.94C32.5141 19.1523 32.1671 19.4979 32.1671 19.9223V21.6708C32.1671 23.1869 31.2362 24.5481 29.7946 25.1379C28.338 25.7366 26.7266 25.4283 25.6588 24.3649L24.4107 23.1228C24.1099 22.8235 23.6184 22.8235 23.3176 23.1228L20.4045 26.0225C20.2585 26.1685 20.1781 26.3621 20.1781 26.5676C20.1781 26.7731 20.2585 26.9653 20.4045 27.1112L21.6525 28.3548C22.7218 29.4197 23.0301 31.0266 22.4403 32.4489C21.8372 33.9099 20.4715 34.8363 18.9494 34.8363H17.192C16.7661 34.8363 16.4191 35.1803 16.4191 35.6048V39.7078C16.4191 40.1323 16.7646 40.4763 17.192 40.4763H18.9494C20.4715 40.4763 21.8372 41.4027 22.4299 42.8384C23.0301 44.286 22.7218 45.893 21.654 46.9578C21.0717 47.5372 20.1289 47.5372 19.5481 46.9578C18.9658 46.38 18.9658 45.4402 19.5466 44.8609C19.7641 44.6434 19.8192 44.3128 19.6881 43.9971C19.5436 43.6486 19.2592 43.443 18.9494 43.443H17.192C15.1234 43.443 13.4404 41.7676 13.4404 39.7078V35.6048C13.4404 33.5451 15.1234 31.8696 17.192 31.8696H18.9494C19.2592 31.8696 19.5436 31.6641 19.6747 31.3468C19.8162 31.0043 19.7611 30.6647 19.5466 30.4518L18.3001 29.2097C17.5911 28.5052 17.2009 27.567 17.2009 26.5691C17.2009 25.5713 17.5911 24.633 18.3001 23.9271L21.2132 21.0274C22.6295 19.6155 25.1018 19.6155 26.5196 21.0274L27.7676 22.2695C27.9806 22.4809 28.3216 22.5346 28.6359 22.4095C28.9859 22.2665 29.1914 21.982 29.1914 21.6737V19.9253C29.1914 17.8656 30.8743 16.1886 32.943 16.1886H37.0624C39.1326 16.1886 40.8155 17.8641 40.8155 19.9253V21.6752C40.8155 21.9835 41.021 22.268 41.3397 22.3975C41.6867 22.5405 42.0218 22.4884 42.2393 22.2695L43.4873 21.0274C44.9498 19.5708 47.3298 19.5723 48.7937 21.0274L51.7068 23.9286C53.1679 25.3851 53.1679 27.7561 51.7068 29.2112L50.4588 30.4532C50.2429 30.6662 50.1877 31.0073 50.3173 31.32C50.4618 31.667 50.7462 31.8726 51.056 31.8726H52.8119C54.8821 31.8726 56.565 33.548 56.565 35.6078V39.7108C56.565 41.7705 54.8821 43.446 52.8119 43.446H51.056C50.7656 43.446 50.496 43.6277 50.3545 43.9107L50.3039 44.0283C50.1863 44.3158 50.2399 44.6464 50.4588 44.8638C51.0411 45.4432 51.0411 46.3814 50.4588 46.9608C50.1624 47.2467 49.7812 47.3912 49.3999 47.3912Z" fill="#FD6C03"/>
<path d="M34.9997 44.9473C30.9622 44.9473 27.6768 41.6753 27.6768 37.6541C27.6768 33.633 30.9622 30.361 34.9997 30.361C39.0372 30.361 42.3227 33.6315 42.3227 37.6541C42.3227 41.6753 39.0372 44.9473 34.9997 44.9473ZM34.9997 33.3292C32.6049 33.3292 30.6554 35.2697 30.6554 37.6556C30.6554 40.0415 32.6034 41.9821 34.9997 41.9821C37.396 41.9821 39.344 40.0415 39.344 37.6556C39.344 35.2697 37.3945 33.3292 34.9997 33.3292Z" fill="#FD6C03"/>
<path d="M64.6895 47.6726C63.8659 47.6726 63.2002 47.0099 63.2002 46.1893V11.8978C63.2002 11.0802 62.533 10.4145 61.7109 10.4145H8.28923C7.46862 10.4145 6.79992 11.0802 6.79992 11.8978V46.1908C6.79992 47.0099 6.1327 47.6741 5.3106 47.6741C4.4885 47.6741 3.82129 47.0114 3.82129 46.1908V11.8978C3.82129 9.44492 5.8259 7.44775 8.28923 7.44775H61.7094C64.1727 7.44775 66.1774 9.44343 66.1774 11.8978V46.1908C66.1788 47.0099 65.5116 47.6726 64.6895 47.6726Z" fill="#FD6C03"/>
<path d="M61.6213 62.5523H8.37836C3.75851 62.5523 0.000976562 58.8097 0.000976562 54.2092V53.3275C0.000976562 51.8456 1.21179 50.6393 2.7011 50.6393H67.3001C68.7879 50.6393 70.0002 51.8456 70.0002 53.3275V54.2092C69.9987 58.8097 66.2412 62.5523 61.6213 62.5523ZM2.9796 53.606V54.2107C2.9796 57.1759 5.40123 59.5871 8.37836 59.5871H61.6213C64.5985 59.5871 67.0201 57.1759 67.0201 54.2107V53.606H2.9796Z" fill="#FD6C03"/>
<path d="M40.957 58.0784H29.0425C28.2204 58.0784 27.5532 57.4157 27.5532 56.595C27.5532 55.7759 28.2204 55.1117 29.0425 55.1117H40.957C41.7806 55.1117 42.4464 55.7744 42.4464 56.595C42.4464 57.4157 41.7806 58.0784 40.957 58.0784Z" fill="#FD6C03"/>
</svg>
