<svg width="423" height="397" viewBox="0 0 423 397" fill="none" xmlns="http://www.w3.org/2000/svg">
<path d="M398.104 236.364C385.168 271.036 358.681 308.611 321.457 319.699C265.138 336.507 258.45 381.914 157.604 377.69C141.852 377.074 127.332 374.786 114.045 371.266C106.829 369.33 100.053 367.042 93.5409 364.49C34.5818 340.643 3.87031 288.108 1.31835 233.197C-2.0256 160.95 48.3976 126.454 81.1331 106.302C113.869 86.1508 153.38 8.00801 252.466 11.352C267.602 11.88 282.65 13.9039 297.258 17.8639C330.609 26.9277 364.489 46.9034 384.2 76.031C385.696 78.2309 387.104 80.4309 388.424 82.7188C414.912 127.598 415.704 189.021 398.104 236.364Z" fill="#FD6C03"/>
<path opacity="0.7" d="M398.104 236.364C385.168 271.036 358.681 308.611 321.457 319.699C265.138 336.507 258.45 381.914 157.604 377.69C141.852 377.074 127.332 374.786 114.045 371.266C106.829 369.33 100.053 367.042 93.5409 364.49C34.5818 340.643 3.87031 288.108 1.31835 233.197C-2.0256 160.95 48.3976 126.454 81.1331 106.302C113.869 86.1508 153.38 8.00801 252.466 11.352C267.602 11.88 282.65 13.9039 297.258 17.8639C330.609 26.9277 364.489 46.9034 384.2 76.031C385.696 78.2309 387.104 80.4309 388.424 82.7188C414.912 127.598 415.704 189.021 398.104 236.364Z" fill="white"/>
<path d="M0.439453 343.371H406.993" stroke="#263238" stroke-width="0.879986" stroke-miterlimit="10" stroke-linecap="round" stroke-linejoin="round"/>
<path d="M375.577 17.2478C375.577 16.9838 375.577 16.7198 375.577 16.5438C375.577 7.65595 368.361 0.440063 359.474 0.440063C352.082 0.440063 345.922 5.45599 343.986 12.2319C338.794 12.7599 334.834 17.1598 334.834 22.4397C334.834 27.7196 338.794 32.0316 343.986 32.6476V32.7356H375.489C379.713 32.7356 383.145 29.3036 383.145 25.0797C383.145 20.7677 379.713 17.3358 375.577 17.2478Z" fill="white" stroke="#263238" stroke-width="0.879986" stroke-miterlimit="10" stroke-linecap="round" stroke-linejoin="round"/>
<path d="M367.922 29.3916L358.418 16.5438L348.914 29.3916H352.61V35.7275H364.226V29.3916H367.922Z" fill="#263238" stroke="#263238" stroke-width="0.879986" stroke-miterlimit="10" stroke-linecap="round" stroke-linejoin="round"/>
<path d="M54.9121 63.1831H51.2162C50.8642 61.5991 50.1602 60.1031 49.3682 58.6952L52.0961 55.9672C53.4161 54.6472 53.4161 52.5353 52.0961 51.2153C50.7762 49.8953 48.6642 49.8953 47.3442 51.2153L44.6163 53.9432C43.2963 53.1512 41.8003 52.5353 40.2163 52.1833V48.1353C40.2163 46.2874 38.7204 44.7914 36.8724 44.7914C35.0244 44.7914 33.5284 46.2874 33.5284 48.1353V52.1833C32.0325 52.5353 30.5365 53.1512 29.2165 53.9432L26.3125 51.0393C24.9926 49.7193 22.8806 49.7193 21.5606 51.0393C20.2406 52.3593 20.2406 54.4712 21.5606 55.7912L24.3766 58.6072C23.5846 59.9271 22.8806 61.3351 22.5286 62.9191H18.4807C16.6327 62.9191 15.1367 64.4151 15.1367 66.263C15.1367 68.111 16.6327 69.607 18.4807 69.607H22.3526C22.7046 71.191 23.2326 72.6869 24.1126 74.0949L21.3846 76.8229C20.0646 78.1429 20.0646 80.2548 21.3846 81.5748C22.7046 82.8948 24.8166 82.8948 26.1365 81.5748L28.6885 79.0228C30.0965 79.9028 31.5925 80.6068 33.1764 81.0468V84.6548C33.1764 86.5027 34.6724 87.9987 36.5204 87.9987C38.3684 87.9987 39.8643 86.5027 39.8643 84.6548V81.1348C41.5363 80.7828 43.1203 80.1668 44.5283 79.2868L47.0802 81.8388C48.4002 83.1588 50.5122 83.1588 51.8322 81.8388C53.1521 80.5188 53.1521 78.4069 51.8322 77.0869L49.3682 74.6229C50.2482 73.2149 50.8642 71.719 51.3042 70.047H54.9121C56.7601 70.047 58.256 68.551 58.256 66.703C58.256 64.6791 56.7601 63.1831 54.9121 63.1831ZM36.8724 74.6229C32.4725 74.6229 28.8645 71.015 28.8645 66.615C28.8645 62.2151 32.4725 58.6072 36.8724 58.6072C41.2723 58.6072 44.8803 62.2151 44.8803 66.615C44.8803 71.015 41.2723 74.6229 36.8724 74.6229Z" stroke="#263238" stroke-width="0.879986" stroke-miterlimit="10" stroke-linecap="round" stroke-linejoin="round"/>
<path d="M77.0859 29.4796H73.39C73.038 27.8956 72.334 26.3997 71.542 24.9917L74.27 22.2637C75.59 20.9437 75.59 18.8318 74.27 17.5118C72.95 16.1918 70.838 16.1918 69.518 17.5118L66.7901 20.2397C65.4701 19.4478 63.9741 18.8318 62.3902 18.4798V14.4318C62.3902 12.5839 60.8942 11.0879 59.0462 11.0879C57.1982 11.0879 55.7023 12.5839 55.7023 14.4318V18.4798C54.2063 18.8318 52.7103 19.4478 51.3903 20.2397L48.4864 17.3358C47.1664 16.0158 45.0544 16.0158 43.7344 17.3358C42.4145 18.6558 42.4145 20.7677 43.7344 22.0877L46.5504 24.9037C45.7584 26.2237 45.0544 27.6316 44.7024 29.2156H40.6545C38.8065 29.2156 37.3105 30.7116 37.3105 32.5596C37.3105 34.4075 38.8065 35.9035 40.6545 35.9035H44.5264C44.8784 37.4875 45.4064 38.9835 46.2864 40.3914L43.5584 43.1194C42.2385 44.4394 42.2385 46.5513 43.5584 47.8713C44.8784 49.1913 46.9904 49.1913 48.3104 47.8713L50.8623 45.3194C52.2703 46.1993 53.7663 46.9033 55.3503 47.3433V50.9513C55.3503 52.7992 56.8462 54.2952 58.6942 54.2952C60.5422 54.2952 62.0382 52.7992 62.0382 50.9513V47.4313C63.7101 47.0793 65.2941 46.4633 66.7021 45.5834L69.254 48.1353C70.574 49.4553 72.686 49.4553 74.006 48.1353C75.326 46.8153 75.326 44.7034 74.006 43.3834L71.542 40.9194C72.422 39.5114 73.038 38.0155 73.478 36.3435H77.0859C78.9339 36.3435 80.4299 34.8475 80.4299 32.9995C80.4299 31.1516 78.9339 29.4796 77.0859 29.4796ZM59.0462 41.0074C54.6463 41.0074 51.0383 37.3995 51.0383 32.9995C51.0383 28.5996 54.6463 24.9917 59.0462 24.9917C63.4461 24.9917 67.0541 28.5996 67.0541 32.9995C67.0541 37.3995 63.4461 41.0074 59.0462 41.0074Z" stroke="#263238" stroke-width="0.879986" stroke-miterlimit="10" stroke-linecap="round" stroke-linejoin="round"/>
<path d="M35.9958 204.596H7.57224C4.93228 204.596 2.82031 202.484 2.82031 199.844V161.301C2.82031 159.893 3.96429 158.661 5.46027 158.661H38.1958C39.6037 158.661 40.8357 159.805 40.8357 161.301V199.844C40.7477 202.396 38.6358 204.596 35.9958 204.596Z" fill="white" stroke="#263238" stroke-width="0.879986" stroke-miterlimit="10" stroke-linecap="round" stroke-linejoin="round"/>
<path d="M40.7477 163.325H2.82031V161.301C2.82031 159.893 3.96429 158.661 5.46027 158.661H38.1958C39.6037 158.661 40.8357 159.805 40.8357 161.301V163.325H40.7477Z" fill="#263238" stroke="#263238" stroke-width="0.879986" stroke-miterlimit="10" stroke-linecap="round" stroke-linejoin="round"/>
<path d="M31.5089 161.125C31.5089 160.421 30.9809 159.893 30.2769 159.893C29.5729 159.893 29.0449 160.421 29.0449 161.125C29.0449 161.829 29.5729 162.357 30.2769 162.357C30.9809 162.357 31.5089 161.829 31.5089 161.125Z" fill="white" stroke="#263238" stroke-width="0.879986" stroke-miterlimit="10" stroke-linecap="round" stroke-linejoin="round"/>
<path d="M35.4679 161.125C35.4679 160.421 34.9399 159.893 34.2359 159.893C33.5319 159.893 33.0039 160.421 33.0039 161.125C33.0039 161.829 33.5319 162.357 34.2359 162.357C34.9399 162.357 35.4679 161.829 35.4679 161.125Z" fill="white" stroke="#263238" stroke-width="0.879986" stroke-miterlimit="10" stroke-linecap="round" stroke-linejoin="round"/>
<path d="M39.4269 161.125C39.4269 160.421 38.8989 159.893 38.1949 159.893C37.4909 159.893 36.9629 160.421 36.9629 161.125C36.9629 161.829 37.4909 162.357 38.1949 162.357C38.8989 162.357 39.4269 161.829 39.4269 161.125Z" fill="white" stroke="#263238" stroke-width="0.879986" stroke-miterlimit="10" stroke-linecap="round" stroke-linejoin="round"/>
<path d="M17.2482 168.605L10.7363 173.709L17.2482 178.901" stroke="#263238" stroke-width="2.63996" stroke-miterlimit="10" stroke-linecap="round" stroke-linejoin="round"/>
<path d="M26.1367 168.605L32.6486 173.709L26.1367 178.901" stroke="#263238" stroke-width="2.63996" stroke-miterlimit="10" stroke-linecap="round" stroke-linejoin="round"/>
<path d="M22.5279 167.373L20.5039 179.781" stroke="#263238" stroke-width="2.63996" stroke-miterlimit="10" stroke-linecap="round" stroke-linejoin="round"/>
<path d="M29.6543 185.677H36.8702" stroke="#263238" stroke-width="0.879986" stroke-miterlimit="10" stroke-linecap="round" stroke-linejoin="round"/>
<path d="M19.0098 185.677H28.3376" stroke="#263238" stroke-width="0.879986" stroke-miterlimit="10" stroke-linecap="round" stroke-linejoin="round"/>
<path d="M11.1777 185.677H16.9856" stroke="#263238" stroke-width="0.879986" stroke-miterlimit="10" stroke-linecap="round" stroke-linejoin="round"/>
<path d="M7.12891 185.677H9.85686" stroke="#263238" stroke-width="0.879986" stroke-miterlimit="10" stroke-linecap="round" stroke-linejoin="round"/>
<path d="M32.6484 189.901H36.8724" stroke="#263238" stroke-width="0.879986" stroke-miterlimit="10" stroke-linecap="round" stroke-linejoin="round"/>
<path d="M11.7031 189.901H30.6228" stroke="#263238" stroke-width="0.879986" stroke-miterlimit="10" stroke-linecap="round" stroke-linejoin="round"/>
<path d="M7.12891 189.901H9.50487" stroke="#263238" stroke-width="0.879986" stroke-miterlimit="10" stroke-linecap="round" stroke-linejoin="round"/>
<path d="M22.5293 194.125H36.8731" stroke="#263238" stroke-width="0.879986" stroke-miterlimit="10" stroke-linecap="round" stroke-linejoin="round"/>
<path d="M10.6484 194.125H19.9763" stroke="#263238" stroke-width="0.879986" stroke-miterlimit="10" stroke-linecap="round" stroke-linejoin="round"/>
<path d="M7.12891 194.125H9.15287" stroke="#263238" stroke-width="0.879986" stroke-miterlimit="10" stroke-linecap="round" stroke-linejoin="round"/>
<path d="M32.8242 198.349H36.8722" stroke="#263238" stroke-width="0.879986" stroke-miterlimit="10" stroke-linecap="round" stroke-linejoin="round"/>
<path d="M19.1855 198.349H30.6254" stroke="#263238" stroke-width="0.879986" stroke-miterlimit="10" stroke-linecap="round" stroke-linejoin="round"/>
<path d="M7.12891 198.349H16.9848" stroke="#263238" stroke-width="0.879986" stroke-miterlimit="10" stroke-linecap="round" stroke-linejoin="round"/>
<path d="M49.1033 212.956H20.5918C17.9518 212.956 15.8398 210.844 15.8398 208.204V169.661C15.8398 168.253 16.9838 167.021 18.4798 167.021H51.2153C52.6233 167.021 53.8553 168.165 53.8553 169.661V208.204C53.7673 210.844 51.6553 212.956 49.1033 212.956Z" fill="white" stroke="#263238" stroke-width="0.879986" stroke-miterlimit="10" stroke-linecap="round" stroke-linejoin="round"/>
<path d="M53.7671 171.685H15.9277V169.661C15.9277 168.253 17.0717 167.021 18.5677 167.021H51.3032C52.7112 167.021 53.9431 168.165 53.9431 169.661V171.685H53.7671Z" fill="#263238" stroke="#263238" stroke-width="0.879986" stroke-miterlimit="10" stroke-linecap="round" stroke-linejoin="round"/>
<path d="M43.2964 170.717C43.9768 170.717 44.5284 170.165 44.5284 169.485C44.5284 168.805 43.9768 168.253 43.2964 168.253C42.616 168.253 42.0645 168.805 42.0645 169.485C42.0645 170.165 42.616 170.717 43.2964 170.717Z" fill="white" stroke="#263238" stroke-width="0.879986" stroke-miterlimit="10" stroke-linecap="round" stroke-linejoin="round"/>
<path d="M48.4874 169.485C48.4874 168.781 47.9594 168.253 47.2554 168.253C46.5514 168.253 46.0234 168.781 46.0234 169.485C46.0234 170.189 46.5514 170.717 47.2554 170.717C47.9594 170.717 48.4874 170.189 48.4874 169.485Z" fill="white" stroke="#263238" stroke-width="0.879986" stroke-miterlimit="10" stroke-linecap="round" stroke-linejoin="round"/>
<path d="M51.2144 170.717C51.8948 170.717 52.4464 170.165 52.4464 169.485C52.4464 168.805 51.8948 168.253 51.2144 168.253C50.534 168.253 49.9824 168.805 49.9824 169.485C49.9824 170.165 50.534 170.717 51.2144 170.717Z" fill="white" stroke="#263238" stroke-width="0.879986" stroke-miterlimit="10" stroke-linecap="round" stroke-linejoin="round"/>
<path d="M30.2717 176.965L23.7598 182.069L30.2717 187.261" stroke="#263238" stroke-width="2.63996" stroke-miterlimit="10" stroke-linecap="round" stroke-linejoin="round"/>
<path d="M39.1602 176.965L45.6721 182.069L39.1602 187.261" stroke="#263238" stroke-width="2.63996" stroke-miterlimit="10" stroke-linecap="round" stroke-linejoin="round"/>
<path d="M35.5512 175.733L33.6152 188.141" stroke="#263238" stroke-width="2.63996" stroke-miterlimit="10" stroke-linecap="round" stroke-linejoin="round"/>
<path d="M42.7656 194.037H49.8935" stroke="#263238" stroke-width="0.879986" stroke-miterlimit="10" stroke-linecap="round" stroke-linejoin="round"/>
<path d="M32.1211 194.037H41.4489" stroke="#263238" stroke-width="0.879986" stroke-miterlimit="10" stroke-linecap="round" stroke-linejoin="round"/>
<path d="M24.2891 194.037H30.009" stroke="#263238" stroke-width="0.879986" stroke-miterlimit="10" stroke-linecap="round" stroke-linejoin="round"/>
<path d="M20.2402 194.037H22.9682" stroke="#263238" stroke-width="0.879986" stroke-miterlimit="10" stroke-linecap="round" stroke-linejoin="round"/>
<path d="M45.6738 198.261H49.8978" stroke="#263238" stroke-width="0.879986" stroke-miterlimit="10" stroke-linecap="round" stroke-linejoin="round"/>
<path d="M24.8145 198.261H43.6462" stroke="#263238" stroke-width="0.879986" stroke-miterlimit="10" stroke-linecap="round" stroke-linejoin="round"/>
<path d="M20.2402 198.261H22.6162" stroke="#263238" stroke-width="0.879986" stroke-miterlimit="10" stroke-linecap="round" stroke-linejoin="round"/>
<path d="M35.6406 202.485H49.8964" stroke="#263238" stroke-width="0.879986" stroke-miterlimit="10" stroke-linecap="round" stroke-linejoin="round"/>
<path d="M23.6738 202.485H33.0017" stroke="#263238" stroke-width="0.879986" stroke-miterlimit="10" stroke-linecap="round" stroke-linejoin="round"/>
<path d="M20.2402 202.485H22.1762" stroke="#263238" stroke-width="0.879986" stroke-miterlimit="10" stroke-linecap="round" stroke-linejoin="round"/>
<path d="M45.9355 206.709H49.8955" stroke="#263238" stroke-width="0.879986" stroke-miterlimit="10" stroke-linecap="round" stroke-linejoin="round"/>
<path d="M32.2969 206.709H43.6487" stroke="#263238" stroke-width="0.879986" stroke-miterlimit="10" stroke-linecap="round" stroke-linejoin="round"/>
<path d="M20.2402 206.709H30.0081" stroke="#263238" stroke-width="0.879986" stroke-miterlimit="10" stroke-linecap="round" stroke-linejoin="round"/>
<path d="M33.8762 308.347C18.3885 308.347 5.80469 320.931 5.80469 336.419H62.0358C61.9478 320.931 49.364 308.347 33.8762 308.347Z" fill="white" stroke="#263238" stroke-width="0.879986" stroke-miterlimit="10" stroke-linecap="round" stroke-linejoin="round"/>
<path d="M39.4202 330.787L53.236 316.003C48.22 311.163 41.3561 308.259 33.8762 308.259C18.3885 308.259 5.80469 320.843 5.80469 336.331H39.3322L39.4202 330.787Z" fill="#FD6C03" stroke="#263238" stroke-width="0.879986" stroke-miterlimit="10" stroke-linecap="round" stroke-linejoin="round"/>
<path d="M33.8762 319.523C24.5484 319.523 16.9805 327.091 16.9805 336.419H50.6839C50.7719 327.091 43.2041 319.523 33.8762 319.523Z" stroke="#263238" stroke-width="0.879986" stroke-miterlimit="10" stroke-linecap="round" stroke-linejoin="round"/>
<path d="M33.877 328.411C29.4771 328.411 25.8691 332.019 25.8691 336.419H41.8849C41.8849 332.019 38.2769 328.411 33.877 328.411Z" fill="#263238" stroke="#263238" stroke-width="0.879986" stroke-miterlimit="10" stroke-linecap="round" stroke-linejoin="round"/>
<path d="M35.4593 335.891L33.6113 333.955L50.0671 318.467L50.9471 319.435L35.4593 335.891Z" fill="#263238" stroke="#263238" stroke-width="0.879986" stroke-miterlimit="10" stroke-linecap="round" stroke-linejoin="round"/>
<path d="M385.346 246.924C379.01 246.924 373.906 252.028 373.906 258.364C373.906 264.7 379.01 269.804 385.346 269.804C391.682 269.804 396.786 264.7 396.786 258.364C396.786 252.028 391.682 246.924 385.346 246.924ZM385.346 265.228C381.562 265.228 378.482 262.148 378.482 258.364C378.482 254.58 381.562 251.5 385.346 251.5C389.13 251.5 392.21 254.58 392.21 258.364C392.21 262.148 389.13 265.228 385.346 265.228Z" stroke="#263238" stroke-width="0.879986" stroke-miterlimit="10" stroke-linecap="round" stroke-linejoin="round"/>
<path d="M391.682 267.956L388.954 264.26C387.898 264.876 386.666 265.316 385.346 265.316C381.562 265.316 378.482 262.236 378.482 258.452C378.482 254.668 381.562 251.588 385.346 251.588C386.578 251.588 387.81 251.94 388.866 252.556L391.242 248.684C389.482 247.628 387.546 247.012 385.346 247.012C379.01 247.012 373.906 252.116 373.906 258.452C373.906 264.788 379.01 269.892 385.346 269.892C387.722 269.804 389.834 269.1 391.682 267.956Z" fill="#FD6C03" stroke="#263238" stroke-width="0.879986" stroke-miterlimit="10" stroke-linecap="round" stroke-linejoin="round"/>
<path d="M385.346 278.252C379.01 278.252 373.906 283.356 373.906 289.692C373.906 296.027 379.01 301.131 385.346 301.131C391.682 301.131 396.786 296.027 396.786 289.692C396.786 283.356 391.682 278.252 385.346 278.252ZM385.346 296.555C381.562 296.555 378.482 293.475 378.482 289.692C378.482 285.908 381.562 282.828 385.346 282.828C389.13 282.828 392.21 285.908 392.21 289.692C392.21 293.475 389.13 296.555 385.346 296.555Z" stroke="#263238" stroke-width="0.879986" stroke-miterlimit="10" stroke-linecap="round" stroke-linejoin="round"/>
<path d="M392.21 289.691C392.21 293.475 389.13 296.555 385.346 296.555C384.114 296.555 382.882 296.203 381.914 295.587L379.979 299.723C381.562 300.603 383.41 301.043 385.346 301.043C391.682 301.043 396.786 295.939 396.786 289.603C396.786 288.899 396.698 288.195 396.61 287.579L391.946 287.755C392.122 288.459 392.21 289.075 392.21 289.691Z" fill="#FD6C03" stroke="#263238" stroke-width="0.879986" stroke-miterlimit="10" stroke-linecap="round" stroke-linejoin="round"/>
<path d="M376.195 316.179H372.059V326.915H376.195V316.179Z" fill="#263238" stroke="#263238" stroke-width="0.879986" stroke-miterlimit="10" stroke-linecap="round" stroke-linejoin="round"/>
<path d="M384.114 316.971H379.979V326.915H384.114V316.971Z" fill="#FD6C03" stroke="#263238" stroke-width="0.879986" stroke-miterlimit="10" stroke-linecap="round" stroke-linejoin="round"/>
<path d="M392.034 311.955H387.898V326.915H392.034V311.955Z" fill="#263238" stroke="#263238" stroke-width="0.879986" stroke-miterlimit="10" stroke-linecap="round" stroke-linejoin="round"/>
<path d="M399.954 306.587H395.818V326.915H399.954V306.587Z" fill="#FD6C03" stroke="#263238" stroke-width="0.879986" stroke-miterlimit="10" stroke-linecap="round" stroke-linejoin="round"/>
<path d="M383.147 117.654V115.63H374.436V117.654V118.974V129.798H392.827V117.654H383.147Z" fill="white" stroke="#263238" stroke-width="0.879986" stroke-miterlimit="10" stroke-linecap="round" stroke-linejoin="round"/>
<path d="M405.853 117.654V115.63H397.141V117.654V118.974V129.798H415.532V117.654H405.853Z" fill="white" stroke="#263238" stroke-width="0.879986" stroke-miterlimit="10" stroke-linecap="round" stroke-linejoin="round"/>
<path d="M383.147 137.894V135.87H374.436V137.894V139.302V150.126H392.827V137.894H383.147Z" fill="white" stroke="#263238" stroke-width="0.879986" stroke-miterlimit="10" stroke-linecap="round" stroke-linejoin="round"/>
<path d="M405.853 137.894V135.87H397.141V137.894V139.302V150.126H415.532V137.894H405.853Z" fill="white" stroke="#263238" stroke-width="0.879986" stroke-miterlimit="10" stroke-linecap="round" stroke-linejoin="round"/>
<path d="M383.147 158.222V156.198H374.436V158.222V159.542V170.366H392.827V158.222H383.147Z" fill="white" stroke="#263238" stroke-width="0.879986" stroke-miterlimit="10" stroke-linecap="round" stroke-linejoin="round"/>
<path d="M405.853 158.222V156.198H397.141V158.222V159.542V170.366H415.532V158.222H405.853Z" fill="#FD6C03" stroke="#263238" stroke-width="0.879986" stroke-miterlimit="10" stroke-linecap="round" stroke-linejoin="round"/>
<path d="M383.147 178.461V176.437H374.436V178.461V179.869V190.693H392.827V178.461H383.147Z" fill="white" stroke="#263238" stroke-width="0.879986" stroke-miterlimit="10" stroke-linecap="round" stroke-linejoin="round"/>
<path d="M405.853 178.461V176.437H397.141V178.461V179.869V190.693H415.532V178.461H405.853Z" fill="white" stroke="#263238" stroke-width="0.879986" stroke-miterlimit="10" stroke-linecap="round" stroke-linejoin="round"/>
<path d="M383.147 198.789V196.765H374.436V198.789V200.197V210.933H392.827V198.789H383.147Z" fill="white" stroke="#263238" stroke-width="0.879986" stroke-miterlimit="10" stroke-linecap="round" stroke-linejoin="round"/>
<path d="M405.853 198.789V196.765H397.141V198.789V200.197V210.933H415.532V198.789H405.853Z" fill="white" stroke="#263238" stroke-width="0.879986" stroke-miterlimit="10" stroke-linecap="round" stroke-linejoin="round"/>
<path d="M274.292 46.3754L276.316 52.7113H282.916L277.548 56.5832L279.66 62.8311L274.292 58.9592L268.924 62.8311L271.036 56.5832L265.668 52.7113H272.268L274.292 46.3754Z" fill="#FD6C03" stroke="#263238" stroke-width="0.879986" stroke-miterlimit="10" stroke-linecap="round" stroke-linejoin="round"/>
<path d="M296.026 46.3754L298.05 52.7113H304.65L299.282 56.5832L301.306 62.8311L296.026 58.9592L290.658 62.8311L292.682 56.5832L287.402 52.7113H294.002L296.026 46.3754Z" fill="#FD6C03" stroke="#263238" stroke-width="0.879986" stroke-miterlimit="10" stroke-linecap="round" stroke-linejoin="round"/>
<path d="M317.763 46.3754L319.787 52.7113H326.386L321.018 56.5832L323.042 62.8311L317.763 58.9592L312.395 62.8311L314.419 56.5832L309.139 52.7113H315.739L317.763 46.3754Z" fill="#FD6C03" stroke="#263238" stroke-width="0.879986" stroke-miterlimit="10" stroke-linecap="round" stroke-linejoin="round"/>
<path d="M339.497 46.3754L341.521 52.7113H348.121L342.753 56.5832L344.777 62.8311L339.497 58.9592L334.129 62.8311L336.153 56.5832L330.873 52.7113H337.473L339.497 46.3754Z" fill="#FD6C03" stroke="#263238" stroke-width="0.879986" stroke-miterlimit="10" stroke-linecap="round" stroke-linejoin="round"/>
<path d="M361.235 46.3754L363.259 52.7113H369.771L364.491 56.5832L366.515 62.8311L361.235 58.9592L355.867 62.8311L357.891 56.5832L352.611 52.7113H359.123L361.235 46.3754Z" fill="#FD6C03" stroke="#263238" stroke-width="0.879986" stroke-miterlimit="10" stroke-linecap="round" stroke-linejoin="round"/>
<path d="M210.316 358.33C290.264 358.33 355.074 356.164 355.074 353.491C355.074 350.818 290.264 348.651 210.316 348.651C130.369 348.651 65.5586 350.818 65.5586 353.491C65.5586 356.164 130.369 358.33 210.316 358.33Z" fill="#263238" stroke="#263238" stroke-width="0.879986" stroke-miterlimit="10" stroke-linecap="round" stroke-linejoin="round"/>
<path d="M350.674 304.739H69.7826C65.6467 304.739 62.3027 301.395 62.3027 297.259V90.3747C62.3027 86.2387 65.6467 82.8948 69.7826 82.8948H350.674C354.81 82.8948 358.154 86.2387 358.154 90.3747V297.347C358.154 301.395 354.81 304.739 350.674 304.739Z" fill="#263238" stroke="#263238" stroke-width="0.879986" stroke-miterlimit="10" stroke-linecap="round" stroke-linejoin="round"/>
<path d="M247.01 321.899V296.908H173.355V321.899C173.355 330.083 170.627 338.003 165.524 344.339L162.268 348.387H258.01L254.754 344.339C249.738 337.915 247.01 329.995 247.01 321.899Z" fill="white" stroke="#263238" stroke-width="0.879986" stroke-miterlimit="10" stroke-linecap="round" stroke-linejoin="round"/>
<path d="M247.01 296.908H173.355V316.971H247.01V296.908Z" fill="#263238" stroke="#263238" stroke-width="0.879986" stroke-miterlimit="10" stroke-linecap="round" stroke-linejoin="round"/>
<path d="M258.098 348.387H162.355V352.875H258.098V348.387Z" fill="white" stroke="#263238" stroke-width="0.879986" stroke-miterlimit="10" stroke-linecap="round" stroke-linejoin="round"/>
<path d="M350.674 304.739H69.7826C65.6467 304.739 62.3027 301.395 62.3027 297.259V270.244H358.154V297.259C358.154 301.395 354.81 304.739 350.674 304.739Z" fill="white" stroke="#263238" stroke-width="0.879986" stroke-miterlimit="10" stroke-linecap="round" stroke-linejoin="round"/>
<path d="M343.282 96.7106H77.1738V253.436H343.282V96.7106Z" fill="#FD6C03" stroke="#263238" stroke-width="0.879986" stroke-miterlimit="10" stroke-linecap="round" stroke-linejoin="round"/>
<g opacity="0.2">
<path opacity="0.2" d="M124.693 148.982C124.693 148.982 123.197 151.71 121.173 149.95C119.149 148.19 114.133 144.934 110.965 146.078C107.797 147.222 106.741 151.094 108.149 152.326C109.645 153.47 109.997 154.878 107.621 156.55C105.246 158.222 106.301 160.422 108.325 160.95C110.349 161.478 111.845 160.598 111.669 161.83C111.493 162.974 111.669 163.678 108.501 164.998C105.334 166.318 105.509 167.55 109.645 166.318C113.693 165.174 114.309 162.446 116.157 160.598C118.005 158.75 126.013 162.446 128.213 166.318C130.413 170.19 130.237 174.061 130.237 177.053C130.237 180.045 134.461 180.397 135.429 183.125C136.397 185.853 137.981 188.317 138.421 187.701C138.773 186.997 138.245 186.205 138.245 185.325C138.245 184.445 141.061 187.173 141.413 189.021C141.765 190.869 144.933 193.069 146.605 193.069C148.277 193.069 150.653 193.773 151.797 194.741C152.941 195.709 155.493 198.085 156.461 198.085C157.429 198.085 157.429 197.557 157.957 198.085C158.485 198.613 158.485 200.109 158.133 201.605C157.781 203.101 156.285 203.629 158.309 206.621C160.333 209.613 163.325 211.197 163.325 214.013C163.325 216.829 160.157 227.301 160.157 230.293C160.157 233.285 163.149 236.805 164.205 236.541C165.349 236.189 164.381 234.517 164.381 233.021C164.381 231.525 166.229 230.293 166.229 228.973C166.229 227.653 167.549 226.157 168.605 225.101C169.749 224.133 171.596 223.429 172.652 221.757C173.796 220.085 175.644 218.589 176.348 217.357C177.052 216.213 177.316 216.037 178.9 213.837C180.572 211.637 180.572 209.965 181.452 208.469C182.42 206.973 182.596 203.893 180.308 203.277C178.108 202.573 174.94 201.605 174.148 200.549C173.444 199.581 169.309 197.821 168.605 197.733C167.901 197.557 166.757 196.237 165.261 196.061C163.765 195.885 163.237 195.885 162.269 195.885C161.301 195.885 158.925 196.589 158.925 196.589H156.549L154.525 195.269C154.525 195.269 155.229 193.069 153.821 192.717C152.325 192.365 151.621 192.365 151.621 192.365C151.621 192.365 152.765 190.341 151.621 190.165C150.477 189.989 148.453 191.309 147.925 191.309C147.397 191.309 145.549 188.493 146.429 187.085C147.397 185.765 148.101 184.533 149.949 184.269C151.797 183.917 153.469 182.597 154.613 184.269C155.757 185.941 158.309 188.933 158.309 187.085C158.309 185.237 156.989 184.269 157.165 183.037C157.341 181.893 159.717 182.333 159.717 180.045C159.717 177.669 160.685 176.349 161.741 175.821C162.885 175.293 165.965 175.645 165.789 173.27C165.613 170.894 164.117 173.094 162.973 172.302C161.829 171.422 164.117 169.486 166.317 169.486C168.517 169.486 170.364 168.958 169.837 167.286C169.309 165.614 166.845 164.558 165.789 162.446C164.645 160.246 163.589 162.622 162.269 161.478C160.949 160.334 158.749 158.75 158.573 160.95C158.397 163.15 159.717 165.79 159.101 167.198C158.573 168.518 155.933 169.926 155.229 168.342C154.525 166.846 155.229 166.142 153.205 164.998C151.181 163.854 148.981 162.798 148.717 160.598C148.541 158.398 150.037 156.902 151.885 155.582C153.733 154.262 156.109 153.03 155.933 150.918C155.757 148.718 154.261 147.926 153.909 149.598C153.557 151.27 151.533 151.27 150.741 149.95C150.037 148.63 148.365 147.926 148.365 149.07C148.365 150.214 148.013 151.446 146.517 151.446C145.021 151.446 142.821 150.302 141.853 150.478C140.885 150.654 140.533 151.446 139.477 151.446C138.333 151.446 136.485 151.798 136.133 150.566C135.781 149.422 133.317 149.07 131.645 148.718C129.973 148.366 127.597 148.014 126.981 148.19C126.717 148.366 125.573 148.982 124.693 148.982Z" fill="black"/>
<path opacity="0.2" d="M163.589 190.781C163.589 190.781 162.621 190.781 159.717 189.461C156.725 188.141 154.349 188.581 155.845 189.285C157.341 189.989 160.069 190.957 160.069 190.957C160.069 190.957 156.901 190.781 159.717 191.661C162.533 192.541 166.229 191.837 163.589 190.781Z" fill="black"/>
<path opacity="0.2" d="M200.108 182.069C200.108 182.069 199.14 185.061 198.612 185.765C198.084 186.469 195.796 187.437 195.268 189.285C194.74 191.133 195.268 193.861 196.412 195.533C197.556 197.205 198.436 197.381 201.076 198.085C203.628 198.789 207.588 198.085 209.084 198.261C210.58 198.437 208.556 201.077 208.556 201.957C208.556 202.837 212.252 204.509 212.428 206.005C212.604 207.501 210.932 210.669 212.428 212.693C213.924 214.717 214.452 216.037 214.452 217.269C214.452 218.413 213.924 220.261 217.62 220.789C221.316 221.317 223.956 219.821 224.484 217.621C225.012 215.421 225.012 213.221 226.683 212.429C228.355 211.549 229.235 209.613 228.883 207.765C228.531 205.917 228.179 203.189 229.587 202.221C231.083 201.253 234.075 199.405 234.251 197.557C234.427 195.709 232.755 197.381 230.379 195.709C228.003 194.037 225.364 189.021 224.836 187.613C224.308 186.293 224.308 185.061 226.332 187.613C228.355 190.165 228.883 195.181 232.051 195.181C235.219 195.181 239.619 191.661 239.795 189.989C239.971 188.317 237.947 189.285 235.747 187.789C233.547 186.293 232.051 182.597 234.779 183.565C237.595 184.533 241.291 187.965 242.787 187.965C244.283 187.965 248.683 186.469 248.947 189.109C249.123 191.837 247.979 196.149 250.619 196.325C253.171 196.501 252.467 193.597 253.171 192.629C253.875 191.661 258.011 188.581 258.891 189.285C259.771 189.989 259.243 192.629 261.707 192.805C264.083 192.981 265.051 193.509 264.259 194.301C263.555 195.181 263.291 197.997 264.259 197.645C265.227 197.293 264.083 194.477 265.755 195.269C267.427 196.149 269.979 194.389 269.979 193.597C269.979 192.717 266.811 191.749 267.779 190.253C268.747 188.757 271.651 188.405 273.675 188.229C275.699 188.053 277.547 185.237 276.667 183.565C275.699 181.893 274.995 180.749 276.139 180.397C277.283 180.045 275.435 179.077 275.435 178.549C275.435 178.021 277.107 176.701 278.251 177.669C279.395 178.637 278.779 180.045 279.747 181.013C280.715 181.981 281.771 181.893 281.771 180.485C281.771 179.165 281.243 176.965 281.243 176.965C281.243 176.965 282.915 175.645 283.795 175.821C284.763 175.997 287.315 173.005 288.019 170.805C288.723 168.605 288.195 167.285 287.051 167.285C285.907 167.285 284.059 164.91 286.083 163.59C288.107 162.27 291.274 161.214 292.77 161.742C294.266 162.27 295.322 161.566 296.29 160.246C297.258 158.926 299.458 158.926 300.514 158.926C301.57 158.926 302.714 156.374 302.89 157.782C303.066 159.102 299.018 162.006 298.226 163.854C297.522 165.702 296.73 168.517 298.402 168.693C300.074 168.869 300.778 165.966 301.218 164.646C301.57 163.326 301.746 160.95 302.89 160.774C304.034 160.598 304.562 161.302 306.234 160.07C307.906 158.926 310.106 158.75 310.458 157.078C310.81 155.406 311.602 151.71 309.49 149.862C307.466 148.014 306.146 149.158 303.946 149.862C301.746 150.566 299.106 146.694 299.106 146.694C299.106 146.694 297.082 146.342 294.882 146.342C292.682 146.342 291.714 143.966 290.218 143.79C288.723 143.614 288.899 145.814 287.403 146.342C285.907 146.87 285.555 146.518 284.411 146.518C283.267 146.518 282.211 146.87 281.859 145.814C281.507 144.846 280.539 143.086 279.307 142.998C277.987 142.822 276.491 143.526 275.787 143.526C275.083 143.526 272.443 142.646 271.739 142.646C271.035 142.646 268.219 143.174 268.219 143.174C268.219 143.174 272.267 137.982 271.563 136.662C270.859 135.342 267.867 134.99 266.195 135.518C264.523 136.046 262.851 135.87 261.707 136.486C260.563 137.19 257.483 137.63 256.515 139.038C255.547 140.358 255.811 140.886 254.491 141.766C253.171 142.646 253.171 143.966 253.347 145.286C253.523 146.606 251.675 143.79 250.355 144.582C249.035 145.462 248.331 145.902 248.683 147.134C249.035 148.278 250.531 149.686 250.179 150.83C249.827 151.974 247.011 153.03 247.011 151.358C247.011 149.686 248.507 143.174 246.483 143.262C244.459 143.438 243.931 145.814 244.459 147.486C244.987 149.158 245.427 149.862 244.283 149.862C243.139 149.862 241.731 147.662 240.587 148.894C239.443 150.038 236.363 150.214 234.867 150.39C233.371 150.566 231.171 152.766 230.027 153.558C228.883 154.438 228.531 155.758 226.507 155.934C224.484 156.11 223.164 152.414 224.132 152.414C225.1 152.414 228.355 154.086 228.355 152.062C228.355 150.038 223.164 148.014 220.612 147.662C218.06 147.31 213.924 148.366 213.22 150.478C212.516 152.678 212.868 155.846 210.404 158.046C208.028 160.246 206.532 162.71 208.38 162.71C210.228 162.71 211.372 160.158 211.548 162.182C211.724 164.206 213.924 164.03 214.54 163.062C215.068 162.094 215.068 160.07 215.068 158.222C215.068 156.374 218.412 153.03 218.94 154.526C219.468 156.022 217.092 158.398 217.092 159.894C217.092 161.39 219.908 160.246 221.316 160.246C222.812 160.246 223.868 161.214 221.492 161.566C219.116 161.918 218.94 161.918 218.324 163.414C217.796 164.91 218.5 165.966 216.3 166.406C214.1 166.934 208.732 166.054 207.588 167.901C206.444 169.749 205.916 170.717 204.772 171.069C203.628 171.421 201.428 171.245 201.78 172.741C202.132 174.237 203.276 173.445 202.748 174.941C202.22 176.437 200.372 174.061 199.58 175.293C198.876 176.437 200.724 181.805 202.396 180.309C204.068 178.813 204.948 176.437 204.948 176.437C204.948 176.437 206.62 176.261 206.972 175.557C207.324 174.853 209.788 173.357 210.492 175.557C211.196 177.757 212.34 177.229 212.34 178.285C212.34 179.253 210.492 180.485 212.164 179.781C213.836 179.077 214.716 179.253 214.188 177.229C213.66 175.205 211.636 172.829 212.692 173.357C213.836 173.885 215.068 175.557 215.684 176.701C216.212 177.845 219.028 181.277 219.38 179.869C219.732 178.549 219.028 176.173 219.556 176.173C220.084 176.173 221.228 174.853 221.58 173.445C221.932 172.125 226.595 173.621 227.475 174.765C228.443 175.909 226.507 177.141 224.484 177.141C222.46 177.141 219.82 178.461 221.492 179.693C223.164 180.837 225.716 178.373 226.155 180.221C226.507 182.069 225.628 183.741 224.132 183.741C222.636 183.741 220.788 183.037 219.468 183.037C218.148 183.037 217.972 184.709 215.596 184.181C213.22 183.653 212.604 181.629 210.756 180.485C208.908 179.341 207.236 180.133 205.74 180.661C204.596 181.101 201.076 180.749 200.108 182.069Z" fill="black"/>
<path opacity="0.2" d="M245.602 134.55C245.602 134.55 244.634 136.574 243.226 137.542C241.73 138.51 237.858 141.766 237.858 143.614C237.858 145.462 239.53 147.134 236.89 146.43C234.338 145.726 237.418 139.038 239.266 137.366C241.114 135.694 241.114 136.486 242.61 135.694C244.106 134.902 245.338 133.23 245.602 134.55Z" fill="black"/>
<path opacity="0.2" d="M273.585 198.877C273.585 198.877 271.385 198.877 270.593 200.549C269.889 202.221 272.793 203.717 273.761 202.573C274.729 201.429 274.289 199.845 274.729 199.053C274.993 198.173 274.641 197.909 273.585 198.877Z" fill="black"/>
<path opacity="0.2" d="M267.076 202.045C267.076 202.045 265.756 195.797 265.228 197.645C264.7 199.493 265.228 200.813 265.228 200.813C265.228 200.813 260.212 197.117 260.74 199.317C261.268 201.517 265.228 202.837 267.076 204.157C268.924 205.477 269.1 205.301 271.74 206.181C274.292 207.061 275.964 205.653 273.94 205.301C271.916 204.949 268.572 203.277 267.78 202.925C267.076 202.749 267.076 202.045 267.076 202.045Z" fill="black"/>
<path opacity="0.2" d="M289.163 202.925C289.163 202.925 280.803 200.109 281.771 201.781C282.739 203.453 285.643 202.925 286.259 203.805C286.787 204.685 287.227 206.357 288.459 206.357C289.691 206.357 290.835 205.829 291.627 206.709C292.331 207.589 294.003 208.733 294.619 207.853C295.147 206.973 293.915 206.005 292.947 204.861C291.891 203.541 289.163 202.925 289.163 202.925Z" fill="black"/>
<path opacity="0.2" d="M289.161 208.117C289.161 208.117 288.985 210.669 287.137 210.493C285.289 210.317 286.785 207.765 284.321 208.117C281.946 208.469 282.298 210.141 280.978 210.141C279.658 210.141 277.458 210.845 277.282 211.461C277.106 212.165 275.61 212.781 274.466 212.781C273.322 212.781 272.266 214.981 272.618 216.125C272.97 217.269 273.762 218.853 273.762 219.997C273.762 221.141 273.762 222.197 275.786 221.669C277.81 221.141 280.978 218.853 283.354 219.645C285.729 220.525 287.841 223.341 289.249 224.221C290.745 225.101 291.625 225.893 292.945 223.693C294.265 221.493 296.113 219.293 296.113 216.653C296.113 213.925 294.089 213.837 292.417 211.285C290.833 208.821 289.689 206.797 289.161 208.117Z" fill="black"/>
<path opacity="0.2" d="M307.113 225.893C307.113 225.893 307.641 226.245 305.793 227.037C303.945 227.916 303.593 229.06 304.825 229.764C306.145 230.468 307.817 227.916 308.345 227.037C308.961 226.245 309.489 224.221 307.113 225.893Z" fill="black"/>
<path opacity="0.2" d="M233.898 208.997C233.898 208.997 232.93 208.821 231.698 209.965C230.378 211.109 231.522 211.813 231.17 213.309C230.818 214.805 231.17 216.477 232.666 215.509C234.162 214.541 235.658 210.933 235.658 209.613C235.57 208.293 235.218 207.149 233.898 208.997Z" fill="black"/>
<path opacity="0.2" d="M219.205 126.542C219.205 126.542 219.381 127.246 217.005 126.718C214.629 126.19 213.837 127.598 213.309 127.686C212.781 127.862 209.965 126.19 210.141 128.214C210.317 130.238 212.693 132.878 213.661 131.382C214.629 129.886 213.837 131.382 212.693 132.878C211.549 134.374 214.013 136.398 215.069 135.078C216.213 133.758 216.213 129.182 216.741 130.678C217.269 132.174 218.237 134.902 219.293 133.67C220.437 132.526 217.445 129.27 217.445 128.302C217.445 127.334 217.973 129.006 219.469 127.95C221.053 126.982 220.877 126.366 219.205 126.542Z" fill="black"/>
<path opacity="0.2" d="M267.252 130.678C267.252 130.678 267.956 128.302 266.108 128.478C264.26 128.654 262.236 129.974 263.908 131.206C265.58 132.438 267.252 130.678 267.252 130.678Z" fill="black"/>
<path opacity="0.2" d="M263.908 126.19C263.556 125.486 262.06 120.822 260.916 122.142C259.772 123.462 261.444 126.982 261.444 126.982C261.444 126.982 260.74 128.302 262.412 128.478C264.084 128.742 263.908 126.19 263.908 126.19Z" fill="black"/>
<path opacity="0.2" d="M176.436 119.678C175.556 119.854 171.772 117.302 169.748 118.974C167.724 120.646 167.548 121.702 166.404 123.99C165.26 126.366 166.404 127.862 166.052 128.39C165.7 128.918 166.228 128.038 164.028 129.358C161.828 130.678 161.476 130.238 162.708 132.086C164.028 133.934 162.18 133.934 164.204 135.606C166.228 137.278 167.02 134.286 169.22 136.31C171.42 138.334 170.364 140.886 171.772 145.902C173.268 150.918 173.972 159.014 175.116 160.334C176.26 161.654 178.108 162.006 178.987 159.806C179.955 157.606 181.539 153.734 184.355 152.414C187.171 151.094 191.043 149.422 191.043 147.574C191.043 145.726 189.547 144.846 190.075 143.526C190.603 142.206 191.923 143.174 191.923 140.974C191.923 138.774 191.923 138.246 191.923 136.398C191.923 134.55 191.571 130.15 191.923 129.71C192.275 129.182 193.595 126.982 193.595 126.542C193.595 126.014 194.915 124.518 195.267 123.99C195.619 123.462 195.971 122.318 195.971 121.79C195.971 121.262 196.939 120.118 195.267 120.822C193.595 121.526 193.595 123.022 192.275 123.814C190.955 124.694 189.283 125.134 189.283 123.462C189.283 121.79 191.131 119.766 189.283 119.59C187.435 119.414 185.411 120.118 185.411 120.118C185.411 120.118 187.259 119.238 187.787 118.974C188.315 118.622 190.163 118.446 190.779 118.006C191.307 117.478 191.483 116.334 191.483 116.334C191.483 116.334 190.955 115.63 189.811 115.366C188.667 115.014 188.667 113.87 187.611 113.518C186.467 113.166 183.123 112.99 183.123 112.99C183.123 112.99 179.603 113.958 178.9 114.31C178.196 114.662 176.876 115.454 176.876 115.454C176.876 115.454 176.348 117.126 176.876 117.83C177.404 118.534 178.284 119.326 176.436 119.678Z" fill="black"/>
<path opacity="0.2" d="M164.734 120.998C164.734 120.998 163.766 122.846 163.238 123.99C162.71 125.134 161.918 126.366 161.038 127.686C160.07 129.006 159.542 129.71 159.542 130.238C159.542 130.766 160.51 131.734 159.014 132.966C157.518 134.11 155.494 135.166 155.494 135.166C155.494 135.166 154.966 136.662 153.47 136.134C151.974 135.606 152.942 133.142 153.47 132.262C153.998 131.382 153.47 129.094 152.326 129.534C151.182 130.062 150.478 131.03 149.334 129.71C148.19 128.39 147.838 125.662 147.838 124.342C147.838 123.022 147.838 121.174 148.982 121.79C150.126 122.494 153.646 124.518 154.174 124.166C154.702 123.814 153.47 122.494 152.678 121.438C151.886 120.382 150.302 119.238 152.326 118.27C154.35 117.302 156.55 117.126 158.046 116.246C159.542 115.366 160.422 114.75 162.27 115.278C164.118 115.806 165.79 115.278 166.318 116.598C166.846 117.918 166.846 119.414 166.846 119.414L164.734 120.998Z" fill="black"/>
<path opacity="0.2" d="M154.174 137.63C154.174 137.63 153.998 137.63 151.974 136.662C149.95 135.694 148.806 131.998 148.278 134.11C147.75 136.31 150.478 138.774 151.798 139.478C153.118 140.182 158.486 140.182 157.694 138.334C156.99 136.398 154.174 137.63 154.174 137.63Z" fill="black"/>
<path opacity="0.2" d="M161.564 145.286C160.596 144.934 158.044 143.966 156.724 142.91C155.404 141.942 153.204 140.182 152.236 141.59C151.268 142.91 151.884 146.958 153.38 147.838C154.876 148.718 157.076 146.87 158.396 148.542C159.716 150.214 161.388 151.886 160.948 153.118C160.596 154.262 159.804 155.318 161.3 156.99C162.795 158.662 164.819 158.838 164.819 156.638C164.819 154.438 162.971 153.118 164.467 152.942C165.963 152.766 167.459 154.438 166.667 152.062C165.963 149.686 164.819 148.894 164.291 148.014C163.763 147.134 161.564 145.286 161.564 145.286Z" fill="black"/>
<path opacity="0.2" d="M144.493 148.19C144.493 148.19 142.645 147.662 142.645 145.462C142.645 143.262 140.797 140.622 140.269 142.118C139.741 143.614 138.421 144.142 136.925 142.998C135.429 141.854 133.933 139.302 132.437 140.446C130.941 141.59 126.541 144.142 130.237 145.286C133.933 146.43 135.253 144.142 135.605 144.582C135.957 145.11 135.253 144.934 135.605 146.958C135.957 148.982 137.981 149.95 139.653 149.95C141.325 149.95 141.677 148.278 142.469 148.982C143.261 149.686 145.285 150.566 144.493 148.19Z" fill="black"/>
</g>
<path d="M215.685 287.492C215.685 284.5 213.221 282.036 210.229 282.036C207.237 282.036 204.773 284.5 204.773 287.492C204.773 290.484 207.237 292.948 210.229 292.948C213.221 292.948 215.685 290.572 215.685 287.492Z" fill="#263238" stroke="#263238" stroke-width="0.879986" stroke-miterlimit="10" stroke-linecap="round" stroke-linejoin="round"/>
<path d="M327.267 118.622H95.391C91.6951 118.622 88.7031 115.63 88.7031 111.934C88.7031 108.238 91.6951 105.246 95.391 105.246H327.267C330.963 105.246 333.955 108.238 333.955 111.934C333.867 115.63 330.963 118.622 327.267 118.622Z" fill="white" stroke="#263238" stroke-width="0.879986" stroke-miterlimit="10" stroke-linecap="round" stroke-linejoin="round"/>
<path d="M327.266 118.622H315.65V105.334H327.266C330.962 105.334 333.954 108.326 333.954 112.022C333.866 115.63 330.962 118.622 327.266 118.622Z" fill="#263238" stroke="#263238" stroke-width="0.879986" stroke-miterlimit="10" stroke-linecap="round" stroke-linejoin="round"/>
<path d="M324.715 107.007C323.219 105.599 320.755 105.599 319.347 107.183C317.939 108.678 317.939 111.142 319.523 112.55C321.019 113.958 323.483 113.958 324.891 112.374C326.299 110.878 326.211 108.414 324.715 107.007ZM324.275 111.846C323.131 113.078 321.195 113.166 319.963 112.022C318.731 110.878 318.643 108.942 319.787 107.711C320.931 106.479 322.867 106.391 324.099 107.535C325.419 108.678 325.419 110.614 324.275 111.846Z" fill="white"/>
<path d="M327.532 113.782C327.356 113.606 327.092 113.606 326.916 113.606L325.508 112.286C325.332 112.11 325.156 112.11 324.98 112.286L324.892 112.462C324.716 112.638 324.716 112.814 324.892 112.99L326.3 114.31C326.212 114.574 326.3 114.838 326.476 115.014L328.852 117.302C329.204 117.654 329.732 117.566 329.996 117.302C330.348 116.95 330.26 116.422 329.996 116.158L327.532 113.782Z" fill="white"/>
<path d="M332.546 246.484C327.882 246.484 323.922 243.228 322.954 238.74L320.842 229.148C319.698 223.868 314.946 219.996 309.49 219.996C304.298 219.996 299.81 223.34 298.314 228.268L296.906 233.02C295.762 236.804 292.33 239.356 288.459 239.356C284.763 239.356 281.419 237.068 280.099 233.548L275.435 220.7C272.619 212.957 265.227 207.765 256.867 207.765C250.619 207.765 244.723 210.669 241.027 215.685L232.139 227.564C230.379 229.94 227.563 231.348 224.572 231.348C219.38 231.348 215.156 227.124 215.156 222.02V213.573H204.508V222.02C204.508 227.212 200.284 231.348 195.092 231.348C192.1 231.348 189.284 229.94 187.524 227.564L178.724 215.597C175.028 210.581 169.132 207.677 162.885 207.677C154.525 207.677 147.133 212.869 144.317 220.612L139.653 233.46C138.421 236.98 135.077 239.268 131.293 239.268C127.333 239.268 123.901 236.716 122.845 232.932L121.437 228.18C120.029 223.252 115.453 219.908 110.261 219.908C104.805 219.908 100.053 223.692 98.9095 229.06L96.7975 238.652C95.8295 243.14 91.7816 246.396 87.2057 246.396H77.1738V253.348H342.666V246.396H332.546V246.484Z" fill="white" stroke="#263238" stroke-width="0.879986" stroke-miterlimit="10" stroke-linecap="round" stroke-linejoin="round"/>
<path d="M211.46 14.9598C236.012 15.1358 255.812 35.1115 255.636 59.6631C255.46 84.2147 235.484 104.014 210.932 103.838C186.381 103.662 166.581 83.6867 166.757 59.1351C166.845 34.5835 186.909 14.7838 211.46 14.9598ZM210.932 95.1265C230.644 95.2145 246.748 79.3748 246.836 59.6631C246.924 39.9514 231.084 23.8476 211.372 23.7596C191.661 23.6716 175.557 39.5114 175.469 59.2231C175.381 78.9348 191.221 94.9505 210.932 95.1265Z" fill="white" stroke="#263238" stroke-width="0.879986" stroke-miterlimit="10" stroke-linecap="round" stroke-linejoin="round"/>
<path d="M211.46 12.4078C236.012 12.5838 255.812 32.5595 255.636 57.1111C255.46 81.6627 235.484 101.462 210.932 101.286C186.381 101.11 166.581 81.1347 166.757 56.5831C166.845 32.0315 186.909 12.2318 211.46 12.4078ZM210.932 92.5745C230.644 92.6625 246.748 76.8228 246.836 57.1111C246.924 37.3994 231.084 21.2956 211.372 21.2076C191.661 21.1196 175.645 36.9594 175.469 56.6711C175.381 76.3828 191.221 92.3985 210.932 92.5745Z" fill="white" stroke="#263238" stroke-width="0.879986" stroke-miterlimit="10" stroke-linecap="round" stroke-linejoin="round"/>
<path d="M207.499 141.942H213.219C214.627 141.942 215.771 140.798 215.771 139.39L215.947 104.806C215.947 103.398 214.803 102.254 213.395 102.254H207.675C206.267 102.254 205.123 103.398 205.123 104.806L204.947 139.39C204.947 140.798 206.091 141.942 207.499 141.942Z" fill="white" stroke="#263238" stroke-width="0.879986" stroke-miterlimit="10" stroke-linecap="round" stroke-linejoin="round"/>
<path d="M215.243 213.925H204.595L203.188 201.077H216.651L215.243 213.925Z" fill="white" stroke="#263238" stroke-width="0.879986" stroke-miterlimit="10" stroke-linecap="round" stroke-linejoin="round"/>
<path d="M202.045 158.926L192.365 173.093V194.037C192.365 194.741 192.893 195.269 193.597 195.269C194.301 195.269 194.829 194.741 194.829 194.037V187.965L202.045 185.237V158.926Z" fill="white" stroke="#263238" stroke-width="0.879986" stroke-miterlimit="10" stroke-linecap="round" stroke-linejoin="round"/>
<path d="M219.115 158.926L228.795 173.093V194.037C228.795 194.741 228.267 195.269 227.563 195.269C226.859 195.269 226.331 194.741 226.331 194.037V187.965L219.115 185.237V158.926Z" fill="white" stroke="#263238" stroke-width="0.879986" stroke-miterlimit="10" stroke-linecap="round" stroke-linejoin="round"/>
<path d="M206.091 205.917L214.187 206.005C217.267 206.005 219.731 203.541 219.731 200.461L220.171 132.174C220.171 129.798 218.235 127.862 215.859 127.774L205.299 127.686C202.923 127.686 200.987 129.622 200.899 131.998L200.459 200.285C200.635 203.453 203.099 205.917 206.091 205.917Z" fill="#263238" stroke="#263238" stroke-width="0.879986" stroke-miterlimit="10" stroke-linecap="round" stroke-linejoin="round"/>
<path d="M200.639 195.269V200.285C200.639 203.365 203.103 205.917 206.183 205.917L214.19 206.005C217.27 206.005 219.822 203.541 219.822 200.461V195.357H200.639V195.269Z" fill="white" stroke="#263238" stroke-width="0.879986" stroke-miterlimit="10" stroke-linecap="round" stroke-linejoin="round"/>
<path d="M210.317 195.181C209.349 195.181 208.557 194.389 208.557 193.421V160.246C208.557 159.278 209.349 158.486 210.317 158.486C211.285 158.486 212.077 159.278 212.077 160.246V193.421C212.077 194.477 211.285 195.181 210.317 195.181Z" fill="white" stroke="#263238" stroke-width="0.879986" stroke-miterlimit="10" stroke-linecap="round" stroke-linejoin="round"/>
<path d="M187.26 53.9433V54.2073H186.116V53.8553C186.116 52.8873 185.764 52.2713 184.884 52.2713C184.004 52.2713 183.652 52.8873 183.652 53.8553C183.652 56.3192 187.348 56.5832 187.348 59.6632C187.348 61.3352 186.556 62.4791 184.884 62.4791C183.212 62.4791 182.42 61.4232 182.42 59.6632V59.0472H183.564V59.7512C183.564 60.7192 184.004 61.3352 184.884 61.3352C185.764 61.3352 186.204 60.7192 186.204 59.7512C186.204 57.2872 182.508 57.0232 182.508 53.9433C182.508 52.2713 183.3 51.1273 184.972 51.1273C186.468 51.1273 187.26 52.1833 187.26 53.9433Z" fill="#263238"/>
<path d="M192.364 56.1433V57.2872H189.636V61.2472H192.98V62.3912H188.404V51.2153H192.98V52.3593H189.636V56.1433H192.364Z" fill="#263238"/>
<path d="M195.355 60.1032L194.915 62.3032H193.771L195.883 51.2153H197.643L199.755 62.3032H198.523L198.083 60.1032H195.355ZM195.531 59.0472H197.995L196.763 52.6233L195.531 59.0472Z" fill="#263238"/>
<path d="M203.276 51.2153C205.036 51.2153 205.74 52.0953 205.74 53.7673V54.6473C205.74 55.8793 205.3 56.6712 204.332 56.9352C205.388 57.1992 205.74 58.0792 205.74 59.2232V60.9832C205.74 61.5112 205.74 61.9512 206.004 62.3032H204.772C204.596 61.9512 204.596 61.6872 204.596 60.9832V59.2232C204.596 57.9912 203.98 57.5512 203.012 57.5512H202.132V62.3032H200.9V51.2153H203.276ZM202.924 56.4952C203.892 56.4952 204.508 56.1433 204.508 54.9993V53.9433C204.508 52.9753 204.156 52.4473 203.188 52.4473H201.956V56.5833H202.924V56.4952Z" fill="#263238"/>
<path d="M211.899 53.9433V54.9113H210.755V53.8553C210.755 52.8873 210.315 52.2713 209.435 52.2713C208.555 52.2713 208.115 52.8873 208.115 53.8553V59.7512C208.115 60.7192 208.555 61.3352 209.435 61.3352C210.315 61.3352 210.755 60.7192 210.755 59.7512V58.3432H211.899V59.7512C211.899 61.4232 211.107 62.5671 209.435 62.5671C207.763 62.5671 206.971 61.4232 206.971 59.7512V54.0313C206.971 52.3593 207.763 51.2153 209.435 51.2153C211.107 51.1273 211.899 52.2713 211.899 53.9433Z" fill="#263238"/>
<path d="M214.275 57.3752V62.3912H213.043V51.2153H214.275V56.2313H217.003V51.2153H218.235V62.3032H217.003V57.2872H214.275V57.3752Z" fill="#263238"/>
<path d="M220.699 51.2153V62.3032H219.467V51.2153H220.699Z" fill="#263238"/>
<path d="M223.076 62.3032H221.932V51.2153H223.516L226.068 59.2232V51.2153H227.124V62.3032H225.804L222.988 53.3273V62.3032H223.076Z" fill="#263238"/>
<path d="M233.371 53.9433V54.9113H232.227V53.8553C232.227 52.8873 231.787 52.2713 230.907 52.2713C230.027 52.2713 229.587 52.8873 229.587 53.8553V59.7512C229.587 60.7192 230.027 61.3352 230.907 61.3352C231.787 61.3352 232.227 60.7192 232.227 59.7512V57.5512H231.083V56.4072H233.371V59.6632C233.371 61.3352 232.579 62.4791 230.907 62.4791C229.235 62.4791 228.443 61.3352 228.443 59.6632V53.9433C228.443 52.2713 229.235 51.1273 230.907 51.1273C232.579 51.1273 233.371 52.2713 233.371 53.9433Z" fill="#263238"/>
<path d="M235.57 60.8073V62.3032H234.338V60.8073H235.57Z" fill="#263238"/>
<path d="M238.035 60.8073V62.3032H236.803V60.8073H238.035Z" fill="#263238"/>
<path d="M240.498 60.8073V62.3032H239.266V60.8073H240.498Z" fill="#263238"/>
<path d="M337.034 386.49C355.745 386.49 370.913 383.732 370.913 380.33C370.913 376.928 355.745 374.17 337.034 374.17C318.323 374.17 303.154 376.928 303.154 380.33C303.154 383.732 318.323 386.49 337.034 386.49Z" fill="#263238" stroke="#263238" stroke-width="0.879986" stroke-miterlimit="10" stroke-linecap="round" stroke-linejoin="round"/>
<path d="M295.323 277.372L296.907 279.748C296.907 279.748 297.259 283.004 297.523 283.796C297.875 284.588 298.667 285.908 298.315 286.876C297.963 287.844 296.907 288.988 296.907 287.052C296.907 285.116 296.731 284.676 296.731 284.676L293.387 282.916L295.323 277.372Z" fill="white" stroke="#263238" stroke-width="0.879986" stroke-miterlimit="10" stroke-linecap="round" stroke-linejoin="round"/>
<path d="M289.867 285.204C289.867 285.204 290.571 287.756 290.923 288.812C291.275 289.868 292.683 290.66 293.651 291.012C294.619 291.364 295.059 291.1 294.707 290.484C294.355 289.868 292.859 288.9 292.859 288.9L289.955 283.532V285.204H289.867Z" fill="white" stroke="#263238" stroke-width="0.879986" stroke-miterlimit="10" stroke-linecap="round" stroke-linejoin="round"/>
<path d="M311.691 235.308L303.86 232.756L300.428 248.508C300.428 248.508 295.412 259.86 294.796 264.524C294.268 268.572 292.86 274.116 292.42 275.7L290.748 278.692L289.428 284.324L291.804 288.812C291.804 288.812 293.388 289.252 294.532 289.252C295.676 289.252 295.852 288.9 295.676 288.46C295.5 288.02 294.708 287.668 294.708 287.668C294.708 287.668 296.644 287.492 296.996 286.876C297.348 286.26 295.06 285.468 295.06 285.468C295.06 285.468 296.996 285.116 296.82 284.5C296.644 283.884 294.62 283.972 294.62 283.972C294.62 283.972 296.116 280.716 296.028 276.932C297.7 274.028 306.763 258.364 306.763 256.604C306.675 254.844 311.691 235.308 311.691 235.308Z" fill="white" stroke="#263238" stroke-width="0.879986" stroke-miterlimit="10" stroke-linecap="round" stroke-linejoin="round"/>
<path d="M294.446 287.756C294.446 287.756 293.39 287.58 292.862 287.228C292.246 286.964 291.102 285.116 291.102 285.116" stroke="#263238" stroke-width="0.879986" stroke-miterlimit="10" stroke-linecap="round" stroke-linejoin="round"/>
<path d="M294.972 285.556L293.388 285.468L292.156 284.324" stroke="#263238" stroke-width="0.879986" stroke-miterlimit="10" stroke-linecap="round" stroke-linejoin="round"/>
<path d="M353.84 234.077L356.744 254.228L347.856 273.412L344.16 269.364L348.56 252.38L344.776 235.309L353.84 234.077Z" fill="white" stroke="#263238" stroke-width="0.879986" stroke-miterlimit="10" stroke-linecap="round" stroke-linejoin="round"/>
<path d="M323.043 208.909L307.203 216.301L313.803 249.916L341.347 250.708L349.618 215.421L332.811 208.645L323.043 208.909Z" fill="#263238" stroke="#263238" stroke-width="0.879986" stroke-miterlimit="10" stroke-linecap="round" stroke-linejoin="round"/>
<path d="M320.139 198.789C320.139 198.789 319.787 200.901 322.251 204.421C322.867 205.301 323.219 204.861 323.219 204.861L322.251 210.493C322.251 210.493 324.099 214.189 329.115 214.189C332.019 214.189 333.515 209.877 333.515 209.877C333.339 209.965 332.723 203.893 332.723 203.893L324.803 191.045L318.995 192.189C318.995 192.189 316.443 191.485 316.883 195.445C317.323 199.493 320.139 198.789 320.139 198.789Z" fill="white" stroke="#263238" stroke-width="0.879986" stroke-miterlimit="10" stroke-linecap="round" stroke-linejoin="round"/>
<path d="M339.677 187.965C339.677 187.965 337.389 180.133 331.757 177.581C326.125 175.029 320.053 178.725 318.029 183.653C315.917 188.581 320.141 198.789 320.141 198.789C320.141 198.789 322.693 204.597 325.773 206.005C328.765 207.413 331.757 205.125 334.573 201.341C337.301 197.645 339.941 191.661 339.677 187.965Z" fill="#263238" stroke="#263238" stroke-width="0.879986" stroke-miterlimit="10" stroke-linecap="round" stroke-linejoin="round"/>
<path d="M341.436 194.389C346.004 194.389 349.708 190.922 349.708 186.645C349.708 182.368 346.004 178.901 341.436 178.901C336.867 178.901 333.164 182.368 333.164 186.645C333.164 190.922 336.867 194.389 341.436 194.389Z" fill="#263238" stroke="#263238" stroke-width="0.879986" stroke-miterlimit="10" stroke-linecap="round" stroke-linejoin="round"/>
<path d="M307.73 291.011C307.73 291.011 310.546 318.291 310.546 326.035C310.546 333.779 311.25 346.539 311.69 352.611C312.13 358.682 313.802 367.746 313.802 367.746C313.802 367.746 312.658 367.306 312.13 369.418C311.602 371.53 311.426 371.97 309.314 372.674C307.202 373.378 305.618 374.786 306.498 375.93C307.466 377.074 312.57 377.602 316.266 378.482C319.962 379.45 320.49 378.218 320.49 375.666C320.49 373.114 320.49 368.186 320.49 368.186C320.49 368.186 323.042 328.499 323.042 327.091C323.042 325.683 324.01 292.331 324.01 292.331L307.73 291.011Z" fill="white" stroke="#263238" stroke-width="0.879986" stroke-miterlimit="10" stroke-linecap="round" stroke-linejoin="round"/>
<path d="M314.681 293.739L323.833 300.603C323.921 295.851 324.097 292.419 324.097 292.419L313.537 291.539L314.681 293.739Z" fill="#263238" stroke="#263238" stroke-width="0.879986" stroke-miterlimit="10" stroke-linecap="round" stroke-linejoin="round"/>
<path d="M316.354 378.482C320.05 379.45 320.578 378.218 320.578 375.666C320.578 373.114 320.578 368.186 320.578 368.186C317.586 366.514 316.178 371.442 315.21 371.002C314.242 370.562 313.802 367.746 313.802 367.746C313.802 367.746 312.658 367.306 312.13 369.418C311.602 371.53 311.426 371.97 309.314 372.674C307.202 373.378 305.618 374.786 306.498 375.93C307.466 377.074 312.658 377.602 316.354 378.482Z" fill="white" stroke="#263238" stroke-width="0.879986" stroke-miterlimit="10" stroke-linecap="round" stroke-linejoin="round"/>
<path d="M330.609 291.716C330.609 291.716 333.425 314.595 333.601 319.259C333.865 323.923 348.033 366.426 348.033 366.426C348.033 366.426 349.441 373.466 350.145 375.49C350.849 377.602 351.289 378.042 352.697 378.042C354.105 378.042 358.505 378.042 359.033 376.194C359.473 374.346 356.657 368.714 356.041 366.866C355.337 365.018 354.193 363.17 354.193 362.202C354.193 361.234 350.673 338.619 349.089 330.963C347.417 323.219 345.129 319.259 345.129 319.259L349.793 287.492L330.609 291.716Z" fill="white" stroke="#263238" stroke-width="0.879986" stroke-miterlimit="10" stroke-linecap="round" stroke-linejoin="round"/>
<path d="M349.089 291.715L340.817 289.427L330.609 291.627C330.609 291.627 331.049 295.411 331.665 300.251L349.001 292.683L349.089 291.715Z" fill="#263238" stroke="#263238" stroke-width="0.879986" stroke-miterlimit="10" stroke-linecap="round" stroke-linejoin="round"/>
<path d="M352.785 378.042C354.193 378.042 358.593 378.042 359.121 376.194C359.561 374.346 356.745 368.714 356.129 366.866C355.513 365.282 354.633 363.698 354.369 362.73C348.385 360.618 348.209 366.426 348.209 366.426C348.209 366.426 349.617 373.466 350.321 375.49C350.937 377.602 351.377 378.042 352.785 378.042Z" fill="white" stroke="#263238" stroke-width="0.879986" stroke-miterlimit="10" stroke-linecap="round" stroke-linejoin="round"/>
<path d="M354.458 372.41C351.466 372.674 350.498 374.082 350.234 375.49C350.938 377.514 351.378 378.042 352.786 378.042C354.194 378.042 358.594 378.042 359.122 376.194C359.298 375.578 359.122 374.61 358.77 373.554C357.802 372.762 356.394 372.322 354.458 372.41Z" fill="white" stroke="#263238" stroke-width="0.879986" stroke-miterlimit="10" stroke-linecap="round" stroke-linejoin="round"/>
<path d="M318.38 210.669C318.38 210.669 320.844 233.109 319.876 236.1C318.908 239.092 310.108 250.092 310.108 250.092L310.372 257.308C310.372 257.308 307.116 261.268 305.972 268.308C304.828 275.348 303.42 291.892 303.42 291.892C303.42 291.892 312.308 293.74 317.676 294.708C323.044 295.676 325.596 294.972 325.596 294.972L327.972 287.228L329.116 294.972C329.116 294.972 334.923 295.94 341.259 295.94C347.595 295.94 352.259 290.836 352.259 290.836C352.259 290.836 349.883 275.7 349.883 274.028C349.883 272.356 344.515 254.668 344.515 254.668L344.779 248.332C344.779 248.332 343.899 246.748 341.083 243.668C338.267 240.676 335.891 232.669 335.891 232.669L337.915 210.317L336.155 209.437L333.339 232.229L323.044 231.965L320.668 209.701L318.38 210.669Z" fill="white" stroke="#263238" stroke-width="0.879986" stroke-miterlimit="10" stroke-linecap="round" stroke-linejoin="round"/>
<path d="M319.787 259.772L340.907 256.34" stroke="#263238" stroke-width="0.879986" stroke-miterlimit="10" stroke-linecap="round" stroke-linejoin="round"/>
<path d="M318.027 256.956L324.539 255.812" stroke="#263238" stroke-width="0.879986" stroke-miterlimit="10" stroke-linecap="round" stroke-linejoin="round"/>
<path d="M327.795 287.228V282.124" stroke="#263238" stroke-width="0.879986" stroke-miterlimit="10" stroke-linecap="round" stroke-linejoin="round"/>
<path d="M323.396 281.684H332.02" stroke="#263238" stroke-width="0.879986" stroke-miterlimit="10" stroke-linecap="round" stroke-linejoin="round"/>
<path d="M307.203 216.301L300.691 233.812L313.011 237.244" fill="#263238"/>
<path d="M307.203 216.301L300.691 233.812L313.011 237.244" stroke="#263238" stroke-width="0.879986" stroke-miterlimit="10" stroke-linecap="round" stroke-linejoin="round"/>
<path d="M349.619 215.421L357.011 235.044L344.779 237.244" fill="#263238"/>
<path d="M349.619 215.421L357.011 235.044L344.779 237.244" stroke="#263238" stroke-width="0.879986" stroke-miterlimit="10" stroke-linecap="round" stroke-linejoin="round"/>
</svg>
