<svg width="437" height="393" viewBox="0 0 437 393" fill="none" xmlns="http://www.w3.org/2000/svg">
<g clip-path="url(#clip0_281_1794)">
<path d="M398.369 136.458C384.359 106.256 363.344 79.3278 343.694 52.4C314.765 12.8271 235.71 -13.7368 171.848 16.6479C107.985 47.0326 114.081 96.5215 94.2486 136.003C74.5077 175.576 17.4681 214.422 9.09863 254.722C-3.81943 316.765 5.9146 360.341 78.3285 386.268C133.276 405.918 192.681 368.801 246.354 359.613C282.015 353.518 320.951 358.158 355.248 343.875C397.368 326.317 411.56 272.553 414.926 231.069C416.472 212.238 415.381 193.225 411.469 174.849C408.649 161.385 404.1 148.649 398.369 136.458Z" fill="#FD6C03"/>
<path opacity="0.7" d="M398.369 136.458C384.359 106.256 363.344 79.3278 343.694 52.4C314.765 12.8271 235.71 -13.7368 171.848 16.6479C107.985 47.0326 114.081 96.5215 94.2486 136.003C74.5077 175.576 17.4681 214.422 9.09863 254.722C-3.81943 316.765 5.9146 360.341 78.3285 386.268C133.276 405.918 192.681 368.801 246.354 359.613C282.015 353.518 320.951 358.158 355.248 343.875C397.368 326.317 411.56 272.553 414.926 231.069C416.472 212.238 415.381 193.225 411.469 174.849C408.649 161.385 404.1 148.649 398.369 136.458Z" fill="white"/>
<g opacity="0.2">
<path opacity="0.2" d="M382.811 38.1174H259.18C255.45 38.1174 252.539 35.1153 252.539 31.4764V28.1104C252.539 24.3806 255.541 21.4695 259.18 21.4695H382.811C386.541 21.4695 389.452 24.4715 389.452 28.1104V31.4764C389.543 35.1153 386.541 38.1174 382.811 38.1174Z" stroke="black" stroke-width="0.909722" stroke-miterlimit="10" stroke-linejoin="round"/>
<path opacity="0.2" d="M368.438 25.2903V33.1139" stroke="black" stroke-width="0.454861" stroke-miterlimit="10" stroke-linejoin="round"/>
<g opacity="0.2">
<path opacity="0.2" d="M362.341 25.2903L354.973 32.6591" stroke="black" stroke-width="0.909722" stroke-miterlimit="10" stroke-linejoin="round"/>
<path opacity="0.2" d="M354.973 25.2903L362.341 32.6591" stroke="black" stroke-width="0.909722" stroke-miterlimit="10" stroke-linejoin="round"/>
</g>
<g opacity="0.2">
<path opacity="0.2" d="M381.263 32.841C381.081 33.1139 380.627 33.1139 380.354 32.932L377.352 30.2028L377.897 29.475L381.172 31.9313C381.445 32.2042 381.445 32.5681 381.263 32.841Z" fill="#263238" stroke="black" stroke-width="0.909722" stroke-miterlimit="10" stroke-linejoin="round"/>
<path opacity="0.2" d="M373.53 26.4729C372.53 27.6556 372.712 29.475 373.894 30.4757C375.077 31.4764 376.896 31.2945 377.897 30.1118C378.898 28.9292 378.716 27.1098 377.533 26.1091C376.26 25.1084 374.531 25.1993 373.53 26.4729ZM377.533 29.8389C376.714 30.8396 375.168 31.0216 374.076 30.2028C373.076 29.3841 372.894 27.8375 373.712 26.7459C374.531 25.7452 376.078 25.5632 377.169 26.382C378.261 27.2007 378.443 28.7472 377.533 29.8389Z" stroke="black" stroke-width="0.909722" stroke-miterlimit="10" stroke-linejoin="round"/>
</g>
</g>
<path d="M125.998 51.6722C124.816 53.1278 122.723 53.2187 121.359 52.0361L106.621 38.6632C107.258 38.1173 107.804 37.5715 108.35 36.9347C108.895 36.2979 109.35 35.6611 109.714 34.9333L125.452 47.0326C126.908 48.1243 127.181 50.2167 125.998 51.6722Z" stroke="#CCCCCC" stroke-width="0.909722" stroke-miterlimit="10" stroke-linejoin="round"/>
<path d="M106.256 15.9201C108.075 17.3757 109.531 19.1951 110.441 21.2875C112.988 27.0187 111.441 34.2965 106.802 38.4812C102.162 42.6659 94.7935 43.4847 89.3352 40.3007C83.6949 37.0257 80.6018 29.8389 82.3303 23.5618C83.8768 17.7395 89.2442 13.1 95.2484 12.4632C99.1602 12.0993 103.163 13.4639 106.256 15.9201ZM106.62 35.5701C102.162 41.0284 94.0657 41.7562 88.6074 37.2986C83.1491 32.75 82.4213 24.7444 86.8789 19.2861C91.4275 13.8277 99.4331 13.1 104.891 17.5576C110.35 22.0152 111.168 30.1118 106.62 35.5701Z" stroke="#CCCCCC" stroke-width="0.909722" stroke-miterlimit="10" stroke-linejoin="round"/>
<path d="M341.693 381.174C340.692 380.082 340.783 378.353 341.875 377.444L354.065 367.073C354.429 367.619 354.793 368.165 355.248 368.619C355.703 369.074 356.158 369.529 356.704 369.893L345.423 381.265C344.422 382.265 342.694 382.265 341.693 381.174Z" stroke="#CCCCCC" stroke-width="0.909722" stroke-miterlimit="10" stroke-linejoin="round"/>
<path d="M372.35 369.165C370.985 370.439 369.439 371.44 367.619 371.894C362.798 373.35 357.157 371.349 354.246 367.164C351.335 362.979 351.517 356.975 354.61 352.972C357.794 348.788 363.889 347.15 368.711 349.151C373.168 350.971 376.352 355.701 376.17 360.614C376.17 363.889 374.624 366.982 372.35 369.165ZM356.611 367.437C352.7 363.252 352.973 356.793 357.157 352.881C361.342 348.969 367.892 349.242 371.713 353.427C375.625 357.612 375.352 364.162 371.167 367.983C366.982 371.803 360.523 371.622 356.611 367.437Z" stroke="#CCCCCC" stroke-width="0.909722" stroke-miterlimit="10" stroke-linejoin="round"/>
<g opacity="0.2">
<path opacity="0.2" d="M67.2291 347.241L46.3965 368.165" stroke="black" stroke-width="0.909722" stroke-miterlimit="10" stroke-linejoin="round"/>
<path opacity="0.2" d="M46.3965 347.241L67.2291 368.165" stroke="black" stroke-width="0.909722" stroke-miterlimit="10" stroke-linejoin="round"/>
</g>
<g opacity="0.2">
<path opacity="0.2" d="M415.653 150.741L394.82 171.665" stroke="black" stroke-width="0.909722" stroke-miterlimit="10" stroke-linejoin="round"/>
<path opacity="0.2" d="M394.82 150.741L415.653 171.665" stroke="black" stroke-width="0.909722" stroke-miterlimit="10" stroke-linejoin="round"/>
</g>
<g opacity="0.2">
<path opacity="0.2" d="M34.4791 31.5674L13.6465 52.491" stroke="black" stroke-width="0.909722" stroke-miterlimit="10" stroke-linejoin="round"/>
<path opacity="0.2" d="M13.6465 31.5674L34.4791 52.491" stroke="black" stroke-width="0.909722" stroke-miterlimit="10" stroke-linejoin="round"/>
</g>
<path d="M53.4017 163.568C53.4926 163.568 52.6739 160.111 52.5829 159.929C51.6732 157.473 48.4892 153.197 45.5781 153.288C43.4857 153.379 42.1211 155.381 42.394 157.382C42.667 159.474 44.5774 161.112 46.3058 162.113C48.3072 163.113 53.4017 163.568 53.4017 163.568Z" fill="#263238"/>
<path d="M58.3146 139.824C55.5855 140.916 54.4028 146.101 54.5848 148.649C54.5848 148.831 55.2216 152.378 55.3125 152.378C55.3125 152.378 55.3125 152.378 55.4035 152.378C55.2216 153.197 55.0396 154.107 54.7667 155.017C54.4028 156.836 54.0389 158.838 53.766 161.021C53.4931 163.204 53.2202 165.66 53.2202 168.208C53.2202 170.755 53.3112 173.484 53.766 176.213V176.304C53.4021 175.576 52.2195 173.393 52.1285 173.302C50.582 171.119 46.3973 167.935 43.6681 168.753C41.6667 169.39 40.848 171.665 41.6667 173.484C42.4855 175.394 44.7598 176.486 46.6702 177.032C48.8535 177.578 53.4931 176.668 53.857 176.577C54.3119 179.215 55.0396 181.853 55.8584 184.492C56.3132 186.038 56.8591 187.494 57.4049 189.04C57.041 188.403 56.7681 187.767 56.6771 187.767C55.1306 185.583 50.9459 182.399 48.2167 183.218C46.2153 183.855 45.3966 186.129 46.2153 187.949C47.0341 189.859 49.3084 190.951 51.2188 191.497C53.1292 191.951 57.223 191.315 58.2237 191.133C58.4056 191.678 58.6785 192.315 58.8605 192.861C59.9521 195.59 60.9528 198.41 61.9535 201.14C62.3174 202.14 62.5903 203.05 62.8632 204.051C62.5903 203.505 62.3174 202.959 62.2264 202.959C60.6799 200.776 56.4952 197.592 53.766 198.41C51.7646 199.047 50.9459 201.322 51.7646 203.141C52.5834 205.051 54.8577 206.143 56.7681 206.689C58.5875 207.144 62.3174 206.598 63.591 206.325C63.8639 207.326 64.1369 208.326 64.4098 209.327C64.5917 209.964 64.7737 210.601 64.8646 211.328C64.9556 211.965 65.1375 212.693 65.2285 213.33C65.4105 214.603 65.5924 215.968 65.7744 217.151C65.8653 218.06 65.9563 218.879 66.0473 219.698C65.6834 218.697 65.0466 216.878 64.9556 216.696C64.1369 215.149 62.3174 212.875 60.316 211.692C60.225 211.419 60.0431 211.238 59.9521 211.056C58.7695 209.418 56.4042 208.963 54.8577 210.419C52.6743 212.42 53.4021 217.697 54.4938 220.062C54.5848 220.244 55.4035 221.608 56.0403 222.518C55.5855 222.063 55.2216 221.608 54.7667 221.063C53.948 220.062 53.0382 219.152 52.1285 218.151C51.6737 217.697 51.2188 217.151 50.673 216.696C50.2181 216.241 49.6723 215.786 49.1264 215.24C47.9438 214.149 46.6702 213.057 45.3056 212.056C46.1243 211.328 49.1264 208.599 49.9452 206.871C50.7639 205.051 51.3098 202.595 50.3091 200.776C49.3084 198.956 47.125 198.228 45.3056 199.411C42.8493 201.049 42.7584 206.325 43.4862 208.872C43.4862 209.054 44.2139 210.783 44.6688 211.692C43.85 211.056 43.1223 210.419 42.3035 209.873C39.9382 208.144 37.482 206.507 35.0257 204.778C34.298 204.233 33.5702 203.778 32.7514 203.232C33.0243 202.959 36.6632 199.866 37.573 197.865C38.3917 196.045 38.9375 193.589 37.9369 191.769C36.9362 189.95 34.7528 189.222 32.9334 190.405C30.4771 192.042 30.3862 197.319 31.1139 199.866C31.2049 200.048 32.2056 202.595 32.4785 203.232C30.841 202.14 29.2035 200.958 27.657 199.775C25.4737 198.138 23.4723 196.409 21.6528 194.59C21.8348 194.499 25.5646 191.224 26.4743 189.131C27.2931 187.312 27.8389 184.856 26.8382 183.036C25.8375 181.217 23.6542 180.489 21.8348 181.672C19.3785 183.309 19.2875 188.585 20.0153 191.133C20.1063 191.315 21.198 194.044 21.4709 194.499C21.3799 194.408 21.198 194.317 21.107 194.135C19.1966 192.133 17.5591 190.041 16.1035 187.949C15.2848 186.766 14.557 185.492 13.9202 184.31C14.648 183.764 18.1959 181.308 19.1966 179.579C20.1973 177.942 21.016 175.485 20.2882 173.575C19.5605 171.665 17.3771 170.664 15.4667 171.665C12.8285 173.029 12.1917 178.306 12.6466 180.853C12.6466 181.035 13.1014 182.399 13.3744 183.4C13.1014 182.854 12.7375 182.308 12.4646 181.763C11.4639 179.761 10.6452 177.942 9.91741 176.304C9.55352 175.394 9.18963 174.485 8.82574 173.666C9.2806 172.756 11.191 169.026 11.282 167.025C11.373 165.115 11.0091 162.567 9.46254 161.203C7.91602 159.838 5.55074 159.929 4.27713 161.658C2.63963 164.023 4.45907 169.026 6.0056 171.119C6.18754 171.301 8.6438 173.848 8.6438 173.848C8.6438 173.848 8.6438 173.848 8.6438 173.757C8.91671 174.576 9.2806 175.394 9.64449 176.304C10.2813 177.942 11.1 179.852 12.1007 181.853C13.1014 183.855 14.1931 186.038 15.6487 188.131C17.0132 190.314 18.6507 192.497 20.5612 194.499C20.5612 194.499 20.6521 194.499 20.6521 194.59C19.9244 194.135 17.741 193.043 17.5591 192.952C15.1028 192.042 9.82643 191.588 8.00699 193.862C6.64241 195.499 7.27921 197.865 8.91671 198.956C10.6452 200.139 13.1924 199.775 15.0119 199.138C17.1042 198.41 20.5612 195.044 20.8341 194.772C22.6535 196.682 24.7459 198.592 26.9292 200.321C28.2028 201.322 29.4764 202.322 30.75 203.232C30.1132 202.868 29.4764 202.595 29.3855 202.504C26.9292 201.594 21.6528 201.14 19.8334 203.414C18.4688 205.051 19.1056 207.417 20.7431 208.508C22.4716 209.691 25.0188 209.327 26.8382 208.69C28.7487 208.053 31.7507 205.233 32.4785 204.506C33.0244 204.869 33.4792 205.233 34.025 205.597C36.4813 207.326 38.8466 209.054 41.2118 210.783C42.0306 211.419 42.8493 212.056 43.5771 212.693C43.0313 212.42 42.4855 212.147 42.3945 212.056C39.9382 211.147 34.6618 210.692 32.8424 212.966C31.4778 214.603 32.1146 216.969 33.7521 218.06C35.4806 219.243 38.0278 218.879 39.8473 218.242C41.6667 217.606 44.3959 215.058 45.3966 214.149C46.2153 214.785 46.9431 215.513 47.6709 216.15C48.1257 216.605 48.6716 217.06 49.1264 217.606C49.5813 218.06 50.0362 218.606 50.491 219.061C51.3098 220.062 52.2195 221.063 53.0382 221.972C53.5841 222.609 54.1299 223.246 54.6757 223.974C53.857 223.337 52.2195 222.154 52.1285 222.063C49.8542 220.79 44.6688 219.516 42.4855 221.517C40.9389 222.973 41.1209 225.338 42.6674 226.703C44.2139 228.067 46.7612 228.158 48.6716 227.794C50.7639 227.431 54.5848 224.792 55.0396 224.428C55.9493 225.52 56.7681 226.521 57.5868 227.613C58.5875 228.977 59.5882 230.16 60.407 231.342C60.9528 231.251 61.6806 231.16 62.4084 230.978C61.4077 229.614 60.225 228.158 58.9514 226.521C58.0417 225.429 57.132 224.247 56.0403 223.064C56.3132 222.791 57.6778 221.153 58.6785 219.516C60.7709 220.244 65.0466 220.153 65.5924 220.153C65.7743 221.517 65.8653 222.882 65.9563 224.156C66.1382 226.339 66.2292 228.34 66.3202 230.16C66.957 230.069 67.5028 229.887 68.1396 229.705C68.0487 227.976 67.8667 226.066 67.6848 223.974C67.5938 222.609 67.4118 221.063 67.2299 219.516C67.7757 219.334 72.2334 218.06 73.8709 216.696C75.3264 215.422 76.873 213.421 76.782 211.328C76.691 209.327 74.9625 207.599 72.8702 207.963C69.9591 208.417 67.6848 213.239 67.3209 215.786C67.3209 215.968 67.2299 217.606 67.2299 218.697C67.1389 218.06 67.048 217.424 66.957 216.787C66.775 215.513 66.5931 214.24 66.3202 212.875C66.2292 212.238 66.0473 211.51 65.9563 210.874C65.8653 210.237 65.5924 209.509 65.5014 208.872C65.1375 207.326 64.5917 205.688 64.0459 204.142C65.1375 203.96 69.1403 203.414 70.7778 202.322C72.4153 201.322 74.2348 199.502 74.5077 197.41C74.6896 195.408 73.2341 193.498 71.1417 193.498C68.2306 193.498 65.2285 197.865 64.4098 200.412C64.3188 200.594 64.0459 202.413 63.8639 203.414C63.5 202.504 63.2271 201.503 62.8632 200.594C61.8625 197.865 60.6799 195.135 59.5882 192.315C59.2243 191.497 58.9514 190.678 58.5875 189.768C58.9514 189.677 63.682 189.131 65.5924 187.949C67.2299 186.948 69.0493 185.128 69.3223 183.036C69.5042 181.035 68.0487 179.124 65.9563 179.124C63.0452 179.124 60.0431 183.491 59.2243 186.038C59.1334 186.22 58.6785 188.858 58.5875 189.586C57.8598 187.767 57.132 185.856 56.4952 184.037C55.5855 181.49 54.8577 178.942 54.4028 176.395C54.5848 176.395 59.4973 175.758 61.4077 174.576C63.0452 173.575 64.8646 171.756 65.1375 169.663C65.3195 167.662 63.8639 165.751 61.7716 165.751C58.8605 165.751 55.8584 170.118 55.0396 172.665C54.9487 172.847 54.4028 175.758 54.4028 176.304C54.4028 176.122 54.3119 176.031 54.3119 175.849C53.766 173.12 53.675 170.482 53.5841 167.935C53.5841 166.479 53.5841 165.024 53.766 163.659C54.6757 163.659 58.9514 163.477 60.7709 162.658C62.4994 161.84 64.5917 160.293 64.9556 158.201C65.3195 156.199 64.1368 154.198 62.0445 153.925C59.1334 153.652 55.6764 157.655 54.5848 160.02C54.4938 160.111 54.1299 161.567 53.766 162.567C53.857 161.931 53.857 161.294 53.948 160.748C54.1299 158.565 54.4938 156.563 54.8577 154.744C55.0396 153.743 55.2216 152.833 55.4035 152.015C56.3132 151.56 59.9521 149.467 61.1348 147.83C62.3174 146.283 63.4091 143.918 62.7723 141.917C62.3174 140.279 60.316 139.097 58.3146 139.824Z" fill="#263238"/>
<path d="M6.82428 186.857C9.09859 186.675 13.6472 184.219 13.6472 184.219C13.7382 184.219 11.1 181.763 10.918 181.581C8.82567 180.034 3.8222 178.215 1.45692 179.943C-0.271553 181.217 -0.362525 183.582 1.00206 185.128C2.27567 186.675 4.82289 187.039 6.82428 186.857Z" fill="#263238"/>
<path d="M204.053 44.5764C204.053 44.6674 206.6 41.3924 206.691 41.2104C208.237 38.6632 209.693 32.841 207.51 30.2938C205.963 28.4743 203.234 28.6563 201.596 30.3847C199.959 32.1132 199.868 35.0243 200.232 37.2076C200.687 39.6639 204.053 44.5764 204.053 44.5764Z" fill="#263238"/>
<path d="M228.524 31.8403C225.613 30.2028 220.155 32.841 217.972 34.8424C217.79 35.0243 215.151 38.1174 215.151 38.1174H215.242C214.424 38.5722 213.423 38.9361 212.513 39.482C210.694 40.4827 208.601 41.5743 206.509 42.8479C204.326 44.2125 202.051 45.6681 199.777 47.4875C197.503 49.307 195.138 51.3083 193.045 53.7646C193.045 53.7646 193.045 53.8556 192.954 53.8556C193.318 52.9458 194.41 50.3986 194.41 50.2167C195.229 47.3056 195.138 41.3014 192.317 39.482C190.316 38.1174 187.769 39.0271 186.677 41.1195C185.585 43.2118 186.222 46.032 187.132 48.0333C188.224 50.3076 192.317 53.8556 192.681 54.1285C190.68 56.4028 188.86 58.95 187.041 61.5882C186.04 63.1347 185.131 64.6813 184.13 66.2278C184.494 65.409 184.767 64.7722 184.767 64.6813C185.585 61.7701 185.494 55.766 182.674 53.9465C180.673 52.582 178.126 53.4917 177.034 55.584C175.942 57.6764 176.579 60.4965 177.489 62.4979C178.49 64.5903 181.947 67.6833 182.856 68.4111C182.492 69.0479 182.129 69.5938 181.765 70.2306C180.036 73.1417 178.399 76.0528 176.67 78.8729C176.033 79.8736 175.397 80.7833 174.76 81.784C175.033 81.0563 175.306 80.5104 175.306 80.4194C176.124 77.5083 176.033 71.5042 173.213 69.6847C171.212 68.3201 168.665 69.2299 167.573 71.3222C166.481 73.4146 167.118 76.2347 168.028 78.2361C168.938 80.2375 172.122 83.0576 173.213 84.0583C172.576 85.059 171.849 85.9688 171.121 86.8785C170.666 87.5153 170.211 88.0611 169.665 88.6979C169.119 89.2438 168.665 89.8806 168.119 90.4264C167.118 91.5181 166.117 92.6097 165.117 93.6104C164.389 94.3382 163.752 94.975 163.024 95.7028C163.661 94.7021 164.844 92.7917 164.935 92.6097C165.754 90.7903 166.39 87.5153 165.935 84.8771C166.026 84.6042 166.117 84.3313 166.208 84.0583C166.754 81.784 165.481 79.4188 163.115 79.0549C159.84 78.6 155.656 82.9667 154.382 85.6958C154.291 85.8778 153.654 87.6972 153.29 88.7889C153.381 88.0611 153.563 87.4243 153.654 86.6965C153.927 85.241 154.109 83.7854 154.382 82.2389C154.473 81.5111 154.564 80.6924 154.655 79.9646C154.746 79.2368 154.746 78.4181 154.837 77.5993C154.928 75.7799 154.928 73.8694 154.928 71.959C156.201 72.141 160.75 72.8688 162.842 72.3229C165.026 71.7771 167.573 70.5035 168.483 68.3201C169.392 66.2278 168.483 63.5896 166.117 62.9528C162.933 61.9521 158.203 65.682 156.474 68.1382C156.383 68.3201 155.383 70.2306 154.837 71.2313C154.837 70.0486 154.746 68.9569 154.746 67.7743C154.564 64.4083 154.291 61.0424 154.018 57.6764C153.927 56.6757 153.836 55.584 153.745 54.5833C154.2 54.6743 159.567 55.584 162.024 55.0382C164.207 54.4924 166.754 53.2188 167.664 51.0354C168.574 48.9431 167.664 46.3049 165.299 45.6681C162.115 44.6674 157.384 48.3972 155.656 50.8535C155.565 51.0354 154.018 53.7646 153.745 54.4924C153.563 52.2181 153.381 49.9438 153.381 47.7604C153.29 44.6674 153.381 41.6653 153.654 38.7542C153.836 38.7542 159.476 39.8458 161.933 39.209C164.116 38.6632 166.663 37.3896 167.573 35.2063C168.483 33.1139 167.573 30.4757 165.208 29.8389C162.024 28.8382 157.293 32.5681 155.565 35.0243C155.474 35.2063 153.836 38.1174 153.563 38.7542C153.563 38.5722 153.563 38.3903 153.563 38.2083C153.927 35.1153 154.655 32.1132 155.474 29.384C155.929 27.7465 156.474 26.291 157.111 24.8354C158.112 25.1083 162.842 26.4729 165.117 26.109C167.3 25.8361 170.029 24.7445 171.212 22.7431C172.304 20.7417 171.667 18.1035 169.483 17.1028C166.39 15.7382 161.296 19.0132 159.295 21.1965C159.204 21.2875 158.203 22.6521 157.566 23.6528C157.839 23.016 158.112 22.2882 158.385 21.7424C159.385 19.3771 160.477 17.3757 161.387 15.5563C161.933 14.5556 162.479 13.6458 162.933 12.7361C164.116 12.4632 168.756 11.5535 170.575 10.1889C172.394 8.91529 174.305 6.73195 174.396 4.36668C174.487 2.09237 172.667 8.40425e-06 170.302 0.181953C166.936 0.45487 163.934 5.64029 163.206 8.5514C163.115 8.82431 162.66 12.8271 162.66 12.8271H162.751C162.297 13.6458 161.751 14.5556 161.205 15.4653C160.204 17.2847 159.113 19.2861 158.021 21.6514C156.929 23.9257 155.838 26.4729 155.019 29.2931C154.109 32.1132 153.29 35.0243 152.835 38.2083V38.2993C152.654 37.2986 152.108 34.6604 152.108 34.4785C151.198 31.6583 147.741 26.6549 144.466 26.6549C142.01 26.6549 140.372 28.8382 140.645 31.1125C140.918 33.4778 143.01 35.4792 144.921 36.6618C147.104 37.9354 152.472 38.6632 152.926 38.6632C152.563 41.6653 152.381 44.8493 152.381 48.0333C152.381 49.8528 152.472 51.6722 152.563 53.4917C152.381 52.6729 152.29 51.9451 152.199 51.8542C151.289 49.034 147.832 44.0306 144.557 44.0306C142.101 44.0306 140.463 46.2139 140.736 48.4882C141.009 50.8535 143.101 52.8549 145.012 54.0375C146.922 55.2201 151.562 55.857 152.744 56.0389C152.744 56.7667 152.835 57.4035 152.835 58.1313C153.017 61.4972 153.29 64.8632 153.381 68.2292C153.381 69.4118 153.381 70.5035 153.381 71.6861C153.199 70.9583 153.108 70.3215 153.108 70.2306C152.199 67.4104 148.742 62.4069 145.467 62.4069C143.101 62.4069 141.373 64.5903 141.646 66.8646C141.919 69.2299 144.011 71.2313 145.922 72.4139C147.741 73.5056 152.017 74.1424 153.472 74.4153C153.472 75.5979 153.381 76.7806 153.29 77.8722C153.199 78.691 153.199 79.4188 153.108 80.1465C153.017 80.8743 152.926 81.6931 152.835 82.4208C152.563 83.8764 152.381 85.3319 152.108 86.7875C151.926 87.7882 151.744 88.6979 151.562 89.6076C151.562 88.425 151.471 86.1507 151.38 85.9688C150.925 83.0576 148.287 77.5993 145.012 77.0535C142.647 76.6896 140.645 78.6 140.554 80.8743C140.463 83.2396 142.192 85.5139 143.92 86.9694C145.831 88.516 150.834 89.9715 151.471 90.1535C151.107 91.7 150.834 93.2465 150.47 94.6111C150.015 96.4306 149.56 98.159 149.197 99.7965C149.651 100.251 150.288 100.706 151.016 101.343C151.471 99.4326 151.926 97.3403 152.472 95.066C152.835 93.5194 153.108 91.791 153.472 90.0625C153.927 90.0625 156.292 90.1535 158.567 89.8806C159.385 92.2458 162.569 95.9757 163.024 96.4306C161.933 97.5222 160.75 98.6139 159.749 99.6146C157.93 101.343 156.201 102.89 154.655 104.254C155.201 104.709 155.747 105.164 156.383 105.619C157.839 104.254 159.385 102.799 161.114 101.07C162.297 99.9785 163.479 98.7049 164.662 97.4313C165.208 97.7951 169.483 100.797 171.94 101.252C174.123 101.616 177.034 101.525 178.763 99.9785C180.491 98.432 180.673 95.7028 178.944 94.0653C176.488 91.882 170.575 93.2465 168.028 94.7931C167.846 94.884 166.299 96.0667 165.39 96.7944C165.845 96.2486 166.39 95.7938 166.845 95.2479C167.846 94.1562 168.847 93.0646 169.847 91.882C170.302 91.3361 170.848 90.6993 171.303 90.0625C171.849 89.5167 172.304 88.7889 172.758 88.1521C173.85 86.6965 174.942 85.059 175.942 83.5125C176.852 84.4222 180.218 87.5153 182.401 88.2431C184.494 88.9708 187.405 89.3347 189.406 87.9701C191.317 86.6965 191.954 84.0583 190.407 82.1479C188.315 79.6007 182.22 80.0556 179.49 81.1472C179.308 81.2382 177.398 82.2389 176.397 82.7847C177.034 81.784 177.58 80.8743 178.217 79.8736C179.854 76.9625 181.492 74.0514 183.129 71.0493C183.584 70.1396 184.13 69.2299 184.676 68.3201C185.04 68.5931 188.951 72.4139 191.317 73.2326C193.409 73.9604 196.32 74.3243 198.322 72.9597C200.232 71.6861 200.869 69.0479 199.322 67.1375C197.23 64.5903 191.135 65.0451 188.406 66.1368C188.224 66.2278 185.495 67.6833 184.767 68.1382C185.858 66.1368 187.041 64.2264 188.224 62.316C189.861 59.6778 191.59 57.2215 193.5 54.9472C193.682 55.1292 197.776 59.041 200.141 59.8597C202.233 60.5875 205.145 60.9514 207.146 59.5868C209.056 58.3132 209.693 55.675 208.147 53.7646C206.054 51.2174 199.959 51.6722 197.23 52.7639C197.048 52.8549 194.046 54.4014 193.591 54.7653C193.682 54.6743 193.773 54.4924 193.955 54.3104C195.956 51.9451 198.231 49.8528 200.505 48.0333C201.779 46.9417 203.052 46.032 204.326 45.1222C205.054 45.941 208.238 49.5799 210.33 50.5806C212.331 51.5813 215.151 52.2181 217.244 51.1264C219.336 50.0347 220.246 47.4875 218.881 45.4861C217.062 42.666 211.058 42.484 208.147 43.3028C207.965 43.3028 206.418 43.9396 205.326 44.3945C205.872 44.0306 206.509 43.5757 207.055 43.2118C209.147 41.8472 211.149 40.6646 212.968 39.6639C213.969 39.1181 214.969 38.6632 215.788 38.2083C216.88 38.6632 221.247 40.3917 223.612 40.3007C225.886 40.2097 228.706 39.482 229.98 37.5715C230.981 35.7521 230.617 33.0229 228.524 31.8403Z" fill="#263238"/>
<path d="M149.925 20.0139C151.745 21.9243 157.203 24.1076 157.203 24.1076C157.294 24.1076 157.567 20.1049 157.567 19.8319C157.476 16.8299 155.474 11.1896 152.199 10.2799C149.834 9.64306 147.742 11.2806 147.287 13.5549C146.923 15.9201 148.379 18.3764 149.925 20.0139Z" fill="#263238"/>
<path d="M413.471 248.536C413.471 248.536 415.291 246.171 415.382 246.08C416.474 244.169 417.565 239.894 416.019 237.983C414.836 236.619 412.835 236.801 411.652 238.074C410.469 239.348 410.378 241.531 410.651 243.078C411.015 244.988 413.471 248.536 413.471 248.536Z" fill="#263238"/>
<path d="M431.483 239.166C429.3 237.983 425.297 239.894 423.751 241.44C423.569 241.531 421.658 243.806 421.658 243.897C421.658 243.897 421.658 243.897 421.749 243.897C421.113 244.169 420.476 244.533 419.748 244.897C418.383 245.625 416.928 246.444 415.29 247.444C413.744 248.445 412.015 249.537 410.287 250.901C408.558 252.266 406.921 253.722 405.374 255.541C405.374 255.541 405.374 255.541 405.283 255.632C405.556 254.995 406.375 253.085 406.375 252.994C407.012 250.901 406.921 246.444 404.828 245.079C403.373 244.078 401.463 244.806 400.644 246.262C399.825 247.808 400.28 249.901 401.008 251.356C401.826 252.994 404.828 255.632 405.101 255.814C403.646 257.542 402.281 259.362 401.008 261.363C400.28 262.455 399.552 263.638 398.915 264.82C399.188 264.274 399.37 263.728 399.37 263.637C400.007 261.545 399.916 257.088 397.824 255.723C396.368 254.722 394.458 255.45 393.639 256.906C392.82 258.452 393.275 260.544 394.003 262C394.731 263.547 397.278 265.821 398.006 266.367C397.733 266.822 397.46 267.276 397.187 267.731C395.913 269.915 394.731 272.007 393.457 274.099C393.002 274.827 392.547 275.555 392.092 276.283C392.274 275.737 392.456 275.373 392.456 275.282C393.093 273.19 393.002 268.732 390.91 267.367C389.454 266.367 387.544 267.094 386.725 268.55C385.906 270.097 386.361 272.189 387.089 273.644C387.726 275.1 390.091 277.192 390.91 277.92C390.455 278.648 389.909 279.376 389.363 280.012C388.999 280.467 388.726 280.922 388.272 281.377C387.908 281.832 387.544 282.196 387.18 282.651C386.452 283.469 385.724 284.288 384.906 285.016C384.36 285.562 383.905 286.017 383.359 286.562C383.814 285.835 384.633 284.379 384.724 284.288C385.36 282.924 385.815 280.558 385.451 278.648C385.542 278.466 385.633 278.284 385.633 278.011C386.088 276.374 385.088 274.554 383.359 274.372C380.903 274.008 377.901 277.283 376.9 279.285C376.809 279.376 376.354 280.74 376.081 281.559C376.172 281.013 376.263 280.558 376.354 280.012C376.536 278.921 376.718 277.92 376.9 276.738C376.991 276.192 376.991 275.646 377.082 275.009C377.173 274.463 377.173 273.826 377.173 273.281C377.264 271.916 377.264 270.551 377.264 269.096C378.174 269.278 381.54 269.733 383.086 269.369C384.724 269.005 386.634 268.004 387.271 266.367C387.908 264.82 387.271 262.91 385.542 262.364C383.177 261.636 379.72 264.365 378.447 266.185C378.356 266.276 377.628 267.731 377.173 268.459C377.173 267.64 377.173 266.731 377.082 265.912C376.9 263.456 376.718 260.999 376.536 258.452C376.445 257.724 376.445 256.906 376.354 256.178C376.718 256.269 380.63 256.906 382.449 256.451C384.087 256.087 385.997 255.086 386.634 253.449C387.271 251.902 386.634 249.992 384.906 249.446C382.54 248.718 379.083 251.447 377.81 253.267C377.719 253.358 376.627 255.45 376.354 255.905C376.263 254.267 376.081 252.539 376.081 250.901C375.99 248.627 376.081 246.353 376.354 244.26C376.536 244.26 380.63 245.079 382.449 244.533C384.087 244.169 385.997 243.169 386.634 241.531C387.271 239.985 386.634 238.074 384.906 237.528C382.54 236.801 379.083 239.53 377.81 241.349C377.719 241.531 376.536 243.624 376.354 244.078C376.354 243.987 376.354 243.806 376.354 243.715C376.627 241.44 377.173 239.257 377.81 237.165C378.174 235.982 378.538 234.89 378.992 233.799C379.72 233.981 383.177 234.981 384.906 234.708C386.543 234.435 388.544 233.708 389.363 232.252C390.182 230.797 389.727 228.795 388.09 228.067C385.815 227.067 382.085 229.432 380.63 231.069C380.539 231.16 379.811 232.161 379.356 232.889C379.538 232.434 379.72 231.888 379.902 231.433C380.63 229.705 381.449 228.158 382.085 226.885C382.449 226.157 382.904 225.429 383.268 224.792C384.087 224.61 387.544 223.883 388.908 222.882C390.273 221.972 391.728 220.335 391.728 218.606C391.819 216.878 390.455 215.422 388.726 215.513C386.27 215.695 383.996 219.516 383.45 221.699C383.45 221.881 382.995 224.883 383.086 224.883C383.086 224.883 383.086 224.883 383.177 224.883C382.813 225.52 382.449 226.157 381.994 226.885C381.267 228.249 380.448 229.705 379.629 231.433C378.81 233.162 378.083 234.981 377.355 237.074C376.718 239.166 376.081 241.349 375.717 243.624V243.715C375.626 242.987 375.172 240.985 375.172 240.894C374.535 238.802 371.988 235.163 369.531 235.163C367.712 235.163 366.529 236.801 366.711 238.438C366.893 240.167 368.44 241.622 369.804 242.532C371.351 243.533 375.353 243.988 375.717 243.988C375.444 246.171 375.353 248.536 375.353 250.901C375.353 252.266 375.444 253.631 375.444 254.904C375.353 254.267 375.172 253.722 375.172 253.631C374.535 251.538 371.988 247.899 369.531 247.899C367.712 247.899 366.529 249.537 366.711 251.174C366.893 252.903 368.44 254.358 369.804 255.268C371.26 256.178 374.626 256.633 375.535 256.724C375.535 257.269 375.626 257.724 375.626 258.27C375.808 260.726 375.899 263.274 375.99 265.639C375.99 266.458 375.99 267.367 375.99 268.186C375.899 267.64 375.808 267.185 375.808 267.094C375.172 265.002 372.624 261.363 370.168 261.363C368.349 261.363 367.166 263.001 367.348 264.638C367.53 266.367 369.076 267.822 370.441 268.732C371.806 269.551 374.899 270.006 375.99 270.188C375.99 271.097 375.899 271.916 375.899 272.735C375.808 273.281 375.808 273.826 375.717 274.463C375.626 275.009 375.535 275.555 375.535 276.192C375.353 277.283 375.172 278.375 374.99 279.376C374.899 280.103 374.717 280.74 374.535 281.468C374.535 280.649 374.444 278.921 374.444 278.83C374.08 276.647 372.169 272.644 369.713 272.28C367.985 272.007 366.529 273.372 366.438 275.1C366.347 276.828 367.621 278.557 368.894 279.558C370.259 280.74 373.989 281.832 374.444 281.923C374.171 283.106 373.989 284.197 373.716 285.198C373.352 286.562 373.079 287.836 372.806 289.019C373.17 289.292 373.625 289.747 374.08 290.11C374.444 288.746 374.808 287.199 375.172 285.471C375.444 284.288 375.626 283.106 375.899 281.741C376.172 281.741 377.992 281.741 379.629 281.65C380.266 283.378 382.631 286.108 382.904 286.472C382.085 287.29 381.267 288.109 380.448 288.837C379.083 290.11 377.81 291.202 376.718 292.203C377.082 292.476 377.537 292.84 377.992 293.203C379.083 292.203 380.266 291.111 381.449 289.838C382.267 289.019 383.177 288.109 384.087 287.199C384.451 287.472 387.635 289.656 389.454 290.019C391.092 290.292 393.184 290.201 394.458 289.11C395.731 287.927 395.913 285.926 394.549 284.743C392.729 283.106 388.363 284.106 386.452 285.289C386.361 285.38 385.178 286.199 384.542 286.744C384.906 286.381 385.269 286.017 385.633 285.562C386.361 284.743 387.089 283.924 387.908 283.106C388.272 282.651 388.635 282.196 388.999 281.832C389.363 281.377 389.727 280.922 390.091 280.467C390.91 279.376 391.638 278.193 392.456 277.01C393.184 277.647 395.64 279.922 397.187 280.467C398.733 281.013 400.826 281.286 402.281 280.285C403.737 279.376 404.192 277.374 403.009 276.01C401.463 274.099 397.005 274.463 395.003 275.282C394.913 275.373 393.457 276.101 392.729 276.465C393.184 275.737 393.639 275.009 394.094 274.281C395.367 272.189 396.55 269.915 397.733 267.731C398.097 267.094 398.46 266.367 398.824 265.73C399.097 266.003 402.008 268.732 403.737 269.369C405.283 269.915 407.376 270.187 408.831 269.187C410.287 268.277 410.742 266.276 409.559 264.911C408.013 263.001 403.555 263.365 401.553 264.183C401.372 264.274 399.37 265.366 398.915 265.639C399.734 264.183 400.553 262.728 401.463 261.363C402.645 259.453 403.919 257.633 405.374 255.905C405.465 255.996 408.467 258.907 410.287 259.544C411.833 260.09 413.926 260.363 415.381 259.362C416.837 258.452 417.292 256.451 416.109 255.086C414.563 253.176 410.105 253.54 408.103 254.358C407.922 254.449 405.738 255.632 405.374 255.814C405.465 255.723 405.556 255.632 405.647 255.541C407.103 253.812 408.831 252.266 410.469 250.901C411.378 250.083 412.379 249.446 413.289 248.718C413.835 249.355 416.109 251.993 417.656 252.721C419.111 253.449 421.203 253.903 422.75 253.085C424.297 252.266 424.933 250.447 423.933 248.9C422.568 246.808 418.11 246.717 416.018 247.262C415.927 247.262 414.744 247.717 413.926 248.081C414.381 247.808 414.835 247.444 415.199 247.172C416.746 246.171 418.292 245.352 419.566 244.533C420.294 244.078 421.022 243.806 421.658 243.442C422.477 243.806 425.752 245.079 427.39 244.988C429.027 244.897 431.119 244.442 432.12 242.987C433.303 242.077 433.03 240.076 431.483 239.166Z" fill="#263238"/>
<path d="M373.624 230.433C374.989 231.797 378.992 233.435 378.992 233.435C378.992 233.435 379.264 230.433 379.264 230.251C379.173 228.067 377.718 223.883 375.353 223.155C373.624 222.7 372.078 223.883 371.805 225.611C371.35 227.431 372.442 229.25 373.624 230.433Z" fill="#263238"/>
<path d="M254.179 346.877C254.179 346.786 251.814 349.788 251.723 349.97C250.267 352.335 248.903 357.703 250.995 360.068C252.451 361.706 254.998 361.524 256.453 359.977C257.909 358.431 258.091 355.701 257.727 353.7C257.272 351.335 254.179 346.877 254.179 346.877Z" fill="#263238"/>
<path d="M231.617 358.613C234.347 360.159 239.35 357.703 241.351 355.792C241.533 355.61 243.99 352.79 243.899 352.79H243.808C244.626 352.426 245.445 351.972 246.355 351.517C248.083 350.607 249.903 349.606 251.904 348.333C253.906 347.059 255.998 345.694 258.09 344.057C260.183 342.419 262.366 340.509 264.276 338.326C264.276 338.326 264.276 338.235 264.367 338.235C264.004 339.053 263.003 341.419 263.003 341.601C262.275 344.239 262.366 349.788 264.913 351.517C266.733 352.79 269.098 351.881 270.099 349.97C271.099 348.06 270.554 345.422 269.644 343.602C268.643 341.51 264.822 338.235 264.549 337.962C266.369 335.869 268.097 333.504 269.735 331.048C270.645 329.683 271.554 328.228 272.373 326.772C272.1 327.5 271.827 328.137 271.827 328.228C271.099 330.866 271.19 336.415 273.738 338.144C275.557 339.417 277.922 338.508 278.923 336.597C279.924 334.687 279.378 332.049 278.468 330.229C277.558 328.319 274.374 325.499 273.556 324.771C273.92 324.225 274.192 323.679 274.556 323.042C276.103 320.313 277.649 317.675 279.287 315.037C279.833 314.127 280.47 313.217 281.015 312.308C280.742 312.944 280.56 313.49 280.47 313.581C279.742 316.219 279.833 321.769 282.38 323.497C284.199 324.771 286.565 323.861 287.565 321.951C288.566 320.04 288.02 317.402 287.111 315.583C286.292 313.763 283.29 311.125 282.289 310.215C282.926 309.306 283.563 308.396 284.199 307.577C284.654 307.031 285.018 306.485 285.564 305.94C286.019 305.394 286.474 304.848 286.929 304.302C287.838 303.301 288.839 302.301 289.749 301.3C290.385 300.663 291.022 300.026 291.659 299.39C291.113 300.299 290.022 302.119 289.931 302.301C289.203 303.938 288.566 306.94 288.93 309.397C288.839 309.669 288.748 309.851 288.657 310.124C288.111 312.217 289.385 314.4 291.568 314.764C294.661 315.219 298.391 311.125 299.665 308.669C299.756 308.487 300.301 306.849 300.665 305.758C300.574 306.394 300.392 307.031 300.301 307.759C300.029 309.124 299.847 310.397 299.665 311.853C299.574 312.581 299.483 313.217 299.392 313.945C299.301 314.673 299.301 315.401 299.21 316.128C299.119 317.857 299.119 319.585 299.119 321.314C297.936 321.132 293.751 320.495 291.75 320.95C289.749 321.496 287.383 322.678 286.474 324.68C285.655 326.681 286.474 329.047 288.657 329.683C291.568 330.593 296.026 327.136 297.572 324.862C297.663 324.68 298.573 322.951 299.119 322.042C299.119 323.133 299.21 324.134 299.21 325.226C299.392 328.319 299.665 331.412 299.938 334.505C300.029 335.415 300.12 336.415 300.12 337.325C299.665 337.234 294.752 336.415 292.569 336.961C290.567 337.507 288.202 338.69 287.292 340.691C286.474 342.692 287.292 345.058 289.476 345.694C292.387 346.604 296.845 343.147 298.391 340.873C298.482 340.691 299.847 338.144 300.21 337.507C300.392 339.599 300.483 341.692 300.574 343.784C300.665 346.604 300.574 349.424 300.301 352.153C300.12 352.153 294.934 351.153 292.66 351.79C290.658 352.335 288.293 353.518 287.383 355.519C286.565 357.521 287.383 359.886 289.567 360.523C292.478 361.433 296.936 357.976 298.482 355.701C298.573 355.519 300.029 352.79 300.301 352.335C300.301 352.517 300.301 352.699 300.301 352.79C299.938 355.701 299.301 358.431 298.482 360.978C298.027 362.433 297.572 363.798 297.026 365.163C296.117 364.89 291.75 363.707 289.658 363.98C287.656 364.253 285.109 365.163 284.017 367.073C283.017 368.983 283.563 371.349 285.655 372.258C288.475 373.441 293.206 370.53 295.025 368.438C295.116 368.347 296.026 367.073 296.663 366.163C296.39 366.8 296.208 367.346 295.935 367.983C295.025 370.166 294.024 372.076 293.115 373.714C292.569 374.624 292.114 375.533 291.659 376.352C290.567 376.534 286.292 377.444 284.563 378.717C282.926 379.9 281.106 381.901 281.015 384.085C280.924 386.177 282.653 388.088 284.836 387.997C287.929 387.815 290.749 382.993 291.386 380.264C291.477 379.991 291.932 376.352 291.841 376.352H291.75C292.205 375.624 292.66 374.806 293.206 373.896C294.115 372.258 295.116 370.348 296.117 368.165C297.117 366.072 298.118 363.707 298.937 361.16C299.756 358.613 300.483 355.883 300.938 352.972V352.881C301.12 353.791 301.575 356.247 301.666 356.429C302.485 359.067 305.669 363.616 308.762 363.616C310.945 363.616 312.492 361.615 312.31 359.522C312.128 357.339 310.126 355.519 308.398 354.428C306.397 353.245 301.393 352.608 301.029 352.517C301.393 349.697 301.575 346.877 301.484 343.875C301.484 342.238 301.393 340.509 301.302 338.781C301.484 339.508 301.575 340.236 301.666 340.327C302.485 342.965 305.669 347.514 308.762 347.514C310.945 347.514 312.492 345.513 312.31 343.42C312.128 341.237 310.126 339.417 308.398 338.326C306.579 337.234 302.394 336.597 301.211 336.506C301.211 335.869 301.12 335.233 301.12 334.596C300.938 331.503 300.756 328.41 300.574 325.317C300.574 324.225 300.574 323.224 300.574 322.133C300.665 322.769 300.847 323.406 300.847 323.497C301.666 326.135 304.85 330.684 307.943 330.684C310.126 330.684 311.673 328.683 311.491 326.59C311.309 324.407 309.308 322.588 307.579 321.496C305.851 320.495 301.939 319.858 300.665 319.676C300.665 318.585 300.756 317.493 300.847 316.492C300.938 315.765 300.938 315.037 301.029 314.4C301.12 313.672 301.211 312.944 301.302 312.308C301.575 310.943 301.757 309.578 302.03 308.305C302.212 307.395 302.394 306.576 302.576 305.667C302.576 306.758 302.667 308.851 302.758 309.033C303.213 311.762 305.578 316.765 308.671 317.22C310.854 317.584 312.674 315.765 312.765 313.672C312.856 311.489 311.218 309.397 309.672 308.032C307.943 306.576 303.304 305.212 302.667 305.121C302.94 303.665 303.304 302.301 303.576 301.027C303.94 299.299 304.395 297.752 304.759 296.206C304.304 295.842 303.758 295.296 303.122 294.75C302.667 296.478 302.212 298.389 301.757 300.572C301.484 302.028 301.12 303.574 300.847 305.212C300.483 305.212 298.209 305.121 296.208 305.394C295.389 303.21 292.478 299.753 292.114 299.299C293.115 298.298 294.206 297.297 295.116 296.388C296.845 294.841 298.391 293.385 299.756 292.112C299.21 291.748 298.755 291.293 298.209 290.929C296.845 292.203 295.389 293.567 293.842 295.114C292.751 296.115 291.659 297.297 290.567 298.48C290.113 298.116 286.11 295.387 283.835 294.932C281.834 294.568 279.105 294.659 277.558 296.115C276.012 297.57 275.739 300.026 277.467 301.573C279.742 303.665 285.2 302.301 287.565 300.936C287.747 300.845 289.112 299.753 290.022 299.117C289.567 299.572 289.112 300.026 288.657 300.572C287.747 301.573 286.838 302.574 285.837 303.665C285.382 304.211 284.927 304.757 284.472 305.303C284.017 305.849 283.563 306.485 283.108 307.031C282.107 308.396 281.106 309.851 280.197 311.307C279.287 310.488 276.194 307.668 274.283 306.94C272.373 306.303 269.644 305.94 267.824 307.122C266.096 308.305 265.459 310.761 266.915 312.49C268.916 314.855 274.465 314.4 277.013 313.399C277.195 313.308 278.923 312.399 279.924 311.853C279.378 312.763 278.832 313.672 278.286 314.582C276.74 317.22 275.284 319.949 273.738 322.769C273.283 323.588 272.828 324.407 272.373 325.226C272.1 324.953 268.461 321.496 266.278 320.677C264.367 320.04 261.638 319.676 259.819 320.859C258.09 322.042 257.454 324.498 258.909 326.226C260.911 328.592 266.46 328.137 269.007 327.136C269.189 327.045 271.736 325.681 272.373 325.317C271.372 327.136 270.281 328.956 269.189 330.684C267.642 333.14 266.096 335.415 264.367 337.507C264.186 337.325 260.456 333.777 258.181 332.958C256.271 332.322 253.542 331.958 251.722 333.14C249.994 334.323 249.357 336.779 250.813 338.508C252.814 340.873 258.363 340.418 260.91 339.417C261.092 339.326 263.822 337.871 264.276 337.598C264.185 337.689 264.095 337.871 264.004 337.962C262.093 340.145 260.001 342.056 257.999 343.784C256.817 344.785 255.634 345.603 254.451 346.513C253.815 345.785 250.904 342.419 248.902 341.419C247.083 340.509 244.445 339.963 242.534 340.964C240.624 341.965 239.805 344.33 240.988 346.149C242.716 348.697 248.265 348.878 250.904 348.151C251.085 348.151 252.45 347.514 253.542 347.15C252.996 347.514 252.45 347.878 251.904 348.242C249.994 349.515 248.083 350.607 246.446 351.517C245.536 352.063 244.626 352.517 243.808 352.881C242.807 352.517 238.713 350.88 236.621 350.971C234.529 351.062 231.981 351.699 230.708 353.518C229.343 355.065 229.616 357.521 231.617 358.613Z" fill="#263238"/>
<path d="M304.123 369.529C302.485 367.801 297.482 365.708 297.391 365.708C297.3 365.708 297.027 369.438 297.118 369.62C297.209 372.349 299.119 377.626 302.03 378.444C304.214 379.081 306.124 377.535 306.488 375.351C306.852 373.35 305.487 371.076 304.123 369.529Z" fill="#263238"/>
<path d="M379.718 69.4118H53.4004V331.594H379.718V69.4118Z" fill="white" stroke="#263238" stroke-width="0.909722" stroke-miterlimit="10" stroke-linejoin="round"/>
<path d="M337.236 297.934H296.571C294.388 297.934 292.568 296.115 292.568 293.931V247.262" fill="white"/>
<path d="M337.236 297.934H296.571C294.388 297.934 292.568 296.115 292.568 293.931V247.262" stroke="#263238" stroke-width="0.909722" stroke-miterlimit="10" stroke-linejoin="round"/>
<path d="M362.89 201.322V293.931C362.89 296.115 361.07 297.934 358.887 297.934H341.238" fill="white"/>
<path d="M362.89 201.322V293.931C362.89 296.115 361.07 297.934 358.887 297.934H341.238" stroke="#263238" stroke-width="0.909722" stroke-miterlimit="10" stroke-linejoin="round"/>
<path d="M292.568 244.169V173.484C292.568 171.301 294.388 169.481 296.571 169.481H358.887C361.07 169.481 362.89 171.301 362.89 173.484V198.774" fill="white"/>
<path d="M292.568 244.169V173.484C292.568 171.301 294.388 169.481 296.571 169.481H358.887C361.07 169.481 362.89 171.301 362.89 173.484V198.774" stroke="#263238" stroke-width="0.909722" stroke-miterlimit="10" stroke-linejoin="round"/>
<path d="M362.89 173.484V195.044H292.568V173.484C292.568 171.301 294.388 169.481 296.571 169.481H358.887C361.07 169.481 362.89 171.21 362.89 173.484Z" fill="white" stroke="#263238" stroke-width="0.909722" stroke-miterlimit="10" stroke-linejoin="round"/>
<path d="M379.718 69.4118H53.4004V158.201H379.718V69.4118Z" fill="white" stroke="#263238" stroke-width="0.909722" stroke-miterlimit="10" stroke-linejoin="round"/>
<path d="M355.37 137.156C359.517 136.134 362.049 131.944 361.027 127.798C360.004 123.651 355.814 121.119 351.668 122.141C347.521 123.164 344.989 127.354 346.011 131.5C347.034 135.646 351.224 138.179 355.37 137.156Z" fill="#D9D9D9" stroke="#263238" stroke-width="0.909722" stroke-miterlimit="10" stroke-linejoin="round"/>
<path d="M330.413 126.36C330.965 126.36 331.413 125.912 331.413 125.36C331.413 124.807 330.965 124.359 330.413 124.359C329.86 124.359 329.412 124.807 329.412 125.36C329.412 125.912 329.86 126.36 330.413 126.36Z" fill="#263238"/>
<path d="M335.507 125.36C335.507 124.814 335.052 124.359 334.507 124.359C333.961 124.359 333.506 124.814 333.506 125.36C333.506 125.906 333.961 126.36 334.507 126.36C334.961 126.36 335.507 125.906 335.507 125.36Z" fill="#263238"/>
<path d="M339.511 125.36C339.511 124.814 339.056 124.359 338.51 124.359C337.965 124.359 337.51 124.814 337.51 125.36C337.51 125.906 337.965 126.36 338.51 126.36C339.056 126.36 339.511 125.906 339.511 125.36Z" fill="#263238"/>
<path d="M331.413 129.544C331.413 128.999 330.959 128.544 330.413 128.544C329.867 128.544 329.412 128.999 329.412 129.544C329.412 130.09 329.867 130.545 330.413 130.545C330.959 130.545 331.413 130.09 331.413 129.544Z" fill="#263238"/>
<path d="M335.507 129.544C335.507 128.999 335.052 128.544 334.507 128.544C333.961 128.544 333.506 128.999 333.506 129.544C333.506 130.09 333.961 130.545 334.507 130.545C334.961 130.545 335.507 130.09 335.507 129.544Z" fill="#263238"/>
<path d="M339.511 129.544C339.511 128.999 339.056 128.544 338.51 128.544C337.965 128.544 337.51 128.999 337.51 129.544C337.51 130.09 337.965 130.545 338.51 130.545C339.056 130.545 339.511 130.09 339.511 129.544Z" fill="#263238"/>
<path d="M331.413 133.729C331.413 133.183 330.959 132.728 330.413 132.728C329.867 132.728 329.412 133.183 329.412 133.729C329.412 134.275 329.867 134.73 330.413 134.73C330.959 134.73 331.413 134.275 331.413 133.729Z" fill="#263238"/>
<path d="M335.507 133.729C335.507 133.183 335.052 132.728 334.507 132.728C333.961 132.728 333.506 133.183 333.506 133.729C333.506 134.275 333.961 134.73 334.507 134.73C334.961 134.73 335.507 134.275 335.507 133.729Z" fill="#263238"/>
<path d="M339.511 133.729C339.511 133.183 339.056 132.728 338.51 132.728C337.965 132.728 337.51 133.183 337.51 133.729C337.51 134.275 337.965 134.73 338.51 134.73C339.056 134.73 339.511 134.275 339.511 133.729Z" fill="#263238"/>
<path d="M282.104 132.637C280.558 137.277 276.191 140.734 271.006 140.734H165.205" fill="white"/>
<path d="M282.104 132.637C280.558 137.277 276.191 140.734 271.006 140.734H165.205" stroke="#263238" stroke-width="0.909722" stroke-miterlimit="10" stroke-linejoin="round"/>
<path d="M188.404 117.445H271.007C277.466 117.445 282.652 122.631 282.652 129.09" fill="white"/>
<path d="M188.404 117.445H271.007C277.466 117.445 282.652 122.631 282.652 129.09" stroke="#263238" stroke-width="0.909722" stroke-miterlimit="10" stroke-linejoin="round"/>
<path d="M159.383 140.734H104.254C97.7948 140.734 92.6094 135.549 92.6094 129.09C92.6094 122.631 97.7948 117.445 104.254 117.445H184.4" fill="white"/>
<path d="M159.383 140.734H104.254C97.7948 140.734 92.6094 135.549 92.6094 129.09C92.6094 122.631 97.7948 117.445 104.254 117.445H184.4" stroke="#263238" stroke-width="0.909722" stroke-miterlimit="10" stroke-linejoin="round"/>
<path d="M253.357 122.812V133.729" stroke="#263238" stroke-width="0.454861" stroke-miterlimit="10" stroke-linejoin="round"/>
<path d="M244.896 122.903L234.707 133.092" stroke="#263238" stroke-width="0.909722" stroke-miterlimit="10" stroke-linejoin="round"/>
<path d="M234.707 122.903L244.896 133.092" stroke="#263238" stroke-width="0.909722" stroke-miterlimit="10" stroke-linejoin="round"/>
<path d="M104.708 132.092H103.616L102.615 124.905H103.434L104.253 131.091L105.071 124.996H105.89L106.709 131.182L107.528 124.996H108.256L107.255 132.183H106.163L105.435 127.27L104.708 132.092Z" fill="#263238"/>
<path d="M111.44 128.089V128.817H109.711V131.364H111.895V132.092H108.893V124.905H111.895V125.633H109.711V128.089H111.44Z" fill="#263238"/>
<path d="M114.17 124.905C115.261 124.905 115.716 125.451 115.716 126.542V126.906C115.716 127.634 115.534 128.18 114.897 128.362C115.625 128.544 115.898 129.09 115.898 129.908V130.545C115.898 131.637 115.352 132.274 114.261 132.274H112.623V125.087H114.17V124.905ZM113.988 127.907C114.624 127.907 114.988 127.725 114.988 126.906V126.451C114.988 125.815 114.806 125.542 114.17 125.542H113.351V127.907H113.988ZM114.261 131.364C114.806 131.364 115.079 131.091 115.079 130.363V129.726C115.079 128.908 114.715 128.635 114.079 128.635H113.351V131.364H114.261Z" fill="#263238"/>
<path d="M121.355 126.633V126.815H120.627V126.542C120.627 125.906 120.354 125.542 119.809 125.542C119.263 125.542 118.99 125.906 118.99 126.542C118.99 128.18 121.446 128.271 121.446 130.363C121.446 131.455 120.9 132.183 119.809 132.183C118.717 132.183 118.171 131.455 118.171 130.363V129.908H118.899V130.363C118.899 131 119.172 131.364 119.718 131.364C120.263 131.364 120.536 131 120.536 130.363C120.536 128.726 118.08 128.635 118.08 126.542C118.08 125.451 118.626 124.723 119.718 124.723C120.809 124.814 121.355 125.542 121.355 126.633Z" fill="#263238"/>
<path d="M124.63 128.089V128.817H122.811V131.364H124.994V132.092H121.992V124.905H124.994V125.633H122.811V128.089H124.63Z" fill="#263238"/>
<path d="M126.54 130.636L126.267 132.092H125.539L126.904 124.905H128.086L129.451 132.092H128.632L128.359 130.636H126.54ZM126.631 129.908H128.268L127.449 125.724L126.631 129.908Z" fill="#263238"/>
<path d="M131.725 124.905C132.817 124.905 133.363 125.451 133.363 126.542V127.088C133.363 127.907 133.09 128.362 132.453 128.544C133.09 128.726 133.363 129.272 133.363 130.09V131.182C133.363 131.546 133.363 131.819 133.545 132.092H132.726C132.635 131.91 132.635 131.728 132.635 131.182V130.09C132.635 129.272 132.271 128.999 131.543 128.999H130.998V132.092H130.088V124.905H131.725ZM131.543 128.271C132.18 128.271 132.544 128.089 132.544 127.27V126.542C132.544 125.906 132.271 125.542 131.725 125.542H130.907V128.18H131.543V128.271Z" fill="#263238"/>
<path d="M137.367 126.633V127.27H136.639V126.542C136.639 125.906 136.366 125.542 135.82 125.542C135.274 125.542 135.002 125.906 135.002 126.542V130.363C135.002 131 135.274 131.364 135.82 131.364C136.366 131.364 136.639 131 136.639 130.363V129.453H137.367V130.363C137.367 131.455 136.821 132.183 135.729 132.183C134.638 132.183 134.092 131.455 134.092 130.363V126.633C134.092 125.542 134.638 124.814 135.729 124.814C136.821 124.814 137.367 125.542 137.367 126.633Z" fill="#263238"/>
<path d="M138.912 128.817V132.092H138.094V124.905H138.912V128.18H140.641V124.905H141.46V132.092H140.641V128.817H138.912Z" fill="#263238"/>
<path d="M271.097 133.456C270.824 133.82 270.187 133.911 269.823 133.547L265.639 129.726L266.457 128.817L270.915 132.274C271.37 132.456 271.461 133.092 271.097 133.456Z" fill="#263238" stroke="#263238" stroke-width="0.909722" stroke-miterlimit="10" stroke-linejoin="round"/>
<path d="M260.362 124.541C258.997 126.178 259.179 128.726 260.908 130.09C262.545 131.455 265.093 131.273 266.457 129.544C267.822 127.907 267.64 125.36 265.911 123.995C264.274 122.631 261.818 122.812 260.362 124.541ZM266.002 129.181C264.82 130.636 262.727 130.818 261.272 129.635C259.816 128.453 259.634 126.36 260.817 124.905C262 123.449 264.092 123.267 265.547 124.45C267.003 125.633 267.185 127.725 266.002 129.181Z" fill="#263238" stroke="#263238" stroke-width="0.909722" stroke-miterlimit="10" stroke-linejoin="round"/>
<path d="M379.627 69.4118H369.711V331.594H379.627V69.4118Z" fill="#D9D9D9" stroke="#263238" stroke-width="0.909722" stroke-miterlimit="10" stroke-linejoin="round"/>
<path d="M379.627 121.63H369.711V147.375H379.627V121.63Z" fill="#8F8F8F" stroke="#263238" stroke-width="0.909722" stroke-miterlimit="10" stroke-linejoin="round"/>
<path d="M379.718 69.4118H53.4004V100.069H379.718V69.4118Z" fill="#FD6C03" stroke="#263238" stroke-width="0.909722" stroke-miterlimit="10" stroke-linejoin="round"/>
<path d="M379.718 69.4118H109.258V80.2375H379.718V69.4118Z" fill="#263238" stroke="#263238" stroke-width="0.909722" stroke-miterlimit="10" stroke-linejoin="round"/>
<path d="M373.44 72.05L367.709 77.7812" stroke="white" stroke-width="0.909722" stroke-miterlimit="10" stroke-linejoin="round"/>
<path d="M367.709 72.05L373.44 77.7812" stroke="white" stroke-width="0.909722" stroke-miterlimit="10" stroke-linejoin="round"/>
<path d="M356.792 72.5958H352.607V76.7805H356.792V72.5958Z" fill="#263238" stroke="white" stroke-width="0.909722" stroke-miterlimit="10" stroke-linejoin="round"/>
<path d="M354.792 73.5965H350.607V77.7812H354.792V73.5965Z" fill="#263238" stroke="white" stroke-width="0.909722" stroke-miterlimit="10" stroke-linejoin="round"/>
<path d="M337.506 75.143H330.229" stroke="white" stroke-width="0.909722" stroke-miterlimit="10" stroke-linejoin="round"/>
<path d="M114.99 71.8681V78.4181" stroke="white" stroke-width="0.909722" stroke-miterlimit="10" stroke-linejoin="round"/>
<path d="M118.265 75.1431H111.715" stroke="white" stroke-width="0.909722" stroke-miterlimit="10" stroke-linejoin="round"/>
<path d="M94.793 176.395H161.93" stroke="#263238" stroke-width="0.909722" stroke-miterlimit="10" stroke-linejoin="round"/>
<path d="M94.793 182.217H180.125" stroke="#263238" stroke-width="0.909722" stroke-miterlimit="10" stroke-linejoin="round"/>
<path d="M94.793 189.222H270.733" stroke="#263238" stroke-width="0.909722" stroke-miterlimit="10" stroke-linejoin="round"/>
<path d="M94.793 195.59H270.733" stroke="#263238" stroke-width="0.909722" stroke-miterlimit="10" stroke-linejoin="round"/>
<path d="M94.793 201.958H270.733" stroke="#263238" stroke-width="0.909722" stroke-miterlimit="10" stroke-linejoin="round"/>
<path d="M94.793 216.878H161.93" stroke="#263238" stroke-width="0.909722" stroke-miterlimit="10" stroke-linejoin="round"/>
<path d="M94.793 222.791H180.125" stroke="#263238" stroke-width="0.909722" stroke-miterlimit="10" stroke-linejoin="round"/>
<path d="M94.793 229.705H270.733" stroke="#263238" stroke-width="0.909722" stroke-miterlimit="10" stroke-linejoin="round"/>
<path d="M94.793 236.073H270.733" stroke="#263238" stroke-width="0.909722" stroke-miterlimit="10" stroke-linejoin="round"/>
<path d="M94.793 242.441H270.733" stroke="#263238" stroke-width="0.909722" stroke-miterlimit="10" stroke-linejoin="round"/>
<path d="M94.793 257.36H161.93" stroke="#263238" stroke-width="0.909722" stroke-miterlimit="10" stroke-linejoin="round"/>
<path d="M94.793 263.274H180.125" stroke="#263238" stroke-width="0.909722" stroke-miterlimit="10" stroke-linejoin="round"/>
<path d="M94.793 270.188H270.733" stroke="#263238" stroke-width="0.909722" stroke-miterlimit="10" stroke-linejoin="round"/>
<path d="M94.793 276.556H270.733" stroke="#263238" stroke-width="0.909722" stroke-miterlimit="10" stroke-linejoin="round"/>
<path d="M94.793 283.015H270.733" stroke="#263238" stroke-width="0.909722" stroke-miterlimit="10" stroke-linejoin="round"/>
<path d="M94.793 297.934H161.93" stroke="#263238" stroke-width="0.909722" stroke-miterlimit="10" stroke-linejoin="round"/>
<path d="M94.793 303.756H180.125" stroke="#263238" stroke-width="0.909722" stroke-miterlimit="10" stroke-linejoin="round"/>
<path d="M94.793 310.67H270.733" stroke="#263238" stroke-width="0.909722" stroke-miterlimit="10" stroke-linejoin="round"/>
<path d="M94.793 317.129H270.733" stroke="#263238" stroke-width="0.909722" stroke-miterlimit="10" stroke-linejoin="round"/>
<path d="M94.793 323.497H270.733" stroke="#263238" stroke-width="0.909722" stroke-miterlimit="10" stroke-linejoin="round"/>
<path d="M297.115 202.595H328.774" stroke="#263238" stroke-width="0.909722" stroke-miterlimit="10" stroke-linejoin="round"/>
<path d="M297.115 206.78H328.774" stroke="#263238" stroke-width="0.909722" stroke-miterlimit="10" stroke-linejoin="round"/>
<path d="M297.115 211.056H358.885" stroke="#263238" stroke-width="0.909722" stroke-miterlimit="10" stroke-linejoin="round"/>
<path d="M297.115 215.331H358.885" stroke="#263238" stroke-width="0.909722" stroke-miterlimit="10" stroke-linejoin="round"/>
<path d="M297.115 219.607H358.885" stroke="#263238" stroke-width="0.909722" stroke-miterlimit="10" stroke-linejoin="round"/>
<path d="M297.115 223.883H358.885" stroke="#263238" stroke-width="0.909722" stroke-miterlimit="10" stroke-linejoin="round"/>
<path d="M297.115 228.067H358.885" stroke="#263238" stroke-width="0.909722" stroke-miterlimit="10" stroke-linejoin="round"/>
<path d="M297.115 232.343H358.885" stroke="#263238" stroke-width="0.909722" stroke-miterlimit="10" stroke-linejoin="round"/>
<path d="M297.115 236.619H358.885" stroke="#263238" stroke-width="0.909722" stroke-miterlimit="10" stroke-linejoin="round"/>
<path d="M297.115 240.894H358.885" stroke="#263238" stroke-width="0.909722" stroke-miterlimit="10" stroke-linejoin="round"/>
<path d="M297.115 250.901H328.774" stroke="#263238" stroke-width="0.909722" stroke-miterlimit="10" stroke-linejoin="round"/>
<path d="M297.115 255.177H328.774" stroke="#263238" stroke-width="0.909722" stroke-miterlimit="10" stroke-linejoin="round"/>
<path d="M297.115 259.453H358.885" stroke="#263238" stroke-width="0.909722" stroke-miterlimit="10" stroke-linejoin="round"/>
<path d="M297.115 263.637H358.885" stroke="#263238" stroke-width="0.909722" stroke-miterlimit="10" stroke-linejoin="round"/>
<path d="M297.115 267.913H358.885" stroke="#263238" stroke-width="0.909722" stroke-miterlimit="10" stroke-linejoin="round"/>
<path d="M297.115 272.189H358.885" stroke="#263238" stroke-width="0.909722" stroke-miterlimit="10" stroke-linejoin="round"/>
<path d="M297.115 276.465H358.885" stroke="#263238" stroke-width="0.909722" stroke-miterlimit="10" stroke-linejoin="round"/>
<path d="M297.115 280.74H358.885" stroke="#263238" stroke-width="0.909722" stroke-miterlimit="10" stroke-linejoin="round"/>
<path d="M297.115 284.925H358.885" stroke="#263238" stroke-width="0.909722" stroke-miterlimit="10" stroke-linejoin="round"/>
<path d="M297.115 289.201H358.885" stroke="#263238" stroke-width="0.909722" stroke-miterlimit="10" stroke-linejoin="round"/>
<path d="M387.088 392.909H398.459" stroke="#263238" stroke-width="0.909722" stroke-miterlimit="10" stroke-linejoin="round"/>
<path d="M90.4258 392.909H379.445" stroke="#263238" stroke-width="0.909722" stroke-miterlimit="10" stroke-linejoin="round"/>
<path d="M26.5645 392.909H82.8763" stroke="#263238" stroke-width="0.909722" stroke-miterlimit="10" stroke-linejoin="round"/>
<path d="M215.151 375.169C215.151 375.169 224.885 375.715 227.16 375.169C229.434 374.624 234.073 370.894 234.619 373.714C235.165 376.534 232.072 380.628 230.071 382.902C228.069 385.176 220.064 387.178 217.789 388.36C215.515 389.543 212.058 392.363 209.238 392.363C206.418 392.363 204.689 382.902 204.689 382.902C204.689 382.902 213.241 377.717 215.606 373.987" fill="white"/>
<path d="M215.151 375.169C215.151 375.169 224.885 375.715 227.16 375.169C229.434 374.624 234.073 370.894 234.619 373.714C235.165 376.534 232.072 380.628 230.071 382.902C228.069 385.176 220.064 387.178 217.789 388.36C215.515 389.543 212.058 392.363 209.238 392.363C206.418 392.363 204.689 382.902 204.689 382.902C204.689 382.902 213.241 377.717 215.606 373.987" stroke="#263238" stroke-width="0.909722" stroke-miterlimit="10" stroke-linejoin="round"/>
<path d="M234.165 372.895C228.343 383.63 218.7 385.54 218.7 385.54L206.51 389.634C207.238 391.181 208.147 392.454 209.148 392.454C211.968 392.454 215.425 389.634 217.699 388.451C219.974 387.269 227.979 385.267 229.981 382.993C231.982 380.719 235.166 376.716 234.529 373.805C234.529 373.35 234.347 373.077 234.165 372.895Z" fill="white" stroke="#263238" stroke-width="0.909722" stroke-miterlimit="10" stroke-linejoin="round"/>
<path d="M111.898 367.892C111.898 367.892 104.438 376.352 103.801 378.808C103.164 381.174 108.896 384.631 110.351 385.631C114.081 388.269 118.539 390.453 122.905 391.908C124.452 392.454 132.275 394.274 131.275 390.453C130.547 387.633 124.543 384.358 123.815 382.629C123.087 380.992 121.814 377.717 121.814 377.717L111.898 367.892Z" fill="white" stroke="#263238" stroke-width="0.909722" stroke-miterlimit="10" stroke-linejoin="round"/>
<path d="M110.351 385.722C114.081 388.36 118.539 390.544 122.905 391.999C124.27 392.454 130.274 393.91 131.184 391.726C128.455 391.544 123.178 390.726 116.537 386.905C110.078 383.266 106.076 380.173 103.892 378.353C103.801 378.535 103.801 378.626 103.71 378.808C103.165 381.265 108.896 384.631 110.351 385.722Z" fill="white" stroke="#263238" stroke-width="0.909722" stroke-miterlimit="10" stroke-linejoin="round"/>
<path d="M132.003 261.818L135.187 284.743L137.825 333.049C137.825 333.049 129.82 340.782 125.18 345.967C120.632 351.153 110.17 369.074 110.17 369.074C110.17 369.074 110.989 373.532 116.174 376.625C121.269 379.718 124.089 379.263 124.089 379.263L127.819 372.804L129.183 369.893C129.183 369.893 159.113 341.055 159.659 337.325C160.205 333.595 163.207 293.294 163.207 293.294L186.587 327.591C186.587 327.591 189.407 350.243 191.772 355.701C194.046 361.16 203.507 378.899 203.507 378.899L204.69 382.902C204.69 382.902 208.693 384.358 211.877 381.447C215.061 378.626 217.062 375.26 217.062 375.26L213.878 371.44L213.332 368.892C213.332 368.892 205.6 322.769 203.871 317.311C201.961 311.853 181.037 264.729 181.037 264.729L176.489 252.084C176.489 252.084 172.213 254.904 159.022 258.998C145.74 263.001 132.003 261.818 132.003 261.818Z" fill="#263238" stroke="#263238" stroke-width="0.909722" stroke-miterlimit="10" stroke-linejoin="round"/>
<path d="M161.298 266.731C170.941 262.364 175.489 257.997 177.582 255.086L176.49 252.084C176.49 252.084 172.214 254.904 159.023 258.998C147.288 262.546 135.007 262.091 132.551 261.909C132.369 261.909 132.278 261.909 132.096 262L132.914 268.095C136.371 269.46 147.743 272.917 161.298 266.731Z" fill="#FD6C03" stroke="#263238" stroke-width="0.909722" stroke-miterlimit="10" stroke-linejoin="round"/>
<path d="M127.001 194.862L104.439 211.601L130.003 259.544C130.003 259.544 130.185 262.091 132.55 264.092C134.915 266.003 150.38 265.639 155.93 263.91C161.479 262.182 170.121 257.906 172.487 256.36C174.852 254.813 178.036 251.629 177.217 248.809C176.398 245.989 174.852 243.624 174.852 243.624L170.303 230.524C170.303 230.524 188.134 231.615 190.499 231.615C192.864 231.615 201.052 210.965 201.052 210.965C201.052 210.965 198.687 210.783 197.868 209.236C197.049 207.69 196.594 206.052 196.594 206.052C196.594 206.052 193.41 207.962 188.862 209.964C184.313 211.874 179.583 212.329 177.672 211.51C175.762 210.692 164.39 200.321 161.752 197.137C159.205 193.953 158.75 192.588 157.84 192.588C157.021 192.588 141.101 193.68 139.191 193.68C137.371 193.589 127.001 194.862 127.001 194.862Z" fill="#FD6C03" stroke="#263238" stroke-width="0.909722" stroke-miterlimit="10" stroke-linejoin="round"/>
<path d="M197.96 209.236C197.232 207.962 196.777 206.507 196.686 206.143L196.049 206.871C196.049 206.871 192.592 209.418 193.502 213.057C194.048 215.331 196.686 216.15 198.96 216.332C200.234 213.239 201.235 210.965 201.235 210.965C201.235 210.965 198.779 210.783 197.96 209.236Z" fill="#FD6C03" stroke="#263238" stroke-width="0.909722" stroke-miterlimit="10" stroke-linejoin="round"/>
<path d="M161.48 204.869L160.297 201.503" stroke="#263238" stroke-width="0.909722" stroke-miterlimit="10" stroke-linejoin="round"/>
<path d="M170.395 230.524L162.48 207.781" stroke="#263238" stroke-width="0.909722" stroke-miterlimit="10" stroke-linejoin="round"/>
<path d="M127.272 277.01C121.996 272.644 121.359 264.82 125.907 259.635L213.969 158.565L227.432 169.754L144.557 275.1C140.281 280.558 132.457 281.377 127.272 277.01Z" fill="#263238" stroke="#263238" stroke-width="0.909722" stroke-miterlimit="10" stroke-linejoin="round"/>
<path d="M190.499 185.492L125.818 259.635C121.269 264.729 121.906 272.644 127.182 277.01C132.459 281.377 140.282 280.558 144.467 275.1L205.6 197.319L190.499 185.492Z" fill="white" stroke="#263238" stroke-width="0.909722" stroke-miterlimit="10" stroke-linejoin="round"/>
<path d="M287.476 83.6035C263.823 64.0444 228.799 67.3194 209.24 90.9722C189.681 114.625 192.956 149.649 216.609 169.208C240.261 188.767 275.286 185.492 294.845 161.84C314.404 138.187 311.038 103.162 287.476 83.6035ZM221.703 163.022C201.507 146.283 198.687 116.262 215.426 96.0667C232.165 75.8708 262.186 73.0507 282.382 89.7896C302.577 106.528 305.398 136.549 288.659 156.745C271.829 176.941 241.899 179.761 221.703 163.022Z" fill="#263238" stroke="#263238" stroke-width="0.909722" stroke-miterlimit="10" stroke-linejoin="round"/>
<path d="M201.142 210.965L209.33 198.047C209.33 198.047 212.332 192.224 213.242 191.133C214.06 190.041 217.517 188.767 214.788 188.767C211.968 188.767 211.149 190.496 211.149 190.496C211.149 190.496 211.149 187.221 211.149 185.947C211.149 184.674 211.149 181.49 209.421 181.672C207.692 181.853 208.329 184.401 207.965 186.857C207.783 187.949 206.601 192.861 206.601 192.861L204.781 185.674C204.599 184.947 203.871 184.401 203.144 184.583C202.78 184.674 202.507 184.765 202.507 185.219C202.507 186.311 203.599 191.042 203.599 191.042L202.962 194.681C202.962 194.681 202.052 188.949 200.778 187.494C200.233 186.857 199.141 188.04 199.596 189.131C200.051 190.223 200.233 196.227 200.233 196.227L200.051 198.774C200.051 198.774 198.504 196.227 197.685 194.863C196.867 193.589 195.502 194.226 196.139 196.136C196.776 198.047 198.322 201.322 198.322 201.322L196.776 206.052C196.594 206.052 194.228 213.33 201.142 210.965Z" fill="white" stroke="#263238" stroke-width="0.909722" stroke-miterlimit="10" stroke-linejoin="round"/>
<path d="M211.058 190.587L209.512 194.862" stroke="#263238" stroke-width="0.909722" stroke-miterlimit="10" stroke-linejoin="round"/>
<path d="M108.533 208.963C108.533 208.963 103.438 210.328 103.438 212.42C103.438 214.513 103.438 259.271 103.256 260.726C103.074 262.273 150.107 255.541 150.107 255.541L151.199 248.263L122.452 242.441L122.27 221.79" fill="#FD6C03"/>
<path d="M108.533 208.963C108.533 208.963 103.438 210.328 103.438 212.42C103.438 214.513 103.438 259.271 103.256 260.726C103.074 262.273 150.107 255.541 150.107 255.541L151.199 248.263L122.452 242.441L122.27 221.79" stroke="#263238" stroke-width="0.909722" stroke-miterlimit="10" stroke-linejoin="round"/>
<path d="M146.377 247.444L146.195 256.178C146.195 256.178 146.286 256.178 146.377 256.269C148.652 255.905 150.107 255.723 150.107 255.723L151.199 248.445L146.377 247.444Z" fill="#FD6C03" stroke="#263238" stroke-width="0.909722" stroke-miterlimit="10" stroke-linejoin="round"/>
<path d="M151.108 248.354C151.108 248.354 157.112 240.622 159.659 240.622C162.206 240.622 166.118 240.803 166.937 240.803C167.755 240.803 169.757 240.349 168.665 241.895C167.573 243.442 163.935 243.169 163.935 243.169L168.756 245.807C170.121 246.535 170.485 248.445 169.393 249.628C168.301 250.719 165.481 250.719 165.481 250.719C165.481 250.719 162.479 255.632 160.569 256.087C158.658 256.542 150.471 254.54 150.471 254.54L151.108 248.354Z" fill="white" stroke="#263238" stroke-width="0.909722" stroke-miterlimit="10" stroke-linejoin="round"/>
<path d="M146.014 208.963L146.56 194.863L141.102 193.043L142.011 198.774L146.014 208.963Z" fill="#FD6C03" stroke="#263238" stroke-width="0.909722" stroke-miterlimit="10" stroke-linejoin="round"/>
<path d="M146.559 194.862L150.653 203.141L146.377 202.777L146.559 194.862Z" fill="#FD6C03" stroke="#263238" stroke-width="0.909722" stroke-miterlimit="10" stroke-linejoin="round"/>
<path d="M149.197 184.128C147.377 184.674 143.011 195.317 143.011 195.317L146.104 209.054L141.191 202.14L139.827 195.499L128.182 190.678L128.364 183.036C128.364 183.036 126.999 182.308 125.362 181.126C123.633 179.852 121.45 178.033 120.177 175.758C117.629 171.392 113.99 164.569 119.631 157.291C125.089 150.195 130.729 149.831 136.915 149.467C137.097 149.467 137.37 149.467 137.552 149.467C137.552 149.467 144.648 153.834 144.83 156.017C145.012 158.201 145.922 161.294 147.923 162.567C149.924 163.841 152.654 162.385 152.654 165.115C152.654 167.844 150.47 169.663 150.47 169.663C150.47 169.663 152.29 178.033 153.199 180.853C154.109 183.4 151.016 183.582 149.197 184.128Z" fill="white" stroke="#263238" stroke-width="0.909722" stroke-miterlimit="10" stroke-linejoin="round"/>
<path d="M143.738 162.567C144.193 163.295 144.284 164.023 144.011 164.296C143.647 164.478 143.01 164.114 142.555 163.386C142.1 162.658 142.01 161.931 142.282 161.658C142.646 161.476 143.283 161.84 143.738 162.567Z" fill="#263238"/>
<path d="M139.463 162.203C139.463 162.203 139.645 159.11 142.556 159.11" stroke="#263238" stroke-width="0.909722" stroke-miterlimit="10" stroke-linejoin="round"/>
<path d="M147.832 173.12C147.832 173.12 142.919 174.212 142.01 171.301" stroke="#263238" stroke-width="0.909722" stroke-miterlimit="10" stroke-linejoin="round"/>
<path d="M135.824 155.744C137.461 157.382 131.457 161.385 130.547 163.204C129.638 165.024 131.275 167.935 131.457 169.208C131.639 170.482 127.272 174.121 127.272 174.121L125.635 175.758L126.908 180.853C126.908 180.853 126.363 180.853 125.362 180.762C123.633 179.488 121.45 177.669 120.177 175.394C117.629 171.028 113.99 164.205 119.631 156.927C125.089 149.831 130.729 149.467 136.915 149.103C135.824 149.831 134.459 150.104 133.731 150.923C132.549 152.106 134.186 154.107 135.824 155.744Z" fill="#A6A6A6" stroke="#263238" stroke-width="0.909722" stroke-miterlimit="10" stroke-linejoin="round"/>
<path d="M129.364 174.94C129.364 174.94 126.635 170.755 123.36 173.12C120.085 175.485 126.089 180.944 127.18 181.853C128.272 182.763 131.729 179.306 131.729 179.306C131.729 179.306 133.549 182.217 137.187 182.763" fill="white"/>
<path d="M129.364 174.94C129.364 174.94 126.635 170.755 123.36 173.12C120.085 175.485 126.089 180.944 127.18 181.853C128.272 182.763 131.729 179.306 131.729 179.306C131.729 179.306 133.549 182.217 137.187 182.763" stroke="#263238" stroke-width="0.909722" stroke-miterlimit="10" stroke-linejoin="round"/>
<path d="M132.731 152.469C132.731 152.469 124.907 161.203 122.815 165.297C120.813 169.299 119.358 174.03 119.358 174.03C119.358 174.03 115.355 173.666 112.99 171.119C110.624 168.572 113.172 158.474 117.72 153.561C122.269 148.649 127.636 146.101 127.636 146.101C127.636 146.101 121.814 146.283 123.997 144.646C126.181 143.008 131.639 142.281 135.369 144.1C139.008 145.919 137.552 149.194 137.552 149.194L132.731 152.469Z" fill="#263238" stroke="#263238" stroke-width="0.909722" stroke-miterlimit="10" stroke-linejoin="round"/>
<path d="M126.999 189.404L123.27 197.41L138.007 205.87L140.463 194.772L126.999 189.404Z" fill="#FD6C03" stroke="#263238" stroke-width="0.909722" stroke-miterlimit="10" stroke-linejoin="round"/>
</g>
<defs>
<clipPath id="clip0_281_1794">
<rect width="437" height="393" fill="white"/>
</clipPath>
</defs>
</svg>
