<svg width="414" height="387" viewBox="0 0 414 387" fill="none" xmlns="http://www.w3.org/2000/svg">
<path d="M185.861 1.09759C299.279 -8.96368 299.462 54.9711 350.592 114.607C401.721 174.243 412.606 201.317 393.398 270.008C374.098 338.699 309.157 392.664 228.85 362.114C148.543 331.565 102.536 360.925 51.8633 333.76C1.19113 306.686 -17.6509 254.276 19.4844 192.536C56.6196 130.796 46.0095 13.537 185.861 1.09759Z" fill="#FD6C03"/>
<path opacity="0.7" d="M185.861 1.09759C299.279 -8.96368 299.462 54.9711 350.592 114.607C401.721 174.243 412.606 201.317 393.398 270.008C374.098 338.699 309.157 392.664 228.85 362.114C148.543 331.565 102.536 360.925 51.8633 333.76C1.19113 306.686 -17.6509 254.276 19.4844 192.536C56.6196 130.796 46.0095 13.537 185.861 1.09759Z" fill="white"/>
<path d="M217.504 33.0192L198.845 36.9522C196.284 37.501 193.814 35.8546 193.357 33.3851L189.332 14.726C188.784 12.1649 190.43 9.69534 192.899 9.23801L211.559 5.30497C214.12 4.75617 216.589 6.40256 217.047 8.87215L220.98 27.5312C221.62 30.0008 219.973 32.4704 217.504 33.0192Z" stroke="#263238" stroke-width="0.914661" stroke-miterlimit="10" stroke-linecap="round" stroke-linejoin="round"/>
<path d="M203.967 15.4576L206.436 26.7994" stroke="#263238" stroke-width="0.914661" stroke-miterlimit="10" stroke-linecap="round" stroke-linejoin="round"/>
<path d="M210.828 19.9396L199.578 22.3177" stroke="#263238" stroke-width="0.914661" stroke-miterlimit="10" stroke-linecap="round" stroke-linejoin="round"/>
<path d="M405.559 232.507L386.9 236.44C384.339 236.988 381.869 235.342 381.412 232.872L377.479 214.213C376.93 211.652 378.576 209.183 381.046 208.725L399.705 204.792C402.266 204.244 404.736 205.89 405.193 208.36L409.126 227.019C409.675 229.58 408.12 232.049 405.559 232.507Z" stroke="#263238" stroke-width="0.914661" stroke-miterlimit="10" stroke-linecap="round" stroke-linejoin="round"/>
<path d="M396.505 215.768L390.193 225.464" stroke="#263238" stroke-width="0.914661" stroke-miterlimit="10" stroke-linecap="round" stroke-linejoin="round"/>
<path d="M398.15 223.817L388.455 217.506" stroke="#263238" stroke-width="0.914661" stroke-miterlimit="10" stroke-linecap="round" stroke-linejoin="round"/>
<path d="M146.71 353.608L127.685 352.51C125.124 352.327 123.112 350.132 123.295 347.571L124.392 328.546C124.575 325.985 126.77 323.973 129.332 324.156L148.356 325.253C150.918 325.436 152.93 327.631 152.747 330.192L151.649 349.217C151.466 351.778 149.271 353.699 146.71 353.608Z" stroke="#263238" stroke-width="0.914661" stroke-miterlimit="10" stroke-linecap="round" stroke-linejoin="round"/>
<path d="M143.783 339.156L132.258 338.516" stroke="#263238" stroke-width="0.914661" stroke-miterlimit="10" stroke-linecap="round" stroke-linejoin="round"/>
<path d="M25.0596 220.433L6.94927 214.396C4.47969 213.573 3.19916 210.921 4.02236 208.543L10.0591 190.432C10.8823 187.963 13.5348 186.682 15.9129 187.505L34.0232 193.542C36.4928 194.365 37.7733 197.018 36.9501 199.396L30.9134 217.506C30.0902 219.976 27.5291 221.256 25.0596 220.433Z" stroke="#263238" stroke-width="0.914661" stroke-miterlimit="10" stroke-linecap="round" stroke-linejoin="round"/>
<path d="M27.7134 200.402L13.2617 207.628" stroke="#263238" stroke-width="0.914661" stroke-miterlimit="10" stroke-linecap="round" stroke-linejoin="round"/>
<path d="M19.3885 197.384C19.8458 198.39 19.4799 199.579 18.4738 200.128C17.4677 200.585 16.2786 200.219 15.7298 199.213C15.2725 198.207 15.6384 197.018 16.6445 196.469C17.6506 196.012 18.9311 196.378 19.3885 197.384Z" stroke="#263238" stroke-width="0.914661" stroke-miterlimit="10" stroke-linecap="round" stroke-linejoin="round"/>
<path d="M25.1521 208.817C25.6095 209.823 25.2436 211.012 24.2375 211.561C23.2314 212.018 22.0423 211.653 21.4935 210.646C21.0362 209.64 21.402 208.451 22.4082 207.902C23.4143 207.445 24.6033 207.811 25.1521 208.817Z" stroke="#263238" stroke-width="0.914661" stroke-miterlimit="10" stroke-linecap="round" stroke-linejoin="round"/>
<path d="M212.75 320.68C207.444 328.363 196.926 330.284 189.334 324.979C186.407 322.967 184.304 320.131 183.114 317.021C181.285 311.991 181.834 306.228 185.035 301.564C187.322 298.271 190.523 296.076 194.09 294.978C198.847 293.515 204.152 294.246 208.542 297.265C216.134 302.57 218.055 313.088 212.75 320.68Z" fill="#FD6C03"/>
<path opacity="0.3" d="M210.555 319.217C206.073 325.619 197.292 327.266 190.798 322.784C184.396 318.302 182.749 309.521 187.231 303.027C191.713 296.625 200.494 294.978 206.988 299.46C213.39 303.942 215.037 312.723 210.555 319.217Z" fill="black" fill-opacity="0.7"/>
<path d="M210.555 319.217C206.073 325.619 197.292 327.266 190.798 322.784C184.396 318.302 182.749 309.521 187.231 303.027C191.713 296.625 200.494 294.978 206.988 299.46C213.39 303.942 215.037 312.723 210.555 319.217Z" stroke="#263238" stroke-width="0.914661" stroke-miterlimit="10" stroke-linecap="round" stroke-linejoin="round"/>
<path d="M202.598 304.033L203.238 303.027L204.976 304.216L204.335 305.222C205.616 306.503 205.616 308.241 204.335 309.979L204.061 310.436L202.049 309.064L202.415 308.515C203.055 307.6 202.963 306.96 202.232 306.503C201.591 306.045 200.951 306.137 200.311 307.052C199.671 307.966 199.579 308.881 200.219 310.985C200.951 313.546 200.86 315.009 199.762 316.473C198.482 318.302 196.927 318.851 195.28 318.21L194.64 319.217L192.902 318.028L193.542 317.021C192.262 315.649 192.262 314.003 193.542 312.174L194.183 311.259L196.195 312.631L195.463 313.637C194.823 314.552 195.006 315.192 195.646 315.649C196.286 316.107 196.927 316.015 197.658 315.101C198.299 314.186 198.39 313.18 197.75 311.168C197.018 308.607 197.11 307.143 198.207 305.68C199.396 303.942 200.86 303.393 202.598 304.033Z" fill="#FD6C03" stroke="#263238" stroke-width="0.914661" stroke-miterlimit="10" stroke-linecap="round" stroke-linejoin="round"/>
<path opacity="0.2" d="M194.274 297.448C194.274 305.771 189.792 312.997 183.206 317.021C181.377 311.991 181.926 306.228 185.127 301.564C187.414 298.271 190.615 296.076 194.182 294.978C194.182 295.801 194.274 296.625 194.274 297.448Z" fill="black" fill-opacity="0.7"/>
<path d="M212.75 320.68C207.444 328.363 196.926 330.284 189.334 324.979C186.407 322.967 184.304 320.131 183.114 317.021C181.285 311.991 181.834 306.228 185.035 301.564C187.322 298.271 190.523 296.076 194.09 294.978C198.847 293.515 204.152 294.246 208.542 297.265C216.134 302.57 218.055 313.088 212.75 320.68Z" stroke="#263238" stroke-width="0.914661" stroke-miterlimit="10" stroke-linecap="round" stroke-linejoin="round"/>
<path d="M174.882 313.729C184.177 313.729 191.712 306.194 191.712 296.899C191.712 287.604 184.177 280.069 174.882 280.069C165.588 280.069 158.053 287.604 158.053 296.899C158.053 306.194 165.588 313.729 174.882 313.729Z" fill="#FD6C03" stroke="#263238" stroke-width="0.914661" stroke-miterlimit="10" stroke-linecap="round" stroke-linejoin="round"/>
<path opacity="0.3" d="M174.882 311.076C182.712 311.076 189.06 304.729 189.06 296.899C189.06 289.069 182.712 282.722 174.882 282.722C167.052 282.722 160.705 289.069 160.705 296.899C160.705 304.729 167.052 311.076 174.882 311.076Z" fill="black" fill-opacity="0.7"/>
<path d="M174.882 311.076C182.712 311.076 189.06 304.729 189.06 296.899C189.06 289.069 182.712 282.722 174.882 282.722C167.052 282.722 160.705 289.069 160.705 296.899C160.705 304.729 167.052 311.076 174.882 311.076Z" stroke="#263238" stroke-width="0.914661" stroke-miterlimit="10" stroke-linecap="round" stroke-linejoin="round"/>
<path d="M173.785 289.033V287.844H175.889V289.033C177.718 289.399 178.633 290.771 178.633 292.966V293.515H176.255V292.874C176.255 291.685 175.797 291.32 174.974 291.32C174.151 291.32 173.694 291.777 173.694 292.874C173.694 294.064 174.151 294.795 175.889 296.167C177.992 297.814 178.633 299.094 178.633 300.923C178.633 303.119 177.718 304.491 175.889 304.856V306.046H173.785V304.856C171.956 304.491 171.041 303.119 171.041 300.923V299.826H173.419V301.106C173.419 302.295 173.968 302.661 174.7 302.661C175.523 302.661 175.98 302.204 175.98 301.106C175.98 299.917 175.523 299.094 173.785 297.814C171.681 296.167 171.041 294.887 171.041 293.057C171.132 290.862 172.047 289.399 173.785 289.033Z" fill="#FD6C03" stroke="#263238" stroke-width="0.914661" stroke-miterlimit="10" stroke-linecap="round" stroke-linejoin="round"/>
<path d="M269.456 311.076C274.471 303.25 272.191 292.84 264.365 287.826C256.539 282.811 246.129 285.09 241.115 292.917C236.1 300.743 238.38 311.152 246.206 316.167C254.032 321.182 264.442 318.902 269.456 311.076Z" fill="#FD6C03" stroke="#263238" stroke-width="0.914661" stroke-miterlimit="10" stroke-linecap="round" stroke-linejoin="round"/>
<path opacity="0.3" d="M265.708 292.326C271.013 298.088 270.739 307.052 264.976 312.357C259.214 317.662 250.25 317.387 244.945 311.625C239.64 305.862 239.915 296.899 245.677 291.594C251.348 286.289 260.312 286.655 265.708 292.326Z" fill="black" fill-opacity="0.7"/>
<path d="M265.708 292.326C271.013 298.088 270.739 307.052 264.976 312.357C259.214 317.662 250.25 317.387 244.945 311.625C239.64 305.862 239.915 296.899 245.677 291.594C251.348 286.289 260.312 286.655 265.708 292.326Z" stroke="#263238" stroke-width="0.914661" stroke-miterlimit="10" stroke-linecap="round" stroke-linejoin="round"/>
<path d="M249.153 296.899L248.33 295.984L249.885 294.612L250.708 295.527C252.263 294.612 253.91 294.978 255.373 296.533L255.739 296.899L254.001 298.545L253.544 298.088C252.72 297.265 252.172 297.265 251.531 297.813C250.983 298.362 250.891 299.003 251.714 299.826C252.538 300.649 253.361 300.923 255.556 300.74C258.208 300.557 259.58 301.015 260.861 302.295C262.324 303.942 262.599 305.588 261.501 307.052L262.324 307.875L260.769 309.247L259.946 308.424C258.391 309.43 256.745 308.972 255.282 307.417L254.55 306.594L256.288 304.948L257.111 305.862C257.934 306.686 258.574 306.686 259.123 306.137C259.672 305.588 259.763 304.948 259.032 304.125C258.208 303.301 257.385 303.027 255.19 303.21C252.538 303.393 251.166 302.936 249.885 301.655C248.422 300.009 248.147 298.454 249.153 296.899Z" fill="#FD6C03" stroke="#263238" stroke-width="0.914661" stroke-miterlimit="10" stroke-linecap="round" stroke-linejoin="round"/>
<path opacity="0.2" d="M248.331 228.757C248.331 228.757 248.239 263.697 248.331 265.8C248.422 267.813 251.075 280.161 251.075 280.161L242.568 295.801L249.886 301.655L264.154 287.661C264.154 287.661 276.228 295.161 278.515 305.863C280.71 316.564 293.881 324.339 307.601 353.974C321.321 383.609 336.87 287.661 336.87 287.661L294.704 234.519L248.331 228.757Z" fill="black" fill-opacity="0.7"/>
<path d="M377.299 40.7939L364.402 166.926L356.445 244.489L245.405 233.147L223.727 230.952L209.916 229.488L222.172 109.759L230.77 25.7935L377.299 40.7939Z" fill="white"/>
<path d="M334.767 45.5501L271.473 39.056C270.284 38.9645 269.186 39.7877 269.095 40.9768C269.003 42.1658 269.827 43.2634 271.016 43.3549L334.31 49.849C335.499 49.9405 336.597 49.1173 336.688 47.9282C336.78 46.7392 335.957 45.6416 334.767 45.5501Z" fill="#263238"/>
<path d="M318.03 52.776L286.382 49.5746C285.834 49.4832 285.285 49.9405 285.193 50.5808C285.102 51.1296 285.559 51.6784 286.199 51.7698L317.847 54.9711C318.395 55.0626 318.944 54.6053 319.036 53.965C319.036 53.3248 318.67 52.8674 318.03 52.776Z" fill="#263238"/>
<path d="M352.878 145.797L250.253 135.278C249.705 135.187 249.156 135.644 249.064 136.285C248.973 136.833 249.43 137.382 250.071 137.474L352.695 147.992C353.244 148.084 353.793 147.626 353.885 146.986C353.976 146.346 353.427 145.888 352.878 145.797Z" fill="#263238"/>
<path d="M352.056 153.572L232.693 141.315C232.144 141.224 231.595 141.681 231.504 142.321C231.412 142.87 231.87 143.419 232.51 143.51L351.873 155.767C352.422 155.858 352.971 155.401 353.062 154.761C353.062 154.12 352.696 153.663 352.056 153.572Z" fill="#263238"/>
<path d="M317.847 157.871L231.869 149.09C231.32 148.998 230.771 149.456 230.68 150.096C230.588 150.645 231.045 151.193 231.686 151.285L317.664 160.066C318.213 160.157 318.761 159.7 318.853 159.06C318.944 158.419 318.396 157.962 317.847 157.871Z" fill="#263238"/>
<path d="M230.503 157.364L227.008 191.485L347.388 203.816L350.883 169.695L230.503 157.364Z" fill="#BFBFBF" stroke="#263238" stroke-width="0.914661" stroke-miterlimit="10"/>
<path d="M268.548 124.211C283.349 124.211 295.347 112.212 295.347 97.4114C295.347 82.6104 283.349 70.6118 268.548 70.6118C253.747 70.6118 241.748 82.6104 241.748 97.4114C241.748 112.212 253.747 124.211 268.548 124.211Z" fill="#FD6C03"/>
<path opacity="0.5" d="M285.711 118.011C297.083 108.537 298.621 91.638 289.147 80.2664C279.673 68.8948 262.774 67.3566 251.403 76.8307C240.031 86.3048 238.493 103.204 247.967 114.575C257.441 125.947 274.34 127.485 285.711 118.011Z" fill="white"/>
<path d="M268.548 124.211C283.349 124.211 295.347 112.212 295.347 97.4114C295.347 82.6104 283.349 70.6118 268.548 70.6118C253.747 70.6118 241.748 82.6104 241.748 97.4114C241.748 112.212 253.747 124.211 268.548 124.211Z" stroke="#263238" stroke-width="0.914661" stroke-miterlimit="10"/>
<path d="M269.369 97.3199L291.687 108.57C292.967 106.009 293.791 103.082 294.065 100.064C294.797 93.204 292.693 86.7099 288.668 81.5878L269.369 97.3199Z" fill="white"/>
<path d="M269.459 96.1308L288.118 80.9474C285.374 77.6547 281.807 75.0936 277.691 73.5387L274.398 82.7768L269.459 96.1308Z" fill="#FD6C03"/>
<path d="M271.656 71.9839L269.369 94.0272L276.961 73.1729C275.223 72.6242 273.485 72.2583 271.656 71.9839Z" fill="#757575"/>
<path d="M268.179 97.137L270.74 71.8923C256.838 70.7033 244.49 80.856 243.118 94.7589C242.66 99.3322 243.392 103.631 245.13 107.564L268.179 97.137Z" fill="#999999"/>
<path d="M265.984 122.839C276.686 123.936 286.564 118.266 291.229 109.302L268.545 97.8687L245.404 108.387C249.154 116.162 256.746 121.924 265.984 122.839Z" fill="#BFBFBF"/>
<path d="M311.169 84.2403L308.15 83.9659C307.876 83.9659 307.602 83.6915 307.602 83.3256L307.876 80.3072C307.876 80.0328 308.15 79.7584 308.516 79.7584L311.535 80.0328C311.809 80.0328 312.083 80.3072 312.083 80.6731L311.809 83.6915C311.718 83.9659 311.443 84.2403 311.169 84.2403Z" fill="#FD6C03" stroke="#263238" stroke-width="0.914661" stroke-miterlimit="10"/>
<path d="M354.067 85.8866L314.645 81.8621C314.37 81.8621 314.188 81.5877 314.188 81.3133C314.188 81.0389 314.462 80.856 314.736 80.856L354.158 84.8805C354.433 84.8805 354.616 85.1549 354.616 85.4293C354.524 85.7037 354.341 85.8866 354.067 85.8866Z" fill="#263238"/>
<path d="M349.95 87.6245L314.461 83.9658C314.187 83.9658 314.004 83.6914 314.004 83.417C314.004 83.1426 314.278 82.9597 314.553 82.9597L350.042 86.6184C350.316 86.6184 350.499 86.8928 350.499 87.1672C350.499 87.4416 350.224 87.6245 349.95 87.6245Z" fill="#263238"/>
<path d="M310.163 93.5697L307.144 93.2953C306.87 93.2953 306.596 93.0209 306.596 92.6551L306.87 89.6367C306.87 89.3623 307.144 89.0879 307.51 89.0879L310.529 89.3623C310.803 89.3623 311.078 89.6367 311.078 90.0026L310.803 93.0209C310.803 93.3868 310.529 93.6612 310.163 93.5697Z" fill="#757575" stroke="#263238" stroke-width="0.914661" stroke-miterlimit="10" stroke-linecap="round" stroke-linejoin="round"/>
<path d="M353.059 95.3076L313.729 91.2831C313.454 91.2831 313.271 91.0087 313.271 90.7343C313.271 90.4599 313.546 90.277 313.82 90.277L353.242 94.3015C353.517 94.3015 353.7 94.5759 353.7 94.8503C353.608 95.1247 353.334 95.3076 353.059 95.3076Z" fill="#263238"/>
<path d="M349.034 97.0455L313.545 93.3869C313.271 93.3869 313.088 93.1125 313.088 92.8381C313.088 92.5637 313.362 92.3807 313.637 92.3807L349.126 96.0394C349.4 96.0394 349.583 96.3138 349.583 96.5882C349.491 96.8626 349.308 97.0455 349.034 97.0455Z" fill="#263238"/>
<path d="M309.249 102.991L306.23 102.716C305.956 102.716 305.682 102.442 305.682 102.076L305.956 99.0578C305.956 98.7834 306.23 98.509 306.596 98.509L309.615 98.7834C309.889 98.7834 310.163 99.0578 310.163 99.4237L309.889 102.442C309.798 102.808 309.523 102.991 309.249 102.991Z" fill="#999999" stroke="#263238" stroke-width="0.914661" stroke-miterlimit="10" stroke-linecap="round" stroke-linejoin="round"/>
<path d="M352.147 104.729L312.725 100.704C312.451 100.704 312.268 100.43 312.268 100.156C312.268 99.8812 312.542 99.6982 312.816 99.6982L352.238 103.723C352.513 103.723 352.696 103.997 352.696 104.272C352.604 104.546 352.421 104.729 352.147 104.729Z" fill="#263238"/>
<path d="M348.03 106.375L312.541 102.717C312.267 102.717 312.084 102.442 312.084 102.168C312.084 101.893 312.358 101.71 312.633 101.71L348.122 105.369C348.396 105.369 348.579 105.643 348.579 105.918C348.579 106.192 348.305 106.467 348.03 106.375Z" fill="#263238"/>
<path d="M308.243 112.412L305.225 112.137C304.95 112.137 304.676 111.863 304.676 111.497L304.95 108.479C304.95 108.204 305.225 107.93 305.59 107.93L308.609 108.204C308.883 108.204 309.158 108.479 309.158 108.845L308.883 111.863C308.883 112.229 308.609 112.412 308.243 112.412Z" fill="#BFBFBF" stroke="#263238" stroke-width="0.914661" stroke-miterlimit="10"/>
<path d="M351.141 114.058L311.719 110.034C311.445 110.034 311.262 109.759 311.262 109.485C311.262 109.211 311.536 109.028 311.811 109.028L351.232 113.052C351.507 113.052 351.69 113.327 351.69 113.601C351.69 113.967 351.415 114.15 351.141 114.058Z" fill="#263238"/>
<path d="M347.118 115.796L311.629 112.137C311.355 112.137 311.172 111.863 311.172 111.589C311.172 111.314 311.446 111.131 311.721 111.131L347.21 114.79C347.484 114.79 347.667 115.064 347.667 115.339C347.575 115.613 347.392 115.796 347.118 115.796Z" fill="#263238"/>
<path d="M307.329 121.741L304.311 121.467C304.036 121.467 303.762 121.193 303.762 120.827L304.036 117.808C304.036 117.534 304.311 117.26 304.676 117.26L307.695 117.534C307.969 117.534 308.244 117.808 308.244 118.174L307.969 121.193C307.878 121.558 307.603 121.833 307.329 121.741Z" fill="white" stroke="#263238" stroke-width="0.914661" stroke-miterlimit="10" stroke-linecap="round" stroke-linejoin="round"/>
<path d="M350.227 123.479L310.805 119.455C310.531 119.455 310.348 119.18 310.348 118.906C310.348 118.632 310.622 118.449 310.896 118.449L350.318 122.565C350.593 122.565 350.776 122.839 350.776 123.113C350.684 123.296 350.501 123.479 350.227 123.479Z" fill="#263238"/>
<path d="M346.112 125.217L310.623 121.558C310.349 121.558 310.166 121.284 310.166 121.01C310.166 120.735 310.44 120.552 310.715 120.552L346.204 124.211C346.478 124.211 346.661 124.485 346.661 124.76C346.661 125.034 346.387 125.217 346.112 125.217Z" fill="#263238"/>
<path d="M332.673 192.293L334.947 192.526L336.263 179.697L333.988 179.463L332.673 192.293Z" fill="#757575" stroke="#263238" stroke-width="0.914661" stroke-miterlimit="10" stroke-linecap="round" stroke-linejoin="round"/>
<path d="M332.799 190.409L335.074 190.642L335.699 184.545L333.424 184.312L332.799 190.409Z" fill="#FD6C03" stroke="#263238" stroke-width="0.914661" stroke-miterlimit="10"/>
<path d="M338.053 189.606L340.328 189.839L341.642 177.01L339.368 176.777L338.053 189.606Z" fill="#757575" stroke="#263238" stroke-width="0.914661" stroke-miterlimit="10" stroke-linecap="round" stroke-linejoin="round"/>
<path d="M339.092 180.136L338.467 186.232L340.742 186.466L341.367 180.369L339.092 180.136Z" fill="#FD6C03" stroke="#263238" stroke-width="0.914661" stroke-miterlimit="10"/>
<path d="M342.827 192.554L345.102 192.787L346.416 179.957L344.141 179.724L342.827 192.554Z" fill="#757575" stroke="#263238" stroke-width="0.914661" stroke-miterlimit="10" stroke-linecap="round" stroke-linejoin="round"/>
<path d="M343.383 187.754L345.658 187.988L346.283 181.891L344.009 181.658L343.383 187.754Z" fill="#FD6C03" stroke="#263238" stroke-width="0.914661" stroke-miterlimit="10"/>
<path d="M327.819 189.281L330.094 189.514L331.409 176.684L329.134 176.451L327.819 189.281Z" fill="#757575" stroke="#263238" stroke-width="0.914661" stroke-miterlimit="10" stroke-linecap="round" stroke-linejoin="round"/>
<path d="M328.048 187.314L330.322 187.547L330.947 181.451L328.672 181.218L328.048 187.314Z" fill="#FD6C03" stroke="#263238" stroke-width="0.914661" stroke-miterlimit="10"/>
<path d="M322.397 192.581L324.672 192.814L325.986 179.985L323.711 179.752L322.397 192.581Z" fill="#757575" stroke="#263238" stroke-width="0.914661" stroke-miterlimit="10" stroke-linecap="round" stroke-linejoin="round"/>
<path d="M322.544 191.079L324.818 191.312L325.443 185.216L323.169 184.982L322.544 191.079Z" fill="#FD6C03" stroke="#263238" stroke-width="0.914661" stroke-miterlimit="10"/>
<path d="M317.618 188.74L319.893 188.973L321.207 176.144L318.932 175.911L317.618 188.74Z" fill="#757575" stroke="#263238" stroke-width="0.914661" stroke-miterlimit="10" stroke-linecap="round" stroke-linejoin="round"/>
<path d="M317.749 188.178L320.023 188.412L320.649 182.315L318.374 182.082L317.749 188.178Z" fill="#FD6C03" stroke="#263238" stroke-width="0.914661" stroke-miterlimit="10"/>
<path d="M311.889 194.908L314.164 195.141L315.48 182.312L313.205 182.078L311.889 194.908Z" fill="#757575" stroke="#263238" stroke-width="0.914661" stroke-miterlimit="10" stroke-linecap="round" stroke-linejoin="round"/>
<path d="M312.014 194.365L314.289 194.598L314.914 188.502L312.639 188.268L312.014 194.365Z" fill="#FD6C03" stroke="#263238" stroke-width="0.914661" stroke-miterlimit="10"/>
<path d="M307.717 186.304L309.992 186.537L311.306 173.707L309.032 173.474L307.717 186.304Z" fill="#757575" stroke="#263238" stroke-width="0.914661" stroke-miterlimit="10" stroke-linecap="round" stroke-linejoin="round"/>
<path d="M307.854 184.397L310.129 184.63L310.753 178.534L308.479 178.301L307.854 184.397Z" fill="#FD6C03" stroke="#263238" stroke-width="0.914661" stroke-miterlimit="10"/>
<path d="M302.694 185.022L304.969 185.255L306.284 172.425L304.009 172.192L302.694 185.022Z" fill="#757575" stroke="#263238" stroke-width="0.914661" stroke-miterlimit="10" stroke-linecap="round" stroke-linejoin="round"/>
<path d="M303.241 180.173L305.516 180.406L306.14 174.31L303.865 174.077L303.241 180.173Z" fill="#FD6C03" stroke="#263238" stroke-width="0.914661" stroke-miterlimit="10"/>
<path d="M296.858 192.554L299.133 192.787L300.447 179.957L298.172 179.724L296.858 192.554Z" fill="#757575" stroke="#263238" stroke-width="0.914661" stroke-miterlimit="10" stroke-linecap="round" stroke-linejoin="round"/>
<path d="M297.321 187.254L299.596 187.487L300.22 181.39L297.945 181.157L297.321 187.254Z" fill="#FD6C03" stroke="#263238" stroke-width="0.914661" stroke-miterlimit="10"/>
<path d="M292.368 186.435L294.643 186.668L295.957 173.839L293.682 173.606L292.368 186.435Z" fill="#757575" stroke="#263238" stroke-width="0.914661" stroke-miterlimit="10" stroke-linecap="round" stroke-linejoin="round"/>
<path d="M292.604 184.025L294.879 184.258L295.503 178.162L293.229 177.929L292.604 184.025Z" fill="#FD6C03" stroke="#263238" stroke-width="0.914661" stroke-miterlimit="10"/>
<path d="M286.962 189.252L289.236 189.486L290.552 176.656L288.277 176.423L286.962 189.252Z" fill="#757575" stroke="#263238" stroke-width="0.914661" stroke-miterlimit="10" stroke-linecap="round" stroke-linejoin="round"/>
<path d="M287.098 187.274L289.373 187.507L289.998 181.411L287.723 181.178L287.098 187.274Z" fill="#FD6C03" stroke="#263238" stroke-width="0.914661" stroke-miterlimit="10"/>
<path d="M281.243 194.446L283.518 194.679L284.833 181.849L282.558 181.616L281.243 194.446Z" fill="#757575" stroke="#263238" stroke-width="0.914661" stroke-miterlimit="10" stroke-linecap="round" stroke-linejoin="round"/>
<path d="M281.245 194.518L283.52 194.751L284.144 188.655L281.869 188.422L281.245 194.518Z" fill="#FD6C03" stroke="#263238" stroke-width="0.914661" stroke-miterlimit="10"/>
<path d="M277.075 185.839L279.35 186.072L280.664 173.242L278.389 173.009L277.075 185.839Z" fill="#757575" stroke="#263238" stroke-width="0.914661" stroke-miterlimit="10" stroke-linecap="round" stroke-linejoin="round"/>
<path d="M277.208 184.358L279.482 184.591L280.107 178.495L277.832 178.262L277.208 184.358Z" fill="#FD6C03" stroke="#263238" stroke-width="0.914661" stroke-miterlimit="10"/>
<path d="M272.602 179.614L274.877 179.847L276.192 167.017L273.918 166.784L272.602 179.614Z" fill="#757575" stroke="#263238" stroke-width="0.914661" stroke-miterlimit="10" stroke-linecap="round" stroke-linejoin="round"/>
<path d="M272.717 178.242L274.992 178.475L275.617 172.378L273.342 172.145L272.717 178.242Z" fill="#FD6C03" stroke="#263238" stroke-width="0.914661" stroke-miterlimit="10"/>
<path d="M266.829 185.983L269.104 186.216L270.418 173.386L268.143 173.153L266.829 185.983Z" fill="#757575" stroke="#263238" stroke-width="0.914661" stroke-miterlimit="10" stroke-linecap="round" stroke-linejoin="round"/>
<path d="M267.303 181.088L269.578 181.321L270.203 175.224L267.928 174.991L267.303 181.088Z" fill="#FD6C03" stroke="#263238" stroke-width="0.914661" stroke-miterlimit="10"/>
<path d="M260.981 192.705L263.256 192.938L264.57 180.109L262.295 179.876L260.981 192.705Z" fill="#757575" stroke="#263238" stroke-width="0.914661" stroke-miterlimit="10" stroke-linecap="round" stroke-linejoin="round"/>
<path d="M261.549 186.899L263.824 187.132L264.449 181.035L262.174 180.802L261.549 186.899Z" fill="#FD6C03" stroke="#263238" stroke-width="0.914661" stroke-miterlimit="10"/>
<path d="M256.647 184.908L258.922 185.141L260.236 172.311L257.961 172.078L256.647 184.908Z" fill="#757575" stroke="#263238" stroke-width="0.914661" stroke-miterlimit="10" stroke-linecap="round" stroke-linejoin="round"/>
<path d="M256.883 182.995L259.158 183.229L259.783 177.132L257.509 176.899L256.883 182.995Z" fill="#FD6C03" stroke="#263238" stroke-width="0.914661" stroke-miterlimit="10"/>
<path d="M251.819 182.228L254.094 182.462L255.409 169.632L253.134 169.399L251.819 182.228Z" fill="#757575" stroke="#263238" stroke-width="0.914661" stroke-miterlimit="10" stroke-linecap="round" stroke-linejoin="round"/>
<path d="M252.366 176.954L254.641 177.187L255.265 171.09L252.99 170.857L252.366 176.954Z" fill="#FD6C03" stroke="#263238" stroke-width="0.914661" stroke-miterlimit="10"/>
<path d="M246.362 185.737L248.637 185.971L249.952 173.141L247.677 172.908L246.362 185.737Z" fill="#757575" stroke="#263238" stroke-width="0.914661" stroke-miterlimit="10" stroke-linecap="round" stroke-linejoin="round"/>
<path d="M246.374 185.716L248.648 185.949L249.273 179.853L246.998 179.62L246.374 185.716Z" fill="#FD6C03" stroke="#263238" stroke-width="0.914661" stroke-miterlimit="10"/>
<path d="M241.719 181.179L243.994 181.412L245.308 168.582L243.034 168.349L241.719 181.179Z" fill="#757575" stroke="#263238" stroke-width="0.914661" stroke-miterlimit="10" stroke-linecap="round" stroke-linejoin="round"/>
<path d="M241.852 180.197L244.127 180.431L244.752 174.334L242.477 174.101L241.852 180.197Z" fill="#FD6C03" stroke="#263238" stroke-width="0.914661" stroke-miterlimit="10"/>
<path d="M236.452 182.418L238.727 182.651L240.041 169.822L237.766 169.589L236.452 182.418Z" fill="#757575" stroke="#263238" stroke-width="0.914661" stroke-miterlimit="10" stroke-linecap="round" stroke-linejoin="round"/>
<path d="M236.475 181.957L238.75 182.19L239.374 176.094L237.1 175.861L236.475 181.957Z" fill="#FD6C03" stroke="#263238" stroke-width="0.914661" stroke-miterlimit="10"/>
<path d="M231.604 180.278L233.879 180.511L235.193 167.681L232.918 167.448L231.604 180.278Z" fill="#757575" stroke="#263238" stroke-width="0.914661" stroke-miterlimit="10" stroke-linecap="round" stroke-linejoin="round"/>
<path d="M232.182 173.956L234.457 174.189L235.081 168.092L232.807 167.859L232.182 173.956Z" fill="#FD6C03" stroke="#263238" stroke-width="0.914661" stroke-miterlimit="10"/>
<path d="M346.474 208.085L243.849 197.567C243.3 197.475 242.752 197.933 242.66 198.573C242.569 199.122 243.026 199.67 243.666 199.762L346.291 210.28C346.84 210.372 347.389 209.915 347.48 209.274C347.572 208.634 347.023 208.177 346.474 208.085Z" fill="#263238"/>
<path d="M345.652 215.86L226.289 203.603C225.74 203.512 225.191 203.969 225.1 204.61C225.008 205.158 225.465 205.707 226.106 205.799L345.469 218.055C346.018 218.147 346.567 217.689 346.658 217.049C346.658 216.409 346.292 215.86 345.652 215.86Z" fill="#263238"/>
<path d="M294.704 218.421L225.464 211.287C224.916 211.195 224.367 211.653 224.275 212.293C224.184 212.842 224.641 213.39 225.281 213.482L294.521 220.616C295.07 220.708 295.619 220.25 295.71 219.61C295.802 218.97 295.344 218.513 294.704 218.421Z" fill="#263238"/>
<path opacity="0.2" d="M357.817 149.364C354.249 149.09 353.06 154.761 353.06 154.761C353.06 154.761 347.481 147.443 348.396 130.156C348.396 130.156 345.652 122.473 338.334 127.138C331.017 131.711 323.425 147.992 325.255 165.737L310.986 118.449C306.047 119.455 296.077 126.132 298.73 158.053L283.18 141.59C283.18 141.59 278.973 140.218 276.595 143.968C274.217 147.718 275.314 174.334 277.327 184.304C279.339 194.274 274.308 214.305 274.308 214.305C274.308 214.305 268.912 191.622 259.216 185.859L222.172 109.759L209.916 229.488L223.727 230.952L245.954 220.159C245.862 225.19 245.679 229.763 245.313 233.147L356.353 244.489L364.311 166.926C361.75 157.322 359.097 149.456 357.817 149.364Z" fill="black" fill-opacity="0.7"/>
<path d="M377.299 40.7939L364.402 166.926L356.445 244.489L245.405 233.147L223.727 230.952L209.916 229.488L222.172 109.759L230.77 25.7935L377.299 40.7939Z" stroke="#263238" stroke-width="0.914661" stroke-miterlimit="10" stroke-linecap="round" stroke-linejoin="round"/>
<path d="M375.467 365.498L310.527 376.566C310.527 376.566 299.185 316.564 292.508 307.052C285.739 297.631 287.02 293.697 283.727 287.295C281.715 283.453 271.836 276.227 264.062 269.185C263.421 268.544 262.69 267.995 262.049 267.355C261.775 267.081 261.501 266.806 261.226 266.624C260.22 265.617 259.214 264.611 258.391 263.605C258.116 263.239 257.751 262.873 257.476 262.599C255.83 260.587 254.732 258.757 254.366 257.02C254.366 256.928 254.366 256.837 254.275 256.745C254.275 256.654 254.275 256.471 254.183 256.379C254 254.916 253.818 253.361 253.635 251.623C253.635 251.257 253.543 250.891 253.543 250.525C253.543 250.343 253.543 250.251 253.452 250.068C253.269 248.605 253.086 247.05 252.903 245.495C252.72 243.848 252.446 242.111 252.263 240.373C252.171 239.732 252.08 239.184 251.988 238.543C251.897 237.903 251.805 237.171 251.622 236.531C251.531 235.982 251.439 235.342 251.348 234.793C251.348 234.702 251.256 234.61 251.256 234.519C251.165 233.787 250.982 233.147 250.891 232.507C250.891 232.415 250.891 232.324 250.891 232.232C250.799 231.683 250.616 231.043 250.525 230.494C250.25 229.122 249.884 227.842 249.61 226.561C248.878 224 248.147 221.714 247.232 219.61C242.567 209.183 248.604 212.933 244.945 186.042C244.945 186.042 247.689 179.822 255.372 184.761C255.921 185.127 256.562 185.585 257.11 186.042C258.665 187.322 260.037 188.786 261.226 190.432C262.781 192.627 263.97 195.006 264.793 197.75C265.983 201.774 266.44 206.164 265.8 210.829C265.8 210.829 271.562 230.677 274.58 235.159C277.599 239.641 290.221 213.756 289.398 210.738C289.215 210.097 289.032 208.634 288.758 206.622C288.666 206.164 288.666 205.707 288.575 205.158C288.483 204.61 288.483 204.152 288.392 203.603C288.392 203.329 288.3 203.055 288.3 202.78C288.3 202.689 288.3 202.597 288.3 202.414C288.209 201.408 288.026 200.311 287.934 199.122C287.934 198.756 287.843 198.481 287.843 198.207C287.751 197.658 287.751 197.109 287.66 196.56C287.66 196.469 287.66 196.378 287.66 196.286C287.66 196.012 287.569 195.646 287.569 195.371C287.477 194.731 287.477 194.091 287.386 193.451C287.294 192.902 287.294 192.353 287.203 191.804C287.111 190.798 287.02 189.701 286.928 188.694C286.837 187.963 286.745 187.139 286.745 186.408C286.745 186.225 286.745 186.042 286.654 185.95C286.288 181.926 285.922 178.633 285.831 177.17C285.831 177.17 276.684 163.633 275.769 157.23C274.855 150.827 274.946 144.15 278.788 141.406C287.843 134.912 285.19 145.339 289.306 149.638C293.331 153.937 299.642 160.98 303.118 163.175C306.411 165.279 309.246 173.237 309.703 174.426C309.246 172.688 304.581 155.401 304.49 151.925C304.398 148.266 301.563 128.876 306.319 121.924C311.075 114.973 317.386 120.369 318.027 121.741C318.576 123.113 318.758 141.864 320.496 147.077C322.143 152.291 329.186 174.06 329.186 174.06C329.186 174.06 329.46 152.931 331.015 143.419C332.57 133.998 336.686 126.589 340.71 126.132C344.735 125.674 348.485 130.156 348.485 130.156C348.485 130.156 346.93 145.248 347.387 148.724C347.845 152.199 346.747 164.822 348.668 171.59C348.668 171.59 348.485 153.571 351.229 151.285C354.064 148.998 356.442 147.901 357.997 149.455C359.552 151.01 359.918 161.712 361.473 168.115C363.12 174.517 362.845 183.298 363.943 193.268C365.04 203.238 369.156 217.14 368.333 225.098C367.51 233.055 364.949 252.721 362.937 264.337C360.924 275.953 355.711 291.777 355.711 291.777C355.711 291.777 358.089 300.283 357.632 307.783C356.9 315.283 375.467 365.498 375.467 365.498Z" fill="white"/>
<path opacity="0.4" d="M320.314 147.077C321.595 150.919 325.711 163.816 327.814 170.31C327.814 170.31 318.759 176.987 318.942 183.206C319.217 189.426 317.296 201.957 313.18 201.591C309.155 201.225 309.43 175.157 308.149 170.859C308.972 172.779 309.521 174.243 309.613 174.609C309.338 173.511 304.491 155.584 304.399 152.017C304.399 151.193 304.216 149.547 304.033 147.352C304.033 147.352 313.088 138.754 319.674 143.968C319.857 145.157 320.04 146.254 320.314 147.077Z" fill="#FD6C03"/>
<path opacity="0.4" d="M347.295 154.578C343.088 158.602 336.685 165.645 335.862 172.505C335.862 172.505 338.24 191.621 337.234 199.853L329.002 174.06C329.002 174.06 329.276 152.931 330.923 143.419C330.923 143.144 331.014 142.87 331.106 142.596C335.13 140.492 340.71 138.663 347.661 138.571C347.387 142.687 347.112 146.986 347.295 148.724C347.295 149.913 347.295 152.017 347.295 154.578Z" fill="#FD6C03"/>
<path opacity="0.4" d="M351.046 151.285C350.955 151.285 350.955 151.285 351.046 151.285C350.955 151.376 350.68 151.559 350.314 151.925C350.497 151.468 350.772 151.102 351.046 150.736V151.285Z" fill="#FD6C03"/>
<path opacity="0.4" d="M353.148 203.969C353.148 203.969 347.752 183.572 347.66 167.2C347.66 161.163 348.3 155.584 350.313 151.834C350.496 151.376 350.77 151.01 351.044 150.645V151.193C352.233 150.279 353.331 149.455 354.246 149.09C352.691 151.468 350.953 156.132 352.965 163.724C356.166 175.523 353.423 190.066 353.148 203.969Z" fill="#FD6C03"/>
<path opacity="0.4" d="M278.239 242.842C278.239 242.842 279.702 262.233 264.061 269.185C263.421 268.544 262.689 267.996 262.141 267.355C261.866 267.081 261.592 266.807 261.317 266.624C260.311 265.617 259.305 264.611 258.482 263.605C258.208 263.239 257.842 262.873 257.567 262.599C255.921 260.587 254.823 258.758 254.457 257.02C254.457 256.928 254.366 256.837 254.366 256.745C254.366 256.654 254.366 256.471 254.274 256.379C254.092 255.007 253.909 253.361 253.726 251.623C253.726 251.257 253.634 250.891 253.634 250.526C253.634 250.343 253.634 250.251 253.543 250.068C253.36 248.605 253.177 247.05 252.994 245.403C252.811 243.757 252.537 242.019 252.354 240.281C252.262 239.641 252.171 239.092 252.079 238.452C251.988 237.812 251.896 237.08 251.713 236.44C251.622 235.891 251.53 235.251 251.439 234.702C251.439 234.61 251.439 234.519 251.348 234.428C251.256 233.787 251.073 233.056 250.982 232.415C250.982 232.324 250.982 232.232 250.982 232.141C250.89 231.501 250.707 230.952 250.616 230.403C250.341 229.122 249.976 227.751 249.701 226.47C255.921 220.525 270.098 224.275 263.238 210.463C263.238 210.463 266.714 198.664 257.11 185.951C263.695 191.256 266.988 200.494 265.799 210.646C265.799 210.646 271.562 230.494 274.58 234.976C277.598 239.458 290.221 213.573 289.397 210.555C289.215 209.915 289.032 208.451 288.757 206.439C288.666 205.982 288.666 205.524 288.574 204.975C288.483 204.518 288.483 203.969 288.391 203.421C288.391 203.146 288.3 202.872 288.3 202.597C288.3 202.506 288.3 202.414 288.3 202.231C288.208 201.225 288.025 200.128 287.934 198.939C287.934 198.664 287.843 198.298 287.843 198.024C287.751 197.475 287.751 196.926 287.66 196.378C287.66 196.286 287.66 196.195 287.66 196.103C287.66 195.829 287.568 195.463 287.568 195.097C287.477 194.457 287.477 193.817 287.385 193.176C287.294 192.628 287.294 192.079 287.202 191.53C287.111 190.524 287.019 189.426 286.928 188.42C286.836 187.688 286.745 186.865 286.745 186.225C286.745 186.042 286.745 185.859 286.745 185.768C287.019 186.957 291.593 209 294.245 214.214C296.898 219.519 285.373 247.416 278.239 242.842Z" fill="#FD6C03"/>
<path opacity="0.4" d="M362.754 264.337C360.742 275.953 355.528 291.777 355.528 291.777C355.528 291.777 357.906 300.283 357.449 307.783C357.357 309.796 358.546 314.918 360.467 321.32C359.918 319.948 354.065 304.765 354.156 299.551C354.248 294.063 352.693 292.509 349.583 285.74C346.473 278.972 341.808 279.703 341.808 279.703C341.808 279.703 339.979 296.625 335.771 285.557C331.472 274.398 330.649 261.41 341.442 216.409C341.442 216.409 343.089 222.08 341.717 238.818C340.345 255.556 344.369 260.678 344.369 260.678C344.369 260.678 353.058 246.41 358.638 227.385C358.638 227.385 357.266 246.958 355.985 255.831C354.705 264.703 360.376 245.495 364.309 233.604C367.967 222.446 368.15 218.238 366.778 210.281C367.785 215.86 368.608 221.165 368.242 225.098C367.327 232.964 364.766 252.721 362.754 264.337Z" fill="#FD6C03"/>
<path opacity="0.4" d="M289.307 302.021C292.508 307.052 300.191 313.729 304.856 332.113C309.429 350.498 306.594 370.62 306.594 370.62L289.307 302.021Z" fill="#FD6C03"/>
<path opacity="0.2" d="M264.794 197.567C264.794 197.567 248.604 205.799 247.324 219.518C242.659 209.091 248.696 212.841 245.037 185.95C245.037 185.95 247.781 179.731 255.464 184.67C256.013 185.036 256.653 185.493 257.202 185.95C258.757 187.231 260.129 188.694 261.318 190.341L264.794 197.567Z" fill="black" fill-opacity="0.7"/>
<path d="M310.525 376.566C310.525 376.566 299.183 316.473 292.506 307.052C285.738 297.631 287.018 293.697 283.725 287.295C280.433 280.892 255.462 265.434 254.365 256.379C253.267 247.324 251.987 229.946 247.322 219.518C242.657 209.091 248.694 212.841 245.035 185.95C245.035 185.95 247.779 179.731 255.462 184.67C263.145 189.609 267.17 199.579 265.889 210.646C265.889 210.646 271.652 230.403 274.762 234.976C277.78 239.458 290.402 213.573 289.579 210.555C288.756 207.536 286.378 181.743 286.012 177.078C286.012 177.078 276.865 163.541 275.951 157.139C275.036 150.736 275.127 144.059 278.878 141.315C287.933 134.821 285.28 145.248 289.396 149.547C293.421 153.846 299.732 160.889 303.208 163.084C306.683 165.279 309.793 174.517 309.793 174.517C309.793 174.517 304.671 155.584 304.488 151.834C304.397 148.175 301.561 128.784 306.317 121.924C311.074 114.973 317.385 120.369 318.025 121.741C318.574 123.113 318.757 141.864 320.495 147.077C322.141 152.291 329.184 174.06 329.184 174.06C329.184 174.06 329.458 152.931 331.105 143.419C332.66 133.998 336.776 126.589 340.8 126.132C344.825 125.674 348.575 130.156 348.575 130.156C348.575 130.156 347.02 145.248 347.477 148.724C347.934 152.199 346.837 164.822 348.758 171.59C348.758 171.59 348.575 153.571 351.319 151.285C354.154 148.998 356.532 147.901 358.087 149.455C359.642 151.01 360.008 161.712 361.563 168.115C363.209 174.517 362.935 183.298 364.033 193.268C365.039 203.238 369.246 217.232 368.423 225.098C367.6 233.055 365.039 252.721 363.026 264.337C361.014 275.953 355.801 291.777 355.801 291.777C355.801 291.777 358.179 300.192 357.721 307.783C357.264 315.283 375.832 365.59 375.832 365.59" stroke="#263238" stroke-width="0.914661" stroke-miterlimit="10" stroke-linecap="round" stroke-linejoin="round"/>
<path d="M329.002 174.06C330.923 178.542 335.588 197.292 337.234 199.853C338.88 202.414 340.801 203.238 340.801 203.238" stroke="#263238" stroke-width="0.914661" stroke-miterlimit="10" stroke-linecap="round" stroke-linejoin="round"/>
<path d="M348.391 171.59C348.391 171.59 348.025 175.432 350.038 187.688C352.141 199.945 353.147 205.158 354.337 207.902" stroke="#263238" stroke-width="0.914661" stroke-miterlimit="10" stroke-linecap="round" stroke-linejoin="round"/>
<path d="M309.609 174.517C312.17 182.017 313.542 193.908 315.006 197.475C316.469 201.042 317.75 201.774 317.75 201.774" stroke="#263238" stroke-width="0.914661" stroke-miterlimit="10" stroke-linecap="round" stroke-linejoin="round"/>
<path d="M313.727 192.445C313.727 192.445 316.379 194.457 317.202 196.835" stroke="#263238" stroke-width="0.914661" stroke-miterlimit="10" stroke-linecap="round" stroke-linejoin="round"/>
<path d="M274.58 234.976C274.58 234.976 275.952 244.855 282.172 244.123" stroke="#263238" stroke-width="0.914661" stroke-miterlimit="10" stroke-linecap="round" stroke-linejoin="round"/>
<path d="M289.397 210.555C289.397 210.555 291.043 222.354 288.391 227.293" stroke="#263238" stroke-width="0.914661" stroke-miterlimit="10" stroke-linecap="round" stroke-linejoin="round"/>
<path d="M339.063 210.646C339.063 210.646 343.271 213.207 340.435 220.708C337.6 228.208 332.752 258.392 332.752 258.392" stroke="#263238" stroke-width="0.914661" stroke-miterlimit="10" stroke-linecap="round" stroke-linejoin="round"/>
<path d="M357.173 218.604C358.911 225.372 359.094 225.555 356.258 233.879C353.423 242.202 348.85 262.599 348.85 262.599" stroke="#263238" stroke-width="0.914661" stroke-miterlimit="10" stroke-linecap="round" stroke-linejoin="round"/>
<path d="M355.525 291.685C355.525 291.685 352.781 286.197 355.068 281.624" stroke="#263238" stroke-width="0.914661" stroke-miterlimit="10" stroke-linecap="round" stroke-linejoin="round"/>
<path d="M292.506 307.052C292.506 307.052 299.366 316.747 302.384 327.54" stroke="#263238" stroke-width="0.914661" stroke-miterlimit="10" stroke-linecap="round" stroke-linejoin="round"/>
<path d="M343.271 137.291L345.101 135.461L345.924 135.187V136.102L344.186 138.297L343.271 137.291Z" fill="#757575" stroke="#263238" stroke-width="0.914661" stroke-miterlimit="10" stroke-linecap="round" stroke-linejoin="round"/>
<path d="M344.735 138.297L341.717 145.157L260.129 253.91L251.074 248.147L263.422 232.69L336.686 140.766L343.181 136.65C343.181 136.65 344.553 137.016 344.735 138.297Z" fill="#FD6C03"/>
<path opacity="0.3" d="M344.735 138.297L341.717 145.157L260.129 253.91L251.074 248.147L263.422 232.69C269.093 232.141 270.008 235.434 270.008 235.434L340.254 143.693C339.522 141.224 336.595 140.766 336.595 140.766L343.089 136.65C343.181 136.65 344.553 137.016 344.735 138.297Z" fill="black" fill-opacity="0.7"/>
<path d="M344.735 138.297L341.717 145.157L260.129 253.91L251.074 248.147L263.422 232.69L336.686 140.766L343.181 136.65C343.181 136.65 344.553 137.016 344.735 138.297Z" stroke="#263238" stroke-width="0.914661" stroke-miterlimit="10" stroke-linecap="round" stroke-linejoin="round"/>
<path d="M286.745 221.714C286.745 221.714 277.599 239.824 268.91 252.538L262.69 254.184C262.69 254.184 248.33 268.453 239.549 275.587C239.549 275.587 237.262 274.307 235.25 272.02C235.25 272.02 247.689 248.148 261.409 233.056C261.409 233.056 263.422 233.696 265.891 235.434C267.355 236.531 269.092 237.995 270.647 239.916L286.014 220.616L286.745 221.714Z" fill="#FD6C03"/>
<path opacity="0.3" d="M286.745 221.714C286.745 221.714 277.599 239.824 268.909 252.538L262.69 254.184C262.69 254.184 248.33 268.453 239.549 275.587L239.823 271.746C249.336 257.203 261.409 241.379 265.983 235.434C267.446 236.531 269.184 237.995 270.739 239.916L262.232 251.257L267.08 250.343L286.105 220.525L286.745 221.714Z" fill="black" fill-opacity="0.7"/>
<path d="M286.745 221.714C286.745 221.714 277.599 239.824 268.91 252.538L262.69 254.184C262.69 254.184 248.33 268.453 239.549 275.587C239.549 275.587 237.262 274.307 235.25 272.02C235.25 272.02 247.689 248.148 261.409 233.056C261.409 233.056 263.422 233.696 265.891 235.434C267.355 236.531 269.092 237.995 270.647 239.916L286.014 220.616L286.745 221.714Z" stroke="#263238" stroke-width="0.914661" stroke-miterlimit="10" stroke-linecap="round" stroke-linejoin="round"/>
<path d="M317.753 201.866L292.234 226.561L288.118 230.494C290.862 223.36 289.582 212.201 289.399 210.921C289.399 210.829 289.399 210.829 289.399 210.829C289.399 210.738 289.399 210.646 289.399 210.646C289.216 210.006 289.033 208.543 288.759 206.53C288.667 206.073 288.667 205.616 288.576 205.067C288.484 204.61 288.484 204.061 288.393 203.512C288.393 203.238 288.301 202.963 288.301 202.689C288.301 202.597 288.301 202.506 288.301 202.323C288.21 201.317 288.027 200.219 287.935 199.03C287.935 198.756 287.844 198.39 287.844 198.115C287.753 197.567 287.753 197.018 287.661 196.469C287.661 196.378 287.661 196.286 287.661 196.195C287.661 195.92 287.57 195.554 287.57 195.189C287.478 194.548 287.478 193.908 287.387 193.268C287.295 192.719 287.295 192.17 287.204 191.621C287.112 190.615 287.021 189.518 286.929 188.512C286.838 187.78 286.746 187.048 286.746 186.316C286.746 186.133 286.746 185.951 286.746 185.859C286.381 181.835 286.015 178.542 285.923 177.078C285.923 177.078 276.777 163.541 275.862 157.139C274.947 150.736 275.039 144.059 278.88 141.315C287.935 134.821 285.283 145.248 289.399 149.547C293.423 153.846 299.735 160.889 303.21 163.084C306.777 165.279 309.796 174.517 309.796 174.517C312.357 182.017 313.729 193.908 315.192 197.475C316.473 201.042 317.753 201.866 317.753 201.866Z" fill="white"/>
<path d="M313.73 192.445C313.73 192.445 316.383 194.457 317.206 196.835" stroke="#263238" stroke-width="0.914661" stroke-miterlimit="10" stroke-linecap="round" stroke-linejoin="round"/>
<path opacity="0.4" d="M289.216 149.547C293.24 153.846 299.46 160.889 303.027 163.084C302.57 162.81 296.076 159.7 292.417 163.175C288.667 166.834 285.923 177.078 285.923 177.078C285.923 177.078 276.777 163.541 275.862 157.139C274.947 150.736 275.039 144.059 278.88 141.315C287.753 134.821 285.1 145.248 289.216 149.547Z" fill="#FD6C03"/>
<path opacity="0.4" d="M292.326 226.561L288.21 230.494C290.954 223.36 289.673 212.201 289.49 210.921C289.49 210.829 289.49 210.738 289.49 210.646C289.307 210.006 289.125 208.543 288.85 206.53C288.759 206.073 288.759 205.616 288.667 205.067C288.576 204.61 288.576 204.061 288.484 203.512C288.484 203.238 288.393 202.963 288.393 202.689C288.393 202.597 288.393 202.506 288.393 202.323C288.301 201.317 288.118 200.219 288.027 199.03C288.027 198.756 287.935 198.39 287.935 198.115C287.844 197.567 287.844 197.018 287.753 196.469C287.753 196.378 287.753 196.286 287.753 196.195C287.753 195.92 287.661 195.554 287.661 195.189C287.57 194.548 287.57 193.908 287.478 193.268C287.387 192.719 287.387 192.17 287.295 191.621C287.204 190.615 287.112 189.518 287.021 188.512C286.929 187.78 286.838 186.957 286.838 186.316C286.838 186.133 286.838 185.95 286.838 185.859C287.112 187.048 291.686 209.091 294.338 214.305C295.161 216.226 294.247 221.165 292.326 226.561Z" fill="#FD6C03"/>
<path d="M317.754 201.866C317.754 201.866 316.473 201.134 315.01 197.567C313.546 193.999 312.174 182.109 309.613 174.609C309.613 174.609 306.503 165.462 303.028 163.175C299.552 160.889 293.241 153.937 289.216 149.638C285.192 145.34 287.844 134.912 278.698 141.406C274.856 144.15 274.765 150.827 275.771 157.23C276.685 163.633 285.832 177.17 285.832 177.17C286.198 181.834 288.667 207.628 289.399 210.646" stroke="#263238" stroke-width="0.914661" stroke-miterlimit="10" stroke-linecap="round" stroke-linejoin="round"/>
<path d="M289.399 210.555C289.399 210.555 291.045 222.354 288.393 227.293" stroke="#263238" stroke-width="0.914661" stroke-miterlimit="10" stroke-linecap="round" stroke-linejoin="round"/>
<path opacity="0.2" d="M132.992 225.007C132.992 225.007 138.755 251.898 126.224 271.471C113.693 291.045 103.998 296.259 99.6988 302.112C95.3999 307.966 78.3872 340.62 78.3872 340.62L58.5391 281.716L78.3872 209L132.992 225.007Z" fill="black" fill-opacity="0.7"/>
<path d="M249.977 204.427L126.956 256.197L114.242 261.502L90.2777 204.701L34.7578 72.8071L170.585 15.6407L249.977 204.427Z" fill="white"/>
<path d="M135.463 40.2451L76.8332 64.8495C75.7356 65.3068 75.1868 66.5874 75.6442 67.685C76.1015 68.7826 77.382 69.3314 78.4796 68.874L137.109 44.1782C138.207 43.7208 138.756 42.4403 138.298 41.3427C137.841 40.2451 136.561 39.7878 135.463 40.2451Z" fill="#263238"/>
<path d="M124.303 54.6053L95.0334 66.9532C94.4846 67.2276 94.2102 67.7764 94.4846 68.3252C94.759 68.874 95.3078 69.1484 95.8566 68.874L125.126 56.5261C125.675 56.2517 125.949 55.7029 125.675 55.1541C125.492 54.6053 124.851 54.3309 124.303 54.6053Z" fill="#263238"/>
<path d="M172.505 129.699C172.505 129.699 173.785 139.394 170.127 140.949C166.834 142.321 162.444 137.108 158.694 138.754C154.852 140.309 157.87 154.12 154.212 155.675C150.553 157.23 146.163 151.559 142.961 152.931C139.76 154.303 141.681 161.346 138.48 162.718C135.827 163.816 131.985 158.236 128.876 156.956C128.235 156.681 127.595 156.59 127.046 156.864C123.845 158.236 125.4 172.962 122.656 174.151C121.741 174.517 120.918 174.609 120.186 174.517C119.089 174.426 118.083 174.151 117.076 174.243C116.711 174.243 116.345 174.334 115.887 174.517C113.509 175.523 113.875 183.298 111.68 184.213C109.485 185.127 107.381 184.03 105.094 184.944C102.808 185.951 102.808 189.975 99.332 191.439L100.795 194.914L185.036 159.425" fill="#BFBFBF"/>
<path d="M172.505 129.699C172.505 129.699 173.785 139.394 170.127 140.949C166.834 142.321 162.444 137.108 158.694 138.754C154.852 140.309 157.87 154.12 154.212 155.675C150.553 157.23 146.163 151.559 142.961 152.931C139.76 154.303 141.681 161.346 138.48 162.718C135.827 163.816 131.985 158.236 128.876 156.956C128.235 156.681 127.595 156.59 127.046 156.864C123.845 158.236 125.4 172.962 122.656 174.151C121.741 174.517 120.918 174.609 120.186 174.517C119.089 174.426 118.083 174.151 117.076 174.243C116.711 174.243 116.345 174.334 115.887 174.517C113.509 175.523 113.875 183.298 111.68 184.213C109.485 185.127 107.381 184.03 105.094 184.944C102.808 185.951 102.808 189.975 99.332 191.439L100.795 194.914L185.036 159.425" stroke="#263238" stroke-width="0.914661" stroke-miterlimit="10"/>
<path d="M83.6914 154.395L100.704 194.914L188.969 157.779" stroke="#263238" stroke-width="0.914661" stroke-miterlimit="10" stroke-linecap="round" stroke-linejoin="round"/>
<path d="M179.273 145.797C179.273 145.797 178.816 145.248 178.267 144.699C177.17 143.693 175.432 142.321 174.151 142.87C172.871 143.419 172.779 145.523 172.779 147.809C172.779 150.553 173.054 153.572 171.682 154.12C170.493 154.578 169.395 153.846 168.297 153.023C167.017 152.108 165.736 151.102 164.181 151.742C161.62 152.84 162.352 156.224 161.438 159.151C160.98 160.614 160.066 161.986 158.053 162.81C155.767 163.724 153.571 162.81 151.376 161.346C147.718 158.877 144.516 154.852 142.413 155.767C139.028 157.139 142.778 166.285 139.12 167.749C137.108 168.572 132.9 162.261 128.876 156.773C125.674 152.474 122.564 148.724 120.644 149.456C116.253 151.285 123.479 172.962 120.278 174.334H120.186C118.906 174.883 117.9 174.517 117.076 174.06C115.979 173.42 114.973 172.505 113.784 173.054C111.497 174.06 112.778 182.566 110.216 183.664C107.655 184.762 106.101 183.207 103.265 184.396C100.795 185.402 99.332 191.347 99.332 191.347L100.795 194.823L185.036 159.334" fill="#757575"/>
<path d="M179.273 145.797C179.273 145.797 178.816 145.248 178.267 144.699C177.17 143.693 175.432 142.321 174.151 142.87C172.871 143.419 172.779 145.523 172.779 147.809C172.779 150.553 173.054 153.572 171.682 154.12C170.493 154.578 169.395 153.846 168.297 153.023C167.017 152.108 165.736 151.102 164.181 151.742C161.62 152.84 162.352 156.224 161.438 159.151C160.98 160.614 160.066 161.986 158.053 162.81C155.767 163.724 153.571 162.81 151.376 161.346C147.718 158.877 144.516 154.852 142.413 155.767C139.028 157.139 142.778 166.285 139.12 167.749C137.108 168.572 132.9 162.261 128.876 156.773C125.674 152.474 122.564 148.724 120.644 149.456C116.253 151.285 123.479 172.962 120.278 174.334H120.186C118.906 174.883 117.9 174.517 117.076 174.06C115.979 173.42 114.973 172.505 113.784 173.054C111.497 174.06 112.778 182.566 110.216 183.664C107.655 184.762 106.101 183.207 103.265 184.396C100.795 185.402 99.332 191.347 99.332 191.347L100.795 194.823L185.036 159.334" stroke="#263238" stroke-width="0.914661" stroke-miterlimit="10" stroke-linecap="round" stroke-linejoin="round"/>
<path d="M161.439 174.7L132.17 187.048C131.621 187.323 131.347 187.871 131.621 188.42C131.896 188.969 132.445 189.243 132.993 188.969L162.262 176.621C162.811 176.347 163.086 175.798 162.811 175.249C162.628 174.792 161.988 174.517 161.439 174.7Z" fill="#263238"/>
<path d="M186.318 130.065L183.482 131.254C183.208 131.345 182.842 131.254 182.751 130.979L181.562 128.144C181.47 127.87 181.562 127.504 181.836 127.412L184.671 126.223C184.946 126.132 185.312 126.223 185.403 126.498L186.592 129.333C186.684 129.608 186.592 129.973 186.318 130.065Z" fill="#BFBFBF" stroke="#263238" stroke-width="0.914661" stroke-miterlimit="10"/>
<path d="M199.947 121.375L188.239 126.315C187.965 126.406 187.69 126.315 187.599 126.04C187.507 125.766 187.599 125.491 187.873 125.4L199.581 120.461C199.855 120.369 200.13 120.461 200.221 120.735C200.313 121.01 200.221 121.284 199.947 121.375Z" fill="#263238"/>
<path d="M197.202 124.851L189.061 128.236C188.787 128.327 188.512 128.236 188.421 127.961C188.33 127.687 188.421 127.412 188.695 127.321L196.836 123.937C197.11 123.845 197.385 123.937 197.476 124.211C197.568 124.485 197.476 124.76 197.202 124.851Z" fill="#263238"/>
<path d="M189.974 138.754L187.139 139.943C186.864 140.034 186.498 139.943 186.407 139.669L185.218 136.833C185.126 136.559 185.218 136.193 185.492 136.101L188.328 134.912C188.602 134.821 188.968 134.912 189.059 135.187L190.249 138.022C190.34 138.297 190.249 138.662 189.974 138.754Z" fill="#757575" stroke="#263238" stroke-width="0.914661" stroke-miterlimit="10" stroke-linecap="round" stroke-linejoin="round"/>
<path d="M203.603 130.156L191.895 135.095C191.621 135.187 191.346 135.095 191.255 134.821C191.164 134.546 191.255 134.272 191.529 134.181L203.237 129.241C203.511 129.15 203.786 129.241 203.877 129.516C203.969 129.79 203.877 129.973 203.603 130.156Z" fill="#263238"/>
<path d="M200.858 133.54L192.718 136.925C192.443 137.016 192.169 136.925 192.077 136.65C191.986 136.376 192.077 136.101 192.352 136.01L200.492 132.626C200.767 132.534 201.041 132.626 201.132 132.9C201.224 133.175 201.132 133.449 200.858 133.54Z" fill="#263238"/>
<path d="M219.06 166.011L123.936 206.073C123.387 206.348 123.113 206.896 123.387 207.445C123.661 207.994 124.21 208.268 124.759 207.994L219.884 167.932C220.432 167.657 220.707 167.109 220.432 166.56C220.158 166.011 219.609 165.737 219.06 166.011Z" fill="#263238"/>
<path d="M221.989 173.145L111.406 219.702C110.858 219.976 110.583 220.525 110.858 221.074C111.132 221.622 111.681 221.897 112.23 221.622L222.812 175.066C223.361 174.792 223.635 174.243 223.361 173.694C223.178 173.237 222.538 172.962 221.989 173.145Z" fill="#263238"/>
<path d="M225.008 180.371L114.426 226.836C113.877 227.11 113.603 227.659 113.877 228.208C114.152 228.757 114.7 229.031 115.249 228.757L225.923 182.292C226.472 182.017 226.746 181.469 226.472 180.92C226.198 180.371 225.557 180.097 225.008 180.371Z" fill="#263238"/>
<path d="M228.026 187.505L117.444 234.062C116.895 234.336 116.62 234.885 116.895 235.434C117.169 235.982 117.718 236.257 118.267 235.982L228.849 189.426C229.398 189.152 229.672 188.603 229.398 188.054C229.215 187.505 228.575 187.231 228.026 187.505Z" fill="#263238"/>
<path d="M184.579 214.214L120.461 241.196C119.912 241.471 119.638 242.019 119.912 242.568C120.187 243.117 120.736 243.391 121.284 243.117L185.402 216.134C185.951 215.86 186.225 215.311 185.951 214.762C185.768 214.214 185.128 213.939 184.579 214.214Z" fill="#263238"/>
<path d="M149.272 74.5452C149.272 74.5452 150.553 84.2406 146.894 85.7955C143.602 87.1675 139.211 81.9539 135.461 83.6003C131.62 85.1552 134.638 98.9666 130.979 100.522C127.321 102.076 122.93 96.4056 119.729 97.7776C116.528 99.1495 118.448 106.192 115.247 107.564C112.595 108.662 108.753 103.083 105.643 101.802C105.003 101.528 104.363 101.436 103.814 101.711C100.613 103.083 102.167 117.809 99.4235 118.998C98.5088 119.364 97.6856 119.455 96.9539 119.364C95.8563 119.272 94.8502 118.998 93.844 119.089C93.4782 119.089 93.1123 119.181 92.655 119.364C90.2769 120.37 90.6427 128.144 88.4475 129.059C86.2523 129.974 84.1486 128.876 81.862 129.791C79.5753 130.797 79.5753 134.821 76.0996 136.285L77.5631 139.76L161.803 104.272" fill="#BFBFBF"/>
<path d="M149.272 74.5452C149.272 74.5452 150.553 84.2406 146.894 85.7955C143.602 87.1675 139.211 81.9539 135.461 83.6003C131.62 85.1552 134.638 98.9666 130.979 100.522C127.321 102.076 122.93 96.4056 119.729 97.7776C116.528 99.1495 118.448 106.192 115.247 107.564C112.595 108.662 108.753 103.083 105.643 101.802C105.003 101.528 104.363 101.436 103.814 101.711C100.613 103.083 102.167 117.809 99.4235 118.998C98.5088 119.364 97.6856 119.455 96.9539 119.364C95.8563 119.272 94.8502 118.998 93.844 119.089C93.4782 119.089 93.1123 119.181 92.655 119.364C90.2769 120.37 90.6427 128.144 88.4475 129.059C86.2523 129.974 84.1486 128.876 81.862 129.791C79.5753 130.797 79.5753 134.821 76.0996 136.285L77.5631 139.76L161.803 104.272" stroke="#263238" stroke-width="0.914661" stroke-miterlimit="10"/>
<path d="M154.759 87.5333C154.759 87.5333 155.491 92.1981 153.662 93.0213C152.107 93.6616 151.192 92.7469 149.546 92.7469C148.905 92.7469 148.174 92.8384 147.167 93.2042C145.704 93.8445 145.338 95.8567 145.064 97.9605C144.698 100.613 144.606 103.54 142.594 104.363C141.222 104.912 139.759 104.637 138.204 104.089C135.826 103.265 133.265 101.894 130.795 102.9C129.606 103.357 128.783 104.729 128.143 106.284C126.588 110.034 126.13 115.522 124.484 116.254C122.106 117.26 117.807 113.235 115.703 114.058C113.599 114.973 114.514 118.54 112.776 119.272C111.038 120.004 110.124 117.9 107.105 119.181C104.087 120.461 105.55 124.851 101.343 126.589C97.1355 128.327 95.3062 125.126 91.1902 126.772C87.1657 128.51 87.8974 131.529 84.9705 132.809C82.1351 133.998 80.8546 131.894 78.8423 132.809C76.83 133.632 76.2812 136.925 76.2812 137.108L77.3788 139.76L161.619 104.272" fill="#FD6C03"/>
<path d="M154.759 87.5333C154.759 87.5333 155.491 92.1981 153.662 93.0213C152.107 93.6616 151.192 92.7469 149.546 92.7469C148.905 92.7469 148.174 92.8384 147.167 93.2042C145.704 93.8445 145.338 95.8567 145.064 97.9605C144.698 100.613 144.606 103.54 142.594 104.363C141.222 104.912 139.759 104.637 138.204 104.089C135.826 103.265 133.265 101.894 130.795 102.9C129.606 103.357 128.783 104.729 128.143 106.284C126.588 110.034 126.13 115.522 124.484 116.254C122.106 117.26 117.807 113.235 115.703 114.058C113.599 114.973 114.514 118.54 112.776 119.272C111.038 120.004 110.124 117.9 107.105 119.181C104.087 120.461 105.55 124.851 101.343 126.589C97.1355 128.327 95.3062 125.126 91.1902 126.772C87.1657 128.51 87.8974 131.529 84.9705 132.809C82.1351 133.998 80.8546 131.894 78.8423 132.809C76.83 133.632 76.2812 136.925 76.2812 137.108L77.3788 139.76L161.619 104.272" stroke="#263238" stroke-width="0.914661" stroke-miterlimit="10"/>
<path d="M60.459 99.241L77.5631 139.76L165.736 102.625" stroke="#263238" stroke-width="0.914661" stroke-miterlimit="10" stroke-linecap="round" stroke-linejoin="round"/>
<path d="M137.931 118.998L108.662 131.345C108.114 131.62 107.839 132.169 108.114 132.717C108.388 133.266 108.937 133.541 109.485 133.266L138.755 120.918C139.303 120.644 139.578 120.095 139.303 119.546C139.121 118.998 138.48 118.723 137.931 118.998Z" fill="#263238"/>
<path d="M161.623 71.4352L158.787 72.6243C158.513 72.7157 158.147 72.6243 158.055 72.3499L156.866 69.5144C156.775 69.24 156.866 68.8741 157.141 68.7827L159.976 67.5936C160.251 67.5022 160.616 67.5936 160.708 67.868L161.897 70.7035C161.988 70.9779 161.897 71.3437 161.623 71.4352Z" fill="#BFBFBF" stroke="#263238" stroke-width="0.914661" stroke-miterlimit="10"/>
<path d="M175.249 62.746L163.542 67.6851C163.267 67.7766 162.993 67.6851 162.901 67.4107C162.81 67.1363 162.901 66.8619 163.176 66.7705L174.884 61.8313C175.158 61.7398 175.432 61.8313 175.524 62.1057C175.615 62.3801 175.524 62.6545 175.249 62.746Z" fill="#263238"/>
<path d="M172.506 66.2217L164.366 69.6059C164.092 69.6974 163.817 69.6059 163.726 69.3315C163.634 69.0571 163.726 68.7827 164 68.6912L172.141 65.307C172.415 65.2155 172.689 65.307 172.781 65.5814C172.872 65.8558 172.781 66.1302 172.506 66.2217Z" fill="#263238"/>
<path d="M165.281 80.1245L162.445 81.3136C162.171 81.4051 161.805 81.3136 161.714 81.0392L160.525 78.2037C160.433 77.9293 160.525 77.5635 160.799 77.472L163.634 76.283C163.909 76.1915 164.275 76.283 164.366 76.5574L165.555 79.3928C165.738 79.6672 165.555 80.0331 165.281 80.1245Z" fill="#FD6C03" stroke="#263238" stroke-width="0.914661" stroke-miterlimit="10"/>
<path d="M178.91 71.4352L167.202 76.3743C166.928 76.4658 166.653 76.3743 166.562 76.0999C166.47 75.8255 166.562 75.5511 166.836 75.4597L178.544 70.5205C178.818 70.429 179.092 70.5205 179.184 70.7949C179.275 71.0693 179.184 71.3437 178.91 71.4352Z" fill="#263238"/>
<path d="M176.165 74.9109L168.024 78.2951C167.75 78.3866 167.475 78.2951 167.384 78.0207C167.292 77.7463 167.384 77.4719 167.658 77.3805L175.799 73.9962C176.073 73.9047 176.348 73.9962 176.439 74.2706C176.531 74.545 176.439 74.8194 176.165 74.9109Z" fill="#263238"/>
<path opacity="0.2" d="M126.956 256.197L114.242 261.502L90.3691 204.701C91.8326 203.238 93.6619 200.86 94.3936 196.835C95.8571 189.243 94.851 164.731 113.876 162.261C132.901 159.7 116.894 202.597 117.717 210.738C118.449 218.238 129.334 239.824 126.956 256.197Z" fill="black" fill-opacity="0.7"/>
<path d="M249.977 204.427L126.956 256.197L114.242 261.502L90.2777 204.701L34.7578 72.8071L170.585 15.6407L249.977 204.427Z" stroke="#263238" stroke-width="0.914661" stroke-miterlimit="10" stroke-linecap="round" stroke-linejoin="round"/>
<path d="M119.273 213.848C121.377 206.53 129.792 183.115 128.694 172.779C128.603 171.865 128.42 171.041 128.145 170.218C125.218 162.444 113.236 163.267 108.663 169.669C103.632 176.712 99.5163 189.426 99.1505 197.109C98.9675 201.408 97.1382 205.341 95.4918 207.994C94.2113 210.097 93.1137 211.469 93.1137 211.469L65.8568 146.711C65.8568 146.711 61.4664 150.279 58.7225 154.669C57.6249 156.407 56.8017 158.328 56.6187 160.248C56.0699 166.651 48.8441 192.81 45.8257 203.878C45.7343 204.152 45.7343 204.335 45.6428 204.518C42.7159 215.128 50.399 254.641 48.2039 266.075C46.0087 277.508 44.6367 277.325 44.3623 285.465C44.0879 291.411 35.5815 309.521 26.0691 328.089C20.5811 338.699 14.8187 349.492 10.0625 358.272L79.8511 355.346C81.0402 346.839 82.3207 337.876 83.4183 329.278C83.8756 325.711 84.6074 322.052 85.522 318.576C87.0769 312.356 88.9063 306.686 90.0953 303.393C91.9246 298.271 93.754 288.667 93.754 288.667C101.894 280.069 112.505 266.532 115.614 257.385C115.614 257.385 115.614 257.385 115.614 257.294C116.438 255.007 116.712 252.995 116.346 251.349C116.072 250.068 115.889 248.33 115.797 246.318C115.157 236.44 117.444 219.976 119.273 213.848Z" fill="white"/>
<path opacity="0.4" d="M95.4002 207.994C93.205 212.293 90.644 216.592 88.9976 221.439C87.3512 226.287 85.5219 227.019 80.6742 230.769C75.8265 234.61 72.2593 228.299 72.2593 228.299C72.2593 228.299 78.7534 221.622 76.5582 217.872C74.363 214.122 66.4055 204.792 66.8628 199.67C67.3201 194.548 62.0151 183.023 62.0151 183.023C62.0151 183.023 74.1801 175.889 71.802 167.474C70.5215 162.901 64.1188 158.053 58.6309 154.578C61.3748 150.187 65.7652 146.62 65.7652 146.62L93.0221 211.378C93.0221 211.469 94.1197 210.189 95.4002 207.994Z" fill="#FD6C03"/>
<path opacity="0.4" d="M51.1317 247.781C51.3146 248.33 55.2477 261.41 51.9549 266.898C48.5706 272.477 45.1864 279.612 46.8328 287.02C48.1133 292.966 37.1374 314.369 25.9785 328.089C35.491 309.521 43.9973 291.411 44.2717 285.465C44.5461 277.325 45.9181 277.599 48.1133 266.075C50.3085 254.641 42.6253 215.128 45.5523 204.518C45.6437 204.335 45.6437 204.061 45.7352 203.878C47.8389 215.951 52.8695 239.915 54.1501 247.598C55.8879 257.477 51.3146 248.147 51.1317 247.781Z" fill="#FD6C03"/>
<path opacity="0.4" d="M76.2852 326.808C84.4256 291.868 111.683 265.069 115.433 257.385C112.323 266.532 101.713 280.069 93.5722 288.667C93.5722 288.667 91.7429 298.271 89.9136 303.393C88.816 306.686 86.8952 312.356 85.3403 318.576C77.3828 327.814 76.2852 326.808 76.2852 326.808Z" fill="#FD6C03"/>
<path opacity="0.4" d="M119.273 213.848C117.444 219.976 115.248 236.44 115.614 246.318C114.151 240.098 111.407 232.232 110.95 221.165C110.218 202.506 120.736 209.183 117.078 200.036C113.419 190.89 102.901 202.597 108.023 183.206C111.773 169.029 122.566 169.121 128.054 170.218C128.328 170.95 128.511 171.773 128.603 172.779C129.7 183.115 121.377 206.53 119.273 213.848Z" fill="#FD6C03"/>
<path d="M20.4902 338.973C29.271 322.967 37.7773 306.503 43.9056 288.758C44.6373 286.197 43.6312 282.904 44.3629 280.343C52.6863 257.294 43.2653 233.33 44.8202 209.732C46.1007 200.402 49.1191 191.072 52.046 181.651C53.418 174.883 53.9668 167.291 56.2535 160.431C58.5401 155.309 60.8268 149.272 65.7659 146.711C75.0955 168.114 84.425 189.609 93.0228 211.469C96.9559 209.183 97.5961 204.152 98.2364 199.945C100.34 189.792 102.444 180.462 106.285 171.865C110.218 165.005 120.188 162.078 126.317 167.657C128.054 169.304 128.969 171.773 129.152 174.243C127.963 186.042 124.213 198.024 120.554 209.091C119.091 214.213 117.536 218.421 116.987 223.543C117.078 225.189 117.078 226.104 117.17 227.75C114.975 236.257 116.987 243.757 116.53 252.172C114.609 267.355 102.444 277.965 93.6631 289.307C91.4679 297.813 89.3642 306.32 86.3458 314.826C82.6872 327.631 81.4981 340.254 80.2176 352.51" stroke="#263238" stroke-width="0.914661" stroke-miterlimit="10" stroke-linecap="round" stroke-linejoin="round"/>
<path d="M93.0236 211.469C93.0236 211.469 90.1882 216.957 88.9991 221.439C87.81 225.921 82.0477 225.281 79.0293 228.025" stroke="#263238" stroke-width="0.914661" stroke-miterlimit="10" stroke-linecap="round" stroke-linejoin="round"/>
<path d="M71.1621 203.603C71.1621 203.603 79.0282 206.347 83.6015 209.914C88.1748 213.482 91.559 214.396 91.559 214.396" stroke="#263238" stroke-width="0.914661" stroke-miterlimit="10" stroke-linecap="round" stroke-linejoin="round"/>
<path d="M66.1328 184.03C66.1328 184.03 72.444 185.768 77.2002 183.572C77.2002 183.572 77.5661 179.639 78.3893 176.804" stroke="#263238" stroke-width="0.914661" stroke-miterlimit="10" stroke-linecap="round" stroke-linejoin="round"/>
<path d="M78.6621 184.487C78.6621 184.487 78.7536 185.402 81.9549 185.402" stroke="#263238" stroke-width="0.914661" stroke-miterlimit="10" stroke-linecap="round" stroke-linejoin="round"/>
<path d="M93.5714 288.667C93.5714 288.667 87.3517 294.246 83.6016 304.399" stroke="#263238" stroke-width="0.914661" stroke-miterlimit="10" stroke-linecap="round" stroke-linejoin="round"/>
<path d="M45.0945 206.53C44.8201 212.018 51.2227 231.501 53.235 241.196C55.1558 250.891 55.8875 257.751 55.8875 257.751" stroke="#263238" stroke-width="0.914661" stroke-miterlimit="10" stroke-linecap="round" stroke-linejoin="round"/>
</svg>
