<svg width="161" height="72" viewBox="0 0 161 72" fill="none" xmlns="http://www.w3.org/2000/svg">
<path d="M11.995 1.18864C10.212 1.18864 8.5479 2.06032 7.00266 3.80367C5.49704 5.50739 4.28859 8.00355 3.37729 11.2921H2.48581C2.52543 10.6978 2.56505 10.0837 2.60467 9.44973C2.64429 8.89503 2.68391 8.30071 2.72354 7.66677C2.76316 6.9932 2.78297 6.31963 2.78297 5.64607C2.78297 5.05174 2.76316 4.45742 2.72354 3.8631C2.68391 3.22916 2.64429 2.63483 2.60467 2.08013C2.56505 1.48581 2.52543 0.891484 2.48581 0.297161H3.37729C3.97161 0.455648 4.52632 0.812242 5.0414 1.36694C5.5961 1.88202 6.03193 2.43673 6.34891 3.03105C6.82437 2.47635 7.37907 1.98108 8.01301 1.54524C8.56771 1.14902 9.22147 0.79243 9.97428 0.47546C10.7271 0.158487 11.5988 0 12.5893 0C14.293 0 15.9769 0.455648 17.641 1.36694C19.3051 2.23862 20.791 3.58575 22.0985 5.40834C23.4456 7.19131 24.5154 9.44973 25.3078 12.1836C26.1399 14.8779 26.5559 18.0476 26.5559 21.6928C26.5559 25.338 26.1399 28.5275 25.3078 31.2614C24.5154 33.9557 23.4258 36.2141 22.039 38.0367C20.6919 39.8196 19.1467 41.1668 17.4033 42.0781C15.66 42.9497 13.8572 43.3856 11.995 43.3856C10.5686 43.3856 9.22147 43.0884 7.95358 42.4941C6.68569 41.8998 5.55648 41.0677 4.56594 39.9979C3.61502 38.8885 2.82259 37.6008 2.18865 36.1348C1.5547 34.6292 1.15849 32.9849 1 31.202H1.89148C2.04997 32.7076 2.42637 34.1339 3.0207 35.4811C3.61502 36.7886 4.34802 37.9376 5.21969 38.9282C6.09137 39.9187 7.06209 40.7111 8.13188 41.3054C9.20166 41.8998 10.2912 42.1969 11.4007 42.1969C12.6685 42.1969 13.877 41.88 15.026 41.246C16.175 40.6121 17.1854 39.5225 18.0571 37.9772C18.9287 36.3924 19.6221 34.2924 20.1372 31.6774C20.6523 29.0228 20.9098 25.6946 20.9098 21.6928H14.3723L11.6978 27.0417H11.1035V15.1552H11.6978L14.3723 20.5041H20.9098C20.8306 16.7005 20.5334 13.5704 20.0183 11.1138C19.5033 8.61768 18.8297 6.63661 17.9976 5.17061C17.2052 3.70461 16.2741 2.67445 15.2043 2.08013C14.1742 1.48581 13.1044 1.18864 11.995 1.18864Z" fill="#7E7D7D"/>
<path d="M39.3478 8.61768C39.3478 10.2422 39.8232 11.6487 40.7741 12.8374C41.7251 13.9864 42.9137 15.0562 44.3401 16.0467C45.7664 17.0373 47.3117 18.008 48.9758 18.9589C50.6795 19.9098 52.2446 20.9994 53.6709 22.2277C55.0973 23.4163 56.286 24.8229 57.2369 26.4474C58.1878 28.0719 58.6633 30.0529 58.6633 32.3906C58.6633 33.9358 58.3859 35.382 57.8312 36.7292C57.2765 38.0763 56.4841 39.2451 55.4539 40.2357C54.4634 41.2262 53.2747 41.9988 51.888 42.5535C50.5012 43.1082 48.9956 43.3856 47.3711 43.3856C45.8655 43.3856 44.5778 43.2271 43.508 42.9101C42.4382 42.6328 41.5468 42.296 40.8336 41.8998C40.0015 41.4639 39.3081 40.9687 38.7534 40.414C38.4365 41.0083 38.0006 41.563 37.4459 42.0781C36.9308 42.5931 36.3761 42.9299 35.7818 43.0884H34.8903C34.93 42.5337 34.9696 41.9394 35.0092 41.3054C35.0488 40.7904 35.0884 40.2159 35.1281 39.5819C35.1677 38.948 35.1875 38.3338 35.1875 37.7395C35.1875 37.0659 35.1677 36.4122 35.1281 35.7782C35.0884 35.1047 35.0488 34.4905 35.0092 33.9358C34.9696 33.3019 34.93 32.6878 34.8903 32.0934H35.7818C36.6931 35.382 38.0006 37.898 39.7043 39.6413C41.4477 41.3451 43.8052 42.1969 46.7768 42.1969C49.1541 42.1969 51.0757 41.4441 52.5417 39.9385C54.0473 38.3933 54.8002 36.2735 54.8002 33.5793C54.8002 31.9548 54.3247 30.568 53.3738 29.419C52.4229 28.2303 51.2342 27.1408 49.8078 26.1502C48.3815 25.1597 46.8164 24.1889 45.1127 23.238C43.4486 22.2871 41.9033 21.2173 40.477 20.0287C39.0506 18.8004 37.862 17.374 36.911 15.7496C35.9601 14.1251 35.4847 12.144 35.4847 9.80633C35.4847 8.4592 35.7422 7.19131 36.2573 6.00266C36.7724 4.81402 37.4855 3.78386 38.3968 2.91218C39.3081 2.00089 40.3779 1.2877 41.6062 0.772621C42.8345 0.257541 44.1618 0 45.5882 0C46.7768 0 47.8268 0.158487 48.7381 0.47546C49.6494 0.79243 50.422 1.12921 51.0559 1.48581C51.7691 1.92164 52.4229 2.41691 53.0172 2.97162C53.3342 2.37729 53.7502 1.82259 54.2653 1.30751C54.82 0.792432 55.3945 0.455648 55.9888 0.297161H56.8803C56.801 0.891484 56.7416 1.48581 56.702 2.08013C56.6624 2.63483 56.6227 3.22916 56.5831 3.8631C56.5831 4.45742 56.5831 5.05174 56.5831 5.64607C56.5831 6.31963 56.5831 6.9932 56.5831 7.66677C56.6227 8.30071 56.6624 8.89503 56.702 9.44973C56.7416 10.0837 56.801 10.6978 56.8803 11.2921H55.9888C55.0775 8.00355 53.8096 5.50739 52.1851 3.80367C50.5607 2.06032 48.5598 1.18864 46.1825 1.18864C44.241 1.18864 42.6165 1.86221 41.309 3.20935C40.0015 4.55648 39.3478 6.35925 39.3478 8.61768Z" fill="#7E7D7D"/>
<path d="M80.955 41.0083L84.521 41.8998V42.4941H72.3373V41.8998L75.9033 41.0083V2.08013H69.6629C69.6629 3.74424 69.3261 5.28947 68.6525 6.71585C67.979 8.14222 67.1271 9.37049 66.0969 10.4007H65.5026C65.5422 9.88557 65.5819 9.35068 65.6215 8.79598C65.6611 8.32052 65.7007 7.82525 65.7403 7.31017C65.78 6.75547 65.7998 6.20077 65.7998 5.64607C65.7998 4.89326 65.78 4.2395 65.7403 3.6848C65.7007 3.09048 65.6611 2.5754 65.6215 2.13956C65.5819 1.6641 65.5422 1.24808 65.5026 0.891484H91.3557C91.2764 1.24808 91.217 1.6641 91.1774 2.13956C91.1377 2.5754 91.0981 3.09048 91.0585 3.6848C91.0585 4.2395 91.0585 4.89326 91.0585 5.64607C91.0585 6.20077 91.0585 6.75547 91.0585 7.31017C91.0981 7.82525 91.1377 8.32052 91.1774 8.79598C91.217 9.35068 91.2764 9.88557 91.3557 10.4007H90.7613C89.7312 9.37049 88.8793 8.14222 88.2057 6.71585C87.5322 5.28947 87.1954 3.74424 87.1954 2.08013H80.955V41.0083Z" fill="#7E7D7D"/>
<path d="M120.187 41.3054C120.187 39.6413 120.524 38.0961 121.198 36.6697C121.871 35.2434 122.723 34.0151 123.753 32.9849H124.348C124.268 33.5 124.209 34.0349 124.169 34.5896C124.13 35.0651 124.09 35.5801 124.05 36.1348C124.05 36.6895 124.05 37.2244 124.05 37.7395C124.05 38.4923 124.05 39.1659 124.05 39.7602C124.09 40.3149 124.13 40.8102 124.169 41.246C124.209 41.7215 124.268 42.1375 124.348 42.4941H99.6832V41.8998L103.249 41.0083V2.37729L99.6832 1.48581V0.891484H123.753C123.674 1.24808 123.615 1.6641 123.575 2.13956C123.535 2.5754 123.496 3.09048 123.456 3.6848C123.456 4.2395 123.456 4.89326 123.456 5.64607C123.456 6.20077 123.456 6.75547 123.456 7.31017C123.496 7.82525 123.535 8.32052 123.575 8.79598C123.615 9.35068 123.674 9.88557 123.753 10.4007H123.159C122.129 9.37049 121.277 8.14222 120.603 6.71585C119.93 5.28947 119.593 3.74424 119.593 2.08013H108.301V19.9098H113.947L116.621 14.5609H117.216V26.4474H116.621L113.947 21.0985H108.301V41.3054H120.187Z" fill="#7E7D7D"/>
<path d="M148.114 41.0083L151.679 41.8998V42.4941H139.496V41.8998L143.062 41.0083V2.08013H136.821C136.821 3.74424 136.485 5.28947 135.811 6.71585C135.137 8.14222 134.286 9.37049 133.255 10.4007H132.661C132.701 9.88557 132.74 9.35068 132.78 8.79598C132.82 8.32052 132.859 7.82525 132.899 7.31017C132.938 6.75547 132.958 6.20077 132.958 5.64607C132.958 4.89326 132.938 4.2395 132.899 3.6848C132.859 3.09048 132.82 2.5754 132.78 2.13956C132.74 1.6641 132.701 1.24808 132.661 0.891484H158.514C158.435 1.24808 158.375 1.6641 158.336 2.13956C158.296 2.5754 158.257 3.09048 158.217 3.6848C158.217 4.2395 158.217 4.89326 158.217 5.64607C158.217 6.20077 158.217 6.75547 158.217 7.31017C158.257 7.82525 158.296 8.32052 158.336 8.79598C158.375 9.35068 158.435 9.88557 158.514 10.4007H157.92C156.89 9.37049 156.038 8.14222 155.364 6.71585C154.691 5.28947 154.354 3.74424 154.354 2.08013H148.114V41.0083Z" fill="#7E7D7D"/>
<path d="M68.3593 65.6792L68.3459 58.8458L64.956 64.5403H64.3396L60.9497 58.886V65.6792H59.6634V56.3H60.7621L64.6746 62.8922L68.5335 56.3H69.6322L69.6456 65.6792H68.3593ZM85.0285 64.5135V65.6792H78.2219V56.3H84.8409V57.4657H79.5618V60.3465H84.2648V61.4854H79.5618V64.5135H85.0285ZM101.026 56.3V65.6792H99.927L94.2995 58.685V65.6792H92.9596V56.3H94.0583L99.6858 63.2942V56.3H101.026Z" fill="#7E7D7D"/>
<line y1="61.1078" x2="48.1638" y2="61.1078" stroke="#7E7D7D" stroke-width="1.2041"/>
<line x1="112.281" y1="61.1078" x2="160.445" y2="61.1078" stroke="#7E7D7D" stroke-width="1.2041"/>
</svg>
