<svg width="226" height="40" viewBox="0 0 226 40" fill="none" xmlns="http://www.w3.org/2000/svg">
<path d="M18.3173 22.6471H0.935547V19.2215L11.6564 4.72607H1.41133V0.44406H17.9367V3.86967L7.18411 18.3651H18.3173V22.6471Z" fill="#7E7D7D"/>
<path d="M33.1064 22.6471H28.2217L19.5943 0.44406H24.7327L30.6641 17.0646L36.6272 0.44406H41.7656L33.1064 22.6471Z" fill="#7E7D7D"/>
<path d="M44.3328 0.44406H59.9701V4.63092H49.0906V9.35699H59.0185V13.5121H49.0906V18.4602H60.1604V22.6471H44.3328V0.44406Z" fill="#7E7D7D"/>
<path d="M68.6979 22.6471H63.9401V0.44406H73.0751C74.2381 0.44406 75.3059 0.560362 76.2787 0.792966C77.2725 1.02557 78.2029 1.40619 79.0699 1.93483C79.958 2.46348 80.6452 3.21415 81.1316 4.18686C81.6391 5.15956 81.8929 6.32258 81.8929 7.6759C81.8929 11.0381 80.2752 13.2372 77.0399 14.2734L83.6691 22.6471H78.1818L72.187 14.876H68.6979V22.6471ZM68.6979 4.63092V10.9112H73.2971C74.3755 10.9112 75.2637 10.6575 75.9615 10.15C76.6804 9.62131 77.0399 8.82835 77.0399 7.77106C77.0399 6.69263 76.691 5.89966 75.9932 5.39216C75.2954 4.88467 74.3967 4.63092 73.2971 4.63092H68.6979Z" fill="#7E7D7D"/>
<path d="M85.3519 6.312C85.3519 4.26087 86.1237 2.69608 87.6674 1.61765C89.211 0.539216 91.1458 0 93.4719 0C96.2631 0 98.6632 0.570935 100.672 1.71281V6.15341C98.79 4.80008 96.5063 4.14457 93.8208 4.18686C91.4102 4.22915 90.2049 4.91639 90.2049 6.24857C90.2049 6.84065 90.5009 7.35872 91.093 7.80278C91.7062 8.24684 92.4569 8.60632 93.345 8.88121C94.2543 9.13496 95.227 9.47329 96.2631 9.89621C97.3204 10.298 98.2931 10.742 99.1812 11.2284C100.09 11.6936 100.841 12.3914 101.433 13.3218C102.046 14.2522 102.353 15.3307 102.353 16.5571C102.353 17.7624 102.12 18.7986 101.655 19.6655C101.211 20.5325 100.577 21.2092 99.7522 21.6955C98.9275 22.1819 98.0182 22.5308 97.0244 22.7422C96.0305 22.9748 94.9204 23.0911 93.6939 23.0911C90.6066 23.0911 87.8683 22.4251 85.4788 21.0929V16.5571C87.8471 18.1219 90.4692 18.9043 93.345 18.9043C96.1151 18.9043 97.5001 18.1959 97.5001 16.7791C97.5001 16.1448 97.1935 15.595 96.5803 15.1298C95.9882 14.6434 95.2375 14.2628 94.3283 13.9879C93.4402 13.6919 92.4675 13.343 91.4102 12.9412C90.374 12.5183 89.4013 12.0742 88.4921 11.609C87.6039 11.1227 86.8533 10.4248 86.24 9.51558C85.6479 8.60632 85.3519 7.53846 85.3519 6.312Z" fill="#7E7D7D"/>
<path d="M120.288 0.44406H125.046V22.6471H120.288V13.7024H110.329V22.6471H105.571V0.44406H110.329V9.38871H120.288V0.44406Z" fill="#7E7D7D"/>
<path d="M129.286 15.891C128.8 14.5166 128.556 13.0681 128.556 11.5456C128.556 10.0231 128.8 8.5746 129.286 7.20013C129.793 5.82565 130.523 4.5992 131.474 3.52077C132.447 2.44233 133.695 1.58593 135.217 0.951559C136.74 0.317186 138.453 0 140.356 0C142.259 0 143.972 0.317186 145.494 0.951559C147.017 1.58593 148.254 2.44233 149.205 3.52077C150.178 4.5992 150.907 5.82565 151.394 7.20013C151.901 8.5746 152.155 10.0231 152.155 11.5456C152.155 13.0681 151.901 14.5166 151.394 15.891C150.907 17.2655 150.178 18.4919 149.205 19.5704C148.254 20.6488 147.017 21.5052 145.494 22.1396C143.972 22.774 142.259 23.0911 140.356 23.0911C138.453 23.0911 136.74 22.774 135.217 22.1396C133.695 21.5052 132.447 20.6488 131.474 19.5704C130.523 18.4919 129.793 17.2655 129.286 15.891ZM145.462 16.6523C146.668 15.2989 147.27 13.5967 147.27 11.5456C147.27 9.49444 146.668 7.79221 145.462 6.43888C144.257 5.08555 142.555 4.40889 140.356 4.40889C138.135 4.40889 136.423 5.08555 135.217 6.43888C134.012 7.79221 133.409 9.49444 133.409 11.5456C133.409 13.5967 134.012 15.2989 135.217 16.6523C136.423 18.0056 138.135 18.6823 140.356 18.6823C142.555 18.6823 144.257 18.0056 145.462 16.6523Z" fill="#7E7D7D"/>
<path d="M155.689 0.44406H164.062C170.448 0.44406 173.641 2.92869 173.641 7.89793C173.641 12.8672 170.448 15.3518 164.062 15.3518H160.446V22.6471H155.689V0.44406ZM164.284 11.165C167.287 11.165 168.788 10.0759 168.788 7.89793C168.788 5.71992 167.287 4.63092 164.284 4.63092H160.446V11.165H164.284Z" fill="#7E7D7D"/>
<path d="M177.887 18.5237C178.394 18.9677 178.648 19.6127 178.648 20.4585C178.648 21.3043 178.394 21.9493 177.887 22.3933C177.379 22.8374 176.745 23.0594 175.984 23.0594C175.222 23.0594 174.577 22.8374 174.049 22.3933C173.541 21.9493 173.288 21.3043 173.288 20.4585C173.288 19.6127 173.541 18.9677 174.049 18.5237C174.577 18.0796 175.222 17.8576 175.984 17.8576C176.745 17.8576 177.379 18.0796 177.887 18.5237Z" fill="#7E7D7D"/>
<path d="M187.054 22.6471H182.296V0.44406H191.431C192.594 0.44406 193.662 0.560362 194.635 0.792966C195.629 1.02557 196.559 1.40619 197.426 1.93483C198.314 2.46348 199.002 3.21415 199.488 4.18686C199.995 5.15956 200.249 6.32258 200.249 7.6759C200.249 11.0381 198.631 13.2372 195.396 14.2734L202.025 22.6471H196.538L190.543 14.876H187.054V22.6471ZM187.054 4.63092V10.9112H191.653C192.732 10.9112 193.62 10.6575 194.318 10.15C195.037 9.62131 195.396 8.82835 195.396 7.77106C195.396 6.69263 195.047 5.89966 194.349 5.39216C193.652 4.88467 192.753 4.63092 191.653 4.63092H187.054Z" fill="#7E7D7D"/>
<path d="M218.971 0.44406H223.697V14.3051C223.697 15.5738 223.517 16.7157 223.158 17.7307C222.798 18.7457 222.312 19.581 221.699 20.2365C221.085 20.892 220.356 21.4418 219.51 21.8858C218.664 22.3299 217.776 22.6365 216.846 22.8057C215.936 22.996 214.974 23.0911 213.959 23.0911C212.944 23.0911 211.972 22.996 211.041 22.8057C210.132 22.6365 209.254 22.3299 208.408 21.8858C207.563 21.4418 206.833 20.892 206.22 20.2365C205.607 19.581 205.12 18.7457 204.761 17.7307C204.401 16.7157 204.222 15.5738 204.222 14.3051V0.44406H208.979V14.0513C208.979 17.2232 210.639 18.8091 213.959 18.8091C217.3 18.8091 218.971 17.2232 218.971 14.0513V0.44406Z" fill="#7E7D7D"/>
<path d="M3.13047 35.0381L4.75242 30.9322H6.02276L3.47074 37.1138C2.94899 38.3765 2.21931 39.0079 1.28168 39.0079C1.06239 39.0079 0.824206 38.9777 0.567114 38.9172V37.885C0.733468 37.938 0.918725 37.9644 1.12289 37.9644C1.70512 37.9644 2.15503 37.541 2.47262 36.6941L2.58604 36.4219L0 30.9322H1.29302L3.13047 35.0381Z" fill="#949494"/>
<path d="M8.14128 36.3765H6.92766V30.9322H8.14128V33.1213H10.8634V30.9322H12.0771V36.3765H10.8634V34.1874H8.14128V36.3765Z" fill="#949494"/>
<path d="M14.6392 36.3765H13.5957V30.9322H14.8093V34.4937L17.7243 30.9322H18.7678V36.3765H17.5541V32.815L14.6392 36.3765Z" fill="#949494"/>
<path d="M21.4995 36.3765H20.2859V30.9322H21.4995V33.0872H22.3955L23.9608 30.9322H25.3445L23.371 33.6317L25.56 36.3765H24.1649L22.3728 34.1194H21.4995V36.3765Z" fill="#949494"/>
<path d="M30.9394 35.1175C30.9394 35.3822 31.0717 35.5145 31.3363 35.5145C31.4271 35.5145 31.5481 35.4918 31.6993 35.4464V36.3198C31.4725 36.4105 31.2154 36.4559 30.928 36.4559C30.3836 36.4559 30.0206 36.2442 29.8392 35.8207C29.2569 36.2895 28.5726 36.524 27.7862 36.524C27.2569 36.524 26.807 36.3803 26.4365 36.0929C26.066 35.798 25.8807 35.3859 25.8807 34.8566C25.8807 34.2215 26.1189 33.7602 26.5953 33.4729C27.0716 33.178 27.6425 33.0305 28.308 33.0305C28.7465 33.0305 29.2191 33.0835 29.7257 33.1893V32.9965C29.7257 32.6487 29.601 32.3689 29.3514 32.1572C29.1019 31.9454 28.7503 31.8396 28.2966 31.8396C27.6236 31.8396 26.9696 31.9795 26.3344 32.2593V31.1477C27.0452 30.9057 27.7408 30.7848 28.4214 30.7848C29.2153 30.7848 29.8316 30.9814 30.2702 31.3746C30.7163 31.7678 30.9394 32.3651 30.9394 33.1666V35.1175ZM28.5461 33.8812C28.1454 33.8812 27.8089 33.953 27.5367 34.0967C27.2645 34.2404 27.1284 34.4672 27.1284 34.7772C27.1284 35.0343 27.2267 35.2347 27.4233 35.3784C27.6199 35.5145 27.8618 35.5825 28.1492 35.5825C28.7692 35.5825 29.2947 35.367 29.7257 34.936V34.0173C29.2872 33.9266 28.894 33.8812 28.5461 33.8812Z" fill="#949494"/>
<path d="M34.7803 31.9644C34.735 32.6751 34.6745 33.2838 34.5988 33.7905C34.5232 34.2971 34.4098 34.7659 34.2586 35.1969C34.1073 35.6203 33.907 35.9417 33.6574 36.161C33.4155 36.3727 33.1168 36.4786 32.7614 36.4786C32.527 36.4786 32.2775 36.4294 32.0128 36.3311V35.3784C32.1414 35.4238 32.2586 35.4464 32.3644 35.4464C32.7954 35.4464 33.0979 35.0721 33.2718 34.3235C33.4533 33.5674 33.5743 32.4369 33.6348 30.9322H37.8314V36.3765H36.6178V31.9644H34.7803Z" fill="#949494"/>
<path d="M42.0479 36.3765H39.3484V30.9322H40.5621V32.747H42.0479C42.7133 32.747 43.2388 32.9171 43.6245 33.2574C44.0101 33.5976 44.2029 34.0324 44.2029 34.5617C44.2029 35.091 44.0101 35.5258 43.6245 35.8661C43.2388 36.2064 42.7133 36.3765 42.0479 36.3765ZM40.5621 33.6997V35.4124H41.8097C42.1727 35.4124 42.4562 35.3406 42.6604 35.1969C42.8645 35.0457 42.9666 34.834 42.9666 34.5617C42.9666 34.282 42.8645 34.0702 42.6604 33.9266C42.4562 33.7753 42.1727 33.6997 41.8097 33.6997H40.5621Z" fill="#949494"/>
<path d="M46.4769 36.3765H45.2633V30.9322H46.4769V33.1213H49.199V30.9322H50.4127V36.3765H49.199V34.1874H46.4769V36.3765Z" fill="#949494"/>
<path d="M54.6307 36.3765H51.9313V30.9322H53.1449V32.747H54.6307C55.2962 32.747 55.8217 32.9171 56.2073 33.2574C56.593 33.5976 56.7858 34.0324 56.7858 34.5617C56.7858 35.091 56.593 35.5258 56.2073 35.8661C55.8217 36.2064 55.2962 36.3765 54.6307 36.3765ZM53.1449 33.6997V35.4124H54.3926C54.7555 35.4124 55.0391 35.3406 55.2432 35.1969C55.4474 35.0457 55.5495 34.834 55.5495 34.5617C55.5495 34.282 55.4474 34.0702 55.2432 33.9266C55.0391 33.7753 54.7555 33.6997 54.3926 33.6997H53.1449ZM58.9748 36.3765H57.7612V30.9322H58.9748V36.3765Z" fill="#949494"/>
<path d="M64.7354 29.7072C64.2817 30.0173 63.7297 30.1723 63.0794 30.1723C62.4291 30.1723 61.8771 30.0173 61.4234 29.7072V28.7205C61.9301 29.038 62.4821 29.1968 63.0794 29.1968C63.6768 29.1968 64.2288 29.038 64.7354 28.7205V29.7072ZM61.5369 36.3765H60.4934V30.9322H61.707V34.4937L64.622 30.9322H65.6655V36.3765H64.4518V32.815L61.5369 36.3765Z" fill="#949494"/>
<path d="M71.0777 36.3765H69.8641V30.9322H71.0777V33.0872H71.9737L73.539 30.9322H74.9227L72.9492 33.6317L75.1382 36.3765H73.7431L71.951 34.1194H71.0777V36.3765Z" fill="#949494"/>
<path d="M76.1788 35.764C75.6041 35.2574 75.3168 34.5542 75.3168 33.6544C75.3168 32.7545 75.6041 32.0513 76.1788 31.5447C76.761 31.0381 77.4567 30.7848 78.2658 30.7848C79.0824 30.7848 79.7781 31.0381 80.3527 31.5447C80.9274 32.0513 81.2148 32.7545 81.2148 33.6544C81.2148 34.5542 80.9274 35.2574 80.3527 35.764C79.7781 36.2706 79.0824 36.524 78.2658 36.524C77.4567 36.524 76.761 36.2706 76.1788 35.764ZM79.5021 34.936C79.8196 34.6109 79.9784 34.1837 79.9784 33.6544C79.9784 33.125 79.8196 32.7016 79.5021 32.384C79.1845 32.0589 78.7724 31.8963 78.2658 31.8963C77.7516 31.8963 77.3357 32.0589 77.0181 32.384C76.7005 32.7016 76.5417 33.125 76.5417 33.6544C76.5417 34.1837 76.7005 34.6109 77.0181 34.936C77.3357 35.2536 77.7516 35.4124 78.2658 35.4124C78.7724 35.4124 79.1845 35.2536 79.5021 34.936Z" fill="#949494"/>
<path d="M83.6051 36.3765H82.3915V30.9322H83.6051V33.1213H86.3273V30.9322H87.5409V36.3765H86.3273V34.1874H83.6051V36.3765Z" fill="#949494"/>
<path d="M91.5889 36.3765H90.3753V31.9984H88.4924V30.9322H93.4604V31.9984H91.5889V36.3765Z" fill="#949494"/>
<path d="M93.9252 33.6544C93.9252 33.1855 94.0084 32.7621 94.1747 32.384C94.3411 31.9984 94.5604 31.6959 94.8326 31.4766C95.1048 31.2498 95.3997 31.0797 95.7173 30.9662C96.0349 30.8452 96.3562 30.7848 96.6814 30.7848C97.0973 30.7848 97.4716 30.849 97.8043 30.9776C98.1445 31.1061 98.4167 31.28 98.6209 31.4993C98.8251 31.7186 98.9914 31.9719 99.12 32.2593C99.2485 32.5466 99.3166 32.8491 99.3241 33.1666C99.3317 33.4767 99.3052 33.7905 99.2447 34.108H95.1502C95.2107 34.5693 95.4375 34.9171 95.8307 35.1515C96.2239 35.3784 96.6927 35.4918 97.2372 35.4918C97.8572 35.4918 98.4319 35.3633 98.9612 35.1062V36.1497C98.4394 36.3992 97.7891 36.524 97.0103 36.524C96.1256 36.524 95.3884 36.2744 94.7986 35.7754C94.2163 35.2763 93.9252 34.5693 93.9252 33.6544ZM98.1559 33.2007C98.2012 32.8906 98.1067 32.5806 97.8723 32.2706C97.6455 31.953 97.2674 31.7942 96.7381 31.7942C96.3071 31.7942 95.9366 31.919 95.6265 32.1685C95.3241 32.418 95.1615 32.7621 95.1388 33.2007H98.1559Z" fill="#949494"/>
<path d="M101.671 36.3765H100.457V30.9322H101.671V33.1213H104.393V30.9322H105.607V36.3765H104.393V34.1874H101.671V36.3765Z" fill="#949494"/>
<path d="M109.655 36.3765H108.441V31.9984H106.558V30.9322H111.526V31.9984H109.655V36.3765Z" fill="#949494"/>
<path d="M115.814 37.8397H114.668V35.3784H115.417C116.014 34.3198 116.301 32.8377 116.279 30.9322H120.532V35.3784H121.337V37.8397H120.192V36.3765H115.814V37.8397ZM117.413 31.9303C117.367 33.2914 117.125 34.4408 116.687 35.3784H119.307V31.9303H117.413Z" fill="#949494"/>
<path d="M124.61 31.9644C124.565 32.6751 124.504 33.2838 124.429 33.7905C124.353 34.2971 124.24 34.7659 124.089 35.1969C123.937 35.6203 123.737 35.9417 123.487 36.161C123.245 36.3727 122.947 36.4786 122.591 36.4786C122.357 36.4786 122.107 36.4294 121.843 36.3311V35.3784C121.971 35.4238 122.089 35.4464 122.194 35.4464C122.625 35.4464 122.928 35.0721 123.102 34.3235C123.283 33.5674 123.404 32.4369 123.465 30.9322H127.661V36.3765H126.448V31.9644H124.61Z" fill="#949494"/>
<path d="M130.086 36.3765H128.691L130.188 34.4597C129.802 34.3235 129.504 34.1043 129.292 33.8018C129.08 33.4993 128.974 33.1553 128.974 32.7697C128.974 32.2479 129.16 31.8131 129.53 31.4653C129.908 31.1099 130.422 30.9322 131.073 30.9322H133.885V36.3765H132.672V34.5958H131.436L130.086 36.3765ZM130.494 32.1685C130.305 32.3122 130.211 32.5163 130.211 32.781C130.211 33.0457 130.305 33.2536 130.494 33.4048C130.683 33.5485 130.944 33.6203 131.277 33.6203H132.672V31.9417H131.277C130.944 31.9417 130.683 32.0173 130.494 32.1685Z" fill="#949494"/>
<path d="M141.282 36.3765H138.084V30.9322H141.192C141.729 30.9322 142.148 31.0683 142.451 31.3405C142.761 31.6052 142.916 31.953 142.916 32.384C142.916 32.9814 142.659 33.3935 142.144 33.6203C142.417 33.7035 142.64 33.8547 142.814 34.074C142.988 34.2933 143.075 34.5617 143.075 34.8793C143.075 35.3255 142.923 35.6884 142.621 35.9682C142.326 36.2404 141.88 36.3765 141.282 36.3765ZM139.298 34.0627V35.4578H140.988C141.562 35.4578 141.85 35.2272 141.85 34.7659C141.85 34.2971 141.57 34.0627 141.01 34.0627H139.298ZM139.298 31.8509V33.2007H140.919C141.434 33.2007 141.691 32.9814 141.691 32.5428C141.691 32.3008 141.615 32.1269 141.464 32.0211C141.32 31.9076 141.139 31.8509 140.919 31.8509H139.298Z" fill="#949494"/>
<path d="M148.937 35.1175C148.937 35.3822 149.069 35.5145 149.334 35.5145C149.425 35.5145 149.546 35.4918 149.697 35.4464V36.3198C149.47 36.4105 149.213 36.4559 148.925 36.4559C148.381 36.4559 148.018 36.2442 147.837 35.8207C147.254 36.2895 146.57 36.524 145.784 36.524C145.254 36.524 144.804 36.3803 144.434 36.0929C144.063 35.798 143.878 35.3859 143.878 34.8566C143.878 34.2215 144.116 33.7602 144.593 33.4729C145.069 33.178 145.64 33.0305 146.305 33.0305C146.744 33.0305 147.217 33.0835 147.723 33.1893V32.9965C147.723 32.6487 147.598 32.3689 147.349 32.1572C147.099 31.9454 146.748 31.8396 146.294 31.8396C145.621 31.8396 144.967 31.9795 144.332 32.2593V31.1477C145.043 30.9057 145.738 30.7848 146.419 30.7848C147.213 30.7848 147.829 30.9814 148.268 31.3746C148.714 31.7678 148.937 32.3651 148.937 33.1666V35.1175ZM146.544 33.8812C146.143 33.8812 145.806 33.953 145.534 34.0967C145.262 34.2404 145.126 34.4672 145.126 34.7772C145.126 35.0343 145.224 35.2347 145.421 35.3784C145.617 35.5145 145.859 35.5825 146.147 35.5825C146.767 35.5825 147.292 35.367 147.723 34.936V34.0173C147.285 33.9266 146.891 33.8812 146.544 33.8812Z" fill="#949494"/>
<path d="M158.347 36.3765H150.611V30.9322H151.825V35.3103H153.878V30.9322H155.092V35.3103H157.133V30.9322H158.347V36.3765Z" fill="#949494"/>
<path d="M159.531 33.6544C159.531 33.1855 159.614 32.7621 159.781 32.384C159.947 31.9984 160.166 31.6959 160.438 31.4766C160.711 31.2498 161.006 31.0797 161.323 30.9662C161.641 30.8452 161.962 30.7848 162.287 30.7848C162.703 30.7848 163.077 30.849 163.41 30.9776C163.75 31.1061 164.023 31.28 164.227 31.4993C164.431 31.7186 164.597 31.9719 164.726 32.2593C164.854 32.5466 164.922 32.8491 164.93 33.1666C164.938 33.4767 164.911 33.7905 164.851 34.108H160.756C160.816 34.5693 161.043 34.9171 161.437 35.1515C161.83 35.3784 162.299 35.4918 162.843 35.4918C163.463 35.4918 164.038 35.3633 164.567 35.1062V36.1497C164.045 36.3992 163.395 36.524 162.616 36.524C161.731 36.524 160.994 36.2744 160.404 35.7754C159.822 35.2763 159.531 34.5693 159.531 33.6544ZM163.762 33.2007C163.807 32.8906 163.713 32.5806 163.478 32.2706C163.251 31.953 162.873 31.7942 162.344 31.7942C161.913 31.7942 161.542 31.919 161.232 32.1685C160.93 32.418 160.767 32.7621 160.745 33.2007H163.762Z" fill="#949494"/>
<path d="M167.277 36.3765H166.063V30.9322H170.124V31.9984H167.277V36.3765Z" fill="#949494"/>
<path d="M171.447 35.764C170.873 35.2574 170.585 34.5542 170.585 33.6544C170.585 32.7545 170.873 32.0513 171.447 31.5447C172.03 31.0381 172.725 30.7848 173.534 30.7848C174.351 30.7848 175.047 31.0381 175.621 31.5447C176.196 32.0513 176.483 32.7545 176.483 33.6544C176.483 34.5542 176.196 35.2574 175.621 35.764C175.047 36.2706 174.351 36.524 173.534 36.524C172.725 36.524 172.03 36.2706 171.447 35.764ZM174.771 34.936C175.088 34.6109 175.247 34.1837 175.247 33.6544C175.247 33.125 175.088 32.7016 174.771 32.384C174.453 32.0589 174.041 31.8963 173.534 31.8963C173.02 31.8963 172.604 32.0589 172.287 32.384C171.969 32.7016 171.81 33.125 171.81 33.6544C171.81 34.1837 171.969 34.6109 172.287 34.936C172.604 35.2536 173.02 35.4124 173.534 35.4124C174.041 35.4124 174.453 35.2536 174.771 34.936Z" fill="#949494"/>
<path d="M181.554 36.3765H180.341V30.9322H185.49V36.3765H184.276V31.9984H181.554V36.3765Z" fill="#949494"/>
<path d="M188.052 36.3765H187.009V30.9322H188.222V34.4937L191.137 30.9322H192.181V36.3765H190.967V32.815L188.052 36.3765Z" fill="#949494"/>
<path d="M196.228 36.3765H195.014V31.9984H193.132V30.9322H198.1V31.9984H196.228V36.3765Z" fill="#949494"/>
<path d="M199.426 35.764C198.852 35.2574 198.564 34.5542 198.564 33.6544C198.564 32.7545 198.852 32.0513 199.426 31.5447C200.009 31.0381 200.704 30.7848 201.513 30.7848C202.33 30.7848 203.026 31.0381 203.6 31.5447C204.175 32.0513 204.462 32.7545 204.462 33.6544C204.462 34.5542 204.175 35.2574 203.6 35.764C203.026 36.2706 202.33 36.524 201.513 36.524C200.704 36.524 200.009 36.2706 199.426 35.764ZM202.75 34.936C203.067 34.6109 203.226 34.1837 203.226 33.6544C203.226 33.125 203.067 32.7016 202.75 32.384C202.432 32.0589 202.02 31.8963 201.513 31.8963C200.999 31.8963 200.583 32.0589 200.266 32.384C199.948 32.7016 199.789 33.125 199.789 33.6544C199.789 34.1837 199.948 34.6109 200.266 34.936C200.583 35.2536 200.999 35.4124 201.513 35.4124C202.02 35.4124 202.432 35.2536 202.75 34.936Z" fill="#949494"/>
<path d="M206.807 36.3765H205.639V30.9322H206.864L208.713 33.8018L210.573 30.9322H211.798V36.3765H210.63V32.6903L209.076 35.0721H208.35L206.807 32.6903V36.3765Z" fill="#949494"/>
<path d="M219.156 37.8397H218.011V36.3765H213.315V30.9322H214.529V35.3103H217.126V30.9322H218.34V35.333H219.156V37.8397Z" fill="#949494"/>
<path d="M224.91 35.1175C224.91 35.3822 225.043 35.5145 225.307 35.5145C225.398 35.5145 225.519 35.4918 225.67 35.4464V36.3198C225.443 36.4105 225.186 36.4559 224.899 36.4559C224.354 36.4559 223.991 36.2442 223.81 35.8207C223.228 36.2895 222.543 36.524 221.757 36.524C221.228 36.524 220.778 36.3803 220.407 36.0929C220.037 35.798 219.852 35.3859 219.852 34.8566C219.852 34.2215 220.09 33.7602 220.566 33.4729C221.042 33.178 221.613 33.0305 222.279 33.0305C222.717 33.0305 223.19 33.0835 223.697 33.1893V32.9965C223.697 32.6487 223.572 32.3689 223.322 32.1572C223.073 31.9454 222.721 31.8396 222.267 31.8396C221.594 31.8396 220.94 31.9795 220.305 32.2593V31.1477C221.016 30.9057 221.712 30.7848 222.392 30.7848C223.186 30.7848 223.802 30.9814 224.241 31.3746C224.687 31.7678 224.91 32.3651 224.91 33.1666V35.1175ZM222.517 33.8812C222.116 33.8812 221.78 33.953 221.507 34.0967C221.235 34.2404 221.099 34.4672 221.099 34.7772C221.099 35.0343 221.197 35.2347 221.394 35.3784C221.591 35.5145 221.833 35.5825 222.12 35.5825C222.74 35.5825 223.266 35.367 223.697 34.936V34.0173C223.258 33.9266 222.865 33.8812 222.517 33.8812Z" fill="#949494"/>
</svg>
