<svg width="70" height="70" viewBox="0 0 70 70" fill="none" xmlns="http://www.w3.org/2000/svg">
<g clip-path="url(#clip0_208_1481)">
<path d="M59.5925 13.7567L55.0745 64.3699L34.7659 70.0001L14.5132 64.3778L10 13.7567H59.5925Z" fill="#264DE4"/>
<path d="M51.2072 61.1468L55.0682 17.8955H34.7969V65.6964L51.2072 61.1468Z" fill="#2965F1"/>
<path d="M20.3457 36.6705L20.9021 42.8789H34.7955V36.6705H20.3457Z" fill="#EBEBEB"/>
<path d="M34.7964 24.1041H34.7749H19.2285L19.7929 30.3127H34.7964V24.1041Z" fill="#EBEBEB"/>
<path d="M34.7956 59.2538V52.7944L34.7684 52.8016L27.854 50.9346L27.412 45.983H24.0521H21.1797L22.0495 55.7312L34.7671 59.2617L34.7956 59.2538Z" fill="#EBEBEB"/>
<path d="M21.6719 0H29.1914V3.14453H24.8164V6.28906H29.1914V9.4336H21.6719V0Z" fill="#060606"/>
<path d="M30.6934 0H38.2129V2.73438H33.8379V3.28125H38.2129V9.57031H30.6934V6.69922H35.0684V6.15234H30.6934V0Z" fill="#060606"/>
<path d="M39.7188 0H47.2383V2.73438H42.8633V3.28125H47.2383V9.57031H39.7188V6.69922H44.0938V6.15234H39.7188V0Z" fill="#060606"/>
<path d="M42.4204 42.8787L41.6998 50.9307L34.7754 52.7996V59.2587L47.5031 55.7313L47.5965 54.6824L49.0554 38.3375L49.2069 36.6703L50.3277 24.1042H34.7754V30.3128H43.5237L42.9588 36.6703H34.7754V42.8787H42.4204Z" fill="#060606"/>
</g>
<defs>
<clipPath id="clip0_208_1481">
<rect width="49.5925" height="70" fill="white" transform="translate(10)"/>
</clipPath>
</defs>
</svg>
