<svg width="70" height="34" viewBox="0 0 70 34" fill="none" xmlns="http://www.w3.org/2000/svg">
<path d="M17.582 6.999H5.30678L0 34H6.30316L7.63063 27.001H13.6027C19.2406 27.3337 25.5468 22.6667 25.5468 14.6665C25.5468 9.99945 22.8919 7.33169 17.5851 6.999H17.582ZM12.9374 22.0013H8.955L10.6136 12.0018H14.9271C17.2478 12.0018 18.9095 13.003 18.9095 15.0023C18.5784 20.6705 15.9234 21.6686 12.9374 22.0013ZM39.8086 6.999H33.8365L35.164 0H28.8608L23.5541 27.001H29.8572L32.8433 12.0018H37.8189C40.1428 12.0018 40.1428 13.003 39.8086 14.6696L37.4878 27.0041H44.1221L46.4428 13.3357C47.105 10.0026 45.1154 7.3348 39.8086 7.0021V6.999ZM62.0352 6.999H49.76L44.4532 34H50.7563L52.0838 27.001H58.0559C63.6968 27.3337 70 22.6667 70 14.6665C70 9.99945 67.3451 7.33169 62.0383 6.999H62.0352ZM57.3906 22.0013H53.4082L55.0667 12.0018H59.3802C61.7041 12.0018 63.3627 13.003 63.3627 15.0023C63.0316 20.6705 60.3766 21.6686 57.3906 22.0013Z" fill="#8F8F8F"/>
</svg>
