<svg width="70" height="70" viewBox="0 0 70 70" fill="none" xmlns="http://www.w3.org/2000/svg">
<path d="M34.1092 38.3066H31.2534C29.7933 38.3066 28.6015 37.1257 28.6015 35.6548V29.8143C28.6015 28.3542 29.7825 27.1625 31.2534 27.1625H40.3684C41.8285 27.1625 43.0203 28.3435 43.0203 29.8143V35.6548C43.0203 37.1149 41.8393 38.3066 40.3684 38.3066H36.3423L42.4727 47.98H48.7534L45.2426 42.4401C47.0571 41.2698 48.3132 39.2836 48.3132 36.9861V28.483C48.3132 24.8327 45.1138 21.934 41.5172 21.934H30.1046C26.4972 21.934 23.3086 24.8327 23.3086 28.483V36.9861C23.3086 40.6471 26.508 43.5352 30.1046 43.5352H37.4267L34.1092 38.3066Z" fill="#060606"/>
<path d="M67.3153 43.5459H58.0499C54.4533 43.5459 51.2539 40.6471 51.2539 36.9968V21.934H56.5576V35.6548C56.5576 37.1149 57.7386 38.3066 59.2094 38.3066H67.3153V43.5459Z" fill="#060606"/>
<path d="M9.59786 27.1732H20.3877V21.934H8.79265C5.53958 21.934 2.88773 24.6073 2.89847 28.1395V29.1487C2.88773 32.6916 5.53958 35.3542 8.79265 35.3542H14.3433C15.1807 35.3542 15.8571 35.9876 15.8571 36.8143V36.8358H15.8678C15.8678 37.6625 15.1914 38.2959 14.354 38.2959H3.91841V43.5352H15.1592C18.4123 43.5352 21.0641 40.8619 21.0534 37.3297V36.3205C21.0641 32.7775 18.4016 30.1149 15.1485 30.1149H9.59786C8.76044 30.1149 8.08406 29.4815 8.08406 28.6548V28.6333C8.08406 27.8067 8.76044 27.1732 9.59786 27.1732Z" fill="#060606"/>
</svg>
