<svg width="329" height="301" viewBox="0 0 329 301" fill="none" xmlns="http://www.w3.org/2000/svg">
<path d="M128.938 188.233H34.6157L13.9392 234H1.1616L75.9686 71.376H87.817L162.624 234H149.846L128.938 188.233ZM124.524 178.243L81.7766 84.3859L39.2621 178.243H124.524Z" fill="#282828"/>
<path d="M256.05 113.194C269.989 113.194 280.598 116.833 287.877 124.113C295.312 131.237 299.029 141.614 299.029 155.244V234H294.382V208.445C290.51 216.653 284.625 223.081 276.726 227.727C268.982 232.374 259.612 234.697 248.615 234.697C235.296 234.697 224.841 231.677 217.252 225.636C209.818 219.441 206.101 211.233 206.101 201.011C206.101 191.408 209.431 183.664 216.091 177.779C222.905 171.738 233.824 168.718 248.848 168.718H294.382V155.476C294.382 142.931 291.13 133.483 284.625 127.133C278.275 120.783 268.827 117.608 256.282 117.608C247.609 117.608 239.477 119.156 231.888 122.254C224.454 125.197 218.027 129.224 212.606 134.335L209.353 131.082C215.084 125.507 222.053 121.17 230.262 118.072C238.471 114.82 247.067 113.194 256.05 113.194ZM248.615 230.283C270.918 230.283 286.174 220.061 294.382 199.617V173.132H248.615C235.605 173.132 226.003 175.61 219.808 180.566C213.767 185.523 210.747 192.26 210.747 200.778C210.747 209.916 214.077 217.118 220.737 222.384C227.397 227.65 236.69 230.283 248.615 230.283Z" fill="#636363"/>
</svg>
