<svg width="160" height="114" viewBox="0 0 160 114" fill="none" xmlns="http://www.w3.org/2000/svg">
<g clip-path="url(#clip0_281_2218)">
<path d="M58.5456 12.8539C55.5537 19.0804 57.5175 26.8129 62.7542 30.8301L78.8355 43.1819L58.6393 12.5538C58.6393 12.6547 58.5456 12.7551 58.5456 12.8551" fill="#7E7D7D"/>
<path d="M82.7613 0L78.9277 43.1832L94.6353 6.22612C91.4561 3.01264 87.3424 0.70295 82.7613 0Z" fill="#7E7D7D"/>
<path d="M63.1262 6.22652L78.8338 43.1828L75.0931 0C70.4171 0.702949 66.3042 3.01264 63.125 6.22652" fill="#7E7D7D"/>
<path d="M99.3115 12.8544C99.2179 12.754 99.2179 12.6532 99.1246 12.6532L78.8359 43.1833L95.011 30.8307C100.434 26.7126 102.303 19.0814 99.3115 12.8544Z" fill="#7E7D7D"/>
<path d="M5.91775 60.3997H5.79581V69.8102H8.22943V72.948H0.0761719V69.8102H2.5098V57.7876H0.0761719V54.6502H5.67426L11.3939 63.1438H11.5154L17.2351 54.6482H22.8328V57.7876H20.3995V69.8126H22.8332V72.9504H14.6803V69.8126H17.1143V60.4001H16.9932L11.8809 67.7197H11.0285L5.91775 60.3997Z" fill="#7E7D7D"/>
<path d="M38.2906 66.9351H32.3259L31.3524 69.8102H33.2995V72.948H25.7539V69.8102H27.8229L33.2995 54.6482H37.3159L42.7921 69.8102H44.8611V72.948H37.3159V69.8102H39.263L38.2906 66.9351ZM33.1791 64.3209H37.4371L35.3681 58.3072H35.2469L33.1791 64.3209Z" fill="#7E7D7D"/>
<path d="M53.5013 69.8103H55.9349V72.9481H47.7812V69.8103H50.2149V57.7876H47.7812V54.6503H57.76C58.7009 54.6503 59.5409 54.7893 60.2797 55.0671C61.0185 55.3452 61.6434 55.7286 62.1539 56.218C62.6643 56.7061 63.0628 57.2991 63.3219 57.9562C63.594 58.6516 63.7303 59.3928 63.7231 60.1396C63.7231 61.1155 63.5366 61.9041 63.1632 62.5055C62.7899 63.1064 62.3842 63.573 61.9462 63.9046C61.4226 64.2899 60.8265 64.5653 60.194 64.7147V64.8466L63.3585 69.8127H65.6702V72.9505H61.2883L56.7865 65.6285H53.5009L53.5013 69.8103ZM53.5013 62.4907H57.7604C58.4913 62.4907 59.0794 62.264 59.525 61.8105C59.9705 61.357 60.1936 60.7991 60.1944 60.1368C60.1944 59.4749 59.9713 58.9178 59.525 58.4643C59.0786 58.0112 58.4905 57.7852 57.7604 57.7872H53.5013V62.4907Z" fill="#7E7D7D"/>
<path d="M68.5918 69.8103H71.0258V57.7876H68.5918V54.6503H83.9499V60.7931H81.0046V57.7876H74.3114V62.0982H79.1791V65.2356H74.3114V69.8103H81.0046V66.8048H83.9256V72.9481H68.5918V69.8103Z" fill="#7E7D7D"/>
<path d="M101.961 67.5883C101.961 68.3682 101.795 69.1393 101.473 69.8498C101.144 70.5795 100.667 71.2334 100.073 71.771C99.4647 72.3297 98.7227 72.774 97.8464 73.1039C96.9705 73.4343 95.9886 73.5997 94.9007 73.6009C93.765 73.6009 92.7672 73.4307 91.9072 73.0908C91.0473 72.7509 90.3244 72.3803 89.7394 71.9802C89.0703 71.5203 88.4718 70.9652 87.9629 70.3324L89.7884 67.8485C90.1769 68.371 90.6356 68.8368 91.1517 69.2341C91.5896 69.5828 92.1248 69.8968 92.7576 70.1762C93.3904 70.4555 94.1045 70.5946 94.8991 70.5938C96.0679 70.5938 96.9482 70.3065 97.5404 69.7314C98.1325 69.1564 98.4286 68.4419 98.429 67.5879C98.429 67.0308 98.1939 66.5865 97.7233 66.255C97.2527 65.9234 96.6685 65.6401 95.9707 65.4046C95.2729 65.1699 94.5102 64.93 93.6829 64.6849C92.8847 64.4545 92.1172 64.1302 91.3956 63.7185C90.7066 63.3256 90.1092 62.7904 89.643 62.1488C89.1719 61.5049 88.9368 60.6593 88.9372 59.6128C88.9344 58.8772 89.0791 58.1483 89.3624 57.4693C89.645 56.7914 90.0682 56.1809 90.6037 55.6788C91.1469 55.1652 91.8203 54.7559 92.6241 54.4503C93.4279 54.1446 94.3488 53.9924 95.3873 53.9928C96.264 53.9928 97.0713 54.1231 97.8106 54.3841C98.5494 54.6451 99.1782 54.9329 99.6966 55.2477C100.291 55.5967 100.846 56.0088 101.352 56.4766V60.3982H98.431V58.3053C98.1808 58.0571 97.903 57.8379 97.6033 57.6518C97.2909 57.4789 96.9653 57.3306 96.6298 57.2083C96.2321 57.0632 95.8117 56.9911 95.3885 56.9959C94.415 56.9959 93.6849 57.2489 93.1984 57.7554C92.7118 58.2619 92.4683 58.8816 92.4675 59.6148C92.4675 60.1898 92.703 60.6389 93.1736 60.9621C93.6443 61.2853 94.2285 61.5638 94.9258 61.7982C95.6232 62.0341 96.3859 62.274 97.2136 62.5175C98.0114 62.7494 98.7793 63.0738 99.5018 63.4842C100.19 63.8775 100.787 64.4127 101.254 65.0535C101.725 65.6983 101.96 66.5431 101.961 67.5883Z" fill="#7E7D7D"/>
<path d="M115.347 69.8102H117.781V72.948H109.627V69.8102H112.061V57.7876H108.653V61.3159H105.732V54.6482H121.674V61.3159H118.753V57.7876H115.345L115.347 69.8102Z" fill="#7E7D7D"/>
<path d="M125.447 69.8103H127.881V57.7876H125.447V54.6503H140.805V60.7931H137.86V57.7876H131.167V62.0982H136.035V65.2356H131.167V69.8103H137.86V66.8048H140.782V72.9481H125.447V69.8103Z" fill="#7E7D7D"/>
<path d="M158.816 67.5883C158.817 68.3682 158.651 69.1393 158.329 69.8498C158 70.5795 157.523 71.2334 156.929 71.771C156.321 72.3297 155.578 72.774 154.702 73.1039C153.826 73.4343 152.845 73.5997 151.757 73.6009C150.621 73.6009 149.623 73.4307 148.763 73.0908C147.904 72.7509 147.181 72.3803 146.595 71.9802C145.926 71.5203 145.327 70.9652 144.818 70.3324L146.644 67.8485C147.033 68.3706 147.491 68.8368 148.007 69.2341C148.445 69.5828 148.981 69.8968 149.613 70.1762C150.247 70.4555 150.96 70.5946 151.755 70.5938C152.923 70.5938 153.804 70.3065 154.396 69.7314C154.988 69.1564 155.285 68.4419 155.285 67.5879C155.285 67.0308 155.05 66.5865 154.579 66.255C154.109 65.9234 153.524 65.6401 152.827 65.4046C152.128 65.1699 151.366 64.93 150.538 64.6849C149.741 64.4541 148.973 64.1298 148.251 63.7185C147.562 63.3256 146.965 62.7904 146.499 62.1488C146.028 61.5049 145.793 60.6593 145.793 59.6128C145.79 58.8772 145.935 58.1483 146.218 57.4693C146.5 56.7914 146.924 56.1809 147.46 55.6788C148.003 55.1652 148.676 54.7559 149.48 54.4503C150.284 54.1446 151.205 53.9924 152.243 53.9928C153.119 53.9928 153.927 54.1231 154.666 54.3841C155.406 54.6451 156.034 54.9329 156.553 55.2477C157.147 55.5967 157.702 56.0088 158.208 56.4766V60.3982H155.287V58.3053C155.037 58.0571 154.759 57.8379 154.459 57.6518C154.147 57.4789 153.821 57.3306 153.486 57.2083C153.088 57.0632 152.668 56.9911 152.244 56.9959C151.271 56.9959 150.541 57.2489 150.054 57.7554C149.567 58.2619 149.323 58.8816 149.323 59.6148C149.323 60.1898 149.559 60.6389 150.03 60.9621C150.5 61.2853 151.084 61.5638 151.781 61.7982C152.479 62.0341 153.242 62.274 154.069 62.5175C154.867 62.7494 155.635 63.0734 156.358 63.4834C157.046 63.8771 157.643 64.4119 158.109 65.0527C158.58 65.6979 158.816 66.5431 158.816 67.5883Z" fill="#7E7D7D"/>
<path d="M51.6066 100.008H53.7525V102.773H46.5645V100.008H48.71V89.4054H46.5645V86.6403H55.3617C56.2204 86.6403 56.9895 86.7706 57.6686 87.0312C58.348 87.2918 58.9203 87.6493 59.3853 88.1035C59.8504 88.5566 60.2154 89.1022 60.4577 89.7043C60.9586 90.9942 60.9586 92.4248 60.4577 93.7148C60.2158 94.3177 59.8504 94.8637 59.3853 95.3171C58.9203 95.7706 58.348 96.1277 57.6686 96.3883C56.9891 96.6489 56.2204 96.78 55.3617 96.7812H51.6066V100.008ZM51.6066 94.0141H55.3617C56.12 94.0141 56.703 93.8033 57.1107 93.3812C57.5183 92.9592 57.722 92.4025 57.7224 91.7107C57.7224 91.0185 57.5183 90.4619 57.1107 90.0398C56.703 89.6178 56.12 89.4066 55.3617 89.4054H51.6066V94.0141Z" fill="#7E7D7D"/>
<path d="M71.0483 93.6709C70.8901 93.6243 70.7259 93.5705 70.5537 93.5083C70.3967 93.4633 70.2138 93.4206 70.0066 93.3808C69.7838 93.3413 69.5575 93.3218 69.3311 93.3234C68.9725 93.3214 68.6166 93.3836 68.2799 93.5071C67.9842 93.6155 67.6973 93.7462 67.4215 93.8984C67.1438 94.0622 66.8848 94.2555 66.6488 94.4754V100.238H68.3656V102.773H62.3574V100.238H64.0745V93.5549H62.3574V91.0193H66.3277L66.4349 92.4017H66.6473C66.9055 92.0629 67.2008 91.7541 67.5271 91.4803C67.8368 91.2345 68.1711 91.0221 68.525 90.8459C68.9215 90.6511 69.3586 90.5526 69.8002 90.559C70.064 90.5562 70.3274 90.5869 70.5836 90.6507C70.7992 90.7053 71.0104 90.7746 71.2164 90.8583C71.4189 90.9292 71.6129 91.0217 71.7958 91.134L71.0483 93.6709Z" fill="#7E7D7D"/>
<path d="M77.182 91.0192V100.239H78.8988V102.774H72.8906V100.239H74.6074V93.5548H72.8906V91.0192H77.182ZM77.6112 87.5618C77.6112 88.0846 77.4466 88.5226 77.1175 88.8756C76.4847 89.5511 75.4243 89.5858 74.7488 88.953C74.7221 88.9278 74.6962 88.9023 74.6715 88.8756C74.3416 88.523 74.177 88.0846 74.1774 87.5618C74.1778 87.0386 74.3428 86.601 74.6715 86.2492C75.3043 85.5737 76.3647 85.539 77.0402 86.1718C77.0669 86.1969 77.0928 86.2225 77.1175 86.2492C77.4474 86.6022 77.6124 87.0398 77.6124 87.5618H77.6112Z" fill="#7E7D7D"/>
<path d="M86.2157 99.4312H86.4281C86.872 98.0185 87.3048 96.617 87.7264 95.2259C88.148 93.8347 88.5732 92.432 89.0016 91.0173H92.7566V93.553H91.1471L87.9504 102.772H84.7122C84.169 101.236 83.629 99.699 83.0927 98.1624C82.5563 96.6258 82.0231 95.0892 81.4939 93.553H79.8848V91.0173H83.6398L86.2157 99.4312Z" fill="#7E7D7D"/>
<path d="M96.7524 98.0496C96.7524 98.3102 96.838 98.5947 97.0098 98.9024C97.1959 99.2275 97.4354 99.5196 97.7179 99.7659C98.0252 100.04 98.3727 100.266 98.748 100.435C99.1314 100.611 99.5486 100.701 99.9706 100.7C100.514 100.7 100.993 100.623 101.408 100.469C101.782 100.336 102.141 100.166 102.482 99.9624C102.821 99.7508 103.132 99.4949 103.404 99.202L104.584 101.277C104.247 101.668 103.848 102.003 103.404 102.268C103.018 102.514 102.539 102.737 101.967 102.937C101.395 103.137 100.729 103.236 99.971 103.234C99.1485 103.242 98.3336 103.077 97.5789 102.75C96.858 102.439 96.2084 101.984 95.6689 101.414C95.1229 100.829 94.6965 100.144 94.4136 99.3969C93.8127 97.7838 93.8127 96.0081 94.4136 94.3946C94.6933 93.653 95.1082 92.9695 95.637 92.3794C96.1447 91.8155 96.7619 91.3604 97.4505 91.042C98.8461 90.3976 100.454 90.3976 101.849 91.042C102.529 91.3544 103.144 91.7924 103.662 92.3327C104.18 92.8755 104.595 93.5079 104.885 94.1997C105.186 94.9066 105.339 95.6674 105.336 96.4353C105.338 96.6361 105.319 96.8366 105.282 97.0338C105.246 97.2191 105.207 97.3881 105.164 97.5419C105.107 97.712 105.057 97.881 105.014 98.0488L96.7524 98.0496ZM99.6494 93.0943C99.2665 93.0907 98.8867 93.1652 98.5336 93.3126C98.2089 93.4473 97.9112 93.6386 97.6538 93.8781C97.4171 94.0997 97.221 94.3611 97.0744 94.65C96.9357 94.917 96.862 95.2127 96.8596 95.5135H102.441C102.439 95.2127 102.365 94.917 102.226 94.65C102.079 94.3611 101.883 94.0997 101.647 93.8781C101.389 93.639 101.091 93.4473 100.767 93.3126C100.413 93.1648 100.033 93.0903 99.6494 93.0943Z" fill="#7E7D7D"/>
<path d="M110.505 86.6403L112.329 91.3648H110.183L107.285 86.6403H110.505Z" fill="#7E7D7D"/>
</g>
<defs>
<clipPath id="clip0_281_2218">
<rect width="159.85" height="103.903" fill="white" transform="translate(0.0761719)"/>
</clipPath>
</defs>
</svg>
