<svg width="70" height="70" viewBox="0 0 70 70" fill="none" xmlns="http://www.w3.org/2000/svg">
<g clip-path="url(#clip0_1596_2656)">
<path d="M8.75016 30.8875V27.7083C8.75016 27.3216 8.59652 26.9506 8.32303 26.6771C8.04954 26.4036 7.6786 26.25 7.29183 26.25C6.90506 26.25 6.53412 26.4036 6.26063 26.6771C5.98714 26.9506 5.8335 27.3216 5.8335 27.7083V39.375C5.8335 39.7618 5.98714 40.1327 6.26063 40.4062C6.53412 40.6797 6.90506 40.8333 7.29183 40.8333C7.6786 40.8333 8.04954 40.6797 8.32303 40.4062C8.59652 40.1327 8.75016 39.7618 8.75016 39.375V35C8.75016 34.6132 8.90381 34.2423 9.1773 33.9688C9.45079 33.6953 9.82172 33.5417 10.2085 33.5417C10.5953 33.5417 10.9662 33.6953 11.2397 33.9688C11.5132 34.2423 11.6668 34.6132 11.6668 35V39.375C11.6668 39.7618 11.8205 40.1327 12.094 40.4062C12.3675 40.6797 12.7384 40.8333 13.1252 40.8333C13.5119 40.8333 13.8829 40.6797 14.1564 40.4062C14.4299 40.1327 14.5835 39.7618 14.5835 39.375V35C14.5815 34.3011 14.4122 33.6129 14.0896 32.9929C13.767 32.3729 13.3006 31.8393 12.7294 31.4366C12.1582 31.0339 11.4988 30.7739 10.8065 30.6783C10.1142 30.5828 9.40907 30.6545 8.75016 30.8875Z" fill="#FD6C03"/>
<path d="M21.8752 33.5417C22.2619 33.5417 22.6329 33.388 22.9064 33.1145C23.1799 32.841 23.3335 32.4701 23.3335 32.0833C23.3335 31.6966 23.1799 31.3256 22.9064 31.0521C22.6329 30.7786 22.2619 30.625 21.8752 30.625H20.4168V27.7083C20.4168 27.3216 20.2632 26.9506 19.9897 26.6771C19.7162 26.4036 19.3453 26.25 18.9585 26.25C18.5717 26.25 18.2008 26.4036 17.9273 26.6771C17.6538 26.9506 17.5002 27.3216 17.5002 27.7083V30.625H16.0418C15.6551 30.625 15.2841 30.7786 15.0106 31.0521C14.7371 31.3256 14.5835 31.6966 14.5835 32.0833C14.5835 32.4701 14.7371 32.841 15.0106 33.1145C15.2841 33.388 15.6551 33.5417 16.0418 33.5417H17.5002V36.4583C17.5002 40.8333 23.3335 42.175 23.3335 39.375C23.3335 38.9882 23.1799 38.6173 22.9064 38.3438C22.6329 38.0703 22.2619 37.9167 21.8752 37.9167C21.4884 37.9167 21.1175 37.763 20.844 37.4895C20.5705 37.216 20.4168 36.8451 20.4168 36.4583V33.5417H21.8752Z" fill="#FD6C03"/>
<path d="M32.0832 33.5417C32.4699 33.5417 32.8409 33.388 33.1144 33.1145C33.3879 32.841 33.5415 32.4701 33.5415 32.0833C33.5415 31.6966 33.3879 31.3256 33.1144 31.0521C32.8409 30.7786 32.4699 30.625 32.0832 30.625H30.6248V27.7083C30.6248 27.3216 30.4712 26.9506 30.1977 26.6771C29.9242 26.4036 29.5533 26.25 29.1665 26.25C28.7797 26.25 28.4088 26.4036 28.1353 26.6771C27.8618 26.9506 27.7082 27.3216 27.7082 27.7083V30.625H26.2498C25.8631 30.625 25.4921 30.7786 25.2186 31.0521C24.9451 31.3256 24.7915 31.6966 24.7915 32.0833C24.7915 32.4701 24.9451 32.841 25.2186 33.1145C25.4921 33.388 25.8631 33.5417 26.2498 33.5417H27.7082V36.4583C27.7082 40.8333 33.5415 42.175 33.5415 39.375C33.5415 38.9882 33.3879 38.6173 33.1144 38.3438C32.8409 38.0703 32.4699 37.9167 32.0832 37.9167C31.6964 37.9167 31.3255 37.763 31.052 37.4895C30.7785 37.216 30.6248 36.8451 30.6248 36.4583V33.5417H32.0832Z" fill="#FD6C03"/>
<path d="M39.375 30.625H36.4583C36.0716 30.625 35.7006 30.7786 35.4271 31.0521C35.1536 31.3256 35 31.6966 35 32.0833V42.2917C35 42.6784 35.1536 43.0494 35.4271 43.3229C35.7006 43.5964 36.0716 43.75 36.4583 43.75C36.8451 43.75 37.216 43.5964 37.4895 43.3229C37.763 43.0494 37.9167 42.6784 37.9167 42.2917V39.375H39.375C40.5353 39.375 41.6481 38.9141 42.4686 38.0936C43.2891 37.2731 43.75 36.1603 43.75 35C43.75 33.8397 43.2891 32.7269 42.4686 31.9064C41.6481 31.0859 40.5353 30.625 39.375 30.625ZM39.375 36.4583H37.9167V33.5417H39.375C39.7618 33.5417 40.1327 33.6953 40.4062 33.9688C40.6797 34.2423 40.8333 34.6132 40.8333 35C40.8333 35.3868 40.6797 35.7577 40.4062 36.0312C40.1327 36.3047 39.7618 36.4583 39.375 36.4583Z" fill="#FD6C03"/>
<path d="M47.5709 30.7416C47.3078 30.8537 47.0835 31.0406 46.9258 31.2792C46.7681 31.5177 46.6841 31.7974 46.6841 32.0833C46.6841 32.3693 46.7681 32.6489 46.9258 32.8874C47.0835 33.126 47.3078 33.3129 47.5709 33.425C47.7905 33.5152 48.0289 33.5504 48.2653 33.5275C48.5016 33.5046 48.7288 33.4244 48.9271 33.2937C49.2135 33.0877 49.4154 32.7849 49.4956 32.4414C49.5758 32.0979 49.5288 31.737 49.3633 31.4255C49.1977 31.114 48.9249 30.8731 48.5954 30.7474C48.2658 30.6216 47.9018 30.6196 47.5709 30.7416Z" fill="#FD6C03"/>
<path d="M49.1606 36.8812C48.9219 36.6435 48.6081 36.4957 48.2728 36.4631C47.9374 36.4305 47.6011 36.5151 47.321 36.7024C47.0409 36.8897 46.8343 37.1682 46.7364 37.4906C46.6384 37.8129 46.6551 38.1593 46.7836 38.4708C47.6586 40.6 50.7211 38.6166 49.1606 36.8812Z" fill="#FD6C03"/>
<path d="M55.4166 28.8166L52.4999 40.4833C52.4236 40.8525 52.4932 41.2369 52.6942 41.5559C52.8952 41.8748 53.2118 42.1036 53.5778 42.1941C53.9438 42.2847 54.3306 42.23 54.6571 42.0415C54.9836 41.8531 55.2244 41.5455 55.3291 41.1833L58.2457 29.5166C58.3221 29.1474 58.2524 28.763 58.0515 28.4441C57.8505 28.1251 57.5338 27.8964 57.1679 27.8058C56.8019 27.7153 56.4151 27.77 56.0886 27.9584C55.7621 28.1469 55.5212 28.4545 55.4166 28.8166Z" fill="#FD6C03"/>
<path d="M61.2501 28.8166L58.3334 40.4833C58.2571 40.8525 58.3267 41.2369 58.5277 41.5559C58.7287 41.8748 59.0453 42.1036 59.4113 42.1941C59.7773 42.2847 60.1641 42.23 60.4906 42.0415C60.8171 41.8531 61.0579 41.5455 61.1626 41.1833L64.0792 29.5166C64.1555 29.1474 64.0859 28.763 63.885 28.4441C63.684 28.1251 63.3673 27.8964 63.0014 27.8058C62.6354 27.7153 62.2486 27.77 61.9221 27.9584C61.5956 28.1469 61.3547 28.4545 61.2501 28.8166Z" fill="#FD6C03"/>
<path d="M65.625 20.4166H63.5688C51.7417 -2.75627 18.4333 -3.09169 6.43125 20.4166H4.375C3.21468 20.4166 2.10188 20.8776 1.28141 21.6981C0.460936 22.5185 0 23.6313 0 24.7916L0 45.2083C0 46.3686 0.460936 47.4814 1.28141 48.3019C2.10188 49.1224 3.21468 49.5833 4.375 49.5833H6.43125C18.4771 73.1791 51.7854 72.6541 63.5688 49.5833H65.625C66.7853 49.5833 67.8981 49.1224 68.7186 48.3019C69.5391 47.4814 70 46.3686 70 45.2083V24.7916C70 23.6313 69.5391 22.5185 68.7186 21.6981C67.8981 20.8776 66.7853 20.4166 65.625 20.4166ZM60.2583 20.4166H50.6188C50.0764 18.3906 49.3742 16.4108 48.5188 14.4958C50.0414 13.7772 51.5043 12.9384 52.8938 11.9875C55.867 14.2983 58.3674 17.1602 60.2583 20.4166ZM22.3417 20.4166C22.8247 18.7759 23.4142 17.1683 24.1063 15.6041C27.1368 16.7117 30.3185 17.351 33.5417 17.5V20.4166H22.3417ZM43.75 7.18956C46.0793 7.91436 48.3086 8.92853 50.3854 10.2083C49.3622 10.8426 48.3004 11.4125 47.2062 11.9146C46.2571 10.2007 45.0959 8.61322 43.75 7.18956ZM44.4208 13.0229C41.8546 13.9198 39.1733 14.4452 36.4583 14.5833V5.97914C39.375 6.60623 42.2917 9.12914 44.4792 12.9937L44.4208 13.0229ZM33.5417 5.97914V14.5833C30.8085 14.4602 28.1072 13.9445 25.5208 13.0521C27.7083 9.12914 30.625 6.60623 33.5417 5.97914ZM22.7938 11.9C21.7047 11.4026 20.6477 10.8376 19.6292 10.2083C21.6809 8.96545 23.8808 7.98554 26.1771 7.29164C24.863 8.68183 23.7265 10.2298 22.7938 11.9ZM36.4583 17.5C39.6588 17.3638 42.8203 16.7443 45.8354 15.6625C46.5252 17.2076 47.1146 18.7957 47.6 20.4166H36.4583V17.5ZM17.0625 11.9875C18.4516 12.939 19.9146 13.7777 21.4375 14.4958C20.5969 16.4121 19.9094 18.3919 19.3813 20.4166H9.74167C11.6164 17.1617 14.1022 14.2996 17.0625 11.9875ZM9.74167 49.5833H19.3813C19.9236 51.6094 20.6258 53.5892 21.4813 55.5041C19.9586 56.2228 18.4957 57.0615 17.1062 58.0125C14.133 55.7016 11.6326 52.8398 9.74167 49.5833ZM47.6583 49.5833C47.1753 51.2241 46.5858 52.8317 45.8937 54.3958C42.8632 53.2883 39.6815 52.649 36.4583 52.5V49.5833H47.6583ZM26.25 62.8104C23.9207 62.0856 21.6914 61.0714 19.6146 59.7916C20.6378 59.1573 21.6996 58.5875 22.7938 58.0854C23.7429 59.7992 24.9041 61.3867 26.25 62.8104ZM25.5792 56.9771C28.1454 56.0802 30.8267 55.5547 33.5417 55.4166V64.0208C30.625 63.3937 27.7083 60.8708 25.5208 57.0062L25.5792 56.9771ZM36.4583 64.0208V55.4166C39.1915 55.5398 41.8928 56.0555 44.4792 56.9479C42.2917 60.8708 39.375 63.3937 36.4583 64.0208ZM47.2062 58.1C48.2953 58.5974 49.3523 59.1624 50.3708 59.7916C48.3228 61.0598 46.1227 62.0643 43.8229 62.7812C45.142 61.3684 46.2786 59.7957 47.2062 58.1ZM33.5417 52.5C30.3412 52.6361 27.1797 53.2556 24.1646 54.3375C23.4748 52.7923 22.8854 51.2043 22.4 49.5833H33.5417V52.5ZM52.9375 57.9541C51.5484 57.0027 50.0854 56.1639 48.5625 55.4458C49.4002 53.5484 50.0877 51.5882 50.6188 49.5833H60.2583C58.3836 52.8382 55.8978 55.7004 52.9375 58.0125V57.9541ZM67.0833 45.2083C67.0833 45.5951 66.9297 45.966 66.6562 46.2395C66.3827 46.513 66.0118 46.6666 65.625 46.6666H4.375C3.98823 46.6666 3.61729 46.513 3.3438 46.2395C3.07031 45.966 2.91667 45.5951 2.91667 45.2083V24.7916C2.91667 24.4049 3.07031 24.0339 3.3438 23.7604C3.61729 23.487 3.98823 23.3333 4.375 23.3333H65.625C66.0118 23.3333 66.3827 23.487 66.6562 23.7604C66.9297 24.0339 67.0833 24.4049 67.0833 24.7916V45.2083Z" fill="#FD6C03"/>
</g>
<defs>
<clipPath id="clip0_1596_2656">
<rect width="70" height="70" fill="white"/>
</clipPath>
</defs>
</svg>
