<svg width="70" height="70" viewBox="0 0 70 70" fill="none" xmlns="http://www.w3.org/2000/svg">
<g clip-path="url(#clip0_1596_2631)">
<path d="M31.5815 11.2109C31.5815 11.9661 30.9695 12.5781 30.2144 12.5781C29.4592 12.5781 28.8472 11.9661 28.8472 11.2109C28.8472 10.4558 29.4592 9.84375 30.2144 9.84375C30.9695 9.84375 31.5815 10.4558 31.5815 11.2109Z" fill="#FD6C03"/>
<path d="M0.13623 39.9219C0.13623 56.5071 13.6292 70 30.2144 70C46.7995 70 60.2925 56.5071 60.2925 39.9219C60.2925 32.3554 57.5053 25.2102 52.4173 19.6523L52.9289 19.1406H60.566C60.9286 19.1406 61.2762 18.9964 61.5326 18.7401L69.7357 10.537C70.1267 10.146 70.2436 9.55804 70.0321 9.04695C69.8206 8.53639 69.3218 8.20314 68.7691 8.20314H61.9331V1.3672C61.9331 0.814447 61.5999 0.315637 61.0888 0.10415C60.5782 -0.107337 59.9902 0.00962132 59.5993 0.400552L51.3962 8.60368C51.1398 8.86003 50.9956 9.2077 50.9956 9.57033V17.2068L50.4835 17.719C46.564 14.1344 41.7992 11.6585 36.6231 10.5311C35.885 10.3703 35.1565 10.8382 34.9963 11.5757C34.8356 12.3138 35.3034 13.0422 36.0409 13.2025C40.7049 14.2188 45.0014 16.4394 48.5486 19.6544L44.6788 23.5242C40.6771 19.9829 35.5923 18.0469 30.2144 18.0469C18.1521 18.0469 8.33936 27.8602 8.33936 39.9219C8.33936 51.9836 18.1521 61.7969 30.2144 61.7969C42.2761 61.7969 52.0894 51.9836 52.0894 39.9219C52.0894 34.5439 50.1534 29.4592 46.6121 25.4575L50.4824 21.5872C55.0555 26.6271 57.5581 33.086 57.5581 39.9219C57.5581 54.9994 45.2914 67.2657 30.2144 67.2657C15.1368 67.2657 2.87061 54.9994 2.87061 39.9219C2.87061 27.1558 11.9197 15.9187 24.3878 13.2025C25.1253 13.0417 25.5932 12.3138 25.4324 11.5757C25.2717 10.8382 24.5437 10.3703 23.8057 10.5311C10.3042 13.4722 0.13623 25.529 0.13623 39.9219ZM53.73 10.137L59.1988 4.66821V9.57033C59.1988 10.3255 59.8108 10.9375 60.566 10.9375H65.4681L59.9993 16.4063H53.73V10.137ZM49.355 39.9219C49.355 50.476 40.7684 59.0625 30.2144 59.0625C19.6603 59.0625 11.0737 50.476 11.0737 39.9219C11.0737 29.3679 19.6603 20.7813 30.2144 20.7813C34.8617 20.7813 39.2597 22.4342 42.7418 25.4612L38.864 29.339C36.4276 27.3379 33.4038 26.25 30.2144 26.25C22.6756 26.25 16.5425 32.3831 16.5425 39.9219C16.5425 47.4607 22.6756 53.5938 30.2144 53.5938C37.7531 53.5938 43.8863 47.4607 43.8863 39.9219C43.8863 36.7325 42.7978 33.7081 40.7973 31.2723L44.6751 27.3945C47.7021 30.8766 49.355 35.2751 49.355 39.9219ZM32.9487 39.9219C32.9487 41.4296 31.722 42.6563 30.2144 42.6563C28.7067 42.6563 27.48 41.4296 27.48 39.9219C27.48 38.4143 28.7067 37.1875 30.2144 37.1875C30.9439 37.1875 31.6307 37.4722 32.1471 37.9886C32.6641 38.5056 32.9487 39.1924 32.9487 39.9219ZM32.9925 35.2099C32.1594 34.717 31.2072 34.4532 30.2144 34.4532C27.1985 34.4532 24.7456 36.9066 24.7456 39.9219C24.7456 42.9372 27.1985 45.3907 30.2144 45.3907C33.2297 45.3907 35.6831 42.9372 35.6831 39.9219C35.6831 38.9291 35.4193 37.9769 34.9258 37.1437L38.8496 33.22C40.3406 35.1309 41.1519 37.4642 41.1519 39.9219C41.1519 45.953 36.245 50.8594 30.2144 50.8594C24.1833 50.8594 19.2769 45.953 19.2769 39.9219C19.2769 33.8908 24.1833 28.9844 30.2144 28.9844C32.6716 28.9844 35.0054 29.7951 36.9163 31.2867L32.9925 35.2099Z" fill="#FD6C03"/>
</g>
<defs>
<clipPath id="clip0_1596_2631">
<rect width="70" height="70" fill="white"/>
</clipPath>
</defs>
</svg>
